G04 Layer_Physical_Order=1*
G04 Layer_Color=255*
%FSLAX25Y25*%
%MOIN*%
G70*
G01*
G75*
%ADD10R,0.03150X0.05906*%
%ADD11O,0.02362X0.06299*%
%ADD12R,0.02362X0.06299*%
%ADD13C,0.01969*%
%ADD14C,0.02953*%
%ADD15C,0.02362*%
%ADD16O,0.06299X0.07874*%
%ADD17R,0.06299X0.07874*%
%ADD18C,0.09937*%
G36*
X58000Y1000D02*
X1000D01*
Y78000D01*
X58000D01*
Y1000D01*
D02*
G37*
%LPC*%
G36*
X13822Y19185D02*
X8374D01*
Y13737D01*
X9044Y13803D01*
X10169Y14144D01*
X11206Y14698D01*
X12115Y15444D01*
X12861Y16353D01*
X13415Y17390D01*
X13756Y18515D01*
X13822Y19185D01*
D02*
G37*
G36*
X7374D02*
X1926D01*
X1992Y18515D01*
X2333Y17390D01*
X2887Y16353D01*
X3633Y15444D01*
X4542Y14698D01*
X5579Y14144D01*
X6704Y13803D01*
X7374Y13737D01*
Y19185D01*
D02*
G37*
G36*
Y25633D02*
X6704Y25567D01*
X5579Y25226D01*
X4542Y24672D01*
X3633Y23926D01*
X2887Y23017D01*
X2333Y21980D01*
X1992Y20855D01*
X1926Y20185D01*
X7374D01*
Y25633D01*
D02*
G37*
G36*
X20000Y38145D02*
X19178Y38037D01*
X18412Y37720D01*
X17754Y37215D01*
X17249Y36557D01*
X16931Y35791D01*
X16823Y34969D01*
Y31032D01*
X16931Y30209D01*
X17249Y29443D01*
X17754Y28785D01*
X18228Y28421D01*
X18058Y27921D01*
X17323D01*
Y24304D01*
X16991Y23871D01*
X16644Y23033D01*
X16525Y22134D01*
Y15905D01*
X14882D01*
Y4095D01*
X25118D01*
Y15905D01*
X23475D01*
Y18079D01*
X24409D01*
Y22859D01*
X24871Y23051D01*
X25591Y22331D01*
Y18079D01*
X32677D01*
Y27921D01*
X28425D01*
X27995Y28350D01*
X28019Y28850D01*
X29500D01*
Y33000D01*
Y37150D01*
X27819D01*
Y35500D01*
X27562Y35237D01*
X27106Y35106D01*
X26489Y35579D01*
X25771Y35877D01*
X25000Y35978D01*
X22991D01*
X22751Y36557D01*
X22246Y37215D01*
X21588Y37720D01*
X20822Y38037D01*
X20000Y38145D01*
D02*
G37*
G36*
X29500Y9500D02*
X25815D01*
Y9213D01*
X25957Y8129D01*
X26375Y7120D01*
X27040Y6253D01*
X27907Y5588D01*
X28917Y5170D01*
X29500Y5093D01*
Y9500D01*
D02*
G37*
G36*
X50000Y75950D02*
X48664Y75774D01*
X47419Y75258D01*
X46350Y74438D01*
X45529Y73369D01*
X45014Y72123D01*
X44838Y70787D01*
Y69213D01*
X45014Y67876D01*
X45529Y66632D01*
X46350Y65562D01*
X46823Y65199D01*
Y14801D01*
X46350Y14438D01*
X45529Y13368D01*
X45014Y12123D01*
X44838Y10787D01*
Y9213D01*
X45014Y7876D01*
X45529Y6632D01*
X46350Y5562D01*
X47419Y4742D01*
X48664Y4226D01*
X50000Y4050D01*
X51336Y4226D01*
X52581Y4742D01*
X53650Y5562D01*
X54471Y6632D01*
X54986Y7876D01*
X55162Y9213D01*
Y10787D01*
X54986Y12123D01*
X54471Y13368D01*
X53650Y14438D01*
X53177Y14801D01*
Y65199D01*
X53650Y65562D01*
X54471Y66632D01*
X54986Y67876D01*
X55162Y69213D01*
Y70787D01*
X54986Y72123D01*
X54471Y73369D01*
X53650Y74438D01*
X52581Y75258D01*
X51336Y75774D01*
X50000Y75950D01*
D02*
G37*
G36*
X29500Y14907D02*
X28917Y14830D01*
X27907Y14412D01*
X27040Y13747D01*
X26375Y12880D01*
X25957Y11871D01*
X25815Y10787D01*
Y10500D01*
X29500D01*
Y14907D01*
D02*
G37*
G36*
X44185Y9500D02*
X40500D01*
Y5093D01*
X41083Y5170D01*
X42093Y5588D01*
X42959Y6253D01*
X43625Y7120D01*
X44043Y8129D01*
X44185Y9213D01*
Y9500D01*
D02*
G37*
G36*
X39500Y74907D02*
X38917Y74830D01*
X37907Y74412D01*
X37040Y73747D01*
X36375Y72880D01*
X35957Y71871D01*
X35815Y70787D01*
Y70500D01*
X39500D01*
Y74907D01*
D02*
G37*
G36*
X8374Y65003D02*
Y59555D01*
X13822D01*
X13756Y60225D01*
X13415Y61350D01*
X12861Y62387D01*
X12115Y63296D01*
X11206Y64042D01*
X10169Y64596D01*
X9044Y64937D01*
X8374Y65003D01*
D02*
G37*
G36*
X30000Y75950D02*
X28664Y75774D01*
X27419Y75258D01*
X26350Y74438D01*
X25618Y73484D01*
X25118Y73619D01*
Y75906D01*
X14882D01*
Y64095D01*
X17022D01*
Y60118D01*
X16850D01*
Y49882D01*
X23150D01*
Y60118D01*
X22978D01*
Y64095D01*
X25118D01*
Y66382D01*
X25618Y66516D01*
X26350Y65562D01*
X26522Y65430D01*
Y60067D01*
X26350D01*
Y49831D01*
X32650D01*
Y60067D01*
X32478D01*
Y64699D01*
X32581Y64742D01*
X33650Y65562D01*
X34471Y66632D01*
X34986Y67876D01*
X35162Y69213D01*
Y70787D01*
X34986Y72123D01*
X34471Y73369D01*
X33650Y74438D01*
X32581Y75258D01*
X31336Y75774D01*
X30000Y75950D01*
D02*
G37*
G36*
X40500Y74907D02*
Y70500D01*
X44185D01*
Y70787D01*
X44043Y71871D01*
X43625Y72880D01*
X42959Y73747D01*
X42093Y74412D01*
X41083Y74830D01*
X40500Y74907D01*
D02*
G37*
G36*
X7374Y65003D02*
X6704Y64937D01*
X5579Y64596D01*
X4542Y64042D01*
X3633Y63296D01*
X2887Y62387D01*
X2333Y61350D01*
X1992Y60225D01*
X1926Y59555D01*
X7374D01*
Y65003D01*
D02*
G37*
G36*
X44185Y69500D02*
X35815D01*
Y69213D01*
X35957Y68129D01*
X36375Y67120D01*
X36823Y66536D01*
Y36177D01*
X32181D01*
Y37150D01*
X30500D01*
Y33000D01*
Y28850D01*
X32181D01*
Y29823D01*
X36823D01*
Y13464D01*
X36603Y13177D01*
X33397D01*
X32959Y13747D01*
X32093Y14412D01*
X31083Y14830D01*
X30500Y14907D01*
Y10000D01*
Y5093D01*
X31083Y5170D01*
X32093Y5588D01*
X32959Y6253D01*
X33397Y6823D01*
X36603D01*
X37040Y6253D01*
X37907Y5588D01*
X38917Y5170D01*
X39500Y5093D01*
Y10000D01*
X40000D01*
Y10500D01*
X44185D01*
Y10787D01*
X44043Y11871D01*
X43625Y12880D01*
X43177Y13464D01*
Y33000D01*
Y66536D01*
X43625Y67120D01*
X44043Y68129D01*
X44185Y69213D01*
Y69500D01*
D02*
G37*
G36*
X8374Y25633D02*
Y20185D01*
X13822D01*
X13756Y20855D01*
X13415Y21980D01*
X12861Y23017D01*
X12115Y23926D01*
X11206Y24672D01*
X10169Y25226D01*
X9044Y25567D01*
X8374Y25633D01*
D02*
G37*
G36*
X13822Y58555D02*
X8374D01*
Y53107D01*
X9044Y53173D01*
X10169Y53514D01*
X11206Y54068D01*
X12115Y54814D01*
X12861Y55723D01*
X13415Y56760D01*
X13756Y57885D01*
X13822Y58555D01*
D02*
G37*
G36*
X7374D02*
X1926D01*
X1992Y57885D01*
X2333Y56760D01*
X2887Y55723D01*
X3633Y54814D01*
X4542Y54068D01*
X5579Y53514D01*
X6704Y53173D01*
X7374Y53107D01*
Y58555D01*
D02*
G37*
%LPD*%
D10*
X20866Y23000D02*
D03*
X29134D02*
D03*
D11*
X20000Y33000D02*
D03*
D12*
X30000D02*
D03*
X20000Y55000D02*
D03*
X29500Y54949D02*
D03*
D13*
X20000Y33000D02*
X25000D01*
Y27134D02*
Y33000D01*
Y27134D02*
X29134Y23000D01*
X20000Y55000D02*
Y70000D01*
X29500Y54949D02*
Y69500D01*
D14*
X20000Y10000D02*
Y22134D01*
D15*
X40000Y33000D02*
Y70000D01*
Y10000D02*
Y33000D01*
X30000D02*
X40000D01*
X30000Y10000D02*
X40000D01*
X50000D02*
Y70000D01*
D16*
X30000Y10000D02*
D03*
X40000D02*
D03*
X50000D02*
D03*
X30000Y70000D02*
D03*
X40000D02*
D03*
X50000D02*
D03*
D17*
X20000Y10000D02*
D03*
Y70000D02*
D03*
D18*
X7874Y59055D02*
D03*
Y19685D02*
D03*
M02*
