G04 Layer_Color=65535*
%FSLAX25Y25*%
%MOIN*%
G70*
G01*
G75*
%ADD19C,0.00984*%
%ADD20C,0.00787*%
%ADD21C,0.01000*%
D19*
X16492Y35000D02*
G03*
X16492Y35000I-492J0D01*
G01*
D20*
X18406Y26839D02*
X31594D01*
Y19161D02*
Y26839D01*
X18406Y19161D02*
X31594D01*
X18406D02*
Y26839D01*
X24114Y23394D02*
X25984D01*
Y22409D02*
Y23394D01*
X24114Y22409D02*
X25984D01*
X24114D02*
Y23394D01*
X23228Y22902D02*
X23819D01*
X26280D02*
X26772D01*
X18000Y38000D02*
X32000D01*
Y50000D01*
X18000D02*
X32000D01*
X18000Y38000D02*
Y50000D01*
X34000Y22000D02*
X34787D01*
X34394D01*
Y24361D01*
X34000Y23968D01*
X35968Y22000D02*
Y24361D01*
Y22787D02*
X37149Y23574D01*
X35968Y22787D02*
X37149Y22000D01*
X35574Y55968D02*
X35181Y56361D01*
X34394D01*
X34000Y55968D01*
Y54394D01*
X34394Y54000D01*
X35181D01*
X35574Y54394D01*
X36361Y54000D02*
Y56361D01*
X37542D01*
X37936Y55968D01*
Y55181D01*
X37542Y54787D01*
X36361D01*
X40297Y55968D02*
X39904Y56361D01*
X39116D01*
X38723Y55968D01*
Y54394D01*
X39116Y54000D01*
X39904D01*
X40297Y54394D01*
X41084Y54000D02*
X41872D01*
X41478D01*
Y56361D01*
X41084Y55968D01*
X43052D02*
X43446Y56361D01*
X44233D01*
X44627Y55968D01*
Y54394D01*
X44233Y54000D01*
X43446D01*
X43052Y54394D01*
Y55968D01*
X45414D02*
X45807Y56361D01*
X46594D01*
X46988Y55968D01*
Y54394D01*
X46594Y54000D01*
X45807D01*
X45414Y54394D01*
Y55968D01*
X47775D02*
X48169Y56361D01*
X48956D01*
X49349Y55968D01*
Y55574D01*
X48956Y55181D01*
X49349Y54787D01*
Y54394D01*
X48956Y54000D01*
X48169D01*
X47775Y54394D01*
Y54787D01*
X48169Y55181D01*
X47775Y55574D01*
Y55968D01*
X48169Y55181D02*
X48956D01*
D21*
X25000Y5000D02*
Y7500D01*
X15000Y5000D02*
X25000D01*
X15000D02*
Y15000D01*
X25000D01*
Y12500D02*
Y15000D01*
Y7500D02*
X27500Y5000D01*
X32500D01*
X35000Y7500D01*
X37500Y5000D01*
X42500D01*
X45000Y7500D01*
X42500Y15000D02*
X45000Y12500D01*
X37500Y15000D02*
X42500D01*
X35000Y12500D02*
X37500Y15000D01*
X32500D02*
X35000Y12500D01*
X27500Y15000D02*
X32500D01*
X25000Y12500D02*
X27500Y15000D01*
X45000Y12500D02*
X47500Y15000D01*
X52500D01*
X55000Y12500D01*
Y7500D02*
Y12500D01*
X52500Y5000D02*
X55000Y7500D01*
X47500Y5000D02*
X52500D01*
X45000Y7500D02*
X47500Y5000D01*
X25000Y65000D02*
Y67500D01*
X15000Y65000D02*
X25000D01*
X15000D02*
Y75000D01*
X25000D01*
Y72500D02*
Y75000D01*
Y67500D02*
X27500Y65000D01*
X32500D01*
X35000Y67500D01*
X37500Y65000D01*
X42500D01*
X45000Y67500D01*
X42500Y75000D02*
X45000Y72500D01*
X37500Y75000D02*
X42500D01*
X35000Y72500D02*
X37500Y75000D01*
X32500D02*
X35000Y72500D01*
X27500Y75000D02*
X32500D01*
X25000Y72500D02*
X27500Y75000D01*
X45000Y72500D02*
X47500Y75000D01*
X52500D01*
X55000Y72500D01*
Y67500D02*
Y72500D01*
X52500Y65000D02*
X55000Y67500D01*
X47500Y65000D02*
X52500D01*
X45000Y67500D02*
X47500Y65000D01*
M02*
