G04 Layer_Color=65535*
%FSLAX25Y25*%
%MOIN*%
G70*
G01*
G75*
%ADD19C,0.00984*%
%ADD20C,0.01000*%
%ADD21C,0.00787*%
D19*
X16492Y35000D02*
G03*
X16492Y35000I-492J0D01*
G01*
D20*
X45000Y67500D02*
X47500Y65000D01*
X52500D01*
X55000Y67500D01*
Y72500D01*
X52500Y75000D02*
X55000Y72500D01*
X47500Y75000D02*
X52500D01*
X45000Y72500D02*
X47500Y75000D01*
X25000Y72500D02*
X27500Y75000D01*
X32500D01*
X35000Y72500D01*
X37500Y75000D01*
X42500D01*
X45000Y72500D01*
X42500Y65000D02*
X45000Y67500D01*
X37500Y65000D02*
X42500D01*
X35000Y67500D02*
X37500Y65000D01*
X32500D02*
X35000Y67500D01*
X27500Y65000D02*
X32500D01*
X25000Y67500D02*
X27500Y65000D01*
X25000Y72500D02*
Y75000D01*
X15000D02*
X25000D01*
X15000Y65000D02*
Y75000D01*
Y65000D02*
X25000D01*
Y67500D01*
X45000Y7500D02*
X47500Y5000D01*
X52500D01*
X55000Y7500D01*
Y12500D01*
X52500Y15000D02*
X55000Y12500D01*
X47500Y15000D02*
X52500D01*
X45000Y12500D02*
X47500Y15000D01*
X25000Y12500D02*
X27500Y15000D01*
X32500D01*
X35000Y12500D01*
X37500Y15000D01*
X42500D01*
X45000Y12500D01*
X42500Y5000D02*
X45000Y7500D01*
X37500Y5000D02*
X42500D01*
X35000Y7500D02*
X37500Y5000D01*
X32500D02*
X35000Y7500D01*
X27500Y5000D02*
X32500D01*
X25000Y7500D02*
X27500Y5000D01*
X25000Y12500D02*
Y15000D01*
X15000D02*
X25000D01*
X15000Y5000D02*
Y15000D01*
Y5000D02*
X25000D01*
Y7500D01*
X38099Y62624D02*
X37574Y63149D01*
X36525D01*
X36000Y62624D01*
Y60525D01*
X36525Y60000D01*
X37574D01*
X38099Y60525D01*
Y61574D01*
X37049D01*
X39149Y60000D02*
Y63149D01*
X41248Y60000D01*
Y63149D01*
X42297D02*
Y60000D01*
X43872D01*
X44396Y60525D01*
Y62624D01*
X43872Y63149D01*
X42297D01*
X46000Y61574D02*
X48099D01*
X47049Y62624D02*
Y60525D01*
X51248Y63149D02*
X49149D01*
Y61574D01*
X50198Y62099D01*
X50723D01*
X51248Y61574D01*
Y60525D01*
X50723Y60000D01*
X49673D01*
X49149Y60525D01*
X52297Y63149D02*
Y61049D01*
X53347Y60000D01*
X54396Y61049D01*
Y63149D01*
X18000D02*
Y60000D01*
Y61049D01*
X20099Y63149D01*
X18525Y61574D01*
X20099Y60000D01*
X21149D02*
X22198D01*
X21673D01*
Y63149D01*
X21149Y62624D01*
X27000Y63149D02*
Y60000D01*
Y61049D01*
X29099Y63149D01*
X27525Y61574D01*
X29099Y60000D01*
X32248D02*
X30149D01*
X32248Y62099D01*
Y62624D01*
X31723Y63149D01*
X30673D01*
X30149Y62624D01*
X4574Y73149D02*
X3525D01*
X3000Y72624D01*
Y70525D01*
X3525Y70000D01*
X4574D01*
X5099Y70525D01*
Y72624D01*
X4574Y73149D01*
X6149D02*
Y70525D01*
X6673Y70000D01*
X7723D01*
X8248Y70525D01*
Y73149D01*
X9297D02*
X11396D01*
X10347D01*
Y70000D01*
X6000Y10149D02*
X7050D01*
X6525D01*
Y7000D01*
X6000D01*
X7050D01*
X8624D02*
Y10149D01*
X10723Y7000D01*
Y10149D01*
D21*
X18000Y38000D02*
Y50000D01*
X32000D01*
Y38000D02*
Y50000D01*
X18000Y38000D02*
X32000D01*
X26280Y22902D02*
X26772D01*
X23228D02*
X23819D01*
X24114Y22409D02*
Y23394D01*
Y22409D02*
X25984D01*
Y23394D01*
X24114D02*
X25984D01*
X18406Y19161D02*
Y26839D01*
Y19161D02*
X31594D01*
Y26839D01*
X18406D02*
X31594D01*
X37574Y44968D02*
X37181Y45361D01*
X36394D01*
X36000Y44968D01*
Y43394D01*
X36394Y43000D01*
X37181D01*
X37574Y43394D01*
X38361Y43000D02*
Y45361D01*
X39542D01*
X39936Y44968D01*
Y44181D01*
X39542Y43787D01*
X38361D01*
X42297Y44968D02*
X41904Y45361D01*
X41116D01*
X40723Y44968D01*
Y43394D01*
X41116Y43000D01*
X41904D01*
X42297Y43394D01*
X43084Y43000D02*
X43872D01*
X43478D01*
Y45361D01*
X43084Y44968D01*
X45052D02*
X45446Y45361D01*
X46233D01*
X46626Y44968D01*
Y43394D01*
X46233Y43000D01*
X45446D01*
X45052Y43394D01*
Y44968D01*
X47414D02*
X47807Y45361D01*
X48594D01*
X48988Y44968D01*
Y43394D01*
X48594Y43000D01*
X47807D01*
X47414Y43394D01*
Y44968D01*
X49775D02*
X50169Y45361D01*
X50956D01*
X51349Y44968D01*
Y44574D01*
X50956Y44181D01*
X51349Y43787D01*
Y43394D01*
X50956Y43000D01*
X50169D01*
X49775Y43394D01*
Y43787D01*
X50169Y44181D01*
X49775Y44574D01*
Y44968D01*
X50169Y44181D02*
X50956D01*
X34000Y22000D02*
X34787D01*
X34394D01*
Y24361D01*
X34000Y23968D01*
X35968Y22000D02*
Y24361D01*
Y22787D02*
X37149Y23574D01*
X35968Y22787D02*
X37149Y22000D01*
M02*
