G04 Layer_Physical_Order=2*
G04 Layer_Color=16711680*
%FSLAX25Y25*%
%MOIN*%
G70*
G01*
G75*
G04:AMPARAMS|DCode=10|XSize=61.81mil|YSize=314.96mil|CornerRadius=15.45mil|HoleSize=0mil|Usage=FLASHONLY|Rotation=90.000|XOffset=0mil|YOffset=0mil|HoleType=Round|Shape=RoundedRectangle|*
%AMROUNDEDRECTD10*
21,1,0.06181,0.28406,0,0,90.0*
21,1,0.03091,0.31496,0,0,90.0*
1,1,0.03091,0.14203,0.01545*
1,1,0.03091,0.14203,-0.01545*
1,1,0.03091,-0.14203,-0.01545*
1,1,0.03091,-0.14203,0.01545*
%
%ADD10ROUNDEDRECTD10*%
%ADD11C,0.01575*%
%ADD12C,0.03937*%
%ADD13C,0.06000*%
%ADD14R,0.06000X0.06000*%
%ADD15C,0.06654*%
%ADD16R,0.06654X0.06654*%
%ADD17C,0.18740*%
%ADD18C,0.05906*%
%ADD19R,0.05906X0.05906*%
%ADD20R,0.06000X0.06000*%
%ADD21C,0.03937*%
G36*
X241328Y196705D02*
X241160Y196297D01*
X240989Y195000D01*
X241160Y193703D01*
X241500Y192880D01*
X241166Y192380D01*
X232112D01*
X231393Y192285D01*
X230722Y192007D01*
X230146Y191566D01*
X221786Y183205D01*
X221084D01*
X220807Y183621D01*
X220841Y183703D01*
X221011Y185000D01*
X220841Y186297D01*
X220489Y187146D01*
X220518Y187275D01*
X220812Y187673D01*
X221320Y187740D01*
X221990Y188018D01*
X222566Y188460D01*
X223007Y189035D01*
X223285Y189706D01*
X223380Y190425D01*
Y193149D01*
X227351Y197120D01*
X241051D01*
X241328Y196705D01*
D02*
G37*
G36*
X271204Y186405D02*
X271160Y186297D01*
X270989Y185000D01*
X271160Y183703D01*
X271504Y182870D01*
X271486Y182785D01*
X271166Y182380D01*
X250834D01*
X250500Y182880D01*
X250841Y183703D01*
X251011Y185000D01*
X250841Y186297D01*
X250796Y186405D01*
X251074Y186820D01*
X270926D01*
X271204Y186405D01*
D02*
G37*
G36*
X351309Y106509D02*
X351885Y106067D01*
X352555Y105789D01*
X353274Y105695D01*
X362019D01*
X362240Y105246D01*
X362221Y105222D01*
X361785Y104169D01*
X361702Y103540D01*
X366000D01*
Y102540D01*
X361702D01*
X361785Y101910D01*
X362221Y100857D01*
X362240Y100832D01*
X362019Y100384D01*
X355956D01*
X349374Y106966D01*
X348798Y107407D01*
X348128Y107685D01*
X347409Y107780D01*
X344944D01*
X344617Y108280D01*
X344897Y108956D01*
X344969Y109500D01*
X341000D01*
Y110500D01*
X344969D01*
X344897Y111044D01*
X344617Y111720D01*
X344944Y112220D01*
X345598D01*
X351309Y106509D01*
D02*
G37*
G36*
X212456Y51456D02*
X213494Y50660D01*
X214435Y50271D01*
Y49729D01*
X213494Y49340D01*
X212456Y48544D01*
X211660Y47506D01*
X211159Y46297D01*
X210989Y45000D01*
X211159Y43703D01*
X211660Y42494D01*
X212029Y42013D01*
Y37987D01*
X211660Y37506D01*
X211159Y36297D01*
X211080Y35696D01*
X204355Y28971D01*
X179971D01*
Y32013D01*
X180340Y32494D01*
X180729Y33435D01*
X181271D01*
X181660Y32494D01*
X182457Y31457D01*
X183494Y30660D01*
X184703Y30160D01*
X186000Y29989D01*
X187297Y30160D01*
X188506Y30660D01*
X189544Y31457D01*
X190340Y32494D01*
X190729Y33435D01*
X191271D01*
X191660Y32494D01*
X192456Y31457D01*
X193494Y30660D01*
X194703Y30160D01*
X196000Y29989D01*
X197297Y30160D01*
X198506Y30660D01*
X199544Y31457D01*
X200340Y32494D01*
X200841Y33703D01*
X201011Y35000D01*
X200841Y36297D01*
X200340Y37506D01*
X199544Y38544D01*
X198506Y39340D01*
X197566Y39729D01*
Y40271D01*
X198506Y40660D01*
X199544Y41456D01*
X200340Y42494D01*
X200841Y43703D01*
X201011Y45000D01*
X200841Y46297D01*
X200340Y47506D01*
X199544Y48544D01*
X198506Y49340D01*
X197297Y49841D01*
X196000Y50011D01*
X194703Y49841D01*
X193494Y49340D01*
X192456Y48544D01*
X191870Y47780D01*
X190130D01*
X189544Y48544D01*
X188506Y49340D01*
X187297Y49841D01*
X186000Y50011D01*
X184703Y49841D01*
X183494Y49340D01*
X182457Y48544D01*
X181870Y47780D01*
X180130D01*
X179544Y48544D01*
X178506Y49340D01*
X177297Y49841D01*
X176000Y50011D01*
X174703Y49841D01*
X173494Y49340D01*
X172457Y48544D01*
X171660Y47506D01*
X171160Y46297D01*
X170989Y45000D01*
X171160Y43703D01*
X171204Y43595D01*
X170926Y43180D01*
X166074D01*
X165796Y43595D01*
X165841Y43703D01*
X166012Y45000D01*
X165886Y45955D01*
X172152Y52220D01*
X211870D01*
X212456Y51456D01*
D02*
G37*
G36*
X347250Y139119D02*
X347826Y138677D01*
X348496Y138400D01*
X349216Y138305D01*
X360918D01*
X361196Y137889D01*
X360841Y137032D01*
X360659Y135650D01*
X360841Y134267D01*
X361196Y133410D01*
X360918Y132994D01*
X358137D01*
X354166Y136966D01*
X353590Y137407D01*
X352920Y137685D01*
X352200Y137780D01*
X344944D01*
X344617Y138280D01*
X344897Y138956D01*
X344969Y139500D01*
X341000D01*
Y140500D01*
X344969D01*
X344939Y140723D01*
X345413Y140956D01*
X347250Y139119D01*
D02*
G37*
G36*
X357545Y182158D02*
X358216Y181880D01*
X358935Y181785D01*
X360918D01*
X361196Y181370D01*
X360841Y180512D01*
X360659Y179130D01*
X360841Y177748D01*
X361196Y176890D01*
X360918Y176475D01*
X358857D01*
X357966Y177366D01*
X357390Y177807D01*
X356719Y178085D01*
X356000Y178180D01*
X345026D01*
X344748Y178595D01*
X344897Y178956D01*
X344969Y179500D01*
X341000D01*
Y180500D01*
X344969D01*
X344897Y181044D01*
X344617Y181720D01*
X344944Y182220D01*
X357464D01*
X357545Y182158D01*
D02*
G37*
G36*
X283209Y183035D02*
X283785Y182593D01*
X284455Y182315D01*
X285175Y182220D01*
X291092D01*
X291370Y181805D01*
X291160Y181297D01*
X290989Y180000D01*
X291160Y178703D01*
X291500Y177880D01*
X291166Y177380D01*
X286000D01*
X285281Y177285D01*
X284610Y177007D01*
X284035Y176566D01*
X281371Y173902D01*
X280898Y174136D01*
X281012Y175000D01*
X280841Y176297D01*
X280340Y177506D01*
X279544Y178544D01*
X278506Y179340D01*
X277566Y179729D01*
Y180271D01*
X278506Y180660D01*
X279544Y181456D01*
X280340Y182494D01*
X280841Y183703D01*
X280956Y184581D01*
X281484Y184760D01*
X283209Y183035D01*
D02*
G37*
G36*
X202676Y178460D02*
X202910Y178280D01*
X202740Y177780D01*
X197152D01*
X190886Y184046D01*
X191012Y185000D01*
X190841Y186297D01*
X190340Y187506D01*
X189544Y188544D01*
X188506Y189340D01*
X187566Y189729D01*
Y190271D01*
X188506Y190660D01*
X189544Y191456D01*
X189671Y191465D01*
X202676Y178460D01*
D02*
G37*
G36*
X181114Y185955D02*
X180989Y185000D01*
X181159Y183703D01*
X181660Y182494D01*
X182457Y181456D01*
X183494Y180660D01*
X184435Y180271D01*
Y179729D01*
X183494Y179340D01*
X182457Y178544D01*
X181870Y177780D01*
X172152D01*
X165886Y184046D01*
X166012Y185000D01*
X165841Y186297D01*
X165340Y187506D01*
X164544Y188544D01*
X163506Y189340D01*
X162566Y189729D01*
Y190271D01*
X163506Y190660D01*
X164544Y191456D01*
X165340Y192494D01*
X165841Y193703D01*
X166012Y195000D01*
X165841Y196297D01*
X165340Y197506D01*
X164544Y198544D01*
X163506Y199340D01*
X162566Y199730D01*
Y200271D01*
X163506Y200660D01*
X164544Y201456D01*
X164777Y201761D01*
X165276Y201793D01*
X181114Y185955D01*
D02*
G37*
G36*
X211511Y187146D02*
X211159Y186297D01*
X210989Y185000D01*
X211159Y183703D01*
X211194Y183621D01*
X210916Y183205D01*
X205792D01*
X202508Y186489D01*
X202792Y186913D01*
X203572Y186590D01*
X204600Y186454D01*
X205628Y186590D01*
X206586Y186986D01*
X207408Y187617D01*
X207430Y187646D01*
X211177D01*
X211511Y187146D01*
D02*
G37*
G36*
X96048Y145447D02*
X95989Y145000D01*
X96159Y143703D01*
X96660Y142494D01*
X97457Y141456D01*
X98494Y140660D01*
X99435Y140271D01*
Y139729D01*
X98494Y139340D01*
X97457Y138544D01*
X96660Y137506D01*
X96159Y136297D01*
X95989Y135000D01*
X96114Y134046D01*
X92842Y130773D01*
X92380Y130964D01*
Y142449D01*
X95599Y145668D01*
X96048Y145447D01*
D02*
G37*
G36*
X352839Y95639D02*
X353415Y95197D01*
X354085Y94919D01*
X354804Y94825D01*
X362019D01*
X362240Y94376D01*
X362221Y94351D01*
X361785Y93299D01*
X361702Y92669D01*
X366000D01*
Y91669D01*
X361702D01*
X361785Y91040D01*
X362221Y89987D01*
X362240Y89962D01*
X362019Y89514D01*
X356417D01*
X348966Y96966D01*
X348390Y97407D01*
X347720Y97685D01*
X347000Y97780D01*
X344944D01*
X344617Y98280D01*
X344897Y98956D01*
X344969Y99500D01*
X341000D01*
Y100500D01*
X344969D01*
X344897Y101044D01*
X344617Y101720D01*
X344944Y102220D01*
X346257D01*
X352839Y95639D01*
D02*
G37*
G36*
X181328Y206705D02*
X181159Y206297D01*
X180989Y205000D01*
X181159Y203703D01*
X181660Y202494D01*
X182457Y201456D01*
X183494Y200660D01*
X184435Y200271D01*
Y199730D01*
X183494Y199340D01*
X182457Y198544D01*
X181660Y197506D01*
X181159Y196297D01*
X180989Y195000D01*
X181048Y194553D01*
X180599Y194332D01*
X168311Y206620D01*
X168518Y207120D01*
X181051D01*
X181328Y206705D01*
D02*
G37*
G36*
X122917Y190995D02*
X122933Y190864D01*
X106401Y174332D01*
X105953Y174553D01*
X106011Y175000D01*
X105886Y175955D01*
X120965Y191034D01*
X121000Y191029D01*
X122028Y191164D01*
X122379Y191310D01*
X122917Y190995D01*
D02*
G37*
G36*
X156318Y56680D02*
X156159Y56297D01*
X155989Y55000D01*
X156159Y53703D01*
X156660Y52494D01*
X157457Y51456D01*
X158494Y50660D01*
X159435Y50271D01*
Y49729D01*
X158494Y49340D01*
X157457Y48544D01*
X156660Y47506D01*
X156159Y46297D01*
X155989Y45000D01*
X156159Y43703D01*
X156204Y43595D01*
X155926Y43180D01*
X106752D01*
X105886Y44045D01*
X106011Y45000D01*
X105841Y46297D01*
X105631Y46805D01*
X105908Y47220D01*
X145000D01*
X145720Y47315D01*
X146390Y47593D01*
X146966Y48035D01*
X155894Y56963D01*
X156318Y56680D01*
D02*
G37*
G36*
X291370Y191805D02*
X291160Y191297D01*
X290989Y190000D01*
X291160Y188703D01*
X291370Y188196D01*
X291092Y187780D01*
X286326D01*
X282540Y191566D01*
X282339Y191720D01*
X282508Y192220D01*
X291092D01*
X291370Y191805D01*
D02*
G37*
G36*
X377416Y190353D02*
X377267Y190049D01*
X377159Y189903D01*
X375799Y189724D01*
X374511Y189190D01*
X373405Y188342D01*
X372639Y187345D01*
X371295D01*
Y195295D01*
X360705D01*
Y187345D01*
X359971D01*
X359890Y187407D01*
X359220Y187685D01*
X358500Y187780D01*
X344944D01*
X344617Y188280D01*
X344897Y188956D01*
X344969Y189500D01*
X337031D01*
X337103Y188956D01*
X337209Y188700D01*
X336936Y188074D01*
X336879Y188052D01*
X335886Y189046D01*
X336012Y190000D01*
X335841Y191297D01*
X335340Y192506D01*
X334544Y193544D01*
X333506Y194340D01*
X332566Y194729D01*
Y195271D01*
X333506Y195660D01*
X334544Y196457D01*
X335340Y197494D01*
X335841Y198703D01*
X336012Y200000D01*
X335841Y201297D01*
X335340Y202506D01*
X334544Y203544D01*
X333506Y204340D01*
X332297Y204841D01*
X331000Y205012D01*
X329703Y204841D01*
X328494Y204340D01*
X327456Y203544D01*
X326870Y202780D01*
X316000D01*
X315281Y202685D01*
X314610Y202407D01*
X314035Y201966D01*
X308591Y196522D01*
X308092Y196555D01*
X307966Y196720D01*
X303145Y201540D01*
X302569Y201982D01*
X301899Y202260D01*
X301179Y202355D01*
X280823D01*
X280489Y202855D01*
X280841Y203703D01*
X281012Y205000D01*
X280841Y206297D01*
X280672Y206705D01*
X280950Y207120D01*
X360649D01*
X377416Y190353D01*
D02*
G37*
G36*
X37935Y105034D02*
X38510Y104593D01*
X39181Y104315D01*
X39900Y104220D01*
X44760D01*
X44981Y103772D01*
X44761Y103486D01*
X44364Y102528D01*
X44229Y101500D01*
X44364Y100472D01*
X44761Y99515D01*
X45392Y98692D01*
X46032Y98202D01*
Y92780D01*
X36000D01*
Y106316D01*
X36462Y106507D01*
X37935Y105034D01*
D02*
G37*
G36*
X327456Y196457D02*
X328494Y195660D01*
X329435Y195271D01*
Y194729D01*
X328494Y194340D01*
X327456Y193544D01*
X326660Y192506D01*
X326160Y191297D01*
X325989Y190000D01*
X326114Y189046D01*
X325249Y188180D01*
X311074D01*
X310796Y188595D01*
X310841Y188703D01*
X311012Y190000D01*
X310886Y190955D01*
X317151Y197220D01*
X326870D01*
X327456Y196457D01*
D02*
G37*
G36*
X271114Y175955D02*
X270989Y175000D01*
X271160Y173703D01*
X271204Y173595D01*
X270926Y173180D01*
X251751D01*
X250886Y174046D01*
X251011Y175000D01*
X250841Y176297D01*
X250796Y176405D01*
X251074Y176820D01*
X270249D01*
X271114Y175955D01*
D02*
G37*
G36*
X96048Y125447D02*
X95989Y125000D01*
X96114Y124046D01*
X81849Y109780D01*
X80418D01*
X80211Y110280D01*
X95599Y125668D01*
X96048Y125447D01*
D02*
G37*
G36*
X351390Y117379D02*
X351966Y116937D01*
X352636Y116659D01*
X353356Y116565D01*
X362019D01*
X362240Y116116D01*
X362221Y116092D01*
X361785Y115039D01*
X361702Y114409D01*
X366000D01*
Y113409D01*
X361702D01*
X361785Y112780D01*
X362221Y111727D01*
X362240Y111703D01*
X362019Y111254D01*
X354426D01*
X348714Y116966D01*
X348139Y117407D01*
X347468Y117685D01*
X346749Y117780D01*
X344944D01*
X344617Y118280D01*
X344897Y118956D01*
X344969Y119500D01*
X341000D01*
Y120500D01*
X344969D01*
X344897Y121044D01*
X344617Y121720D01*
X344944Y122220D01*
X346549D01*
X351390Y117379D01*
D02*
G37*
G36*
X196370Y136805D02*
X196160Y136297D01*
X195989Y135000D01*
X196160Y133703D01*
X196501Y132880D01*
X196166Y132380D01*
X184597D01*
X184376Y132828D01*
X184494Y132983D01*
X184897Y133956D01*
X184969Y134500D01*
X177031D01*
X177103Y133956D01*
X177506Y132983D01*
X177625Y132828D01*
X177404Y132380D01*
X165834D01*
X165500Y132880D01*
X165841Y133703D01*
X166012Y135000D01*
X165841Y136297D01*
X165630Y136805D01*
X165908Y137220D01*
X177056D01*
X177383Y136720D01*
X177103Y136044D01*
X177031Y135500D01*
X184969D01*
X184897Y136044D01*
X184617Y136720D01*
X184944Y137220D01*
X196092D01*
X196370Y136805D01*
D02*
G37*
G36*
X271191Y156372D02*
X271160Y156297D01*
X270989Y155000D01*
X271114Y154045D01*
X264849Y147780D01*
X165130D01*
X164544Y148544D01*
X163506Y149340D01*
X162566Y149730D01*
Y150271D01*
X163506Y150660D01*
X164544Y151456D01*
X165130Y152220D01*
X168868D01*
X169587Y152315D01*
X170258Y152593D01*
X170833Y153035D01*
X174619Y156820D01*
X181974D01*
X182252Y156405D01*
X182103Y156044D01*
X182031Y155500D01*
X189969D01*
X189897Y156044D01*
X189748Y156405D01*
X190026Y156820D01*
X210926D01*
X211204Y156405D01*
X211159Y156297D01*
X210989Y155000D01*
X211159Y153703D01*
X211660Y152494D01*
X212456Y151456D01*
X213494Y150660D01*
X214703Y150160D01*
X216000Y149989D01*
X217297Y150160D01*
X218506Y150660D01*
X219544Y151456D01*
X220130Y152220D01*
X238925D01*
X239645Y152315D01*
X240315Y152593D01*
X240891Y153035D01*
X241641Y153785D01*
X242225Y153662D01*
X242506Y152983D01*
X243147Y152147D01*
X243983Y151506D01*
X244956Y151103D01*
X245500Y151031D01*
Y155000D01*
X246000D01*
Y155500D01*
X249969D01*
X249897Y156044D01*
X249758Y156379D01*
X250036Y156795D01*
X270575D01*
X270839Y156830D01*
X271191Y156372D01*
D02*
G37*
G36*
X76810Y116193D02*
X77337Y115975D01*
X77522Y115453D01*
X76849Y114780D01*
X50406D01*
X50306Y115280D01*
X50985Y115561D01*
X51808Y116192D01*
X51830Y116220D01*
X76774D01*
X76810Y116193D01*
D02*
G37*
G36*
X327456Y156456D02*
X328494Y155660D01*
X329435Y155271D01*
Y154729D01*
X328494Y154340D01*
X327456Y153544D01*
X326660Y152506D01*
X326160Y151297D01*
X325989Y150000D01*
X326160Y148703D01*
X326660Y147494D01*
X327456Y146457D01*
X328494Y145660D01*
X329435Y145271D01*
Y144729D01*
X328494Y144340D01*
X327456Y143544D01*
X326660Y142506D01*
X326160Y141297D01*
X325989Y140000D01*
X326160Y138703D01*
X326660Y137494D01*
X327456Y136457D01*
X328494Y135660D01*
X329435Y135271D01*
Y134730D01*
X328494Y134340D01*
X327456Y133544D01*
X326870Y132780D01*
X280908D01*
X280630Y133195D01*
X280841Y133703D01*
X280920Y134304D01*
X292645Y146029D01*
X293014D01*
X293494Y145660D01*
X294703Y145159D01*
X296000Y144989D01*
X297297Y145159D01*
X298506Y145660D01*
X299544Y146457D01*
X300340Y147494D01*
X300729Y148435D01*
X301271D01*
X301660Y147494D01*
X302456Y146457D01*
X303494Y145660D01*
X304703Y145159D01*
X306000Y144989D01*
X307297Y145159D01*
X308506Y145660D01*
X309544Y146457D01*
X310340Y147494D01*
X310841Y148703D01*
X311012Y150000D01*
X310841Y151297D01*
X310340Y152506D01*
X309544Y153544D01*
X308506Y154340D01*
X307566Y154729D01*
Y155271D01*
X308506Y155660D01*
X309544Y156456D01*
X310130Y157220D01*
X326870D01*
X327456Y156456D01*
D02*
G37*
G36*
X354080Y149989D02*
X354656Y149547D01*
X355326Y149270D01*
X356046Y149175D01*
X360918D01*
X361196Y148759D01*
X360841Y147902D01*
X360659Y146520D01*
X360841Y145137D01*
X361196Y144280D01*
X360918Y143864D01*
X350367D01*
X347266Y146966D01*
X346690Y147407D01*
X346020Y147685D01*
X345300Y147780D01*
X344944D01*
X344617Y148280D01*
X344897Y148956D01*
X344969Y149500D01*
X341000D01*
Y150500D01*
X344969D01*
X344897Y151044D01*
X344494Y152017D01*
X344375Y152172D01*
X344597Y152620D01*
X351449D01*
X354080Y149989D01*
D02*
G37*
G36*
X281115Y156961D02*
X282072Y156564D01*
X283100Y156429D01*
X283135Y156434D01*
X286235Y153335D01*
X286810Y152893D01*
X287347Y152670D01*
X287537Y152153D01*
X275304Y139920D01*
X274703Y139841D01*
X273494Y139340D01*
X272457Y138544D01*
X271660Y137506D01*
X271160Y136297D01*
X270989Y135000D01*
X271160Y133703D01*
X271370Y133195D01*
X271092Y132780D01*
X234152D01*
X225211Y141720D01*
X225418Y142220D01*
X266000D01*
X266720Y142315D01*
X267390Y142593D01*
X267966Y143035D01*
X275045Y150114D01*
X276000Y149989D01*
X277297Y150160D01*
X278506Y150660D01*
X279544Y151456D01*
X280340Y152494D01*
X280841Y153703D01*
X281012Y155000D01*
X280841Y156297D01*
X280693Y156655D01*
X281103Y156970D01*
X281115Y156961D01*
D02*
G37*
G36*
X287223Y51761D02*
X287456Y51456D01*
X288494Y50660D01*
X289703Y50160D01*
X291000Y49989D01*
X291447Y50048D01*
X291668Y49599D01*
X280276Y38207D01*
X279777Y38240D01*
X279544Y38544D01*
X278506Y39340D01*
X277566Y39729D01*
Y40271D01*
X278506Y40660D01*
X279544Y41456D01*
X280340Y42494D01*
X280841Y43703D01*
X281012Y45000D01*
X280886Y45955D01*
X286724Y51793D01*
X287223Y51761D01*
D02*
G37*
G36*
X348210Y160859D02*
X348785Y160418D01*
X349456Y160140D01*
X350175Y160045D01*
X362019D01*
X362240Y159597D01*
X362221Y159572D01*
X361785Y158519D01*
X361702Y157890D01*
X366000D01*
Y156890D01*
X361702D01*
X361785Y156260D01*
X362221Y155208D01*
X362240Y155183D01*
X362019Y154734D01*
X357197D01*
X354566Y157366D01*
X353990Y157807D01*
X353320Y158085D01*
X352600Y158180D01*
X345026D01*
X344748Y158596D01*
X344897Y158956D01*
X344969Y159500D01*
X341000D01*
Y160500D01*
X344969D01*
X344897Y161044D01*
X344658Y161620D01*
X344993Y162120D01*
X346949D01*
X348210Y160859D01*
D02*
G37*
G36*
X355740Y171729D02*
X356315Y171288D01*
X356986Y171010D01*
X357705Y170915D01*
X362019D01*
X362240Y170467D01*
X362221Y170442D01*
X361785Y169389D01*
X361702Y168760D01*
X366000D01*
Y167760D01*
X361702D01*
X361785Y167130D01*
X362221Y166078D01*
X362240Y166053D01*
X362019Y165605D01*
X351327D01*
X350066Y166866D01*
X349490Y167307D01*
X348819Y167585D01*
X348100Y167680D01*
X344844D01*
X344576Y168180D01*
X344897Y168956D01*
X344969Y169500D01*
X341000D01*
Y170500D01*
X344969D01*
X344897Y171044D01*
X344494Y172017D01*
X344375Y172172D01*
X344597Y172620D01*
X354849D01*
X355740Y171729D01*
D02*
G37*
G36*
X327456Y166456D02*
X328494Y165660D01*
X329435Y165271D01*
Y164729D01*
X328494Y164340D01*
X327456Y163544D01*
X326870Y162780D01*
X310130D01*
X309544Y163544D01*
X308506Y164340D01*
X307566Y164729D01*
Y165271D01*
X308506Y165660D01*
X309544Y166456D01*
X310130Y167220D01*
X326870D01*
X327456Y166456D01*
D02*
G37*
G36*
Y176456D02*
X328494Y175660D01*
X329435Y175271D01*
Y174730D01*
X328494Y174340D01*
X327456Y173544D01*
X326870Y172780D01*
X310130D01*
X309544Y173544D01*
X308506Y174340D01*
X307566Y174730D01*
Y175271D01*
X308506Y175660D01*
X309544Y176456D01*
X310130Y177220D01*
X326870D01*
X327456Y176456D01*
D02*
G37*
G36*
X239827Y186358D02*
X226249Y172780D01*
X220908D01*
X220631Y173196D01*
X220841Y173703D01*
X221011Y175000D01*
X220841Y176297D01*
X220489Y177146D01*
X220823Y177646D01*
X222937D01*
X223657Y177740D01*
X224327Y178018D01*
X224903Y178460D01*
X233263Y186820D01*
X239636D01*
X239827Y186358D01*
D02*
G37*
G36*
X241041Y174603D02*
X241160Y173703D01*
X241660Y172494D01*
X242457Y171457D01*
X243494Y170660D01*
X244435Y170271D01*
Y169729D01*
X243494Y169340D01*
X242457Y168544D01*
X241842Y167742D01*
X241407Y167685D01*
X240736Y167407D01*
X240161Y166966D01*
X235575Y162380D01*
X228734D01*
X228564Y162880D01*
X228766Y163035D01*
X240513Y174782D01*
X241041Y174603D01*
D02*
G37*
G36*
X156041D02*
X156159Y173703D01*
X156660Y172494D01*
X157457Y171457D01*
X158494Y170660D01*
X159435Y170271D01*
Y169729D01*
X158494Y169340D01*
X157457Y168544D01*
X156660Y167506D01*
X156159Y166297D01*
X155989Y165000D01*
X156159Y163703D01*
X156660Y162494D01*
X157009Y162040D01*
X154242Y159273D01*
X153780Y159464D01*
Y173049D01*
X155513Y174782D01*
X156041Y174603D01*
D02*
G37*
G36*
X291204Y171405D02*
X291160Y171297D01*
X290989Y170000D01*
X291160Y168703D01*
X291660Y167494D01*
X292457Y166456D01*
X293494Y165660D01*
X294435Y165271D01*
Y164729D01*
X293494Y164340D01*
X292457Y163544D01*
X291660Y162506D01*
X291160Y161297D01*
X290989Y160000D01*
X291160Y158703D01*
X291246Y158495D01*
X290968Y158080D01*
X289352D01*
X287066Y160365D01*
X287071Y160400D01*
X286936Y161428D01*
X286539Y162386D01*
X285908Y163208D01*
X285086Y163839D01*
X284128Y164236D01*
X283100Y164371D01*
X282072Y164236D01*
X281377Y163948D01*
X280919Y164297D01*
X281012Y165000D01*
X280841Y166297D01*
X280500Y167120D01*
X280834Y167620D01*
X281800D01*
X282520Y167715D01*
X283190Y167993D01*
X283766Y168435D01*
X287152Y171820D01*
X290926D01*
X291204Y171405D01*
D02*
G37*
G36*
X211370Y166805D02*
X211159Y166297D01*
X210989Y165000D01*
X211159Y163703D01*
X211501Y162880D01*
X211166Y162380D01*
X190834D01*
X190500Y162880D01*
X190841Y163703D01*
X191012Y165000D01*
X190841Y166297D01*
X190630Y166805D01*
X190908Y167220D01*
X211092D01*
X211370Y166805D01*
D02*
G37*
G36*
X271500Y167120D02*
X271160Y166297D01*
X270989Y165000D01*
X271114Y164046D01*
X269424Y162355D01*
X250823D01*
X250489Y162855D01*
X250841Y163703D01*
X251011Y165000D01*
X250841Y166297D01*
X250496Y167130D01*
X250514Y167215D01*
X250834Y167620D01*
X271166D01*
X271500Y167120D01*
D02*
G37*
G36*
X76205Y261407D02*
X76160Y261297D01*
X75989Y260000D01*
X76160Y258703D01*
X76204Y258595D01*
X75926Y258180D01*
X56752D01*
X55969Y258963D01*
Y261785D01*
X75756D01*
X75901Y261804D01*
X76205Y261407D01*
D02*
G37*
G36*
X333045Y254024D02*
X332762Y253600D01*
X332044Y253897D01*
X331500Y253969D01*
Y250500D01*
X334969D01*
X334897Y251044D01*
X334494Y252017D01*
X334370Y252179D01*
X334378Y252192D01*
X334717Y252549D01*
X335281Y252315D01*
X336000Y252220D01*
X346092D01*
X346370Y251805D01*
X346160Y251297D01*
X345989Y250000D01*
X346160Y248703D01*
X346660Y247494D01*
X347029Y247013D01*
Y245755D01*
X320246Y218971D01*
X278987D01*
X278506Y219340D01*
X277297Y219841D01*
X276000Y220011D01*
X274703Y219841D01*
X273494Y219340D01*
X273013Y218971D01*
X267645D01*
X250920Y235696D01*
X250841Y236297D01*
X250796Y236405D01*
X251074Y236820D01*
X317149D01*
X318220Y235749D01*
Y232830D01*
X318192Y232808D01*
X317561Y231985D01*
X317164Y231028D01*
X317029Y230000D01*
X317164Y228972D01*
X317561Y228015D01*
X318192Y227192D01*
X319015Y226561D01*
X319972Y226164D01*
X321000Y226029D01*
X322028Y226164D01*
X322986Y226561D01*
X323808Y227192D01*
X324439Y228015D01*
X324836Y228972D01*
X324971Y230000D01*
X324836Y231028D01*
X324439Y231985D01*
X323808Y232808D01*
X323780Y232830D01*
Y236900D01*
X323685Y237620D01*
X323407Y238290D01*
X322966Y238866D01*
X320266Y241566D01*
X319690Y242007D01*
X319020Y242285D01*
X318300Y242380D01*
X243848D01*
X243657Y242842D01*
X257966Y257151D01*
X258407Y257726D01*
X258685Y258397D01*
X258780Y259116D01*
Y271937D01*
X258685Y272656D01*
X258407Y273327D01*
X257966Y273903D01*
X257390Y274344D01*
X256719Y274622D01*
X256000Y274717D01*
X225862D01*
X225143Y274622D01*
X224472Y274344D01*
X223897Y273903D01*
X218974Y268980D01*
X218506Y269340D01*
X217297Y269841D01*
X216000Y270011D01*
X214703Y269841D01*
X213494Y269340D01*
X212456Y268544D01*
X211660Y267506D01*
X211271Y266566D01*
X210730D01*
X210340Y267506D01*
X209544Y268544D01*
X208506Y269340D01*
X207297Y269841D01*
X206000Y270011D01*
X204703Y269841D01*
X203494Y269340D01*
X202456Y268544D01*
X201660Y267506D01*
X201271Y266566D01*
X200729D01*
X200340Y267506D01*
X199544Y268544D01*
X198506Y269340D01*
X197297Y269841D01*
X196000Y270011D01*
X194703Y269841D01*
X193494Y269340D01*
X192456Y268544D01*
X191660Y267506D01*
X191159Y266297D01*
X190989Y265000D01*
X191159Y263703D01*
X191194Y263621D01*
X190916Y263205D01*
X190036D01*
X189758Y263621D01*
X189897Y263956D01*
X189969Y264500D01*
X182031D01*
X182042Y264422D01*
X181568Y264188D01*
X178791Y266966D01*
X178215Y267407D01*
X178056Y267473D01*
X177966Y268035D01*
X187151Y277220D01*
X309849D01*
X333045Y254024D01*
D02*
G37*
G36*
X118220Y107582D02*
Y86151D01*
X106401Y74332D01*
X105953Y74553D01*
X106011Y75000D01*
X105841Y76297D01*
X105340Y77506D01*
X104544Y78544D01*
X103506Y79340D01*
X102566Y79729D01*
Y80271D01*
X103506Y80660D01*
X104544Y81457D01*
X105340Y82494D01*
X105841Y83703D01*
X106011Y85000D01*
X105841Y86297D01*
X105340Y87506D01*
X104544Y88544D01*
X103506Y89340D01*
X102566Y89729D01*
Y90271D01*
X103506Y90660D01*
X104544Y91457D01*
X105340Y92494D01*
X105841Y93703D01*
X106011Y95000D01*
X105886Y95955D01*
X117720Y107789D01*
X118220Y107582D01*
D02*
G37*
G36*
X355020Y128249D02*
X355596Y127807D01*
X356266Y127530D01*
X356985Y127435D01*
X362019D01*
X362240Y126987D01*
X362221Y126962D01*
X361785Y125909D01*
X361702Y125279D01*
X366000D01*
Y124279D01*
X361702D01*
X361785Y123650D01*
X362221Y122597D01*
X362240Y122573D01*
X362019Y122124D01*
X354507D01*
X349666Y126966D01*
X349090Y127407D01*
X348419Y127685D01*
X347700Y127780D01*
X344944D01*
X344617Y128280D01*
X344897Y128956D01*
X344969Y129500D01*
X341000D01*
Y130500D01*
X344969D01*
X344897Y131044D01*
X344617Y131720D01*
X344944Y132220D01*
X351049D01*
X355020Y128249D01*
D02*
G37*
G36*
X96204Y256405D02*
X96159Y256297D01*
X95989Y255000D01*
X96159Y253703D01*
X96204Y253595D01*
X95926Y253180D01*
X88700D01*
X87981Y253085D01*
X87871Y253040D01*
X87566Y253435D01*
X90952Y256820D01*
X95926D01*
X96204Y256405D01*
D02*
G37*
G36*
X211204Y126405D02*
X211159Y126297D01*
X210989Y125000D01*
X211159Y123703D01*
X211660Y122494D01*
X212456Y121457D01*
X213494Y120660D01*
X214435Y120271D01*
Y119729D01*
X213494Y119340D01*
X212456Y118544D01*
X211660Y117506D01*
X211159Y116297D01*
X210989Y115000D01*
X211114Y114046D01*
X207034Y109966D01*
X206593Y109390D01*
X206315Y108720D01*
X206220Y108000D01*
Y76687D01*
X205720Y76588D01*
X205340Y77506D01*
X204544Y78544D01*
X203506Y79340D01*
X202297Y79841D01*
X201000Y80011D01*
X199703Y79841D01*
X198494Y79340D01*
X197457Y78544D01*
X196660Y77506D01*
X196160Y76297D01*
X195989Y75000D01*
X196160Y73703D01*
X196660Y72494D01*
X197457Y71456D01*
X198494Y70660D01*
X199703Y70160D01*
X201000Y69989D01*
X202297Y70160D01*
X203506Y70660D01*
X204544Y71456D01*
X205340Y72494D01*
X205720Y73413D01*
X206220Y73313D01*
Y69151D01*
X201401Y64332D01*
X200953Y64553D01*
X201011Y65000D01*
X200841Y66297D01*
X200340Y67506D01*
X199544Y68544D01*
X198506Y69340D01*
X197297Y69841D01*
X196000Y70012D01*
X194703Y69841D01*
X193494Y69340D01*
X192456Y68544D01*
X191660Y67506D01*
X191271Y66566D01*
X190729D01*
X190340Y67506D01*
X189544Y68544D01*
X188506Y69340D01*
X187297Y69841D01*
X186000Y70012D01*
X184703Y69841D01*
X183494Y69340D01*
X182457Y68544D01*
X181660Y67506D01*
X181159Y66297D01*
X180989Y65000D01*
X181159Y63703D01*
X181194Y63621D01*
X180916Y63205D01*
X166084D01*
X165807Y63621D01*
X165841Y63703D01*
X166012Y65000D01*
X165841Y66297D01*
X165340Y67506D01*
X164544Y68544D01*
X163506Y69340D01*
X162566Y69730D01*
Y70271D01*
X163506Y70660D01*
X164544Y71456D01*
X165340Y72494D01*
X165841Y73703D01*
X166012Y75000D01*
X165841Y76297D01*
X165340Y77506D01*
X164544Y78544D01*
X163506Y79340D01*
X162566Y79729D01*
Y80271D01*
X163506Y80660D01*
X164544Y81457D01*
X165340Y82494D01*
X165841Y83703D01*
X166012Y85000D01*
X165841Y86297D01*
X165340Y87506D01*
X164544Y88544D01*
X163506Y89340D01*
X162566Y89729D01*
Y90271D01*
X163506Y90660D01*
X164544Y91457D01*
X165340Y92494D01*
X165841Y93703D01*
X166012Y95000D01*
X165841Y96297D01*
X165340Y97506D01*
X164544Y98544D01*
X163506Y99340D01*
X162566Y99730D01*
Y100271D01*
X163506Y100660D01*
X164544Y101456D01*
X165340Y102494D01*
X165841Y103703D01*
X166012Y105000D01*
X165841Y106297D01*
X165340Y107506D01*
X164544Y108544D01*
X163506Y109340D01*
X162566Y109730D01*
Y110271D01*
X163506Y110660D01*
X164544Y111457D01*
X165340Y112494D01*
X165841Y113703D01*
X166012Y115000D01*
X165841Y116297D01*
X165340Y117506D01*
X164544Y118544D01*
X163506Y119340D01*
X162566Y119729D01*
Y120271D01*
X163506Y120660D01*
X164544Y121457D01*
X165340Y122494D01*
X165841Y123703D01*
X166012Y125000D01*
X165841Y126297D01*
X165796Y126405D01*
X166074Y126820D01*
X210926D01*
X211204Y126405D01*
D02*
G37*
G36*
X78159Y99083D02*
X77456Y98544D01*
X76660Y97506D01*
X76160Y96297D01*
X75989Y95000D01*
X76160Y93703D01*
X76660Y92494D01*
X77456Y91457D01*
X78494Y90660D01*
X79435Y90271D01*
Y89729D01*
X78494Y89340D01*
X77456Y88544D01*
X76660Y87506D01*
X76160Y86297D01*
X75989Y85000D01*
X76160Y83703D01*
X76660Y82494D01*
X77456Y81457D01*
X78494Y80660D01*
X79435Y80271D01*
Y79729D01*
X78494Y79340D01*
X77456Y78544D01*
X77253Y78279D01*
X76780Y78439D01*
Y80000D01*
X76685Y80720D01*
X76407Y81390D01*
X75966Y81966D01*
X65966Y91966D01*
X65390Y92407D01*
X64719Y92685D01*
X64000Y92780D01*
X55969D01*
Y99583D01*
X77989D01*
X78159Y99083D01*
D02*
G37*
G36*
X153620Y224036D02*
Y212500D01*
X153715Y211781D01*
X153993Y211110D01*
X154435Y210535D01*
X157009Y207960D01*
X156660Y207506D01*
X156159Y206297D01*
X155989Y205000D01*
X156159Y203703D01*
X156660Y202494D01*
X157457Y201456D01*
X158494Y200660D01*
X159435Y200271D01*
Y199730D01*
X158494Y199340D01*
X157457Y198544D01*
X156660Y197506D01*
X156159Y196297D01*
X155989Y195000D01*
X156159Y193703D01*
X156660Y192494D01*
X157457Y191456D01*
X158494Y190660D01*
X159435Y190271D01*
Y189729D01*
X158494Y189340D01*
X157457Y188544D01*
X156660Y187506D01*
X156159Y186297D01*
X155989Y185000D01*
X156159Y183703D01*
X156057Y183526D01*
X155372Y183436D01*
X154415Y183039D01*
X153592Y182408D01*
X152961Y181586D01*
X152564Y180628D01*
X152429Y179600D01*
X152434Y179565D01*
X149035Y176166D01*
X148593Y175590D01*
X148315Y174919D01*
X148220Y174200D01*
Y138000D01*
X148315Y137281D01*
X148593Y136610D01*
X149035Y136035D01*
X157052Y128017D01*
X156660Y127506D01*
X156159Y126297D01*
X155989Y125000D01*
X155498Y124954D01*
X155436Y125428D01*
X155039Y126386D01*
X154408Y127208D01*
X153586Y127839D01*
X152628Y128236D01*
X151600Y128371D01*
X150572Y128236D01*
X149615Y127839D01*
X148792Y127208D01*
X148161Y126386D01*
X147764Y125428D01*
X147629Y124400D01*
X147764Y123372D01*
X148117Y122521D01*
X147693Y122238D01*
X138780Y131151D01*
Y209849D01*
X153158Y224227D01*
X153620Y224036D01*
D02*
G37*
G36*
X76500Y252120D02*
X76160Y251297D01*
X75989Y250000D01*
X76160Y248703D01*
X76411Y248095D01*
X76133Y247680D01*
X55867D01*
X55589Y248095D01*
X55841Y248703D01*
X56011Y250000D01*
X55841Y251297D01*
X55496Y252130D01*
X55514Y252215D01*
X55834Y252620D01*
X76166D01*
X76500Y252120D01*
D02*
G37*
G36*
X96370Y266805D02*
X96159Y266297D01*
X95989Y265000D01*
X96159Y263703D01*
X96500Y262880D01*
X96166Y262380D01*
X89800D01*
X89558Y262348D01*
X89287Y262817D01*
X89439Y263015D01*
X89836Y263972D01*
X89971Y265000D01*
X89966Y265035D01*
X92151Y267220D01*
X96092D01*
X96370Y266805D01*
D02*
G37*
G36*
X361196Y72669D02*
X360841Y71811D01*
X360659Y70429D01*
X360841Y69047D01*
X361375Y67759D01*
X362224Y66653D01*
X363330Y65804D01*
X364618Y65270D01*
X364799Y65246D01*
Y64742D01*
X364618Y64718D01*
X363330Y64184D01*
X362224Y63336D01*
X361458Y62339D01*
X342593D01*
X338955Y65977D01*
X339238Y66400D01*
X339956Y66103D01*
X340500Y66031D01*
Y70000D01*
X341000D01*
Y70500D01*
X344969D01*
X344897Y71044D01*
X344617Y71720D01*
X344944Y72220D01*
X358100D01*
X358820Y72315D01*
X359490Y72593D01*
X360066Y73035D01*
X360116Y73085D01*
X360918D01*
X361196Y72669D01*
D02*
G37*
G36*
X128220Y187582D02*
Y86951D01*
X105428Y64159D01*
X104955Y64393D01*
X104969Y64500D01*
X97031D01*
X97103Y63956D01*
X97252Y63595D01*
X96974Y63180D01*
X86074D01*
X85796Y63595D01*
X85841Y63703D01*
X86011Y65000D01*
X85841Y66297D01*
X85618Y66834D01*
X85923Y67231D01*
X86000Y67220D01*
X97056D01*
X97383Y66720D01*
X97103Y66044D01*
X97031Y65500D01*
X104969D01*
X104897Y66044D01*
X104617Y66720D01*
X104944Y67220D01*
X106000D01*
X106720Y67315D01*
X107390Y67593D01*
X107966Y68034D01*
X122966Y83034D01*
X123407Y83610D01*
X123685Y84281D01*
X123780Y85000D01*
Y135000D01*
X123685Y135720D01*
X123407Y136390D01*
X122966Y136966D01*
X114966Y144965D01*
X114971Y145000D01*
X114836Y146028D01*
X114439Y146985D01*
X113808Y147808D01*
X112986Y148439D01*
X112028Y148836D01*
X111000Y148971D01*
X109972Y148836D01*
X109015Y148439D01*
X108470Y148021D01*
X108060Y148337D01*
X108285Y148881D01*
X108380Y149600D01*
Y157500D01*
X108285Y158220D01*
X108007Y158890D01*
X107566Y159466D01*
X105066Y161966D01*
X105046Y162112D01*
X105340Y162494D01*
X105841Y163703D01*
X106011Y165000D01*
X105886Y165955D01*
X127720Y187789D01*
X128220Y187582D01*
D02*
G37*
G36*
X110334Y284538D02*
X104766Y278971D01*
X85000D01*
X83972Y278836D01*
X83015Y278439D01*
X82192Y277808D01*
X79298Y274914D01*
X78797Y275120D01*
X78439Y275986D01*
X77808Y276808D01*
X76986Y277439D01*
X76028Y277836D01*
X75000Y277971D01*
X73972Y277836D01*
X73015Y277439D01*
X72192Y276808D01*
X72171Y276780D01*
X55258D01*
X54876Y277280D01*
X54971Y278000D01*
X54836Y279028D01*
X54439Y279985D01*
X53808Y280808D01*
X52986Y281439D01*
X52028Y281836D01*
X51000Y281971D01*
X49972Y281836D01*
X49015Y281439D01*
X48192Y280808D01*
X48171Y280780D01*
X38151D01*
X36966Y281966D01*
X36390Y282407D01*
X36000Y282569D01*
Y285000D01*
X110142D01*
X110334Y284538D01*
D02*
G37*
G36*
X181636Y279567D02*
X174849Y272780D01*
X110460D01*
X110269Y273242D01*
X117056Y280029D01*
X181445D01*
X181636Y279567D01*
D02*
G37*
G36*
X72192Y271192D02*
X73015Y270561D01*
X73821Y270227D01*
X73722Y269727D01*
X46859D01*
X46347Y269660D01*
X45971Y269989D01*
Y270000D01*
X45876Y270720D01*
X46258Y271220D01*
X72171D01*
X72192Y271192D01*
D02*
G37*
G36*
X96080Y74304D02*
X96159Y73703D01*
X96370Y73195D01*
X96092Y72780D01*
X87151D01*
X85886Y74045D01*
X86011Y75000D01*
X85841Y76297D01*
X85340Y77506D01*
X84544Y78544D01*
X83506Y79340D01*
X82566Y79729D01*
Y80271D01*
X83506Y80660D01*
X84544Y81457D01*
X85340Y82494D01*
X85841Y83703D01*
X85865Y83886D01*
X86338Y84046D01*
X96080Y74304D01*
D02*
G37*
G36*
X396000Y5000D02*
X36000D01*
Y87220D01*
X46092D01*
X46370Y86805D01*
X46159Y86297D01*
X45989Y85000D01*
X46159Y83703D01*
X46660Y82494D01*
X47456Y81457D01*
X48494Y80660D01*
X49054Y80428D01*
Y79887D01*
X48494Y79655D01*
X47456Y78859D01*
X46660Y77821D01*
X46159Y76612D01*
X45989Y75315D01*
X46159Y74018D01*
X46660Y72809D01*
X47456Y71772D01*
X48494Y70975D01*
X49245Y70664D01*
Y70123D01*
X48494Y69813D01*
X47456Y69016D01*
X46660Y67978D01*
X46159Y66769D01*
X45989Y65473D01*
X46159Y64175D01*
X46660Y62967D01*
X47456Y61929D01*
X48494Y61133D01*
X49703Y60632D01*
X50792Y60488D01*
Y59984D01*
X49703Y59841D01*
X48494Y59340D01*
X47456Y58544D01*
X46660Y57506D01*
X46159Y56297D01*
X45989Y55000D01*
X46159Y53703D01*
X46660Y52494D01*
X47456Y51456D01*
X48494Y50660D01*
X49435Y50271D01*
Y49729D01*
X48494Y49340D01*
X47456Y48544D01*
X46660Y47506D01*
X46159Y46297D01*
X45989Y45000D01*
X46159Y43703D01*
X46660Y42494D01*
X47456Y41456D01*
X48494Y40660D01*
X49435Y40271D01*
Y39729D01*
X48494Y39340D01*
X47456Y38544D01*
X46660Y37506D01*
X46159Y36297D01*
X45989Y35000D01*
X46159Y33703D01*
X46660Y32494D01*
X47456Y31457D01*
X48494Y30660D01*
X49703Y30160D01*
X51000Y29989D01*
X52297Y30160D01*
X53506Y30660D01*
X54544Y31457D01*
X55340Y32494D01*
X55841Y33703D01*
X56011Y35000D01*
X55841Y36297D01*
X55340Y37506D01*
X54544Y38544D01*
X53506Y39340D01*
X52566Y39729D01*
Y40271D01*
X53506Y40660D01*
X54544Y41456D01*
X55340Y42494D01*
X55841Y43703D01*
X56011Y45000D01*
X55841Y46297D01*
X55340Y47506D01*
X54544Y48544D01*
X53506Y49340D01*
X52566Y49729D01*
Y50271D01*
X53506Y50660D01*
X54544Y51456D01*
X55340Y52494D01*
X55841Y53703D01*
X56011Y55000D01*
X55886Y55955D01*
X62966Y63034D01*
X63407Y63610D01*
X63685Y64281D01*
X63780Y65000D01*
Y77170D01*
X63808Y77192D01*
X64439Y78015D01*
X64836Y78972D01*
X64971Y80000D01*
X64836Y81028D01*
X64439Y81985D01*
X63808Y82808D01*
X62985Y83439D01*
X62028Y83836D01*
X61000Y83971D01*
X59972Y83836D01*
X59015Y83439D01*
X58192Y82808D01*
X57561Y81985D01*
X57164Y81028D01*
X57029Y80000D01*
X57164Y78972D01*
X57561Y78015D01*
X58192Y77192D01*
X58220Y77170D01*
Y66151D01*
X56360Y64291D01*
X55887Y64525D01*
X56011Y65473D01*
X55841Y66769D01*
X55340Y67978D01*
X54544Y69016D01*
X53506Y69813D01*
X52756Y70123D01*
Y70664D01*
X53506Y70975D01*
X54544Y71772D01*
X55340Y72809D01*
X55841Y74018D01*
X56011Y75315D01*
X55841Y76612D01*
X55340Y77821D01*
X54544Y78859D01*
X53506Y79655D01*
X52946Y79887D01*
Y80428D01*
X53506Y80660D01*
X54544Y81457D01*
X55340Y82494D01*
X55841Y83703D01*
X56011Y85000D01*
X55841Y86297D01*
X55630Y86805D01*
X55908Y87220D01*
X62849D01*
X71220Y78849D01*
Y64900D01*
X71315Y64181D01*
X71593Y63510D01*
X72035Y62935D01*
X76535Y58435D01*
X76782Y58245D01*
X76847Y57749D01*
X76660Y57506D01*
X76160Y56297D01*
X75989Y55000D01*
X76160Y53703D01*
X76660Y52494D01*
X77456Y51456D01*
X78494Y50660D01*
X79435Y50271D01*
Y49729D01*
X78494Y49340D01*
X77456Y48544D01*
X76660Y47506D01*
X76160Y46297D01*
X75989Y45000D01*
X76160Y43703D01*
X76660Y42494D01*
X77456Y41456D01*
X78494Y40660D01*
X79435Y40271D01*
Y39729D01*
X78494Y39340D01*
X77456Y38544D01*
X76660Y37506D01*
X76160Y36297D01*
X75989Y35000D01*
X76160Y33703D01*
X76660Y32494D01*
X77456Y31457D01*
X78494Y30660D01*
X79435Y30271D01*
Y29730D01*
X78494Y29340D01*
X77456Y28544D01*
X76660Y27506D01*
X76160Y26297D01*
X75989Y25000D01*
X76160Y23703D01*
X76660Y22494D01*
X77456Y21456D01*
X78494Y20660D01*
X79703Y20159D01*
X81000Y19989D01*
X82297Y20159D01*
X83506Y20660D01*
X84544Y21456D01*
X85340Y22494D01*
X85841Y23703D01*
X86011Y25000D01*
X85841Y26297D01*
X85340Y27506D01*
X84544Y28544D01*
X83506Y29340D01*
X82566Y29730D01*
Y30271D01*
X83506Y30660D01*
X84544Y31457D01*
X85340Y32494D01*
X85841Y33703D01*
X86011Y35000D01*
X85841Y36297D01*
X85340Y37506D01*
X84544Y38544D01*
X83506Y39340D01*
X82566Y39729D01*
Y40271D01*
X83506Y40660D01*
X84544Y41456D01*
X85340Y42494D01*
X85841Y43703D01*
X86011Y45000D01*
X85841Y46297D01*
X85340Y47506D01*
X84544Y48544D01*
X83506Y49340D01*
X82566Y49729D01*
Y50271D01*
X83506Y50660D01*
X84544Y51456D01*
X85340Y52494D01*
X85841Y53703D01*
X86011Y55000D01*
X85841Y56297D01*
X85500Y57120D01*
X85834Y57620D01*
X96166D01*
X96500Y57120D01*
X96159Y56297D01*
X95989Y55000D01*
X96159Y53703D01*
X96492Y52900D01*
X96602Y52442D01*
X96287Y52159D01*
X96034Y51966D01*
X92035Y47966D01*
X91593Y47390D01*
X91315Y46720D01*
X91220Y46000D01*
Y42000D01*
X91315Y41281D01*
X91593Y40610D01*
X92035Y40035D01*
X96114Y35955D01*
X95989Y35000D01*
X96159Y33703D01*
X96660Y32494D01*
X97457Y31457D01*
X98494Y30660D01*
X99703Y30160D01*
X101000Y29989D01*
X102297Y30160D01*
X103506Y30660D01*
X104544Y31457D01*
X105340Y32494D01*
X105841Y33703D01*
X106011Y35000D01*
X105841Y36297D01*
X105496Y37130D01*
X105514Y37215D01*
X105834Y37620D01*
X156166D01*
X156500Y37120D01*
X156159Y36297D01*
X155989Y35000D01*
X156159Y33703D01*
X156660Y32494D01*
X157457Y31457D01*
X158494Y30660D01*
X159435Y30271D01*
Y29730D01*
X158494Y29340D01*
X157457Y28544D01*
X156660Y27506D01*
X156159Y26297D01*
X155989Y25000D01*
X156159Y23703D01*
X156660Y22494D01*
X157457Y21456D01*
X158494Y20660D01*
X159703Y20159D01*
X161000Y19989D01*
X162297Y20159D01*
X163506Y20660D01*
X164544Y21456D01*
X165340Y22494D01*
X165841Y23703D01*
X166012Y25000D01*
X165841Y26297D01*
X165340Y27506D01*
X164544Y28544D01*
X163506Y29340D01*
X162566Y29730D01*
Y30271D01*
X163506Y30660D01*
X164544Y31457D01*
X165340Y32494D01*
X165841Y33703D01*
X166012Y35000D01*
X165841Y36297D01*
X165500Y37120D01*
X165834Y37620D01*
X171166D01*
X171501Y37120D01*
X171160Y36297D01*
X170989Y35000D01*
X171160Y33703D01*
X171660Y32494D01*
X172029Y32013D01*
Y25000D01*
X172164Y23972D01*
X172561Y23015D01*
X173192Y22192D01*
X174015Y21561D01*
X174972Y21164D01*
X176000Y21029D01*
X206000D01*
X207028Y21164D01*
X207985Y21561D01*
X208808Y22192D01*
X211479Y24863D01*
X212007Y24684D01*
X212103Y23956D01*
X212506Y22983D01*
X213147Y22147D01*
X213983Y21506D01*
X214956Y21103D01*
X215500Y21031D01*
Y25000D01*
X216000D01*
Y25500D01*
X219969D01*
X219897Y26044D01*
X219494Y27017D01*
X218853Y27853D01*
X218017Y28494D01*
X217044Y28897D01*
X216316Y28993D01*
X216137Y29521D01*
X216696Y30080D01*
X217297Y30160D01*
X218506Y30660D01*
X219544Y31457D01*
X220340Y32494D01*
X220841Y33703D01*
X221011Y35000D01*
X220841Y36297D01*
X220340Y37506D01*
X219971Y37987D01*
Y42013D01*
X220340Y42494D01*
X220841Y43703D01*
X221011Y45000D01*
X220841Y46297D01*
X220340Y47506D01*
X219544Y48544D01*
X218506Y49340D01*
X217566Y49729D01*
Y50271D01*
X218506Y50660D01*
X219544Y51456D01*
X220340Y52494D01*
X220841Y53703D01*
X221011Y55000D01*
X220841Y56297D01*
X220340Y57506D01*
X219544Y58544D01*
X218506Y59340D01*
X217566Y59729D01*
Y60271D01*
X218506Y60660D01*
X219544Y61457D01*
X220340Y62494D01*
X220841Y63703D01*
X221011Y65000D01*
X220841Y66297D01*
X220340Y67506D01*
X219544Y68544D01*
X218506Y69340D01*
X217566Y69730D01*
Y70271D01*
X218506Y70660D01*
X219544Y71456D01*
X220340Y72494D01*
X220841Y73703D01*
X221011Y75000D01*
X220886Y75955D01*
X227966Y83034D01*
X228407Y83610D01*
X228685Y84281D01*
X228780Y85000D01*
Y125000D01*
X228685Y125719D01*
X228407Y126390D01*
X227966Y126966D01*
X223365Y131566D01*
X222790Y132007D01*
X222119Y132285D01*
X221400Y132380D01*
X220969D01*
Y137220D01*
X221849D01*
X231035Y128035D01*
X231610Y127593D01*
X232281Y127315D01*
X233000Y127220D01*
X271092D01*
X271370Y126805D01*
X271160Y126297D01*
X270989Y125000D01*
X271160Y123703D01*
X271660Y122494D01*
X272457Y121457D01*
X273494Y120660D01*
X274435Y120271D01*
Y119729D01*
X273494Y119340D01*
X272457Y118544D01*
X271660Y117506D01*
X271160Y116297D01*
X270989Y115000D01*
X271160Y113703D01*
X271660Y112494D01*
X272457Y111457D01*
X273494Y110660D01*
X274435Y110271D01*
Y109730D01*
X273494Y109340D01*
X272457Y108544D01*
X271660Y107506D01*
X271160Y106297D01*
X270989Y105000D01*
X271160Y103703D01*
X271660Y102494D01*
X272457Y101456D01*
X273494Y100660D01*
X274435Y100271D01*
Y99730D01*
X273494Y99340D01*
X272457Y98544D01*
X271660Y97506D01*
X271160Y96297D01*
X270989Y95000D01*
X271160Y93703D01*
X271660Y92494D01*
X272457Y91457D01*
X273494Y90660D01*
X274435Y90271D01*
Y89729D01*
X273494Y89340D01*
X272457Y88544D01*
X271660Y87506D01*
X271160Y86297D01*
X270989Y85000D01*
X271160Y83703D01*
X271660Y82494D01*
X272457Y81457D01*
X273494Y80660D01*
X274435Y80271D01*
Y79729D01*
X273494Y79340D01*
X272457Y78544D01*
X271660Y77506D01*
X271160Y76297D01*
X270989Y75000D01*
X271160Y73703D01*
X271660Y72494D01*
X272457Y71456D01*
X273494Y70660D01*
X274435Y70271D01*
Y69730D01*
X273494Y69340D01*
X272457Y68544D01*
X271660Y67506D01*
X271160Y66297D01*
X270989Y65000D01*
X271160Y63703D01*
X271660Y62494D01*
X272457Y61457D01*
X273494Y60660D01*
X274435Y60271D01*
Y59729D01*
X273494Y59340D01*
X272457Y58544D01*
X271660Y57506D01*
X271160Y56297D01*
X270989Y55000D01*
X271160Y53703D01*
X271660Y52494D01*
X272457Y51456D01*
X273494Y50660D01*
X274435Y50271D01*
Y49729D01*
X273494Y49340D01*
X272457Y48544D01*
X271660Y47506D01*
X271160Y46297D01*
X270989Y45000D01*
X271160Y43703D01*
X271660Y42494D01*
X272457Y41456D01*
X273494Y40660D01*
X274435Y40271D01*
Y39729D01*
X273494Y39340D01*
X272457Y38544D01*
X271660Y37506D01*
X271160Y36297D01*
X270989Y35000D01*
X271160Y33703D01*
X271660Y32494D01*
X272457Y31457D01*
X273494Y30660D01*
X274703Y30160D01*
X276000Y29989D01*
X277297Y30160D01*
X278506Y30660D01*
X279544Y31457D01*
X280130Y32220D01*
X281000D01*
X281719Y32315D01*
X282390Y32593D01*
X282966Y33035D01*
X286977Y37045D01*
X287400Y36762D01*
X287103Y36044D01*
X287031Y35500D01*
X290500D01*
Y38969D01*
X289956Y38897D01*
X289238Y38600D01*
X288955Y39024D01*
X300045Y50114D01*
X301000Y49989D01*
X302297Y50160D01*
X303506Y50660D01*
X304544Y51456D01*
X305340Y52494D01*
X305841Y53703D01*
X306012Y55000D01*
X305841Y56297D01*
X305340Y57506D01*
X304544Y58544D01*
X303506Y59340D01*
X302566Y59729D01*
Y60271D01*
X303506Y60660D01*
X304544Y61457D01*
X305340Y62494D01*
X305841Y63703D01*
X306012Y65000D01*
X305841Y66297D01*
X305340Y67506D01*
X304544Y68544D01*
X303506Y69340D01*
X302297Y69841D01*
X301000Y70012D01*
X299703Y69841D01*
X298494Y69340D01*
X297457Y68544D01*
X296870Y67780D01*
X295130D01*
X294544Y68544D01*
X293506Y69340D01*
X292566Y69730D01*
Y70271D01*
X293506Y70660D01*
X294544Y71456D01*
X295340Y72494D01*
X295841Y73703D01*
X296011Y75000D01*
X295841Y76297D01*
X295340Y77506D01*
X294544Y78544D01*
X293506Y79340D01*
X292297Y79841D01*
X291000Y80011D01*
X289703Y79841D01*
X288494Y79340D01*
X287456Y78544D01*
X286660Y77506D01*
X286159Y76297D01*
X285989Y75000D01*
X286159Y73703D01*
X286660Y72494D01*
X287456Y71456D01*
X288494Y70660D01*
X289435Y70271D01*
Y69730D01*
X288494Y69340D01*
X287456Y68544D01*
X286660Y67506D01*
X286159Y66297D01*
X285989Y65000D01*
X286159Y63703D01*
X286660Y62494D01*
X287456Y61457D01*
X288494Y60660D01*
X289435Y60271D01*
Y59729D01*
X288494Y59340D01*
X287456Y58544D01*
X286870Y57780D01*
X286000D01*
X285281Y57685D01*
X284610Y57407D01*
X284035Y56966D01*
X281401Y54332D01*
X280953Y54553D01*
X281012Y55000D01*
X280841Y56297D01*
X280340Y57506D01*
X279544Y58544D01*
X278506Y59340D01*
X277566Y59729D01*
Y60271D01*
X278506Y60660D01*
X279544Y61457D01*
X280340Y62494D01*
X280841Y63703D01*
X281012Y65000D01*
X280841Y66297D01*
X280340Y67506D01*
X279544Y68544D01*
X278506Y69340D01*
X277566Y69730D01*
Y70271D01*
X278506Y70660D01*
X279544Y71456D01*
X280340Y72494D01*
X280841Y73703D01*
X281012Y75000D01*
X280841Y76297D01*
X280340Y77506D01*
X279544Y78544D01*
X278506Y79340D01*
X277566Y79729D01*
Y80271D01*
X278506Y80660D01*
X279544Y81457D01*
X280340Y82494D01*
X280841Y83703D01*
X281012Y85000D01*
X280841Y86297D01*
X280340Y87506D01*
X279544Y88544D01*
X278506Y89340D01*
X277566Y89729D01*
Y90271D01*
X278506Y90660D01*
X279544Y91457D01*
X280340Y92494D01*
X280841Y93703D01*
X281012Y95000D01*
X280841Y96297D01*
X280340Y97506D01*
X279544Y98544D01*
X278506Y99340D01*
X277566Y99730D01*
Y100271D01*
X278506Y100660D01*
X279544Y101456D01*
X280340Y102494D01*
X280841Y103703D01*
X281012Y105000D01*
X280841Y106297D01*
X280340Y107506D01*
X279544Y108544D01*
X278506Y109340D01*
X277566Y109730D01*
Y110271D01*
X278506Y110660D01*
X279544Y111457D01*
X280340Y112494D01*
X280841Y113703D01*
X281012Y115000D01*
X280841Y116297D01*
X280340Y117506D01*
X279544Y118544D01*
X278506Y119340D01*
X277566Y119729D01*
Y120271D01*
X278506Y120660D01*
X279544Y121457D01*
X280340Y122494D01*
X280841Y123703D01*
X281012Y125000D01*
X280841Y126297D01*
X280630Y126805D01*
X280908Y127220D01*
X326870D01*
X327456Y126456D01*
X328494Y125660D01*
X329435Y125271D01*
Y124730D01*
X328494Y124340D01*
X327456Y123544D01*
X326660Y122506D01*
X326160Y121297D01*
X325989Y120000D01*
X326160Y118703D01*
X326660Y117494D01*
X327456Y116456D01*
X328494Y115660D01*
X329435Y115271D01*
Y114729D01*
X328494Y114340D01*
X327456Y113544D01*
X326660Y112506D01*
X326160Y111297D01*
X325989Y110000D01*
X326160Y108703D01*
X326660Y107494D01*
X327456Y106456D01*
X328494Y105660D01*
X329435Y105271D01*
Y104729D01*
X328494Y104340D01*
X327456Y103544D01*
X326660Y102506D01*
X326160Y101297D01*
X325989Y100000D01*
X326160Y98703D01*
X326660Y97494D01*
X327456Y96456D01*
X328494Y95660D01*
X329435Y95271D01*
Y94730D01*
X328494Y94340D01*
X327456Y93544D01*
X326660Y92506D01*
X326160Y91297D01*
X325989Y90000D01*
X326160Y88703D01*
X326660Y87494D01*
X327456Y86457D01*
X328494Y85660D01*
X329435Y85271D01*
Y84729D01*
X328494Y84340D01*
X327456Y83544D01*
X326660Y82506D01*
X326160Y81297D01*
X325989Y80000D01*
X326160Y78703D01*
X326660Y77494D01*
X327456Y76456D01*
X328494Y75660D01*
X329435Y75271D01*
Y74730D01*
X328494Y74340D01*
X327456Y73544D01*
X326660Y72506D01*
X326160Y71297D01*
X325989Y70000D01*
X326160Y68703D01*
X326660Y67494D01*
X327456Y66457D01*
X328494Y65660D01*
X329435Y65271D01*
Y64729D01*
X328494Y64340D01*
X327456Y63544D01*
X326660Y62506D01*
X326160Y61297D01*
X325989Y60000D01*
X326160Y58703D01*
X326660Y57494D01*
X327456Y56457D01*
X328494Y55660D01*
X329435Y55271D01*
Y54729D01*
X328494Y54340D01*
X327456Y53544D01*
X326660Y52506D01*
X326160Y51297D01*
X325989Y50000D01*
X326160Y48703D01*
X326660Y47494D01*
X327456Y46457D01*
X328494Y45660D01*
X329435Y45271D01*
Y44730D01*
X328494Y44340D01*
X327456Y43544D01*
X326660Y42506D01*
X326160Y41297D01*
X325989Y40000D01*
X326160Y38703D01*
X326660Y37494D01*
X327456Y36457D01*
X328494Y35660D01*
X329703Y35160D01*
X331000Y34989D01*
X332297Y35160D01*
X333506Y35660D01*
X334544Y36457D01*
X335340Y37494D01*
X335841Y38703D01*
X336012Y40000D01*
X335841Y41297D01*
X335340Y42506D01*
X334544Y43544D01*
X333506Y44340D01*
X332566Y44730D01*
Y45271D01*
X333506Y45660D01*
X334544Y46457D01*
X335340Y47494D01*
X335841Y48703D01*
X336012Y50000D01*
X335841Y51297D01*
X335340Y52506D01*
X334544Y53544D01*
X333506Y54340D01*
X332566Y54729D01*
Y55271D01*
X333506Y55660D01*
X334544Y56457D01*
X335340Y57494D01*
X335841Y58703D01*
X336012Y60000D01*
X335953Y60447D01*
X336401Y60668D01*
X339476Y57594D01*
X340051Y57152D01*
X340722Y56874D01*
X341441Y56779D01*
X361458D01*
X362224Y55783D01*
X363330Y54934D01*
X364618Y54400D01*
X366000Y54218D01*
X367382Y54400D01*
X368671Y54934D01*
X369777Y55783D01*
X370625Y56889D01*
X371159Y58177D01*
X371341Y59559D01*
X371159Y60941D01*
X370625Y62230D01*
X369777Y63336D01*
X368671Y64184D01*
X367382Y64718D01*
X367201Y64742D01*
Y65246D01*
X367382Y65270D01*
X368671Y65804D01*
X369777Y66653D01*
X370625Y67759D01*
X371159Y69047D01*
X371341Y70429D01*
X371159Y71811D01*
X370804Y72669D01*
X371082Y73085D01*
X372639D01*
X373405Y72088D01*
X374511Y71239D01*
X375799Y70705D01*
X375981Y70681D01*
Y70177D01*
X375799Y70153D01*
X374511Y69620D01*
X373405Y68771D01*
X372556Y67665D01*
X372022Y66376D01*
X371840Y64994D01*
X372022Y63612D01*
X372556Y62324D01*
X373405Y61217D01*
X374511Y60369D01*
X375799Y59835D01*
X377181Y59653D01*
X378563Y59835D01*
X379852Y60369D01*
X380958Y61217D01*
X381806Y62324D01*
X382340Y63612D01*
X382522Y64994D01*
X382340Y66376D01*
X381806Y67665D01*
X380958Y68771D01*
X379852Y69620D01*
X378563Y70153D01*
X378381Y70177D01*
Y70681D01*
X378563Y70705D01*
X379852Y71239D01*
X380958Y72088D01*
X381806Y73194D01*
X382340Y74482D01*
X382522Y75864D01*
X382340Y77247D01*
X381806Y78535D01*
X380958Y79641D01*
X379852Y80490D01*
X378563Y81023D01*
X378382Y81047D01*
Y81551D01*
X378563Y81575D01*
X379852Y82109D01*
X380958Y82958D01*
X381806Y84064D01*
X382340Y85352D01*
X382522Y86734D01*
X382340Y88117D01*
X381806Y89405D01*
X380958Y90511D01*
X379852Y91360D01*
X378563Y91893D01*
X378382Y91917D01*
Y92422D01*
X378563Y92445D01*
X379852Y92979D01*
X380958Y93828D01*
X381806Y94934D01*
X382340Y96222D01*
X382522Y97604D01*
X382358Y98850D01*
X386466Y102958D01*
X386907Y103533D01*
X387185Y104204D01*
X387280Y104923D01*
Y249000D01*
X387185Y249720D01*
X386907Y250390D01*
X386466Y250966D01*
X380466Y256966D01*
X379890Y257407D01*
X379688Y257491D01*
X379525Y257848D01*
X379496Y258112D01*
X379851Y258968D01*
X379921Y259500D01*
X372079D01*
X372149Y258968D01*
X372434Y258280D01*
X372121Y257780D01*
X337151D01*
X328955Y265977D01*
X329238Y266401D01*
X329956Y266103D01*
X330500Y266031D01*
Y269500D01*
X327031D01*
X327103Y268956D01*
X327400Y268238D01*
X326977Y267954D01*
X315364Y279567D01*
X315555Y280029D01*
X335355D01*
X346080Y269304D01*
X346160Y268703D01*
X346660Y267494D01*
X347457Y266457D01*
X348494Y265660D01*
X349703Y265160D01*
X351000Y264989D01*
X352297Y265160D01*
X353506Y265660D01*
X353987Y266029D01*
X371079D01*
Y265079D01*
X380921D01*
Y274921D01*
X371079D01*
Y273971D01*
X353987D01*
X353506Y274340D01*
X352297Y274841D01*
X351696Y274920D01*
X342078Y284538D01*
X342269Y285000D01*
X396000D01*
Y5000D01*
D02*
G37*
G36*
X211042Y65404D02*
X210989Y65000D01*
X211159Y63703D01*
X211660Y62494D01*
X212456Y61457D01*
X213494Y60660D01*
X214435Y60271D01*
Y59729D01*
X213494Y59340D01*
X212456Y58544D01*
X211870Y57780D01*
X203326D01*
X203156Y58280D01*
X203391Y58460D01*
X210568Y65637D01*
X211042Y65404D01*
D02*
G37*
G36*
X156114Y105955D02*
X155989Y105000D01*
X156159Y103703D01*
X156660Y102494D01*
X157457Y101456D01*
X158494Y100660D01*
X159435Y100271D01*
Y99730D01*
X158494Y99340D01*
X157457Y98544D01*
X156660Y97506D01*
X156159Y96297D01*
X155989Y95000D01*
X156159Y93703D01*
X156660Y92494D01*
X157457Y91457D01*
X158494Y90660D01*
X159435Y90271D01*
Y89729D01*
X158494Y89340D01*
X157457Y88544D01*
X156660Y87506D01*
X156159Y86297D01*
X155989Y85000D01*
X156159Y83703D01*
X156660Y82494D01*
X157457Y81457D01*
X158494Y80660D01*
X159435Y80271D01*
Y79729D01*
X158494Y79340D01*
X157457Y78544D01*
X156660Y77506D01*
X156159Y76297D01*
X155989Y75000D01*
X156159Y73703D01*
X156660Y72494D01*
X157457Y71456D01*
X158494Y70660D01*
X159435Y70271D01*
Y69730D01*
X158494Y69340D01*
X157457Y68544D01*
X156660Y67506D01*
X156159Y66297D01*
X155989Y65000D01*
X156159Y63703D01*
X156194Y63621D01*
X155916Y63205D01*
X155425D01*
X154706Y63110D01*
X154035Y62833D01*
X153460Y62391D01*
X143849Y52780D01*
X105908D01*
X105631Y53196D01*
X105841Y53703D01*
X106011Y55000D01*
X105841Y56297D01*
X105500Y57120D01*
X105524Y57239D01*
X105822Y57650D01*
X106319Y57715D01*
X106990Y57993D01*
X107566Y58435D01*
X132966Y83834D01*
X133407Y84410D01*
X133685Y85081D01*
X133780Y85800D01*
Y127582D01*
X134280Y127789D01*
X156114Y105955D01*
D02*
G37*
G36*
X244711Y251759D02*
X238017Y245064D01*
X232142D01*
X231842Y245564D01*
X232136Y246272D01*
X232271Y247300D01*
X232136Y248328D01*
X231739Y249286D01*
X231108Y250108D01*
X230286Y250739D01*
X229328Y251136D01*
X228300Y251271D01*
X227272Y251136D01*
X226315Y250739D01*
X225492Y250108D01*
X225471Y250080D01*
X166300D01*
X165581Y249985D01*
X164910Y249707D01*
X164335Y249266D01*
X129280Y214211D01*
X128780Y214418D01*
Y247100D01*
X128685Y247820D01*
X128407Y248490D01*
X127966Y249066D01*
X125273Y251759D01*
X125464Y252220D01*
X244520D01*
X244711Y251759D01*
D02*
G37*
G36*
X212342Y206620D02*
X212103Y206044D01*
X212031Y205500D01*
X216000D01*
Y204500D01*
X212031D01*
X212103Y203956D01*
X212252Y203595D01*
X211975Y203180D01*
X197930D01*
X197908Y203208D01*
X197086Y203839D01*
X196128Y204236D01*
X195100Y204371D01*
X194072Y204236D01*
X193115Y203839D01*
X192292Y203208D01*
X192276Y203187D01*
X191777Y203154D01*
X190886Y204046D01*
X191012Y205000D01*
X190841Y206297D01*
X190672Y206705D01*
X190950Y207120D01*
X212008D01*
X212342Y206620D01*
D02*
G37*
G36*
X262489Y206620D02*
X258549Y202680D01*
X250867D01*
X250589Y203096D01*
X250841Y203703D01*
X251011Y205000D01*
X250841Y206297D01*
X250672Y206705D01*
X250950Y207120D01*
X262282D01*
X262489Y206620D01*
D02*
G37*
G36*
X181032Y212680D02*
X165867D01*
X165589Y213095D01*
X165841Y213703D01*
X165920Y214304D01*
X168445Y216829D01*
X181032D01*
Y212680D01*
D02*
G37*
G36*
X381720Y211310D02*
Y194564D01*
X381259Y194373D01*
X369978Y205654D01*
X370201Y206137D01*
X371591Y206028D01*
X373370Y206168D01*
X375105Y206585D01*
X376754Y207268D01*
X378276Y208200D01*
X379633Y209359D01*
X380792Y210716D01*
X381239Y211446D01*
X381720Y211310D01*
D02*
G37*
G36*
X107517Y146879D02*
X107164Y146028D01*
X107029Y145000D01*
X107164Y143972D01*
X107561Y143015D01*
X108192Y142192D01*
X109015Y141561D01*
X109972Y141164D01*
X111000Y141029D01*
X111035Y141034D01*
X118220Y133849D01*
Y128858D01*
X117720Y128549D01*
X117028Y128836D01*
X116000Y128971D01*
X114972Y128836D01*
X114015Y128439D01*
X113192Y127808D01*
X112561Y126986D01*
X112164Y126028D01*
X112029Y125000D01*
X112164Y123972D01*
X112561Y123015D01*
X113192Y122192D01*
X113220Y122170D01*
Y111151D01*
X106401Y104332D01*
X105953Y104553D01*
X106011Y105000D01*
X105841Y106297D01*
X105340Y107506D01*
X104544Y108544D01*
X103506Y109340D01*
X102566Y109730D01*
Y110271D01*
X103506Y110660D01*
X104544Y111457D01*
X105340Y112494D01*
X105841Y113703D01*
X106011Y115000D01*
X105841Y116297D01*
X105340Y117506D01*
X104544Y118544D01*
X103506Y119340D01*
X102566Y119729D01*
Y120271D01*
X103506Y120660D01*
X104544Y121457D01*
X105340Y122494D01*
X105841Y123703D01*
X106011Y125000D01*
X105841Y126297D01*
X105340Y127506D01*
X104544Y128544D01*
X103506Y129340D01*
X102566Y129729D01*
Y130271D01*
X103506Y130660D01*
X104544Y131456D01*
X105340Y132494D01*
X105841Y133703D01*
X106011Y135000D01*
X105841Y136297D01*
X105340Y137506D01*
X104544Y138544D01*
X103506Y139340D01*
X102566Y139729D01*
Y140271D01*
X103506Y140660D01*
X104544Y141456D01*
X105340Y142494D01*
X105841Y143703D01*
X106011Y145000D01*
X105886Y145955D01*
X107093Y147162D01*
X107517Y146879D01*
D02*
G37*
G36*
X96048Y105447D02*
X95989Y105000D01*
X96159Y103703D01*
X96660Y102494D01*
X97457Y101456D01*
X98494Y100660D01*
X99435Y100271D01*
Y99730D01*
X98494Y99340D01*
X97457Y98544D01*
X96660Y97506D01*
X96159Y96297D01*
X95989Y95000D01*
X96159Y93703D01*
X96660Y92494D01*
X97457Y91457D01*
X98494Y90660D01*
X99435Y90271D01*
Y89729D01*
X98494Y89340D01*
X97457Y88544D01*
X96660Y87506D01*
X96159Y86297D01*
X96135Y86115D01*
X95662Y85954D01*
X85920Y95696D01*
X85841Y96297D01*
X85340Y97506D01*
X84544Y98544D01*
X83841Y99083D01*
X84011Y99583D01*
X88362D01*
X89082Y99677D01*
X89752Y99955D01*
X90328Y100397D01*
X95599Y105668D01*
X96048Y105447D01*
D02*
G37*
G36*
X353300Y84769D02*
X353876Y84327D01*
X354546Y84049D01*
X355266Y83955D01*
X362019D01*
X362240Y83506D01*
X362221Y83481D01*
X361785Y82429D01*
X361702Y81799D01*
X366000D01*
Y80799D01*
X361702D01*
X361785Y80170D01*
X362221Y79117D01*
X362240Y79092D01*
X362019Y78644D01*
X358964D01*
X358245Y78549D01*
X357575Y78272D01*
X356999Y77830D01*
X356949Y77780D01*
X344944D01*
X344617Y78280D01*
X344897Y78956D01*
X344969Y79500D01*
X341000D01*
Y80000D01*
X340500D01*
Y83969D01*
X339956Y83897D01*
X338983Y83494D01*
X338828Y83376D01*
X338380Y83597D01*
Y85400D01*
X338285Y86120D01*
X338108Y86547D01*
X338519Y86862D01*
X338983Y86506D01*
X339956Y86103D01*
X340500Y86031D01*
Y90000D01*
X341000D01*
Y90500D01*
X344969D01*
X344897Y91044D01*
X344617Y91720D01*
X344944Y92220D01*
X345849D01*
X353300Y84769D01*
D02*
G37*
G36*
X223220Y123849D02*
Y86151D01*
X221401Y84332D01*
X220953Y84553D01*
X221011Y85000D01*
X220841Y86297D01*
X220340Y87506D01*
X219544Y88544D01*
X218506Y89340D01*
X217566Y89729D01*
Y90271D01*
X218506Y90660D01*
X219544Y91457D01*
X220340Y92494D01*
X220841Y93703D01*
X221011Y95000D01*
X220841Y96297D01*
X220340Y97506D01*
X219544Y98544D01*
X218506Y99340D01*
X217566Y99730D01*
Y100271D01*
X218506Y100660D01*
X219544Y101456D01*
X220340Y102494D01*
X220841Y103703D01*
X221011Y105000D01*
X220841Y106297D01*
X220340Y107506D01*
X219544Y108544D01*
X218506Y109340D01*
X217566Y109730D01*
Y110271D01*
X218506Y110660D01*
X219544Y111457D01*
X220340Y112494D01*
X220841Y113703D01*
X221011Y115000D01*
X220841Y116297D01*
X220340Y117506D01*
X219544Y118544D01*
X218506Y119340D01*
X217566Y119729D01*
Y120271D01*
X218506Y120660D01*
X219544Y121457D01*
X220340Y122494D01*
X220841Y123703D01*
X221011Y125000D01*
X220953Y125447D01*
X221401Y125668D01*
X223220Y123849D01*
D02*
G37*
G36*
X212625Y197172D02*
X212506Y197017D01*
X212103Y196044D01*
X212031Y195500D01*
X216000D01*
Y194500D01*
X212031D01*
X212103Y193956D01*
X212242Y193621D01*
X211964Y193205D01*
X207430D01*
X207408Y193233D01*
X206586Y193864D01*
X205628Y194261D01*
X204600Y194396D01*
X203572Y194261D01*
X202615Y193864D01*
X201792Y193233D01*
X201161Y192411D01*
X200764Y191453D01*
X200629Y190425D01*
X200764Y189398D01*
X201088Y188617D01*
X200664Y188333D01*
X193586Y195411D01*
Y196256D01*
X193981Y196569D01*
X194086Y196563D01*
X195100Y196429D01*
X196128Y196564D01*
X197086Y196961D01*
X197908Y197592D01*
X197930Y197620D01*
X212404D01*
X212625Y197172D01*
D02*
G37*
G36*
X211080Y214304D02*
X211159Y213703D01*
X211411Y213095D01*
X211133Y212680D01*
X190969D01*
Y216829D01*
X208555D01*
X211080Y214304D01*
D02*
G37*
G36*
X225492Y244492D02*
X226004Y244099D01*
X226308Y243674D01*
X226031Y243004D01*
X225936Y242284D01*
Y240003D01*
X224703Y239841D01*
X223494Y239340D01*
X222457Y238544D01*
X221870Y237780D01*
X220130D01*
X219544Y238544D01*
X218506Y239340D01*
X217297Y239841D01*
X216000Y240012D01*
X214703Y239841D01*
X213494Y239340D01*
X212456Y238544D01*
X211660Y237506D01*
X211271Y236566D01*
X210730D01*
X210340Y237506D01*
X209544Y238544D01*
X208506Y239340D01*
X207297Y239841D01*
X206000Y240012D01*
X204703Y239841D01*
X203976Y239540D01*
X203515Y239731D01*
X203407Y239990D01*
X202966Y240566D01*
X200466Y243066D01*
X199890Y243507D01*
X199220Y243785D01*
X198500Y243880D01*
X167895D01*
X167639Y244380D01*
X167740Y244520D01*
X225471D01*
X225492Y244492D01*
D02*
G37*
G36*
X76328Y241705D02*
X76160Y241297D01*
X75989Y240000D01*
X76160Y238703D01*
X76660Y237494D01*
X77456Y236456D01*
X78494Y235660D01*
X79435Y235271D01*
Y234730D01*
X78494Y234340D01*
X77456Y233544D01*
X76660Y232506D01*
X76160Y231297D01*
X76041Y230397D01*
X75513Y230218D01*
X73293Y232438D01*
X72717Y232880D01*
X72047Y233157D01*
X71328Y233252D01*
X55130D01*
X54544Y234016D01*
X53506Y234812D01*
X52756Y235123D01*
Y235664D01*
X53506Y235975D01*
X54544Y236771D01*
X55340Y237809D01*
X55841Y239018D01*
X56011Y240315D01*
X55841Y241612D01*
X55802Y241705D01*
X56080Y242120D01*
X76051D01*
X76328Y241705D01*
D02*
G37*
G36*
X381720Y247849D02*
Y223493D01*
X381239Y223358D01*
X380792Y224087D01*
X379633Y225444D01*
X378276Y226603D01*
X376754Y227536D01*
X375105Y228219D01*
X373370Y228635D01*
X371591Y228775D01*
X369812Y228635D01*
X368076Y228219D01*
X366427Y227536D01*
X364905Y226603D01*
X363548Y225444D01*
X362389Y224087D01*
X361457Y222565D01*
X360774Y220916D01*
X360357Y219181D01*
X360217Y217402D01*
X360357Y215622D01*
X360774Y213887D01*
X361102Y213095D01*
X360824Y212680D01*
X325839D01*
X325648Y213142D01*
X353808Y241302D01*
X354439Y242124D01*
X354836Y243082D01*
X354971Y244110D01*
Y246029D01*
X373091D01*
X373518Y245701D01*
X374715Y245205D01*
X376000Y245036D01*
X377285Y245205D01*
X378482Y245701D01*
X379510Y246490D01*
X380299Y247518D01*
X380605Y248257D01*
X381195Y248374D01*
X381720Y247849D01*
D02*
G37*
G36*
X121500Y241031D02*
X122044Y241103D01*
X122720Y241383D01*
X123220Y241056D01*
Y198857D01*
X122720Y198549D01*
X122028Y198836D01*
X121000Y198971D01*
X119972Y198836D01*
X119015Y198439D01*
X118192Y197808D01*
X117561Y196985D01*
X117164Y196028D01*
X117029Y195000D01*
X117034Y194965D01*
X105024Y182955D01*
X104600Y183238D01*
X104897Y183956D01*
X104969Y184500D01*
X101500D01*
Y181031D01*
X102044Y181103D01*
X102762Y181400D01*
X103045Y180977D01*
X101955Y179886D01*
X101000Y180011D01*
X99703Y179841D01*
X98494Y179340D01*
X97457Y178544D01*
X96660Y177506D01*
X96159Y176297D01*
X95989Y175000D01*
X96159Y173703D01*
X96660Y172494D01*
X97457Y171457D01*
X98494Y170660D01*
X99435Y170271D01*
Y169729D01*
X98494Y169340D01*
X97457Y168544D01*
X96660Y167506D01*
X96159Y166297D01*
X95989Y165000D01*
X96159Y163703D01*
X96370Y163196D01*
X96092Y162780D01*
X89373D01*
X89039Y163586D01*
X88408Y164408D01*
X87586Y165039D01*
X86628Y165436D01*
X85600Y165571D01*
X84572Y165436D01*
X83615Y165039D01*
X82792Y164408D01*
X82161Y163586D01*
X81764Y162628D01*
X81629Y161600D01*
X81764Y160572D01*
X82161Y159615D01*
X82792Y158792D01*
X83615Y158161D01*
X84572Y157764D01*
X85600Y157629D01*
X85739Y157647D01*
X85810Y157593D01*
X86481Y157315D01*
X87200Y157220D01*
X96092D01*
X96370Y156805D01*
X96159Y156297D01*
X95989Y155000D01*
X96114Y154045D01*
X87635Y145566D01*
X87193Y144990D01*
X86915Y144319D01*
X86820Y143600D01*
Y131151D01*
X77449Y121780D01*
X51830D01*
X51808Y121808D01*
X50985Y122439D01*
X50028Y122836D01*
X49000Y122971D01*
X47972Y122836D01*
X47015Y122439D01*
X46192Y121808D01*
X45561Y120985D01*
X45164Y120028D01*
X45029Y119000D01*
X45164Y117972D01*
X45561Y117015D01*
X46192Y116192D01*
X47015Y115561D01*
X47694Y115280D01*
X47594Y114780D01*
X43780D01*
Y131170D01*
X43808Y131192D01*
X44439Y132015D01*
X44836Y132972D01*
X44971Y134000D01*
X44836Y135028D01*
X44439Y135986D01*
X43808Y136808D01*
X42985Y137439D01*
X42028Y137836D01*
X41000Y137971D01*
X39972Y137836D01*
X39015Y137439D01*
X38192Y136808D01*
X37561Y135986D01*
X37164Y135028D01*
X37068Y134298D01*
X37029Y134000D01*
X36538Y133900D01*
X36000Y133971D01*
Y185216D01*
X36462Y185407D01*
X62820Y159049D01*
Y154026D01*
X62405Y153748D01*
X62044Y153897D01*
X61500Y153969D01*
Y150000D01*
Y146031D01*
X62044Y146103D01*
X62069Y146113D01*
X62594Y145789D01*
X62614Y145545D01*
X61955Y144886D01*
X61000Y145011D01*
X59703Y144841D01*
X58494Y144340D01*
X57456Y143544D01*
X56660Y142506D01*
X56160Y141297D01*
X55989Y140000D01*
X56160Y138703D01*
X56660Y137494D01*
X57456Y136457D01*
X58494Y135660D01*
X59435Y135271D01*
Y134730D01*
X58494Y134340D01*
X57456Y133544D01*
X56660Y132506D01*
X56160Y131297D01*
X55989Y130000D01*
X56160Y128703D01*
X56660Y127494D01*
X57456Y126456D01*
X58494Y125660D01*
X59703Y125160D01*
X61000Y124989D01*
X62297Y125160D01*
X63506Y125660D01*
X64544Y126456D01*
X65340Y127494D01*
X65729Y128435D01*
X66271D01*
X66660Y127494D01*
X67457Y126456D01*
X68494Y125660D01*
X69703Y125160D01*
X71000Y124989D01*
X72297Y125160D01*
X73506Y125660D01*
X74544Y126456D01*
X75340Y127494D01*
X75841Y128703D01*
X76012Y130000D01*
X75841Y131297D01*
X75340Y132506D01*
X74544Y133544D01*
X73506Y134340D01*
X72566Y134730D01*
Y135271D01*
X73506Y135660D01*
X74544Y136457D01*
X75340Y137494D01*
X75841Y138703D01*
X76012Y140000D01*
X75841Y141297D01*
X75340Y142506D01*
X74544Y143544D01*
X73506Y144340D01*
X72566Y144729D01*
Y145271D01*
X73506Y145660D01*
X74544Y146457D01*
X75340Y147494D01*
X75841Y148703D01*
X76012Y150000D01*
X75841Y151297D01*
X75340Y152506D01*
X74544Y153544D01*
X73506Y154340D01*
X72297Y154841D01*
X71000Y155011D01*
X69703Y154841D01*
X68880Y154500D01*
X68380Y154834D01*
Y157734D01*
X68880Y158069D01*
X69372Y157864D01*
X70400Y157729D01*
X71428Y157864D01*
X72386Y158261D01*
X73208Y158892D01*
X73839Y159715D01*
X74236Y160672D01*
X74371Y161700D01*
X74236Y162728D01*
X73839Y163686D01*
X73208Y164508D01*
X72386Y165139D01*
X71428Y165536D01*
X70400Y165671D01*
X70365Y165666D01*
X50505Y185527D01*
X50738Y186000D01*
X51000Y185966D01*
X52044Y186103D01*
X53017Y186506D01*
X53853Y187147D01*
X54494Y187983D01*
X54897Y188956D01*
X54969Y189500D01*
X51000D01*
Y190000D01*
X50500D01*
Y193969D01*
X49956Y193897D01*
X48983Y193494D01*
X48147Y192853D01*
X47506Y192017D01*
X47103Y191044D01*
X46966Y190000D01*
X47000Y189738D01*
X46527Y189505D01*
X41866Y194165D01*
X41871Y194200D01*
X41736Y195228D01*
X41339Y196186D01*
X40708Y197008D01*
X39886Y197639D01*
X38928Y198036D01*
X37900Y198171D01*
X36872Y198036D01*
X36416Y197847D01*
X36000Y198124D01*
Y240976D01*
X36416Y241253D01*
X36872Y241064D01*
X37900Y240929D01*
X38928Y241064D01*
X39886Y241461D01*
X40708Y242092D01*
X40730Y242120D01*
X45920D01*
X46198Y241705D01*
X46159Y241612D01*
X45989Y240315D01*
X46159Y239018D01*
X46660Y237809D01*
X47456Y236771D01*
X48494Y235975D01*
X49245Y235664D01*
Y235123D01*
X48494Y234812D01*
X47456Y234016D01*
X46660Y232978D01*
X46159Y231769D01*
X45989Y230472D01*
X46159Y229175D01*
X46660Y227967D01*
X47456Y226929D01*
X48494Y226132D01*
X49703Y225632D01*
X50792Y225488D01*
Y224984D01*
X49703Y224841D01*
X48494Y224340D01*
X47456Y223544D01*
X46660Y222506D01*
X46159Y221297D01*
X45989Y220000D01*
X46159Y218703D01*
X46370Y218196D01*
X46092Y217780D01*
X44830D01*
X44808Y217808D01*
X43986Y218439D01*
X43028Y218836D01*
X42000Y218971D01*
X40972Y218836D01*
X40015Y218439D01*
X39192Y217808D01*
X38561Y216986D01*
X38164Y216028D01*
X38029Y215000D01*
X38164Y213972D01*
X38561Y213015D01*
X39192Y212192D01*
X40015Y211561D01*
X40972Y211164D01*
X42000Y211029D01*
X43028Y211164D01*
X43986Y211561D01*
X44808Y212192D01*
X44830Y212220D01*
X46092D01*
X46370Y211805D01*
X46159Y211297D01*
X45989Y210000D01*
X46159Y208703D01*
X46660Y207494D01*
X47456Y206456D01*
X48494Y205660D01*
X49435Y205271D01*
Y204730D01*
X48494Y204340D01*
X47456Y203544D01*
X46660Y202506D01*
X46159Y201297D01*
X45989Y200000D01*
X46159Y198703D01*
X46660Y197494D01*
X47456Y196457D01*
X48494Y195660D01*
X49703Y195159D01*
X51000Y194989D01*
X52297Y195159D01*
X53506Y195660D01*
X54544Y196457D01*
X55340Y197494D01*
X55841Y198703D01*
X56011Y200000D01*
X55841Y201297D01*
X55340Y202506D01*
X54544Y203544D01*
X53506Y204340D01*
X52566Y204730D01*
Y205271D01*
X53506Y205660D01*
X54544Y206456D01*
X55340Y207494D01*
X55841Y208703D01*
X56011Y210000D01*
X55841Y211297D01*
X55630Y211805D01*
X55908Y212220D01*
X58100D01*
X58820Y212315D01*
X59490Y212593D01*
X60066Y213035D01*
X64252Y217220D01*
X76870D01*
X77456Y216457D01*
X78494Y215660D01*
X79435Y215271D01*
Y214729D01*
X78494Y214340D01*
X77456Y213544D01*
X76660Y212506D01*
X76160Y211297D01*
X75989Y210000D01*
X76160Y208703D01*
X76660Y207494D01*
X77456Y206456D01*
X78494Y205660D01*
X79435Y205271D01*
Y204730D01*
X78494Y204340D01*
X77456Y203544D01*
X76660Y202506D01*
X76160Y201297D01*
X75989Y200000D01*
X76160Y198703D01*
X76660Y197494D01*
X77456Y196457D01*
X78494Y195660D01*
X79435Y195271D01*
Y194729D01*
X78494Y194340D01*
X77456Y193544D01*
X76660Y192506D01*
X76160Y191297D01*
X75989Y190000D01*
X76160Y188703D01*
X76660Y187494D01*
X77456Y186457D01*
X78494Y185660D01*
X79703Y185160D01*
X81000Y184989D01*
X82297Y185160D01*
X83506Y185660D01*
X84544Y186457D01*
X85340Y187494D01*
X85841Y188703D01*
X86011Y190000D01*
X85841Y191297D01*
X85340Y192506D01*
X84544Y193544D01*
X83506Y194340D01*
X82566Y194729D01*
Y195271D01*
X83506Y195660D01*
X84544Y196457D01*
X85340Y197494D01*
X85841Y198703D01*
X86011Y200000D01*
X85841Y201297D01*
X85340Y202506D01*
X84544Y203544D01*
X83506Y204340D01*
X82566Y204730D01*
Y205271D01*
X83506Y205660D01*
X84544Y206456D01*
X85340Y207494D01*
X85841Y208703D01*
X86011Y210000D01*
X85841Y211297D01*
X85340Y212506D01*
X84544Y213544D01*
X83506Y214340D01*
X82566Y214729D01*
Y215271D01*
X83506Y215660D01*
X84544Y216457D01*
X85340Y217494D01*
X85841Y218703D01*
X86011Y220000D01*
X85841Y221297D01*
X85500Y222120D01*
X85834Y222620D01*
X93706D01*
X94425Y222715D01*
X95096Y222993D01*
X95671Y223435D01*
X116597Y244361D01*
X117071Y244200D01*
X117103Y243956D01*
X117506Y242983D01*
X118147Y242147D01*
X118983Y241506D01*
X119956Y241103D01*
X120500Y241031D01*
Y245000D01*
X121500D01*
Y241031D01*
D02*
G37*
G36*
X191660Y232494D02*
X192456Y231456D01*
X193494Y230660D01*
X194703Y230159D01*
X196000Y229989D01*
X197297Y230159D01*
X198506Y230660D01*
X199000Y231039D01*
X199035Y231035D01*
X204035Y226035D01*
X204610Y225593D01*
X205281Y225315D01*
X205615Y225271D01*
X205583Y224771D01*
X166800D01*
X165772Y224636D01*
X164815Y224239D01*
X163992Y223608D01*
X160304Y219920D01*
X159703Y219841D01*
X159596Y219796D01*
X159180Y220074D01*
Y224249D01*
X167151Y232220D01*
X181870D01*
X182457Y231456D01*
X183494Y230660D01*
X184703Y230159D01*
X186000Y229989D01*
X187297Y230159D01*
X188506Y230660D01*
X189544Y231456D01*
X190340Y232494D01*
X190729Y233435D01*
X191271D01*
X191660Y232494D01*
D02*
G37*
G36*
X74435Y223435D02*
X74636Y223280D01*
X74467Y222780D01*
X63100D01*
X62381Y222685D01*
X61710Y222407D01*
X61135Y221966D01*
X56949Y217780D01*
X55908D01*
X55630Y218196D01*
X55841Y218703D01*
X56011Y220000D01*
X55841Y221297D01*
X55340Y222506D01*
X54544Y223544D01*
X53506Y224340D01*
X52297Y224841D01*
X51208Y224984D01*
Y225488D01*
X52297Y225632D01*
X53506Y226132D01*
X54544Y226929D01*
X55130Y227693D01*
X70176D01*
X74435Y223435D01*
D02*
G37*
G36*
X262243Y213142D02*
X262051Y212680D01*
X250969D01*
Y219969D01*
X241032D01*
Y212680D01*
X229949D01*
X229757Y213142D01*
X246000Y229384D01*
X262243Y213142D01*
D02*
G37*
G36*
X96500Y247120D02*
X96159Y246297D01*
X95989Y245000D01*
X96159Y243703D01*
X96660Y242494D01*
X97457Y241457D01*
X98494Y240660D01*
X99703Y240160D01*
X101000Y239989D01*
X102297Y240160D01*
X103506Y240660D01*
X104544Y241457D01*
X105340Y242494D01*
X105841Y243703D01*
X105943Y244478D01*
X106465Y244618D01*
X106792Y244192D01*
X107396Y243729D01*
X107491Y243116D01*
X92554Y228180D01*
X86074D01*
X85796Y228595D01*
X85841Y228703D01*
X86011Y230000D01*
X85841Y231297D01*
X85340Y232506D01*
X84544Y233544D01*
X83506Y234340D01*
X82566Y234730D01*
Y235271D01*
X83506Y235660D01*
X84544Y236456D01*
X85340Y237494D01*
X85841Y238703D01*
X86011Y240000D01*
X85841Y241297D01*
X85340Y242506D01*
X85143Y242763D01*
X85166Y242935D01*
X89851Y247620D01*
X96166D01*
X96500Y247120D01*
D02*
G37*
G36*
X230143Y224759D02*
X224355Y218971D01*
X218987D01*
X218506Y219340D01*
X217297Y219841D01*
X216696Y219920D01*
X213008Y223608D01*
X212186Y224239D01*
X211228Y224636D01*
X210585Y224720D01*
X210618Y225220D01*
X229951D01*
X230143Y224759D01*
D02*
G37*
%LPC*%
G36*
X344969Y49500D02*
X341500D01*
Y46031D01*
X342044Y46103D01*
X343017Y46506D01*
X343853Y47147D01*
X344494Y47983D01*
X344897Y48956D01*
X344969Y49500D01*
D02*
G37*
G36*
X340500Y53969D02*
X339956Y53897D01*
X338983Y53494D01*
X338147Y52853D01*
X337506Y52017D01*
X337103Y51044D01*
X337031Y50500D01*
X340500D01*
Y53969D01*
D02*
G37*
G36*
X341500D02*
Y50500D01*
X344969D01*
X344897Y51044D01*
X344494Y52017D01*
X343853Y52853D01*
X343017Y53494D01*
X342044Y53897D01*
X341500Y53969D01*
D02*
G37*
G36*
X340500Y44000D02*
X337000D01*
Y40500D01*
X340500D01*
Y44000D01*
D02*
G37*
G36*
X345000D02*
X341500D01*
Y40500D01*
X345000D01*
Y44000D01*
D02*
G37*
G36*
X340500Y49500D02*
X337031D01*
X337103Y48956D01*
X337506Y47983D01*
X338147Y47147D01*
X338983Y46506D01*
X339956Y46103D01*
X340500Y46031D01*
Y49500D01*
D02*
G37*
G36*
X279969Y24500D02*
X276500D01*
Y21031D01*
X277044Y21103D01*
X278017Y21506D01*
X278853Y22147D01*
X279494Y22983D01*
X279897Y23956D01*
X279969Y24500D01*
D02*
G37*
G36*
X275500D02*
X272031D01*
X272103Y23956D01*
X272506Y22983D01*
X273147Y22147D01*
X273983Y21506D01*
X274956Y21103D01*
X275500Y21031D01*
Y24500D01*
D02*
G37*
G36*
X219969D02*
X216500D01*
Y21031D01*
X217044Y21103D01*
X218017Y21506D01*
X218853Y22147D01*
X219494Y22983D01*
X219897Y23956D01*
X219969Y24500D01*
D02*
G37*
G36*
X50500Y28969D02*
X49956Y28897D01*
X48983Y28494D01*
X48147Y27853D01*
X47506Y27017D01*
X47103Y26044D01*
X47031Y25500D01*
X50500D01*
Y28969D01*
D02*
G37*
G36*
X294969Y24500D02*
X291500D01*
Y21031D01*
X292044Y21103D01*
X293017Y21506D01*
X293853Y22147D01*
X294494Y22983D01*
X294897Y23956D01*
X294969Y24500D01*
D02*
G37*
G36*
X290500D02*
X287031D01*
X287103Y23956D01*
X287506Y22983D01*
X288147Y22147D01*
X288983Y21506D01*
X289956Y21103D01*
X290500Y21031D01*
Y24500D01*
D02*
G37*
G36*
X50500D02*
X47031D01*
X47103Y23956D01*
X47506Y22983D01*
X48147Y22147D01*
X48983Y21506D01*
X49956Y21103D01*
X50500Y21031D01*
Y24500D01*
D02*
G37*
G36*
X371591Y43531D02*
X369812Y43391D01*
X368076Y42974D01*
X366427Y42292D01*
X364905Y41359D01*
X363548Y40200D01*
X362389Y38843D01*
X361457Y37321D01*
X360774Y35672D01*
X360357Y33937D01*
X360217Y32157D01*
X360357Y30378D01*
X360774Y28643D01*
X361457Y26994D01*
X362389Y25472D01*
X363548Y24115D01*
X364905Y22956D01*
X366427Y22024D01*
X368076Y21340D01*
X369812Y20924D01*
X371591Y20784D01*
X373370Y20924D01*
X375105Y21340D01*
X376754Y22024D01*
X378276Y22956D01*
X379633Y24115D01*
X380792Y25472D01*
X381725Y26994D01*
X382408Y28643D01*
X382824Y30378D01*
X382964Y32157D01*
X382824Y33937D01*
X382408Y35672D01*
X381725Y37321D01*
X380792Y38843D01*
X379633Y40200D01*
X378276Y41359D01*
X376754Y42292D01*
X375105Y42974D01*
X373370Y43391D01*
X371591Y43531D01*
D02*
G37*
G36*
X301000Y40012D02*
X299703Y39841D01*
X298494Y39340D01*
X297457Y38544D01*
X296660Y37506D01*
X296160Y36297D01*
X295989Y35000D01*
X296160Y33703D01*
X296660Y32494D01*
X297457Y31457D01*
X298494Y30660D01*
X299435Y30271D01*
Y29730D01*
X298494Y29340D01*
X297457Y28544D01*
X296660Y27506D01*
X296160Y26297D01*
X295989Y25000D01*
X296160Y23703D01*
X296660Y22494D01*
X297457Y21456D01*
X298494Y20660D01*
X299703Y20159D01*
X301000Y19989D01*
X302297Y20159D01*
X303506Y20660D01*
X304544Y21456D01*
X305340Y22494D01*
X305841Y23703D01*
X306012Y25000D01*
X305841Y26297D01*
X305340Y27506D01*
X304544Y28544D01*
X303506Y29340D01*
X302566Y29730D01*
Y30271D01*
X303506Y30660D01*
X304544Y31457D01*
X305340Y32494D01*
X305841Y33703D01*
X306012Y35000D01*
X305841Y36297D01*
X305340Y37506D01*
X304544Y38544D01*
X303506Y39340D01*
X302297Y39841D01*
X301000Y40012D01*
D02*
G37*
G36*
X104969Y24500D02*
X101500D01*
Y21031D01*
X102044Y21103D01*
X103017Y21506D01*
X103853Y22147D01*
X104494Y22983D01*
X104897Y23956D01*
X104969Y24500D01*
D02*
G37*
G36*
X100500D02*
X97031D01*
X97103Y23956D01*
X97506Y22983D01*
X98147Y22147D01*
X98983Y21506D01*
X99956Y21103D01*
X100500Y21031D01*
Y24500D01*
D02*
G37*
G36*
X54969D02*
X51500D01*
Y21031D01*
X52044Y21103D01*
X53017Y21506D01*
X53853Y22147D01*
X54494Y22983D01*
X54897Y23956D01*
X54969Y24500D01*
D02*
G37*
G36*
X294969Y34500D02*
X291500D01*
Y31031D01*
X292044Y31103D01*
X293017Y31506D01*
X293853Y32147D01*
X294494Y32983D01*
X294897Y33956D01*
X294969Y34500D01*
D02*
G37*
G36*
X290500D02*
X287031D01*
X287103Y33956D01*
X287506Y32983D01*
X288147Y32147D01*
X288983Y31506D01*
X289956Y31103D01*
X290500Y31031D01*
Y34500D01*
D02*
G37*
G36*
X291500Y28969D02*
Y25500D01*
X294969D01*
X294897Y26044D01*
X294494Y27017D01*
X293853Y27853D01*
X293017Y28494D01*
X292044Y28897D01*
X291500Y28969D01*
D02*
G37*
G36*
X345000Y39500D02*
X341500D01*
Y36000D01*
X345000D01*
Y39500D01*
D02*
G37*
G36*
X340500D02*
X337000D01*
Y36000D01*
X340500D01*
Y39500D01*
D02*
G37*
G36*
X291500Y38969D02*
Y35500D01*
X294969D01*
X294897Y36044D01*
X294494Y37017D01*
X293853Y37853D01*
X293017Y38494D01*
X292044Y38897D01*
X291500Y38969D01*
D02*
G37*
G36*
X101500Y28969D02*
Y25500D01*
X104969D01*
X104897Y26044D01*
X104494Y27017D01*
X103853Y27853D01*
X103017Y28494D01*
X102044Y28897D01*
X101500Y28969D01*
D02*
G37*
G36*
X100500D02*
X99956Y28897D01*
X98983Y28494D01*
X98147Y27853D01*
X97506Y27017D01*
X97103Y26044D01*
X97031Y25500D01*
X100500D01*
Y28969D01*
D02*
G37*
G36*
X51500D02*
Y25500D01*
X54969D01*
X54897Y26044D01*
X54494Y27017D01*
X53853Y27853D01*
X53017Y28494D01*
X52044Y28897D01*
X51500Y28969D01*
D02*
G37*
G36*
X290500D02*
X289956Y28897D01*
X288983Y28494D01*
X288147Y27853D01*
X287506Y27017D01*
X287103Y26044D01*
X287031Y25500D01*
X290500D01*
Y28969D01*
D02*
G37*
G36*
X276500D02*
Y25500D01*
X279969D01*
X279897Y26044D01*
X279494Y27017D01*
X278853Y27853D01*
X278017Y28494D01*
X277044Y28897D01*
X276500Y28969D01*
D02*
G37*
G36*
X275500D02*
X274956Y28897D01*
X273983Y28494D01*
X273147Y27853D01*
X272506Y27017D01*
X272103Y26044D01*
X272031Y25500D01*
X275500D01*
Y28969D01*
D02*
G37*
G36*
X340500Y203969D02*
X339956Y203897D01*
X338983Y203494D01*
X338147Y202853D01*
X337506Y202017D01*
X337103Y201044D01*
X337031Y200500D01*
X340500D01*
Y203969D01*
D02*
G37*
G36*
X344969Y199500D02*
X341500D01*
Y196031D01*
X342044Y196103D01*
X343017Y196506D01*
X343853Y197147D01*
X344494Y197983D01*
X344897Y198956D01*
X344969Y199500D01*
D02*
G37*
G36*
X330500Y249500D02*
X327031D01*
X327103Y248956D01*
X327506Y247983D01*
X328147Y247147D01*
X328983Y246506D01*
X329956Y246103D01*
X330500Y246031D01*
Y249500D01*
D02*
G37*
G36*
X341500Y203969D02*
Y200500D01*
X344969D01*
X344897Y201044D01*
X344494Y202017D01*
X343853Y202853D01*
X343017Y203494D01*
X342044Y203897D01*
X341500Y203969D01*
D02*
G37*
G36*
X340500Y199500D02*
X337031D01*
X337103Y198956D01*
X337506Y197983D01*
X338147Y197147D01*
X338983Y196506D01*
X339956Y196103D01*
X340500Y196031D01*
Y199500D01*
D02*
G37*
G36*
X51500Y193969D02*
Y190500D01*
X54969D01*
X54897Y191044D01*
X54494Y192017D01*
X53853Y192853D01*
X53017Y193494D01*
X52044Y193897D01*
X51500Y193969D01*
D02*
G37*
G36*
X105969Y219969D02*
X96032D01*
Y210032D01*
X98857D01*
X98957Y209532D01*
X98494Y209340D01*
X97457Y208544D01*
X96660Y207506D01*
X96159Y206297D01*
X95989Y205000D01*
X96159Y203703D01*
X96660Y202494D01*
X97457Y201456D01*
X98494Y200660D01*
X99435Y200271D01*
Y199730D01*
X98494Y199340D01*
X97457Y198544D01*
X96660Y197506D01*
X96159Y196297D01*
X95989Y195000D01*
X96159Y193703D01*
X96660Y192494D01*
X97457Y191456D01*
X98494Y190660D01*
X99703Y190159D01*
X101000Y189989D01*
X102297Y190159D01*
X103506Y190660D01*
X104544Y191456D01*
X105340Y192494D01*
X105841Y193703D01*
X106011Y195000D01*
X105841Y196297D01*
X105340Y197506D01*
X104544Y198544D01*
X103506Y199340D01*
X102566Y199730D01*
Y200271D01*
X103506Y200660D01*
X104544Y201456D01*
X105340Y202494D01*
X105841Y203703D01*
X106011Y205000D01*
X105841Y206297D01*
X105340Y207506D01*
X104544Y208544D01*
X103506Y209340D01*
X103043Y209532D01*
X103143Y210032D01*
X105969D01*
Y219969D01*
D02*
G37*
G36*
X341500Y193969D02*
Y190500D01*
X344969D01*
X344897Y191044D01*
X344494Y192017D01*
X343853Y192853D01*
X343017Y193494D01*
X342044Y193897D01*
X341500Y193969D01*
D02*
G37*
G36*
X340500D02*
X339956Y193897D01*
X338983Y193494D01*
X338147Y192853D01*
X337506Y192017D01*
X337103Y191044D01*
X337031Y190500D01*
X340500D01*
Y193969D01*
D02*
G37*
G36*
X334969Y269500D02*
X331500D01*
Y266031D01*
X332044Y266103D01*
X333017Y266506D01*
X333853Y267147D01*
X334494Y267983D01*
X334897Y268956D01*
X334969Y269500D01*
D02*
G37*
G36*
X186500Y268969D02*
Y265500D01*
X189969D01*
X189897Y266044D01*
X189494Y267017D01*
X188853Y267853D01*
X188017Y268494D01*
X187044Y268897D01*
X186500Y268969D01*
D02*
G37*
G36*
X331500Y273969D02*
Y270500D01*
X334969D01*
X334897Y271044D01*
X334494Y272017D01*
X333853Y272853D01*
X333017Y273494D01*
X332044Y273897D01*
X331500Y273969D01*
D02*
G37*
G36*
X330500D02*
X329956Y273897D01*
X328983Y273494D01*
X328147Y272853D01*
X327506Y272017D01*
X327103Y271044D01*
X327031Y270500D01*
X330500D01*
Y273969D01*
D02*
G37*
G36*
X185500Y268969D02*
X184956Y268897D01*
X183983Y268494D01*
X183147Y267853D01*
X182506Y267017D01*
X182103Y266044D01*
X182031Y265500D01*
X185500D01*
Y268969D01*
D02*
G37*
G36*
X330500Y253969D02*
X329956Y253897D01*
X328983Y253494D01*
X328147Y252853D01*
X327506Y252017D01*
X327103Y251044D01*
X327031Y250500D01*
X330500D01*
Y253969D01*
D02*
G37*
G36*
X334969Y249500D02*
X331500D01*
Y246031D01*
X332044Y246103D01*
X333017Y246506D01*
X333853Y247147D01*
X334494Y247983D01*
X334897Y248956D01*
X334969Y249500D01*
D02*
G37*
G36*
X376500Y263921D02*
Y260500D01*
X379921D01*
X379851Y261032D01*
X379453Y261994D01*
X378819Y262819D01*
X377993Y263453D01*
X377032Y263851D01*
X376500Y263921D01*
D02*
G37*
G36*
X375500D02*
X374968Y263851D01*
X374007Y263453D01*
X373181Y262819D01*
X372547Y261994D01*
X372149Y261032D01*
X372079Y260500D01*
X375500D01*
Y263921D01*
D02*
G37*
G36*
X344969Y89500D02*
X341500D01*
Y86031D01*
X342044Y86103D01*
X343017Y86506D01*
X343853Y87147D01*
X344494Y87983D01*
X344897Y88956D01*
X344969Y89500D01*
D02*
G37*
G36*
X341500Y83969D02*
Y80500D01*
X344969D01*
X344897Y81044D01*
X344494Y82017D01*
X343853Y82853D01*
X343017Y83494D01*
X342044Y83897D01*
X341500Y83969D01*
D02*
G37*
G36*
X301000Y110011D02*
X299703Y109841D01*
X298494Y109340D01*
X297457Y108544D01*
X296870Y107780D01*
X295130D01*
X294544Y108544D01*
X293506Y109340D01*
X292297Y109841D01*
X291000Y110011D01*
X289703Y109841D01*
X288494Y109340D01*
X287456Y108544D01*
X286660Y107506D01*
X286159Y106297D01*
X285989Y105000D01*
X286159Y103703D01*
X286660Y102494D01*
X287456Y101456D01*
X288494Y100660D01*
X289435Y100271D01*
Y99730D01*
X288494Y99340D01*
X287456Y98544D01*
X286660Y97506D01*
X286159Y96297D01*
X285989Y95000D01*
X286159Y93703D01*
X286660Y92494D01*
X287456Y91457D01*
X288494Y90660D01*
X289703Y90159D01*
X291000Y89989D01*
X292297Y90159D01*
X293506Y90660D01*
X294544Y91457D01*
X295340Y92494D01*
X295729Y93435D01*
X296271D01*
X296660Y92494D01*
X297457Y91457D01*
X298494Y90660D01*
X299435Y90271D01*
Y89729D01*
X298494Y89340D01*
X297457Y88544D01*
X296660Y87506D01*
X296160Y86297D01*
X295989Y85000D01*
X296160Y83703D01*
X296660Y82494D01*
X297457Y81457D01*
X298494Y80660D01*
X299703Y80159D01*
X301000Y79989D01*
X302297Y80159D01*
X303506Y80660D01*
X304544Y81457D01*
X305340Y82494D01*
X305841Y83703D01*
X306012Y85000D01*
X305841Y86297D01*
X305340Y87506D01*
X304544Y88544D01*
X303506Y89340D01*
X302566Y89729D01*
Y90271D01*
X303506Y90660D01*
X304544Y91457D01*
X305340Y92494D01*
X305841Y93703D01*
X306012Y95000D01*
X305841Y96297D01*
X305340Y97506D01*
X304544Y98544D01*
X303506Y99340D01*
X302566Y99730D01*
Y100271D01*
X303506Y100660D01*
X304544Y101456D01*
X305340Y102494D01*
X305841Y103703D01*
X306012Y105000D01*
X305841Y106297D01*
X305340Y107506D01*
X304544Y108544D01*
X303506Y109340D01*
X302297Y109841D01*
X301000Y110011D01*
D02*
G37*
G36*
X191000Y99964D02*
X189715Y99795D01*
X188518Y99299D01*
X187490Y98510D01*
X186701Y97482D01*
X186205Y96285D01*
X186036Y95000D01*
X186205Y93715D01*
X186701Y92518D01*
X187490Y91490D01*
X188518Y90701D01*
X189715Y90206D01*
X191000Y90036D01*
X192285Y90206D01*
X193482Y90701D01*
X194510Y91490D01*
X195299Y92518D01*
X195795Y93715D01*
X195964Y95000D01*
X195795Y96285D01*
X195299Y97482D01*
X194510Y98510D01*
X193482Y99299D01*
X192285Y99795D01*
X191000Y99964D01*
D02*
G37*
G36*
X181500Y78969D02*
Y75500D01*
X184969D01*
X184897Y76044D01*
X184494Y77017D01*
X183853Y77853D01*
X183017Y78494D01*
X182044Y78897D01*
X181500Y78969D01*
D02*
G37*
G36*
X180500Y74500D02*
X177031D01*
X177103Y73956D01*
X177506Y72983D01*
X178147Y72147D01*
X178983Y71506D01*
X179956Y71103D01*
X180500Y71031D01*
Y74500D01*
D02*
G37*
G36*
X344969Y69500D02*
X341500D01*
Y66031D01*
X342044Y66103D01*
X343017Y66506D01*
X343853Y67147D01*
X344494Y67983D01*
X344897Y68956D01*
X344969Y69500D01*
D02*
G37*
G36*
X180500Y78969D02*
X179956Y78897D01*
X178983Y78494D01*
X178147Y77853D01*
X177506Y77017D01*
X177103Y76044D01*
X177031Y75500D01*
X180500D01*
Y78969D01*
D02*
G37*
G36*
X184969Y74500D02*
X181500D01*
Y71031D01*
X182044Y71103D01*
X183017Y71506D01*
X183853Y72147D01*
X184494Y72983D01*
X184897Y73956D01*
X184969Y74500D01*
D02*
G37*
G36*
X100500Y184500D02*
X97031D01*
X97103Y183956D01*
X97506Y182983D01*
X98147Y182147D01*
X98983Y181506D01*
X99956Y181103D01*
X100500Y181031D01*
Y184500D01*
D02*
G37*
G36*
X249969Y154500D02*
X246500D01*
Y151031D01*
X247044Y151103D01*
X248017Y151506D01*
X248853Y152147D01*
X249494Y152983D01*
X249897Y153956D01*
X249969Y154500D01*
D02*
G37*
G36*
X101500Y188969D02*
Y185500D01*
X104969D01*
X104897Y186044D01*
X104494Y187017D01*
X103853Y187853D01*
X103017Y188494D01*
X102044Y188897D01*
X101500Y188969D01*
D02*
G37*
G36*
X100500D02*
X99956Y188897D01*
X98983Y188494D01*
X98147Y187853D01*
X97506Y187017D01*
X97103Y186044D01*
X97031Y185500D01*
X100500D01*
Y188969D01*
D02*
G37*
G36*
X189969Y154500D02*
X186500D01*
Y151031D01*
X187044Y151103D01*
X188017Y151506D01*
X188853Y152147D01*
X189494Y152983D01*
X189897Y153956D01*
X189969Y154500D01*
D02*
G37*
G36*
X60500Y149500D02*
X57031D01*
X57103Y148956D01*
X57506Y147983D01*
X58147Y147147D01*
X58983Y146506D01*
X59956Y146103D01*
X60500Y146031D01*
Y149500D01*
D02*
G37*
G36*
X191000Y119649D02*
X189715Y119480D01*
X188518Y118984D01*
X187490Y118195D01*
X186701Y117167D01*
X186205Y115970D01*
X186036Y114685D01*
X186205Y113400D01*
X186701Y112203D01*
X187490Y111175D01*
X188518Y110386D01*
X189715Y109890D01*
X191000Y109721D01*
X192285Y109890D01*
X193482Y110386D01*
X194510Y111175D01*
X195299Y112203D01*
X195795Y113400D01*
X195964Y114685D01*
X195795Y115970D01*
X195299Y117167D01*
X194510Y118195D01*
X193482Y118984D01*
X192285Y119480D01*
X191000Y119649D01*
D02*
G37*
G36*
X185500Y154500D02*
X182031D01*
X182103Y153956D01*
X182506Y152983D01*
X183147Y152147D01*
X183983Y151506D01*
X184956Y151103D01*
X185500Y151031D01*
Y154500D01*
D02*
G37*
G36*
X60500Y153969D02*
X59956Y153897D01*
X58983Y153494D01*
X58147Y152853D01*
X57506Y152017D01*
X57103Y151044D01*
X57031Y150500D01*
X60500D01*
Y153969D01*
D02*
G37*
%LPD*%
D10*
X16000Y280000D02*
D03*
Y270000D02*
D03*
Y260000D02*
D03*
Y250000D02*
D03*
Y230000D02*
D03*
Y220000D02*
D03*
Y200000D02*
D03*
Y210000D02*
D03*
Y170000D02*
D03*
Y160000D02*
D03*
Y180000D02*
D03*
Y190000D02*
D03*
Y130000D02*
D03*
Y120000D02*
D03*
Y140000D02*
D03*
Y150000D02*
D03*
Y90000D02*
D03*
Y80000D02*
D03*
Y100000D02*
D03*
Y110000D02*
D03*
Y50000D02*
D03*
Y40000D02*
D03*
Y60000D02*
D03*
Y70000D02*
D03*
Y10000D02*
D03*
Y20000D02*
D03*
Y30000D02*
D03*
D11*
X83000Y107000D02*
X101000Y125000D01*
X39900Y107000D02*
X83000D01*
X36000Y110900D02*
X39900Y107000D01*
X36000Y110900D02*
Y130000D01*
X41000Y113500D02*
X42500Y112000D01*
X41000Y113500D02*
Y134000D01*
X101000Y95000D02*
X116000Y110000D01*
Y125000D01*
X111000Y145000D02*
X121000Y135000D01*
Y85000D02*
Y135000D01*
X106000Y70000D02*
X121000Y85000D01*
X101000Y175000D02*
X121000Y195000D01*
X321000Y230000D02*
Y236900D01*
X318300Y239600D02*
X321000Y236900D01*
X291000Y105000D02*
X301000D01*
X186000Y45000D02*
X196000D01*
X176000D02*
X186000D01*
X291000Y65000D02*
X301000D01*
X201000Y135000D02*
X216000D01*
X306000Y170000D02*
X331000D01*
X306000Y160000D02*
X331000D01*
X306000Y180000D02*
X331000D01*
X216000Y235000D02*
X226000D01*
X101000Y45000D02*
X105600Y40400D01*
X190600D01*
X196000Y35000D01*
X331000Y190000D02*
X336000Y185000D01*
X358500D01*
X358935Y184565D01*
X377181D01*
X357705Y173695D02*
X377181D01*
X356000Y175400D02*
X357705Y173695D01*
X335600Y175400D02*
X356000D01*
X331000Y180000D02*
X335600Y175400D01*
X350175Y162825D02*
X377181D01*
X348100Y164900D02*
X350175Y162825D01*
X336100Y164900D02*
X348100D01*
X331000Y170000D02*
X336100Y164900D01*
X216000Y155000D02*
X238925D01*
X243500Y159575D01*
X270575D01*
X276000Y165000D01*
X161000Y145000D02*
X266000D01*
X276000Y155000D01*
X356046Y151955D02*
X377181D01*
X352600Y155400D02*
X356046Y151955D01*
X335600Y155400D02*
X352600D01*
X331000Y160000D02*
X335600Y155400D01*
X331000Y140000D02*
X336000Y135000D01*
X352200D01*
X356985Y130215D01*
X377181D01*
X331000Y130000D02*
X336000Y125000D01*
X347700D01*
X353356Y119344D01*
X377181D01*
X353274Y108475D02*
X377181D01*
X354804Y97604D02*
X377181D01*
X358964Y75864D02*
X377181D01*
X358100Y75000D02*
X358964Y75864D01*
X338100Y75000D02*
X358100D01*
X335600Y77500D02*
X338100Y75000D01*
X335600Y77500D02*
Y85400D01*
X331000Y90000D02*
X335600Y85400D01*
X281000Y35000D02*
X301000Y55000D01*
X276000Y35000D02*
X281000D01*
X85600Y161600D02*
X87200Y160000D01*
X103100D01*
X105600Y157500D01*
Y149600D02*
Y157500D01*
X101000Y145000D02*
X105600Y149600D01*
X63100Y220000D02*
X81000D01*
X89600Y130000D02*
Y143600D01*
X101000Y155000D01*
X78000Y112000D02*
X101000Y135000D01*
X42500Y112000D02*
X78000D01*
X206000Y235000D02*
X210600Y230400D01*
X228500D01*
X231400Y233300D01*
Y239600D01*
X318300D01*
X283100Y160400D02*
X288200Y155300D01*
X300700D01*
X306000Y150000D01*
X156400Y212500D02*
X159000Y209900D01*
X361800D01*
X382100Y189600D01*
Y113393D02*
Y189600D01*
X377181Y108475D02*
X382100Y113393D01*
X198500Y241100D02*
X201000Y238600D01*
Y233000D02*
Y238600D01*
Y233000D02*
X206000Y228000D01*
X232700D01*
X236000Y231300D01*
Y235000D01*
X239000Y258000D02*
X246000Y265000D01*
X178700Y258000D02*
X239000D01*
X177100Y259600D02*
X178700Y258000D01*
X89800Y259600D02*
X177100D01*
X85600Y255400D02*
X89800Y259600D01*
X55600Y255400D02*
X85600D01*
X51000Y260000D02*
X55600Y255400D01*
X61000Y140000D02*
X65600Y144600D01*
Y160200D01*
X35800Y190000D02*
X65600Y160200D01*
X16000Y190000D02*
X35800D01*
X377181Y97604D02*
X384500Y104923D01*
X276000Y195000D02*
X297700D01*
X300600Y192100D01*
Y188930D02*
Y192100D01*
Y188930D02*
X304130Y185400D01*
X326400D01*
X331000Y190000D01*
X186000Y205000D02*
X190806Y200194D01*
Y194260D02*
Y200194D01*
Y194260D02*
X204641Y180425D01*
X222937D01*
X232112Y189600D01*
X280575D01*
X285175Y185000D01*
X301000D01*
X306000Y180000D01*
X161000Y165000D02*
X166000Y170000D01*
X227400D01*
X242400Y185000D01*
X246000D01*
X170200Y165000D02*
X186000D01*
X165600Y160400D02*
X170200Y165000D01*
X159300Y160400D02*
X165600D01*
X158900Y140000D02*
X223000D01*
X233000Y130000D01*
X331000D01*
X78500Y60400D02*
X105600D01*
X74000Y64900D02*
X78500Y60400D01*
X74000Y64900D02*
Y80000D01*
X64000Y90000D02*
X74000Y80000D01*
X16000Y90000D02*
X64000D01*
X271400Y179600D02*
X276000Y175000D01*
X241400Y179600D02*
X271400D01*
X226800Y165000D02*
X241400Y179600D01*
X216000Y165000D02*
X226800D01*
X236000Y265000D02*
X240575Y269575D01*
X111000Y255000D02*
X248500D01*
X186000Y185000D02*
X196000Y175000D01*
X216000D01*
X161000Y205000D02*
X166000D01*
X186000Y185000D01*
X161000D02*
X171000Y175000D01*
X186000D01*
X161000Y155000D02*
X168868D01*
X173468Y159600D01*
X236726D01*
X242126Y165000D01*
X246000D01*
X151600Y124400D02*
X161000Y115000D01*
X264800Y205000D02*
X276000D01*
X259700Y199900D02*
X264800Y205000D01*
X226200Y199900D02*
X259700D01*
X220600Y194300D02*
X226200Y199900D01*
X220600Y190425D02*
Y194300D01*
X204600Y190425D02*
X220600D01*
X171000Y55000D02*
X216000D01*
X161000Y45000D02*
X171000Y55000D01*
X225200Y205000D02*
X246000D01*
X220600Y200400D02*
X225200Y205000D01*
X195100Y200400D02*
X220600D01*
X276000Y45000D02*
X286000Y55000D01*
X291000D01*
X246000Y175000D02*
X250600Y170400D01*
X281800D01*
X286000Y174600D01*
X301400D01*
X306000Y170000D01*
X349216Y141085D02*
X377181D01*
X345300Y145000D02*
X349216Y141085D01*
X336000Y145000D02*
X345300D01*
X331000Y150000D02*
X336000Y145000D01*
X306000Y190000D02*
X316000Y200000D01*
X331000D01*
X306000Y190000D02*
Y194754D01*
X301179Y199575D02*
X306000Y194754D01*
X269063Y199575D02*
X301179D01*
X264488Y195000D02*
X269063Y199575D01*
X246000Y195000D02*
X264488D01*
X341441Y59559D02*
X366000D01*
X331000Y70000D02*
X341441Y59559D01*
X226000Y235000D02*
X228716Y237716D01*
Y242284D01*
X239168D01*
X220600Y266675D02*
X225862Y271937D01*
X220600Y260425D02*
Y266675D01*
X181400Y260425D02*
X220600D01*
X176825Y265000D02*
X181400Y260425D01*
X111000Y265000D02*
X176825D01*
X106200Y250400D02*
X109600Y247000D01*
X88700Y250400D02*
X106200D01*
X83200Y244900D02*
X88700Y250400D01*
X37900Y244900D02*
X83200D01*
X37900Y194200D02*
X70400Y161700D01*
X51000Y230472D02*
X71328D01*
X76400Y225400D01*
X93706D01*
X118612Y250306D01*
X122794D01*
X88362Y102362D02*
X101000Y115000D01*
X49062Y102362D02*
X88362D01*
X48200Y101500D02*
X49062Y102362D01*
X86000Y70000D02*
X106000D01*
X81000Y75000D02*
X86000Y70000D01*
X186000Y280000D02*
X311000D01*
X336000Y255000D01*
X378500D01*
X384500Y249000D01*
Y104923D02*
Y249000D01*
X136000Y130000D02*
X161000Y105000D01*
X105600Y60400D02*
X131000Y85800D01*
X101000Y165000D02*
X126000Y190000D01*
Y247100D01*
X122794Y250306D02*
X126000Y247100D01*
X239168Y242284D02*
X256000Y259116D01*
Y271937D01*
X225862D02*
X256000D01*
X248500Y255000D02*
X252000Y258500D01*
Y269575D01*
X240575D02*
X252000D01*
X216000Y75000D02*
X226000Y85000D01*
Y125000D01*
X221400Y129600D02*
X226000Y125000D01*
X159400Y129600D02*
X221400D01*
X94000Y42000D02*
X101000Y35000D01*
X94000Y42000D02*
Y46000D01*
X98000Y50000D01*
X145000D01*
X155425Y60425D01*
X201425D01*
X209000Y68000D01*
Y108000D01*
X216000Y115000D01*
X136000Y130000D02*
Y211000D01*
X166100Y241100D01*
X198500D01*
X156400Y212500D02*
Y225400D01*
X166000Y235000D01*
X186000D01*
X131000Y85800D02*
Y212000D01*
X166300Y247300D01*
X228300D01*
X151000Y138000D02*
X159400Y129600D01*
X151000Y138000D02*
Y174200D01*
X156400Y179600D01*
X155000Y143900D02*
X158900Y140000D01*
X155000Y143900D02*
Y156100D01*
X159300Y160400D01*
X346749Y115000D02*
X353274Y108475D01*
X331000Y120000D02*
X336000Y115000D01*
Y115000D02*
X346749D01*
X347409Y105000D02*
X354804Y97604D01*
X331000Y110000D02*
X336000Y105000D01*
X347409D01*
X331000Y100000D02*
X336000Y95000D01*
X355266Y86734D02*
X377181D01*
X347000Y95000D02*
X355266Y86734D01*
X336000Y95000D02*
X347000D01*
X61000Y65000D02*
Y80000D01*
X51000Y55000D02*
X61000Y65000D01*
X16000Y270000D02*
X34000D01*
X38000Y274000D01*
X37000Y278000D02*
X51000D01*
X35000Y280000D02*
X37000Y278000D01*
X16000Y280000D02*
X35000D01*
X78200Y118600D02*
X89600Y130000D01*
X77800Y119000D02*
X78200Y118600D01*
X49000Y119000D02*
X77800D01*
X58100Y215000D02*
X63100Y220000D01*
X42000Y215000D02*
X58100D01*
X176000Y270000D02*
X186000Y280000D01*
X86000Y265000D02*
X91000Y270000D01*
X176000D01*
X38000Y274000D02*
X75000D01*
D12*
X216000Y35000D02*
Y45000D01*
X341000Y80000D02*
X352800D01*
X354099Y81299D01*
X366000D01*
X276000Y25000D02*
X291000D01*
X216000D02*
X276000D01*
X341000Y170000D02*
X352600D01*
X354340Y168260D01*
X366000D01*
X16000Y220000D02*
Y230000D01*
X351000Y270000D02*
X376000D01*
X351000Y250000D02*
X376000D01*
X186000Y155000D02*
X191800Y149200D01*
X240200D01*
X246000Y155000D01*
X226000Y215000D02*
X246000Y235000D01*
X216000Y215000D02*
X226000D01*
X266000D02*
X276000D01*
X246000Y235000D02*
X266000Y215000D01*
X276000Y135000D02*
X291000Y150000D01*
X296000D01*
X101000Y185000D02*
X121000Y205000D01*
Y245000D01*
X305520Y275481D02*
X331000Y250000D01*
X196481Y275481D02*
X305520D01*
X186000Y265000D02*
X196481Y275481D01*
X51000Y190000D02*
X58400Y182600D01*
X16000Y220000D02*
X35376D01*
X16000Y250000D02*
X40200D01*
X351000Y244110D02*
Y250000D01*
X321890Y215000D02*
X351000Y244110D01*
X276000Y215000D02*
X321890D01*
X161000D02*
X166800Y220800D01*
X210200D01*
X216000Y215000D01*
X51000Y15000D02*
Y25000D01*
Y15000D02*
X56000Y10000D01*
X101000D01*
X101000Y10000D01*
Y25000D01*
Y10000D02*
Y25000D01*
X216000Y10000D02*
X216000Y10000D01*
Y25000D01*
X101000Y10000D02*
X216000D01*
X81000Y95000D02*
X101000Y75000D01*
X16000Y150000D02*
X61000D01*
X51000D02*
X51000Y150000D01*
Y128500D02*
Y150000D01*
X80700Y130000D02*
Y182600D01*
X58400D02*
X98600D01*
X101000Y185000D01*
X40200Y250000D02*
X45244Y255044D01*
X115411Y284000D02*
X337000D01*
X351000Y270000D01*
X331000D02*
X341000Y260000D01*
X376000D01*
X176000Y25000D02*
Y35000D01*
Y25000D02*
X206000D01*
X216000Y35000D01*
X291000Y10000D02*
Y25000D01*
Y10000D02*
X341000D01*
Y40000D01*
X34421Y260000D02*
X42000Y267579D01*
Y270000D01*
X45244Y255044D02*
Y264142D01*
X46859Y265756D01*
X16000Y260000D02*
X34421D01*
X51000Y128500D02*
X56000Y123500D01*
X74200D01*
X80700Y130000D01*
X35376Y220000D02*
X37276Y218100D01*
Y203725D02*
Y218100D01*
Y203725D02*
X51000Y190000D01*
X46859Y265756D02*
X75756D01*
X106411Y275000D02*
X115411Y284000D01*
X75756Y265756D02*
X85000Y275000D01*
X106411D01*
D13*
X341000Y200000D02*
D03*
X331000D02*
D03*
X341000Y50000D02*
D03*
X331000D02*
D03*
Y60000D02*
D03*
X341000Y70000D02*
D03*
Y80000D02*
D03*
X331000D02*
D03*
Y90000D02*
D03*
X341000Y100000D02*
D03*
Y110000D02*
D03*
X331000D02*
D03*
Y120000D02*
D03*
X341000Y130000D02*
D03*
Y140000D02*
D03*
X331000D02*
D03*
X341000Y150000D02*
D03*
X331000D02*
D03*
X341000Y160000D02*
D03*
X331000D02*
D03*
X341000Y170000D02*
D03*
X331000D02*
D03*
X341000Y180000D02*
D03*
X331000D02*
D03*
X341000Y190000D02*
D03*
X331000D02*
D03*
Y40000D02*
D03*
Y70000D02*
D03*
X341000Y90000D02*
D03*
X331000Y100000D02*
D03*
X341000Y120000D02*
D03*
X331000Y130000D02*
D03*
X306000Y150000D02*
D03*
X296000D02*
D03*
X306000Y160000D02*
D03*
X296000D02*
D03*
X306000Y170000D02*
D03*
X296000D02*
D03*
X306000Y180000D02*
D03*
X296000D02*
D03*
X306000Y190000D02*
D03*
X296000D02*
D03*
X331000Y250000D02*
D03*
X351000D02*
D03*
X331000Y270000D02*
D03*
X351000D02*
D03*
X196000Y65000D02*
D03*
X186000D02*
D03*
X276000Y125000D02*
D03*
Y95000D02*
D03*
Y65000D02*
D03*
Y35000D02*
D03*
X216000Y95000D02*
D03*
Y125000D02*
D03*
Y35000D02*
D03*
Y65000D02*
D03*
X276000Y135000D02*
D03*
Y115000D02*
D03*
Y105000D02*
D03*
Y85000D02*
D03*
Y75000D02*
D03*
Y55000D02*
D03*
Y45000D02*
D03*
Y25000D02*
D03*
X216000Y105000D02*
D03*
Y115000D02*
D03*
Y75000D02*
D03*
Y85000D02*
D03*
Y45000D02*
D03*
Y55000D02*
D03*
Y25000D02*
D03*
X246000Y165000D02*
D03*
Y155000D02*
D03*
Y195000D02*
D03*
Y185000D02*
D03*
X276000Y155000D02*
D03*
Y165000D02*
D03*
Y185000D02*
D03*
Y195000D02*
D03*
Y215000D02*
D03*
X246000Y175000D02*
D03*
Y205000D02*
D03*
X276000Y175000D02*
D03*
Y205000D02*
D03*
X186000Y165000D02*
D03*
Y155000D02*
D03*
Y195000D02*
D03*
Y185000D02*
D03*
X216000Y155000D02*
D03*
Y165000D02*
D03*
Y185000D02*
D03*
Y195000D02*
D03*
Y215000D02*
D03*
X186000Y175000D02*
D03*
Y205000D02*
D03*
X216000Y175000D02*
D03*
Y205000D02*
D03*
X101000Y35000D02*
D03*
Y25000D02*
D03*
Y65000D02*
D03*
Y55000D02*
D03*
Y95000D02*
D03*
Y85000D02*
D03*
Y125000D02*
D03*
Y115000D02*
D03*
Y155000D02*
D03*
Y145000D02*
D03*
Y185000D02*
D03*
Y175000D02*
D03*
Y205000D02*
D03*
X161000Y35000D02*
D03*
Y25000D02*
D03*
Y65000D02*
D03*
Y55000D02*
D03*
Y95000D02*
D03*
Y85000D02*
D03*
Y125000D02*
D03*
Y115000D02*
D03*
Y155000D02*
D03*
Y145000D02*
D03*
Y185000D02*
D03*
Y175000D02*
D03*
Y215000D02*
D03*
Y205000D02*
D03*
X101000Y45000D02*
D03*
Y75000D02*
D03*
Y105000D02*
D03*
Y135000D02*
D03*
Y165000D02*
D03*
Y195000D02*
D03*
X161000Y45000D02*
D03*
Y75000D02*
D03*
Y105000D02*
D03*
Y135000D02*
D03*
Y165000D02*
D03*
Y195000D02*
D03*
X81000Y85000D02*
D03*
Y55000D02*
D03*
Y25000D02*
D03*
X51000Y85000D02*
D03*
Y25000D02*
D03*
Y55000D02*
D03*
X81000Y95000D02*
D03*
Y75000D02*
D03*
Y65000D02*
D03*
Y35000D02*
D03*
Y45000D02*
D03*
X51000Y65473D02*
D03*
Y75315D02*
D03*
Y35000D02*
D03*
Y45000D02*
D03*
X81000Y250000D02*
D03*
Y220000D02*
D03*
Y190000D02*
D03*
X51000Y250000D02*
D03*
Y190000D02*
D03*
Y220000D02*
D03*
X81000Y260000D02*
D03*
Y240000D02*
D03*
Y230000D02*
D03*
Y200000D02*
D03*
Y210000D02*
D03*
X51000Y230472D02*
D03*
Y240315D02*
D03*
Y200000D02*
D03*
Y210000D02*
D03*
X101000Y265000D02*
D03*
X111000D02*
D03*
Y255000D02*
D03*
X101000D02*
D03*
X121000Y245000D02*
D03*
X101000D02*
D03*
X61000Y130000D02*
D03*
X71000D02*
D03*
X61000Y140000D02*
D03*
X71000D02*
D03*
X186000Y45000D02*
D03*
Y35000D02*
D03*
X176000D02*
D03*
Y45000D02*
D03*
X71000Y150000D02*
D03*
X61000D02*
D03*
X196000Y45000D02*
D03*
Y35000D02*
D03*
X201000Y75000D02*
D03*
X181000D02*
D03*
X201000Y135000D02*
D03*
X181000D02*
D03*
X291000Y25000D02*
D03*
X301000D02*
D03*
X291000Y35000D02*
D03*
Y55000D02*
D03*
X301000Y35000D02*
D03*
Y55000D02*
D03*
X291000Y75000D02*
D03*
Y65000D02*
D03*
X301000D02*
D03*
Y85000D02*
D03*
X291000Y105000D02*
D03*
Y95000D02*
D03*
X301000Y105000D02*
D03*
Y95000D02*
D03*
X196000Y265000D02*
D03*
X186000D02*
D03*
X226000D02*
D03*
X216000D02*
D03*
X186000Y235000D02*
D03*
X196000D02*
D03*
X216000D02*
D03*
X226000D02*
D03*
X246000D02*
D03*
X206000Y265000D02*
D03*
X236000D02*
D03*
X206000Y235000D02*
D03*
X236000D02*
D03*
D14*
X341000Y40000D02*
D03*
X216000Y135000D02*
D03*
X246000Y215000D02*
D03*
X186000D02*
D03*
X101000D02*
D03*
X51000Y95000D02*
D03*
Y260000D02*
D03*
D15*
X366000Y59559D02*
D03*
X377181Y64994D02*
D03*
X366000Y70429D02*
D03*
X377181Y75864D02*
D03*
X366000Y81299D02*
D03*
X377181Y86734D02*
D03*
X366000Y92169D02*
D03*
X377181Y97604D02*
D03*
X366000Y103040D02*
D03*
X377181Y108475D02*
D03*
X366000Y113909D02*
D03*
X377181Y119344D02*
D03*
X366000Y124779D02*
D03*
X377181Y130215D02*
D03*
X366000Y135650D02*
D03*
X377181Y141085D02*
D03*
X366000Y146520D02*
D03*
X377181Y151955D02*
D03*
X366000Y157390D02*
D03*
X377181Y162825D02*
D03*
X366000Y168260D02*
D03*
X377181Y173695D02*
D03*
X366000Y179130D02*
D03*
X377181Y184565D02*
D03*
D16*
X366000Y190000D02*
D03*
D17*
X371591Y217402D02*
D03*
Y32157D02*
D03*
D18*
X376000Y250000D02*
D03*
Y260000D02*
D03*
X191000Y114685D02*
D03*
Y95000D02*
D03*
D19*
X376000Y270000D02*
D03*
D20*
X246000Y265000D02*
D03*
D21*
X116000Y125000D02*
D03*
X121000Y195000D02*
D03*
X321000Y230000D02*
D03*
X85600Y161600D02*
D03*
X283100Y160400D02*
D03*
X156400Y179600D02*
D03*
X228300Y247300D02*
D03*
X151600Y124400D02*
D03*
X204600Y190425D02*
D03*
X195100Y200400D02*
D03*
X109600Y247000D02*
D03*
X37900Y244900D02*
D03*
X70400Y161700D02*
D03*
X37900Y194200D02*
D03*
X48200Y101500D02*
D03*
X111000Y145000D02*
D03*
X86000Y265000D02*
D03*
X61000Y80000D02*
D03*
X42000Y270000D02*
D03*
X51000Y278000D02*
D03*
X49000Y119000D02*
D03*
X41000Y134000D02*
D03*
X36000Y130000D02*
D03*
X42000Y215000D02*
D03*
X75000Y274000D02*
D03*
M02*
