G04 Layer_Physical_Order=1*
G04 Layer_Color=255*
%FSLAX25Y25*%
%MOIN*%
G70*
G01*
G75*
G04:AMPARAMS|DCode=10|XSize=61.81mil|YSize=314.96mil|CornerRadius=15.45mil|HoleSize=0mil|Usage=FLASHONLY|Rotation=90.000|XOffset=0mil|YOffset=0mil|HoleType=Round|Shape=RoundedRectangle|*
%AMROUNDEDRECTD10*
21,1,0.06181,0.28406,0,0,90.0*
21,1,0.03091,0.31496,0,0,90.0*
1,1,0.03091,0.14203,0.01545*
1,1,0.03091,0.14203,-0.01545*
1,1,0.03091,-0.14203,-0.01545*
1,1,0.03091,-0.14203,0.01545*
%
%ADD10ROUNDEDRECTD10*%
%ADD11C,0.01575*%
%ADD12C,0.03937*%
%ADD13C,0.06000*%
%ADD14R,0.06000X0.06000*%
%ADD15C,0.06654*%
%ADD16R,0.06654X0.06654*%
%ADD17C,0.18740*%
%ADD18C,0.05906*%
%ADD19R,0.05906X0.05906*%
%ADD20R,0.06000X0.06000*%
%ADD21C,0.03937*%
G36*
X181048Y185447D02*
X180989Y185000D01*
X181159Y183703D01*
X181370Y183195D01*
X181092Y182780D01*
X181000D01*
X180281Y182685D01*
X179610Y182407D01*
X179034Y181966D01*
X165276Y168207D01*
X164777Y168240D01*
X164544Y168544D01*
X163506Y169340D01*
X162566Y169729D01*
Y170271D01*
X163506Y170660D01*
X164544Y171457D01*
X165340Y172494D01*
X165841Y173703D01*
X166012Y175000D01*
X165841Y176297D01*
X165796Y176405D01*
X166074Y176820D01*
X170600D01*
X171319Y176915D01*
X171990Y177193D01*
X172566Y177635D01*
X180599Y185668D01*
X181048Y185447D01*
D02*
G37*
G36*
X271114Y185955D02*
X270989Y185000D01*
X271160Y183703D01*
X271660Y182494D01*
X272457Y181456D01*
X273494Y180660D01*
X274435Y180271D01*
Y179729D01*
X273494Y179340D01*
X272457Y178544D01*
X271660Y177506D01*
X271160Y176297D01*
X270989Y175000D01*
X271160Y173703D01*
X271660Y172494D01*
X272457Y171457D01*
X273494Y170660D01*
X274435Y170271D01*
Y169729D01*
X273494Y169340D01*
X272457Y168544D01*
X271660Y167506D01*
X271160Y166297D01*
X270994Y165044D01*
X270787Y164901D01*
X270548Y164783D01*
X263780Y171552D01*
Y192636D01*
X264242Y192827D01*
X271114Y185955D01*
D02*
G37*
G36*
X86559Y85574D02*
Y44812D01*
X86485Y44766D01*
X86169Y44922D01*
X86004Y45056D01*
X85841Y46297D01*
X85340Y47506D01*
X84544Y48544D01*
X83506Y49340D01*
X82566Y49729D01*
Y50271D01*
X83506Y50660D01*
X84544Y51456D01*
X85340Y52494D01*
X85841Y53703D01*
X86011Y55000D01*
X85841Y56297D01*
X85340Y57506D01*
X84544Y58544D01*
X83506Y59340D01*
X82566Y59729D01*
Y60271D01*
X83506Y60660D01*
X84544Y61457D01*
X85340Y62494D01*
X85841Y63703D01*
X86011Y65000D01*
X85841Y66297D01*
X85340Y67506D01*
X84544Y68544D01*
X83506Y69340D01*
X82566Y69730D01*
Y70271D01*
X83506Y70660D01*
X84544Y71456D01*
X85340Y72494D01*
X85841Y73703D01*
X86011Y75000D01*
X85841Y76297D01*
X85340Y77506D01*
X84544Y78544D01*
X83506Y79340D01*
X82566Y79729D01*
Y80271D01*
X83506Y80660D01*
X84544Y81457D01*
X85340Y82494D01*
X85841Y83703D01*
X86011Y85000D01*
X85920Y85698D01*
X86059Y85811D01*
X86559Y85574D01*
D02*
G37*
G36*
X38719Y73350D02*
X39295Y72908D01*
X39966Y72630D01*
X40685Y72535D01*
X46870D01*
X47456Y71772D01*
X48494Y70975D01*
X49245Y70664D01*
Y70123D01*
X48494Y69813D01*
X47456Y69016D01*
X46660Y67978D01*
X46159Y66769D01*
X45989Y65473D01*
X46159Y64175D01*
X46660Y62967D01*
X47456Y61929D01*
X48494Y61133D01*
X49703Y60632D01*
X50792Y60488D01*
Y59984D01*
X49703Y59841D01*
X48494Y59340D01*
X47456Y58544D01*
X46660Y57506D01*
X46159Y56297D01*
X45989Y55000D01*
X46159Y53703D01*
X46660Y52494D01*
X47456Y51456D01*
X48494Y50660D01*
X49435Y50271D01*
Y49729D01*
X48494Y49340D01*
X47456Y48544D01*
X46870Y47780D01*
X44151D01*
X39966Y51966D01*
X39390Y52407D01*
X38719Y52685D01*
X38000Y52780D01*
X35000D01*
Y76362D01*
X35500Y76569D01*
X38719Y73350D01*
D02*
G37*
G36*
X200715Y191077D02*
X200629Y190425D01*
X200764Y189398D01*
X201161Y188440D01*
X201792Y187617D01*
X201820Y187596D01*
Y169752D01*
X194849Y162780D01*
X190908D01*
X190630Y163196D01*
X190841Y163703D01*
X191012Y165000D01*
X190841Y166297D01*
X190807Y166379D01*
X191084Y166795D01*
X191425D01*
X192145Y166890D01*
X192815Y167168D01*
X193391Y167609D01*
X197363Y171582D01*
X197390Y171593D01*
X197966Y172035D01*
X198407Y172610D01*
X198685Y173281D01*
X198780Y174000D01*
Y189849D01*
X200241Y191310D01*
X200715Y191077D01*
D02*
G37*
G36*
X292029Y193355D02*
Y192987D01*
X291660Y192506D01*
X291160Y191297D01*
X290989Y190000D01*
X291160Y188703D01*
X291660Y187494D01*
X292029Y187013D01*
Y182987D01*
X291660Y182506D01*
X291160Y181297D01*
X290989Y180000D01*
X291160Y178703D01*
X291660Y177494D01*
X292029Y177014D01*
Y172987D01*
X291660Y172506D01*
X291160Y171297D01*
X290989Y170000D01*
X291160Y168703D01*
X291660Y167494D01*
X292029Y167014D01*
Y162987D01*
X291660Y162506D01*
X291160Y161297D01*
X290989Y160000D01*
X291160Y158703D01*
X291660Y157494D01*
X292029Y157013D01*
Y152987D01*
X291660Y152506D01*
X291160Y151297D01*
X290989Y150000D01*
X291048Y149553D01*
X290599Y149332D01*
X289966Y149966D01*
X289390Y150407D01*
X288720Y150685D01*
X288000Y150780D01*
X279439D01*
X279279Y151253D01*
X279544Y151456D01*
X280340Y152494D01*
X280841Y153703D01*
X281012Y155000D01*
X280841Y156297D01*
X280693Y156655D01*
X281103Y156970D01*
X281115Y156961D01*
X282072Y156564D01*
X283100Y156429D01*
X284128Y156564D01*
X285086Y156961D01*
X285908Y157592D01*
X286539Y158415D01*
X286936Y159372D01*
X287071Y160400D01*
X286936Y161428D01*
X286539Y162386D01*
X285908Y163208D01*
X285086Y163839D01*
X284128Y164236D01*
X283100Y164371D01*
X282072Y164236D01*
X281377Y163948D01*
X280919Y164297D01*
X281012Y165000D01*
X280841Y166297D01*
X280340Y167506D01*
X279544Y168544D01*
X278506Y169340D01*
X277566Y169729D01*
Y170271D01*
X278506Y170660D01*
X279544Y171457D01*
X280340Y172494D01*
X280841Y173703D01*
X281012Y175000D01*
X280841Y176297D01*
X280340Y177506D01*
X279544Y178544D01*
X278506Y179340D01*
X277566Y179729D01*
Y180271D01*
X278506Y180660D01*
X279544Y181456D01*
X280340Y182494D01*
X280841Y183703D01*
X281012Y185000D01*
X280841Y186297D01*
X280340Y187506D01*
X279544Y188544D01*
X278506Y189340D01*
X277566Y189729D01*
Y190271D01*
X278506Y190660D01*
X279544Y191456D01*
X280340Y192494D01*
X280841Y193703D01*
X281012Y195000D01*
X280841Y196297D01*
X280340Y197506D01*
X279544Y198544D01*
X278506Y199340D01*
X277566Y199730D01*
Y200271D01*
X278506Y200660D01*
X279544Y201456D01*
X280340Y202494D01*
X280841Y203703D01*
X280865Y203886D01*
X281338Y204046D01*
X292029Y193355D01*
D02*
G37*
G36*
X68220Y97674D02*
Y71152D01*
X65321Y68252D01*
X55130D01*
X54544Y69016D01*
X53506Y69813D01*
X52756Y70123D01*
Y70664D01*
X53506Y70975D01*
X54544Y71772D01*
X55340Y72809D01*
X55841Y74018D01*
X56011Y75315D01*
X55841Y76612D01*
X55761Y76805D01*
X56039Y77220D01*
X58170D01*
X58192Y77192D01*
X59015Y76561D01*
X59972Y76164D01*
X61000Y76029D01*
X62028Y76164D01*
X62985Y76561D01*
X63808Y77192D01*
X64439Y78015D01*
X64836Y78972D01*
X64971Y80000D01*
X64836Y81028D01*
X64439Y81985D01*
X63808Y82808D01*
X62985Y83439D01*
X62028Y83836D01*
X61000Y83971D01*
X59972Y83836D01*
X59015Y83439D01*
X58192Y82808D01*
X58170Y82780D01*
X55908D01*
X55630Y83196D01*
X55841Y83703D01*
X56011Y85000D01*
X55886Y85955D01*
X67540Y97609D01*
X67720Y97844D01*
X68220Y97674D01*
D02*
G37*
G36*
X181048Y175447D02*
X180989Y175000D01*
X181159Y173703D01*
X181511Y172855D01*
X181177Y172355D01*
X180575D01*
X179856Y172260D01*
X179185Y171982D01*
X178609Y171540D01*
X169242Y162173D01*
X168780Y162364D01*
Y163849D01*
X180599Y175668D01*
X181048Y175447D01*
D02*
G37*
G36*
X196114Y75955D02*
X195989Y75000D01*
X196160Y73703D01*
X196660Y72494D01*
X197457Y71456D01*
X197760Y71223D01*
X197793Y70724D01*
X196955Y69886D01*
X196000Y70012D01*
X194703Y69841D01*
X193494Y69340D01*
X192456Y68544D01*
X191660Y67506D01*
X191271Y66566D01*
X190729D01*
X190340Y67506D01*
X189544Y68544D01*
X188780Y69130D01*
Y82582D01*
X189280Y82789D01*
X196114Y75955D01*
D02*
G37*
G36*
X208120Y59898D02*
Y50551D01*
X201356Y43787D01*
X200883Y44021D01*
X201011Y45000D01*
X200880Y46001D01*
X201150Y46353D01*
X201428Y47023D01*
X201523Y47743D01*
Y53954D01*
X207659Y60090D01*
X208120Y59898D01*
D02*
G37*
G36*
X174862Y50308D02*
X174840Y50245D01*
X174645Y49817D01*
X173494Y49340D01*
X172457Y48544D01*
X171660Y47506D01*
X171160Y46297D01*
X170989Y45000D01*
X171160Y43703D01*
X171660Y42494D01*
X172457Y41456D01*
X173494Y40660D01*
X174435Y40271D01*
Y39729D01*
X173494Y39340D01*
X172457Y38544D01*
X171660Y37506D01*
X171160Y36297D01*
X170989Y35000D01*
X171160Y33703D01*
X171370Y33195D01*
X171092Y32780D01*
X167151D01*
X165886Y34045D01*
X166012Y35000D01*
X165841Y36297D01*
X165340Y37506D01*
X164544Y38544D01*
X163506Y39340D01*
X162566Y39729D01*
Y40271D01*
X163506Y40660D01*
X164544Y41456D01*
X165340Y42494D01*
X165841Y43703D01*
X166012Y45000D01*
X165841Y46297D01*
X165340Y47506D01*
X164544Y48544D01*
X163506Y49340D01*
X162566Y49729D01*
Y50271D01*
X163506Y50660D01*
X164544Y51456D01*
X165130Y52220D01*
X172949D01*
X174862Y50308D01*
D02*
G37*
G36*
X112220Y196949D02*
Y188364D01*
X111758Y188173D01*
X105886Y194045D01*
X106011Y195000D01*
X105841Y196297D01*
X105340Y197506D01*
X104544Y198544D01*
X103506Y199340D01*
X102566Y199730D01*
Y200271D01*
X103506Y200660D01*
X104544Y201456D01*
X105340Y202494D01*
X105559Y203022D01*
X106049Y203120D01*
X112220Y196949D01*
D02*
G37*
G36*
X271370Y216805D02*
X271160Y216297D01*
X270989Y215000D01*
X271160Y213703D01*
X271660Y212494D01*
X272457Y211456D01*
X273494Y210660D01*
X274435Y210271D01*
Y209730D01*
X273494Y209340D01*
X272457Y208544D01*
X271660Y207506D01*
X271160Y206297D01*
X270989Y205000D01*
X271160Y203703D01*
X271660Y202494D01*
X272457Y201456D01*
X273494Y200660D01*
X274435Y200271D01*
Y199730D01*
X273494Y199340D01*
X272457Y198544D01*
X271660Y197506D01*
X271160Y196297D01*
X270989Y195000D01*
X271048Y194553D01*
X270599Y194332D01*
X268180Y196751D01*
Y215349D01*
X270052Y217220D01*
X271092D01*
X271370Y216805D01*
D02*
G37*
G36*
X204703Y230159D02*
X206000Y229989D01*
X207297Y230159D01*
X207805Y230370D01*
X208220Y230092D01*
Y226952D01*
X207035Y225766D01*
X206593Y225190D01*
X206315Y224519D01*
X206220Y223800D01*
Y194465D01*
X205805Y194188D01*
X205628Y194261D01*
X204600Y194396D01*
X203792Y194290D01*
X203659Y194401D01*
X203456Y194727D01*
X203685Y195281D01*
X203780Y196000D01*
Y230092D01*
X204195Y230370D01*
X204703Y230159D01*
D02*
G37*
G36*
X326114Y70955D02*
X325989Y70000D01*
X326160Y68703D01*
X326660Y67494D01*
X327456Y66457D01*
X328494Y65660D01*
X329435Y65271D01*
Y64729D01*
X328494Y64340D01*
X327456Y63544D01*
X326660Y62506D01*
X326160Y61297D01*
X325989Y60000D01*
X326160Y58703D01*
X326660Y57494D01*
X327456Y56457D01*
X328494Y55660D01*
X329435Y55271D01*
Y54729D01*
X328494Y54340D01*
X327456Y53544D01*
X326660Y52506D01*
X326160Y51297D01*
X325989Y50000D01*
X326160Y48703D01*
X326660Y47494D01*
X327456Y46457D01*
X328494Y45660D01*
X329435Y45271D01*
Y44730D01*
X328494Y44340D01*
X327456Y43544D01*
X326660Y42506D01*
X326160Y41297D01*
X325994Y40044D01*
X325787Y39900D01*
X325548Y39783D01*
X311780Y53552D01*
Y84636D01*
X312242Y84828D01*
X326114Y70955D01*
D02*
G37*
G36*
X181032Y215447D02*
Y210032D01*
X183220D01*
Y209130D01*
X182457Y208544D01*
X181660Y207506D01*
X181159Y206297D01*
X180989Y205000D01*
X181159Y203703D01*
X181660Y202494D01*
X182457Y201456D01*
X183494Y200660D01*
X184435Y200271D01*
Y199730D01*
X183494Y199340D01*
X182457Y198544D01*
X181660Y197506D01*
X181159Y196297D01*
X180989Y195000D01*
X181114Y194045D01*
X169449Y182380D01*
X165834D01*
X165500Y182880D01*
X165841Y183703D01*
X166012Y185000D01*
X165841Y186297D01*
X165340Y187506D01*
X164544Y188544D01*
X163506Y189340D01*
X162566Y189729D01*
Y190271D01*
X163506Y190660D01*
X164544Y191456D01*
X165159Y192258D01*
X165594Y192315D01*
X166264Y192593D01*
X166840Y193035D01*
X171840Y198035D01*
X172281Y198610D01*
X172559Y199281D01*
X172654Y200000D01*
Y207723D01*
X180570Y215639D01*
X181032Y215447D01*
D02*
G37*
G36*
X360794Y60585D02*
X360659Y59559D01*
X360841Y58177D01*
X361375Y56889D01*
X362224Y55783D01*
X363330Y54934D01*
X364618Y54400D01*
X366000Y54218D01*
X367382Y54400D01*
X368220Y54747D01*
X368720Y54413D01*
Y53052D01*
X356342Y40673D01*
X355880Y40864D01*
Y56378D01*
X360321Y60819D01*
X360794Y60585D01*
D02*
G37*
G36*
X54220Y186860D02*
Y159488D01*
X52280Y157548D01*
X51780Y157755D01*
Y183200D01*
X51685Y183920D01*
X51407Y184590D01*
X50966Y185166D01*
X50589Y185542D01*
X50810Y185991D01*
X51000Y185966D01*
X52044Y186103D01*
X53017Y186506D01*
X53720Y187046D01*
X54220Y186860D01*
D02*
G37*
G36*
X156051Y195476D02*
X155989Y195000D01*
X156159Y193703D01*
X156660Y192494D01*
X157457Y191456D01*
X158494Y190660D01*
X159435Y190271D01*
Y189729D01*
X158494Y189340D01*
X157457Y188544D01*
X156660Y187506D01*
X156159Y186297D01*
X155989Y185000D01*
X156159Y183703D01*
X156057Y183526D01*
X155372Y183436D01*
X154880Y183232D01*
X154380Y183566D01*
Y194474D01*
X155603Y195697D01*
X156051Y195476D01*
D02*
G37*
G36*
X181048Y165447D02*
X180989Y165000D01*
X181159Y163703D01*
X181492Y162900D01*
X181602Y162442D01*
X181287Y162159D01*
X181035Y161966D01*
X173280Y154211D01*
X172780Y154418D01*
Y157849D01*
X180599Y165668D01*
X181048Y165447D01*
D02*
G37*
G36*
X57456Y126456D02*
X58494Y125660D01*
X59703Y125160D01*
X61000Y124989D01*
X62297Y125160D01*
X62379Y125194D01*
X62795Y124916D01*
Y100726D01*
X56431Y94362D01*
X55969Y94553D01*
Y96038D01*
X56029Y96098D01*
X56470Y96673D01*
X56748Y97344D01*
X56843Y98063D01*
Y126479D01*
X57316Y126639D01*
X57456Y126456D01*
D02*
G37*
G36*
X155372Y175764D02*
X156077Y175672D01*
X155989Y175000D01*
X156159Y173703D01*
X156660Y172494D01*
X157457Y171457D01*
X158494Y170660D01*
X159435Y170271D01*
Y169729D01*
X158494Y169340D01*
X157457Y168544D01*
X156660Y167506D01*
X156159Y166297D01*
X155989Y165000D01*
X156159Y163703D01*
X156660Y162494D01*
X157457Y161457D01*
X158494Y160660D01*
X159435Y160271D01*
Y159730D01*
X158494Y159340D01*
X157457Y158544D01*
X156660Y157506D01*
X156159Y156297D01*
X155989Y155000D01*
X156159Y153703D01*
X156660Y152494D01*
X157457Y151456D01*
X158494Y150660D01*
X159435Y150271D01*
Y149730D01*
X158494Y149340D01*
X157457Y148544D01*
X156660Y147506D01*
X156159Y146297D01*
X155989Y145000D01*
X156159Y143703D01*
X156660Y142494D01*
X157457Y141456D01*
X158494Y140660D01*
X159435Y140271D01*
Y139729D01*
X158494Y139340D01*
X157457Y138544D01*
X156660Y137506D01*
X156159Y136297D01*
X155989Y135000D01*
X156159Y133703D01*
X156660Y132494D01*
X157457Y131456D01*
X158494Y130660D01*
X159435Y130271D01*
Y129729D01*
X158494Y129340D01*
X157457Y128544D01*
X156660Y127506D01*
X156159Y126297D01*
X155989Y125000D01*
X155498Y124954D01*
X155436Y125428D01*
X155039Y126386D01*
X154408Y127208D01*
X154380Y127230D01*
Y175634D01*
X154880Y175969D01*
X155372Y175764D01*
D02*
G37*
G36*
X42220Y129742D02*
Y118164D01*
X41758Y117973D01*
X37766Y121966D01*
X37190Y122407D01*
X36520Y122685D01*
X35800Y122780D01*
X35000D01*
Y125782D01*
X35376Y126111D01*
X36000Y126029D01*
X37028Y126164D01*
X37986Y126561D01*
X38808Y127192D01*
X39439Y128015D01*
X39836Y128972D01*
X39932Y129702D01*
X39971Y130000D01*
X40462Y130100D01*
X41000Y130029D01*
X41720Y130124D01*
X42220Y129742D01*
D02*
G37*
G36*
X119015Y191561D02*
X119972Y191164D01*
X121000Y191029D01*
X122028Y191164D01*
X122720Y191451D01*
X123220Y191143D01*
Y136151D01*
X116035Y128966D01*
X116000Y128971D01*
X114972Y128836D01*
X114015Y128439D01*
X113192Y127808D01*
X112561Y126986D01*
X112164Y126028D01*
X112029Y125000D01*
X112164Y123972D01*
X112561Y123015D01*
X113192Y122192D01*
X114015Y121561D01*
X114972Y121164D01*
X116000Y121029D01*
X117028Y121164D01*
X117142Y121212D01*
X117426Y120788D01*
X105089Y108451D01*
X104590Y108484D01*
X104544Y108544D01*
X103506Y109340D01*
X102566Y109730D01*
Y110271D01*
X103506Y110660D01*
X104544Y111457D01*
X105340Y112494D01*
X105841Y113703D01*
X106011Y115000D01*
X105841Y116297D01*
X105340Y117506D01*
X104544Y118544D01*
X103506Y119340D01*
X102566Y119729D01*
Y120271D01*
X103506Y120660D01*
X104544Y121457D01*
X105340Y122494D01*
X105841Y123703D01*
X106011Y125000D01*
X105841Y126297D01*
X105340Y127506D01*
X104544Y128544D01*
X103506Y129340D01*
X102566Y129729D01*
Y130271D01*
X103506Y130660D01*
X104544Y131456D01*
X105130Y132220D01*
X108000D01*
X108720Y132315D01*
X109390Y132593D01*
X109966Y133035D01*
X116966Y140034D01*
X117407Y140610D01*
X117685Y141281D01*
X117780Y142000D01*
Y191983D01*
X118280Y192125D01*
X119015Y191561D01*
D02*
G37*
G36*
X82820Y136749D02*
Y100074D01*
X82405Y99796D01*
X82297Y99841D01*
X81696Y99920D01*
X80771Y100845D01*
Y138145D01*
X81233Y138336D01*
X82820Y136749D01*
D02*
G37*
G36*
X306220Y110349D02*
Y106687D01*
X305720Y106588D01*
X305340Y107506D01*
X304544Y108544D01*
X303506Y109340D01*
X302297Y109841D01*
X301000Y110011D01*
X299703Y109841D01*
X298494Y109340D01*
X297457Y108544D01*
X296660Y107506D01*
X296271Y106566D01*
X295729D01*
X295340Y107506D01*
X294544Y108544D01*
X293506Y109340D01*
X292297Y109841D01*
X291000Y110011D01*
X289703Y109841D01*
X288494Y109340D01*
X287456Y108544D01*
X286660Y107506D01*
X286159Y106297D01*
X285989Y105000D01*
X286114Y104045D01*
X281535Y99466D01*
X281093Y98890D01*
X280815Y98220D01*
X280753Y97749D01*
X280235Y97643D01*
X279544Y98544D01*
X278506Y99340D01*
X277566Y99730D01*
Y100271D01*
X278506Y100660D01*
X279544Y101456D01*
X280340Y102494D01*
X280841Y103703D01*
X281012Y105000D01*
X280841Y106297D01*
X280340Y107506D01*
X279544Y108544D01*
X278506Y109340D01*
X277566Y109730D01*
Y110271D01*
X278506Y110660D01*
X279544Y111457D01*
X280340Y112494D01*
X280841Y113703D01*
X281012Y115000D01*
X280841Y116297D01*
X280340Y117506D01*
X279544Y118544D01*
X278506Y119340D01*
X277566Y119729D01*
Y120271D01*
X278506Y120660D01*
X279544Y121457D01*
X280340Y122494D01*
X280841Y123703D01*
X281012Y125000D01*
X280841Y126297D01*
X280340Y127506D01*
X279544Y128544D01*
X278506Y129340D01*
X277566Y129729D01*
Y130271D01*
X278506Y130660D01*
X279544Y131456D01*
X280340Y132494D01*
X280841Y133703D01*
X280994Y134868D01*
X281461Y135108D01*
X306220Y110349D01*
D02*
G37*
G36*
X326114Y150955D02*
X325989Y150000D01*
X326160Y148703D01*
X326660Y147494D01*
X327456Y146457D01*
X328494Y145660D01*
X329435Y145271D01*
Y144729D01*
X328494Y144340D01*
X327456Y143544D01*
X326660Y142506D01*
X326160Y141297D01*
X325989Y140000D01*
X326160Y138703D01*
X326660Y137494D01*
X327456Y136457D01*
X328494Y135660D01*
X329435Y135271D01*
Y134730D01*
X328494Y134340D01*
X327456Y133544D01*
X326660Y132506D01*
X326160Y131297D01*
X325989Y130000D01*
X326160Y128703D01*
X326660Y127494D01*
X327456Y126456D01*
X328494Y125660D01*
X329435Y125271D01*
Y124730D01*
X328494Y124340D01*
X327456Y123544D01*
X326660Y122506D01*
X326160Y121297D01*
X325989Y120000D01*
X326160Y118703D01*
X326660Y117494D01*
X327456Y116456D01*
X328494Y115660D01*
X329435Y115271D01*
Y114729D01*
X328494Y114340D01*
X327456Y113544D01*
X326660Y112506D01*
X326160Y111297D01*
X325989Y110000D01*
X326048Y109553D01*
X325599Y109332D01*
X323780Y111152D01*
Y152636D01*
X324242Y152828D01*
X326114Y150955D01*
D02*
G37*
G36*
X38020Y113849D02*
Y100364D01*
X37558Y100173D01*
X35766Y101966D01*
X35190Y102407D01*
X35000Y102486D01*
Y116216D01*
X35462Y116407D01*
X38020Y113849D01*
D02*
G37*
G36*
X51283Y115206D02*
Y104727D01*
X50783Y104480D01*
X50186Y104939D01*
X49228Y105336D01*
X48200Y105471D01*
X48165Y105466D01*
X47780Y105851D01*
Y114742D01*
X48280Y115124D01*
X49000Y115029D01*
X50028Y115164D01*
X50783Y115477D01*
X51283Y115206D01*
D02*
G37*
G36*
X44257Y101289D02*
X44364Y100472D01*
X44761Y99515D01*
X45392Y98692D01*
X46032Y98202D01*
Y90032D01*
X48857D01*
X48957Y89532D01*
X48494Y89340D01*
X47456Y88544D01*
X46660Y87506D01*
X46213Y86426D01*
X45698Y86234D01*
X43580Y88351D01*
Y101151D01*
X43581Y101153D01*
X44080Y101413D01*
X44257Y101289D01*
D02*
G37*
G36*
X326114Y90955D02*
X325989Y90000D01*
X326160Y88703D01*
X326660Y87494D01*
X327456Y86457D01*
X328494Y85660D01*
X329435Y85271D01*
Y84729D01*
X328494Y84340D01*
X327456Y83544D01*
X326660Y82506D01*
X326160Y81297D01*
X325989Y80000D01*
X326048Y79553D01*
X325599Y79332D01*
X315780Y89152D01*
Y100636D01*
X316242Y100828D01*
X326114Y90955D01*
D02*
G37*
G36*
X287456Y91457D02*
X288494Y90660D01*
X289703Y90159D01*
X291000Y89989D01*
X291955Y90114D01*
X293220Y88849D01*
Y79908D01*
X292805Y79631D01*
X292297Y79841D01*
X291000Y80011D01*
X289703Y79841D01*
X288494Y79340D01*
X287456Y78544D01*
X286780Y77662D01*
X286280Y77831D01*
Y92169D01*
X286780Y92339D01*
X287456Y91457D01*
D02*
G37*
G36*
X206220Y165636D02*
Y149341D01*
X206315Y148621D01*
X206593Y147951D01*
X207035Y147375D01*
X211375Y143035D01*
X211951Y142593D01*
X212621Y142315D01*
X213341Y142220D01*
X219807D01*
X220527Y142315D01*
X220572Y142334D01*
X274235D01*
X276109Y140461D01*
X275868Y139994D01*
X274703Y139841D01*
X273494Y139340D01*
X272457Y138544D01*
X271660Y137506D01*
X271160Y136297D01*
X271080Y135696D01*
X262792Y127408D01*
X262161Y126586D01*
X261764Y125628D01*
X261629Y124600D01*
Y76245D01*
X224362Y38978D01*
X222563D01*
X222371Y39440D01*
X225966Y43034D01*
X226407Y43610D01*
X226685Y44281D01*
X226780Y45000D01*
Y62000D01*
X226685Y62720D01*
X226407Y63390D01*
X225966Y63966D01*
X222966Y66966D01*
X222673Y67190D01*
X222673Y67810D01*
X222966Y68034D01*
X225966Y71034D01*
X226407Y71610D01*
X226685Y72281D01*
X226780Y73000D01*
Y82000D01*
X226685Y82719D01*
X226407Y83390D01*
X225966Y83966D01*
X222966Y86966D01*
X222390Y87407D01*
X221719Y87685D01*
X221000Y87780D01*
X220130D01*
X219544Y88544D01*
X218506Y89340D01*
X217566Y89729D01*
Y90271D01*
X218506Y90660D01*
X219544Y91457D01*
X220340Y92494D01*
X220841Y93703D01*
X221011Y95000D01*
X220841Y96297D01*
X220340Y97506D01*
X219544Y98544D01*
X218506Y99340D01*
X217566Y99730D01*
Y100271D01*
X218506Y100660D01*
X219544Y101456D01*
X220340Y102494D01*
X220841Y103703D01*
X221011Y105000D01*
X220841Y106297D01*
X220340Y107506D01*
X219544Y108544D01*
X218506Y109340D01*
X217566Y109730D01*
Y110271D01*
X218506Y110660D01*
X219544Y111457D01*
X220340Y112494D01*
X220841Y113703D01*
X221011Y115000D01*
X220841Y116297D01*
X220340Y117506D01*
X219544Y118544D01*
X218506Y119340D01*
X217566Y119729D01*
Y120271D01*
X218506Y120660D01*
X219544Y121457D01*
X220340Y122494D01*
X220841Y123703D01*
X221011Y125000D01*
X220841Y126297D01*
X220340Y127506D01*
X219544Y128544D01*
X218506Y129340D01*
X218043Y129532D01*
X218143Y130032D01*
X220969D01*
Y139969D01*
X211032D01*
Y130032D01*
X213857D01*
X213957Y129532D01*
X213494Y129340D01*
X212456Y128544D01*
X211660Y127506D01*
X211159Y126297D01*
X210989Y125000D01*
X211114Y124046D01*
X189280Y102211D01*
X188780Y102418D01*
Y108534D01*
X190088Y109842D01*
X191000Y109721D01*
X192285Y109890D01*
X193482Y110386D01*
X194510Y111175D01*
X195299Y112203D01*
X195795Y113400D01*
X195964Y114685D01*
X195844Y115598D01*
X202966Y122720D01*
X203407Y123295D01*
X203685Y123966D01*
X203780Y124685D01*
Y130870D01*
X204544Y131456D01*
X205340Y132494D01*
X205841Y133703D01*
X206012Y135000D01*
X205841Y136297D01*
X205340Y137506D01*
X204544Y138544D01*
X203506Y139340D01*
X202297Y139841D01*
X201000Y140012D01*
X199703Y139841D01*
X198494Y139340D01*
X197457Y138544D01*
X196660Y137506D01*
X196160Y136297D01*
X195989Y135000D01*
X196160Y133703D01*
X196660Y132494D01*
X197457Y131456D01*
X198220Y130870D01*
Y125837D01*
X191913Y119529D01*
X191000Y119649D01*
X189715Y119480D01*
X188518Y118984D01*
X187490Y118195D01*
X186701Y117167D01*
X186205Y115970D01*
X186036Y114685D01*
X186156Y113773D01*
X184035Y111651D01*
X183593Y111075D01*
X183315Y110405D01*
X183220Y109685D01*
Y78944D01*
X182720Y78617D01*
X182044Y78897D01*
X181500Y78969D01*
Y75000D01*
Y71031D01*
X182044Y71103D01*
X182720Y71383D01*
X183220Y71056D01*
Y69130D01*
X182457Y68544D01*
X181660Y67506D01*
X181159Y66297D01*
X180989Y65000D01*
X181159Y63703D01*
X181660Y62494D01*
X182457Y61457D01*
X183494Y60660D01*
X184703Y60159D01*
X186000Y59989D01*
X187297Y60159D01*
X188506Y60660D01*
X189544Y61457D01*
X190340Y62494D01*
X190729Y63435D01*
X191271D01*
X191660Y62494D01*
X192456Y61457D01*
X193494Y60660D01*
X194703Y60159D01*
X196000Y59989D01*
X197297Y60159D01*
X198506Y60660D01*
X199544Y61457D01*
X200340Y62494D01*
X200841Y63703D01*
X201011Y65000D01*
X200886Y65955D01*
X202966Y68035D01*
X203407Y68610D01*
X203685Y69281D01*
X203780Y70000D01*
Y70870D01*
X204544Y71456D01*
X204684Y71639D01*
X205157Y71479D01*
Y65451D01*
X196777Y57071D01*
X196336Y56495D01*
X196058Y55825D01*
X195963Y55105D01*
Y50007D01*
X194703Y49841D01*
X193494Y49340D01*
X192456Y48544D01*
X191660Y47506D01*
X191271Y46566D01*
X190729D01*
X190340Y47506D01*
X189544Y48544D01*
X188506Y49340D01*
X187297Y49841D01*
X186000Y50011D01*
X184703Y49841D01*
X183935Y49523D01*
X183407Y49490D01*
X183213Y49743D01*
X182966Y50066D01*
X176066Y56966D01*
X175490Y57407D01*
X174820Y57685D01*
X174100Y57780D01*
X165130D01*
X164544Y58544D01*
X163506Y59340D01*
X162566Y59729D01*
Y60271D01*
X163506Y60660D01*
X164544Y61457D01*
X165340Y62494D01*
X165841Y63703D01*
X166012Y65000D01*
X165841Y66297D01*
X165340Y67506D01*
X164544Y68544D01*
X163506Y69340D01*
X162566Y69730D01*
Y70271D01*
X163506Y70660D01*
X164544Y71456D01*
X165340Y72494D01*
X165841Y73703D01*
X166012Y75000D01*
X165841Y76297D01*
X165340Y77506D01*
X164544Y78544D01*
X163506Y79340D01*
X162566Y79729D01*
Y80271D01*
X163506Y80660D01*
X164544Y81457D01*
X165340Y82494D01*
X165841Y83703D01*
X166012Y85000D01*
X165886Y85955D01*
X176966Y97035D01*
X177407Y97610D01*
X177685Y98281D01*
X177780Y99000D01*
Y131860D01*
X178280Y132046D01*
X178983Y131506D01*
X179956Y131103D01*
X180500Y131031D01*
Y135000D01*
Y138969D01*
X179956Y138897D01*
X178983Y138494D01*
X178280Y137955D01*
X177780Y138140D01*
Y150849D01*
X181516Y154585D01*
X182044Y154406D01*
X182103Y153956D01*
X182506Y152983D01*
X183147Y152147D01*
X183983Y151506D01*
X184956Y151103D01*
X185500Y151031D01*
Y155000D01*
X186000D01*
Y155500D01*
X189969D01*
X189897Y156044D01*
X189617Y156720D01*
X189944Y157220D01*
X196000D01*
X196720Y157315D01*
X197390Y157593D01*
X197966Y158035D01*
X205759Y165827D01*
X206220Y165636D01*
D02*
G37*
G36*
X211048Y115447D02*
X210989Y115000D01*
X211159Y113703D01*
X211660Y112494D01*
X212456Y111457D01*
X213494Y110660D01*
X214435Y110271D01*
Y109730D01*
X213494Y109340D01*
X212456Y108544D01*
X211660Y107506D01*
X211159Y106297D01*
X210989Y105000D01*
X211159Y103703D01*
X211660Y102494D01*
X212456Y101456D01*
X213494Y100660D01*
X214435Y100271D01*
Y99730D01*
X213494Y99340D01*
X212456Y98544D01*
X211660Y97506D01*
X211159Y96297D01*
X210989Y95000D01*
X211114Y94046D01*
X205972Y88903D01*
X205530Y88327D01*
X205252Y87656D01*
X205157Y86937D01*
Y78522D01*
X204684Y78361D01*
X204544Y78544D01*
X203506Y79340D01*
X202297Y79841D01*
X201000Y80011D01*
X200045Y79886D01*
X193780Y86151D01*
Y90930D01*
X194510Y91490D01*
X195299Y92518D01*
X195795Y93715D01*
X195964Y95000D01*
X195795Y96285D01*
X195299Y97482D01*
X194510Y98510D01*
X194206Y98743D01*
X194173Y99242D01*
X210599Y115668D01*
X211048Y115447D01*
D02*
G37*
G36*
X303494Y145660D02*
X304703Y145159D01*
X306000Y144989D01*
X306955Y145114D01*
X310220Y141849D01*
Y114864D01*
X309758Y114673D01*
X279673Y144758D01*
X279864Y145220D01*
X286849D01*
X288609Y143460D01*
X289185Y143018D01*
X289855Y142740D01*
X290575Y142646D01*
X298525D01*
X299245Y142740D01*
X299915Y143018D01*
X300491Y143460D01*
X302966Y145935D01*
X303112Y145954D01*
X303494Y145660D01*
D02*
G37*
G36*
X271135Y123886D02*
X271160Y123703D01*
X271660Y122494D01*
X272457Y121457D01*
X273494Y120660D01*
X274435Y120271D01*
Y119729D01*
X273494Y119340D01*
X272457Y118544D01*
X271660Y117506D01*
X271160Y116297D01*
X270989Y115000D01*
X271160Y113703D01*
X271660Y112494D01*
X272457Y111457D01*
X273494Y110660D01*
X274435Y110271D01*
Y109730D01*
X273494Y109340D01*
X272457Y108544D01*
X271660Y107506D01*
X271160Y106297D01*
X270989Y105000D01*
X271160Y103703D01*
X271660Y102494D01*
X272457Y101456D01*
X273494Y100660D01*
X274435Y100271D01*
Y99730D01*
X273494Y99340D01*
X272457Y98544D01*
X271660Y97506D01*
X271160Y96297D01*
X270989Y95000D01*
X271160Y93703D01*
X271660Y92494D01*
X272457Y91457D01*
X273494Y90660D01*
X274435Y90271D01*
Y89729D01*
X273494Y89340D01*
X272457Y88544D01*
X271660Y87506D01*
X271160Y86297D01*
X270989Y85000D01*
X271114Y84045D01*
X270033Y82964D01*
X269571Y83155D01*
Y122955D01*
X270662Y124046D01*
X271135Y123886D01*
D02*
G37*
G36*
X157029Y248355D02*
Y217987D01*
X156660Y217506D01*
X156159Y216297D01*
X156080Y215696D01*
X139292Y198908D01*
X138661Y198086D01*
X138264Y197128D01*
X138129Y196100D01*
Y117745D01*
X106338Y85954D01*
X105865Y86115D01*
X105841Y86297D01*
X105340Y87506D01*
X104544Y88544D01*
X103506Y89340D01*
X102566Y89729D01*
Y90271D01*
X103506Y90660D01*
X104544Y91457D01*
X105340Y92494D01*
X105841Y93703D01*
X106011Y95000D01*
X105841Y96297D01*
X105340Y97506D01*
X104544Y98544D01*
X103506Y99340D01*
X102566Y99730D01*
Y100271D01*
X103506Y100660D01*
X104544Y101456D01*
X105130Y102220D01*
X105569D01*
X106288Y102315D01*
X106959Y102593D01*
X107534Y103035D01*
X132966Y128466D01*
X133407Y129041D01*
X133685Y129712D01*
X133780Y130431D01*
Y259400D01*
X133685Y260120D01*
X133407Y260790D01*
X132966Y261366D01*
X114764Y279567D01*
X114955Y280029D01*
X125355D01*
X157029Y248355D01*
D02*
G37*
G36*
X84572Y157764D02*
X85600Y157629D01*
X86183Y157706D01*
X86559Y157376D01*
Y141526D01*
X86097Y141334D01*
X83780Y143651D01*
Y157643D01*
X84196Y157921D01*
X84572Y157764D01*
D02*
G37*
G36*
X306220Y83313D02*
Y66687D01*
X305720Y66588D01*
X305340Y67506D01*
X304544Y68544D01*
X303506Y69340D01*
X302297Y69841D01*
X301000Y70012D01*
X299703Y69841D01*
X299166Y69618D01*
X298769Y69923D01*
X298780Y70000D01*
Y80092D01*
X299196Y80370D01*
X299703Y80159D01*
X301000Y79989D01*
X302297Y80159D01*
X303506Y80660D01*
X304544Y81457D01*
X305340Y82494D01*
X305720Y83412D01*
X306220Y83313D01*
D02*
G37*
G36*
X47372Y279529D02*
X47164Y279028D01*
X47029Y278000D01*
X47164Y276972D01*
X47561Y276015D01*
X48192Y275192D01*
X49015Y274561D01*
X49972Y274164D01*
X51000Y274029D01*
X52028Y274164D01*
X52648Y274421D01*
X62795Y264274D01*
Y262197D01*
X62295Y262027D01*
X62265Y262066D01*
X56366Y267966D01*
X55790Y268407D01*
X55120Y268685D01*
X54400Y268780D01*
X46258D01*
X45876Y269280D01*
X45971Y270000D01*
Y280029D01*
X47038D01*
X47372Y279529D01*
D02*
G37*
G36*
X208220Y258283D02*
Y239908D01*
X207805Y239631D01*
X207297Y239841D01*
X206000Y240012D01*
X204703Y239841D01*
X204195Y239631D01*
X203780Y239908D01*
Y254550D01*
X207720Y258490D01*
X208220Y258283D01*
D02*
G37*
G36*
X47456Y226929D02*
X48494Y226132D01*
X49703Y225632D01*
X50792Y225488D01*
Y224984D01*
X49703Y224841D01*
X48494Y224340D01*
X47456Y223544D01*
X46870Y222780D01*
X35000D01*
Y227693D01*
X46870D01*
X47456Y226929D01*
D02*
G37*
G36*
X70257Y279567D02*
X68435Y277745D01*
X67993Y277169D01*
X67715Y276499D01*
X67620Y275779D01*
Y268018D01*
X67120Y267811D01*
X55402Y279529D01*
X55609Y280029D01*
X70065D01*
X70257Y279567D01*
D02*
G37*
G36*
X43220Y254849D02*
Y237800D01*
X43315Y237081D01*
X43593Y236410D01*
X44035Y235835D01*
X46117Y233752D01*
X45910Y233252D01*
X35000D01*
Y241533D01*
X35500Y241779D01*
X35915Y241461D01*
X36872Y241064D01*
X37900Y240929D01*
X38928Y241064D01*
X39886Y241461D01*
X40708Y242092D01*
X41339Y242915D01*
X41736Y243872D01*
X41871Y244900D01*
X41736Y245928D01*
X41339Y246886D01*
X40708Y247708D01*
X39886Y248339D01*
X38928Y248736D01*
X38180Y248834D01*
Y256600D01*
X38085Y257319D01*
X37807Y257990D01*
X37366Y258565D01*
X35000Y260931D01*
Y262416D01*
X35462Y262607D01*
X43220Y254849D01*
D02*
G37*
G36*
X109600Y243029D02*
X109635Y243034D01*
X123220Y229449D01*
Y216118D01*
X122720Y215911D01*
X108780Y229852D01*
Y242758D01*
X109156Y243088D01*
X109600Y243029D01*
D02*
G37*
G36*
X198220Y253436D02*
Y239908D01*
X197805Y239631D01*
X197297Y239841D01*
X196000Y240012D01*
X194703Y239841D01*
X193494Y239340D01*
X192456Y238544D01*
X191660Y237506D01*
X191271Y236566D01*
X190729D01*
X190340Y237506D01*
X189544Y238544D01*
X188506Y239340D01*
X187297Y239841D01*
X186000Y240012D01*
X184703Y239841D01*
X184662Y239824D01*
X184379Y240248D01*
X197758Y253627D01*
X198220Y253436D01*
D02*
G37*
G36*
X322220Y245949D02*
Y234258D01*
X321720Y233876D01*
X321000Y233971D01*
X319972Y233836D01*
X319015Y233439D01*
X318192Y232808D01*
X317561Y231985D01*
X317164Y231028D01*
X317029Y230000D01*
X317164Y228972D01*
X317561Y228015D01*
X318192Y227192D01*
X318220Y227170D01*
Y154064D01*
X317758Y153873D01*
X315066Y156566D01*
X314490Y157007D01*
X313820Y157285D01*
X313100Y157380D01*
X310834D01*
X310500Y157880D01*
X310841Y158703D01*
X311012Y160000D01*
X310841Y161297D01*
X310340Y162506D01*
X309544Y163544D01*
X308506Y164340D01*
X307566Y164729D01*
Y165271D01*
X308506Y165660D01*
X309544Y166456D01*
X310340Y167494D01*
X310841Y168703D01*
X311012Y170000D01*
X310841Y171297D01*
X310340Y172506D01*
X309544Y173544D01*
X308506Y174340D01*
X307566Y174730D01*
Y175271D01*
X308506Y175660D01*
X309544Y176456D01*
X310340Y177494D01*
X310841Y178703D01*
X311012Y180000D01*
X310841Y181297D01*
X310340Y182506D01*
X309544Y183544D01*
X308506Y184340D01*
X307566Y184730D01*
Y185271D01*
X308506Y185660D01*
X309544Y186457D01*
X310340Y187494D01*
X310841Y188703D01*
X311012Y190000D01*
X310841Y191297D01*
X310340Y192506D01*
X309544Y193544D01*
X308506Y194340D01*
X307297Y194841D01*
X306000Y195011D01*
X304703Y194841D01*
X304595Y194796D01*
X304180Y195074D01*
Y198500D01*
X304085Y199220D01*
X303807Y199890D01*
X303366Y200466D01*
X281866Y221966D01*
X281290Y222407D01*
X280620Y222685D01*
X279900Y222780D01*
X268900D01*
X268181Y222685D01*
X267510Y222407D01*
X266935Y221966D01*
X263435Y218466D01*
X262993Y217890D01*
X262715Y217219D01*
X262620Y216500D01*
Y202964D01*
X262158Y202773D01*
X250969Y213963D01*
Y219969D01*
X241032D01*
Y210032D01*
X243857D01*
X243957Y209532D01*
X243494Y209340D01*
X242457Y208544D01*
X241660Y207506D01*
X241160Y206297D01*
X240989Y205000D01*
X241160Y203703D01*
X241660Y202494D01*
X242457Y201456D01*
X243494Y200660D01*
X244435Y200271D01*
Y199730D01*
X243494Y199340D01*
X242457Y198544D01*
X241660Y197506D01*
X241160Y196297D01*
X240989Y195000D01*
X241160Y193703D01*
X241660Y192494D01*
X242457Y191456D01*
X243494Y190660D01*
X244435Y190271D01*
Y189729D01*
X243494Y189340D01*
X242457Y188544D01*
X241660Y187506D01*
X241160Y186297D01*
X240989Y185000D01*
X241160Y183703D01*
X241660Y182494D01*
X242457Y181456D01*
X243494Y180660D01*
X244435Y180271D01*
Y179729D01*
X243494Y179340D01*
X242457Y178544D01*
X241660Y177506D01*
X241160Y176297D01*
X240989Y175000D01*
X241160Y173703D01*
X241660Y172494D01*
X242457Y171457D01*
X243494Y170660D01*
X244435Y170271D01*
Y169729D01*
X243494Y169340D01*
X242457Y168544D01*
X241660Y167506D01*
X241160Y166297D01*
X240989Y165000D01*
X241160Y163703D01*
X241660Y162494D01*
X242457Y161457D01*
X243494Y160660D01*
X244703Y160160D01*
X246000Y159989D01*
X247297Y160160D01*
X248506Y160660D01*
X249544Y161457D01*
X250340Y162494D01*
X250841Y163703D01*
X251011Y165000D01*
X250841Y166297D01*
X250340Y167506D01*
X249544Y168544D01*
X248506Y169340D01*
X247566Y169729D01*
Y170271D01*
X248506Y170660D01*
X249544Y171457D01*
X250340Y172494D01*
X250841Y173703D01*
X251011Y175000D01*
X250841Y176297D01*
X250340Y177506D01*
X249544Y178544D01*
X248506Y179340D01*
X247566Y179729D01*
Y180271D01*
X248506Y180660D01*
X249544Y181456D01*
X250340Y182494D01*
X250841Y183703D01*
X251011Y185000D01*
X250841Y186297D01*
X250340Y187506D01*
X249544Y188544D01*
X248506Y189340D01*
X247566Y189729D01*
Y190271D01*
X248506Y190660D01*
X249544Y191456D01*
X250340Y192494D01*
X250841Y193703D01*
X251011Y195000D01*
X250841Y196297D01*
X250340Y197506D01*
X249544Y198544D01*
X248506Y199340D01*
X247566Y199730D01*
Y200271D01*
X248506Y200660D01*
X249544Y201456D01*
X250340Y202494D01*
X250841Y203703D01*
X251011Y205000D01*
X250953Y205447D01*
X251401Y205668D01*
X258220Y198849D01*
Y170400D01*
X258315Y169681D01*
X258593Y169010D01*
X259035Y168435D01*
X269035Y158435D01*
X269610Y157993D01*
X270281Y157715D01*
X271000Y157620D01*
X271166D01*
X271500Y157120D01*
X271160Y156297D01*
X270989Y155000D01*
X271160Y153703D01*
X271660Y152494D01*
X272457Y151456D01*
X272722Y151253D01*
X272561Y150780D01*
X247570D01*
X247471Y151280D01*
X248017Y151506D01*
X248853Y152147D01*
X249494Y152983D01*
X249897Y153956D01*
X249969Y154500D01*
X242031D01*
X242103Y153956D01*
X242506Y152983D01*
X243147Y152147D01*
X243983Y151506D01*
X244529Y151280D01*
X244430Y150780D01*
X219439D01*
X219279Y151253D01*
X219544Y151456D01*
X220340Y152494D01*
X220841Y153703D01*
X221011Y155000D01*
X220841Y156297D01*
X220340Y157506D01*
X219544Y158544D01*
X218506Y159340D01*
X217566Y159730D01*
Y160271D01*
X218506Y160660D01*
X219544Y161457D01*
X220340Y162494D01*
X220841Y163703D01*
X221011Y165000D01*
X220841Y166297D01*
X220340Y167506D01*
X219544Y168544D01*
X218506Y169340D01*
X217566Y169729D01*
Y170271D01*
X218506Y170660D01*
X219544Y171457D01*
X220340Y172494D01*
X220841Y173703D01*
X221011Y175000D01*
X220841Y176297D01*
X220340Y177506D01*
X219544Y178544D01*
X218506Y179340D01*
X217566Y179729D01*
Y180271D01*
X218506Y180660D01*
X219544Y181456D01*
X220340Y182494D01*
X220841Y183703D01*
X221011Y185000D01*
X220841Y186297D01*
X220340Y187506D01*
X219544Y188544D01*
X218506Y189340D01*
X217297Y189841D01*
X216000Y190012D01*
X214703Y189841D01*
X214596Y189796D01*
X214180Y190074D01*
Y190974D01*
X214596Y191252D01*
X214956Y191103D01*
X215500Y191031D01*
Y195000D01*
Y198969D01*
X214956Y198897D01*
X214596Y198748D01*
X214180Y199026D01*
Y200974D01*
X214596Y201252D01*
X214956Y201103D01*
X215500Y201031D01*
Y205000D01*
Y208969D01*
X214956Y208897D01*
X214596Y208748D01*
X214180Y209026D01*
Y209926D01*
X214596Y210204D01*
X214703Y210159D01*
X216000Y209989D01*
X217297Y210159D01*
X218506Y210660D01*
X219544Y211456D01*
X220340Y212494D01*
X220841Y213703D01*
X221011Y215000D01*
X220841Y216297D01*
X220340Y217506D01*
X219544Y218544D01*
X218506Y219340D01*
X217297Y219841D01*
X216000Y220011D01*
X215553Y219953D01*
X215332Y220401D01*
X225045Y230114D01*
X226000Y229989D01*
X227297Y230159D01*
X228506Y230660D01*
X229544Y231456D01*
X230340Y232494D01*
X230730Y233435D01*
X231271D01*
X231660Y232494D01*
X232456Y231456D01*
X233494Y230660D01*
X234703Y230159D01*
X236000Y229989D01*
X237297Y230159D01*
X238506Y230660D01*
X239544Y231456D01*
X240340Y232494D01*
X240729Y233435D01*
X241271D01*
X241660Y232494D01*
X242457Y231456D01*
X243494Y230660D01*
X244703Y230159D01*
X246000Y229989D01*
X247297Y230159D01*
X248506Y230660D01*
X249544Y231456D01*
X250340Y232494D01*
X250841Y233703D01*
X251011Y235000D01*
X250841Y236297D01*
X250340Y237506D01*
X249544Y238544D01*
X248506Y239340D01*
X247297Y239841D01*
X246000Y240012D01*
X244703Y239841D01*
X243494Y239340D01*
X242457Y238544D01*
X241660Y237506D01*
X241271Y236566D01*
X240729D01*
X240340Y237506D01*
X239544Y238544D01*
X238506Y239340D01*
X237297Y239841D01*
X236000Y240012D01*
X234703Y239841D01*
X233494Y239340D01*
X232456Y238544D01*
X231660Y237506D01*
X231271Y236566D01*
X230730D01*
X230340Y237506D01*
X229544Y238544D01*
X228506Y239340D01*
X227297Y239841D01*
X226000Y240012D01*
X224703Y239841D01*
X223494Y239340D01*
X222457Y238544D01*
X221660Y237506D01*
X221271Y236566D01*
X220729D01*
X220340Y237506D01*
X219544Y238544D01*
X218506Y239340D01*
X217297Y239841D01*
X216000Y240012D01*
X214703Y239841D01*
X214195Y239631D01*
X213780Y239908D01*
Y258849D01*
X215045Y260114D01*
X216000Y259989D01*
X217297Y260159D01*
X218506Y260660D01*
X219544Y261456D01*
X220340Y262494D01*
X220729Y263435D01*
X221271D01*
X221660Y262494D01*
X222457Y261456D01*
X223494Y260660D01*
X224703Y260159D01*
X226000Y259989D01*
X227297Y260159D01*
X228506Y260660D01*
X229544Y261456D01*
X230340Y262494D01*
X230730Y263435D01*
X231271D01*
X231660Y262494D01*
X232456Y261456D01*
X233494Y260660D01*
X234703Y260159D01*
X236000Y259989D01*
X236447Y260048D01*
X236668Y259599D01*
X228335Y251266D01*
X228300Y251271D01*
X227272Y251136D01*
X226315Y250739D01*
X225492Y250108D01*
X224861Y249286D01*
X224464Y248328D01*
X224329Y247300D01*
X224464Y246272D01*
X224861Y245315D01*
X225492Y244492D01*
X226315Y243861D01*
X227272Y243464D01*
X228300Y243329D01*
X229328Y243464D01*
X230286Y243861D01*
X231108Y244492D01*
X231739Y245315D01*
X232136Y246272D01*
X232271Y247300D01*
X232266Y247335D01*
X244963Y260032D01*
X250969D01*
Y269969D01*
X241032D01*
Y267143D01*
X240532Y267043D01*
X240340Y267506D01*
X239544Y268544D01*
X238506Y269340D01*
X237297Y269841D01*
X236000Y270011D01*
X234703Y269841D01*
X233494Y269340D01*
X232456Y268544D01*
X231660Y267506D01*
X231271Y266566D01*
X230730D01*
X230340Y267506D01*
X229544Y268544D01*
X228506Y269340D01*
X227297Y269841D01*
X226000Y270011D01*
X225045Y269886D01*
X223391Y271540D01*
X222815Y271982D01*
X222145Y272260D01*
X221425Y272355D01*
X202975D01*
X202256Y272260D01*
X201585Y271982D01*
X201009Y271540D01*
X199035Y269566D01*
X198901Y269392D01*
X198506Y269340D01*
X197297Y269841D01*
X196000Y270011D01*
X194703Y269841D01*
X193494Y269340D01*
X192456Y268544D01*
X191660Y267506D01*
X191159Y266297D01*
X190989Y265000D01*
X191114Y264046D01*
X190455Y263387D01*
X190211Y263407D01*
X189887Y263931D01*
X189897Y263956D01*
X189969Y264500D01*
X186000D01*
Y265000D01*
X185500D01*
Y268969D01*
X185047Y268909D01*
X184874Y269126D01*
X184790Y269359D01*
X194451Y279020D01*
X289149D01*
X322220Y245949D01*
D02*
G37*
G36*
X181177Y236338D02*
X181159Y236297D01*
X180989Y235000D01*
X181159Y233703D01*
X181660Y232494D01*
X182457Y231456D01*
X183494Y230660D01*
X184703Y230159D01*
X186000Y229989D01*
X186447Y230048D01*
X186668Y229599D01*
X168842Y211773D01*
X168380Y211964D01*
Y224249D01*
X180753Y236622D01*
X181177Y236338D01*
D02*
G37*
G36*
X57520Y258949D02*
Y235165D01*
X57058Y234974D01*
X54855Y237177D01*
X55340Y237809D01*
X55841Y239018D01*
X56011Y240315D01*
X55841Y241612D01*
X55340Y242821D01*
X54544Y243859D01*
X53506Y244655D01*
X52946Y244887D01*
Y245428D01*
X53506Y245660D01*
X54544Y246457D01*
X55340Y247494D01*
X55841Y248703D01*
X56011Y250000D01*
X55841Y251297D01*
X55340Y252506D01*
X54544Y253544D01*
X53506Y254340D01*
X53043Y254532D01*
X53143Y255032D01*
X55969D01*
Y259847D01*
X56431Y260039D01*
X57520Y258949D01*
D02*
G37*
G36*
X395000Y5000D02*
X35000D01*
Y47220D01*
X36849D01*
X41035Y43035D01*
X41610Y42593D01*
X42281Y42315D01*
X43000Y42220D01*
X46870D01*
X47456Y41456D01*
X48494Y40660D01*
X49435Y40271D01*
Y39729D01*
X48494Y39340D01*
X47456Y38544D01*
X46660Y37506D01*
X46159Y36297D01*
X45989Y35000D01*
X46159Y33703D01*
X46660Y32494D01*
X47456Y31457D01*
X48494Y30660D01*
X49703Y30160D01*
X51000Y29989D01*
X52297Y30160D01*
X53506Y30660D01*
X54544Y31457D01*
X55340Y32494D01*
X55841Y33703D01*
X56011Y35000D01*
X55841Y36297D01*
X55340Y37506D01*
X54544Y38544D01*
X53506Y39340D01*
X52566Y39729D01*
Y40271D01*
X53506Y40660D01*
X54544Y41456D01*
X55340Y42494D01*
X55841Y43703D01*
X56011Y45000D01*
X55841Y46297D01*
X55340Y47506D01*
X54544Y48544D01*
X53506Y49340D01*
X52566Y49729D01*
Y50271D01*
X53506Y50660D01*
X54544Y51456D01*
X55340Y52494D01*
X55841Y53703D01*
X56011Y55000D01*
X55841Y56297D01*
X55340Y57506D01*
X54544Y58544D01*
X53506Y59340D01*
X52297Y59841D01*
X51208Y59984D01*
Y60488D01*
X52297Y60632D01*
X53506Y61133D01*
X54544Y61929D01*
X55130Y62693D01*
X66473D01*
X67192Y62787D01*
X67862Y63065D01*
X68438Y63507D01*
X72966Y68035D01*
X73407Y68610D01*
X73685Y69281D01*
X73780Y70000D01*
Y95898D01*
X74280Y96105D01*
X76080Y94304D01*
X76160Y93703D01*
X76660Y92494D01*
X77456Y91457D01*
X78494Y90660D01*
X79435Y90271D01*
Y89729D01*
X78494Y89340D01*
X77456Y88544D01*
X76660Y87506D01*
X76160Y86297D01*
X75989Y85000D01*
X76160Y83703D01*
X76660Y82494D01*
X77456Y81457D01*
X78494Y80660D01*
X79435Y80271D01*
Y79729D01*
X78494Y79340D01*
X77456Y78544D01*
X76660Y77506D01*
X76160Y76297D01*
X75989Y75000D01*
X76160Y73703D01*
X76660Y72494D01*
X77456Y71456D01*
X78494Y70660D01*
X79435Y70271D01*
Y69730D01*
X78494Y69340D01*
X77456Y68544D01*
X76660Y67506D01*
X76160Y66297D01*
X75989Y65000D01*
X76160Y63703D01*
X76660Y62494D01*
X77456Y61457D01*
X78494Y60660D01*
X79435Y60271D01*
Y59729D01*
X78494Y59340D01*
X77456Y58544D01*
X76660Y57506D01*
X76160Y56297D01*
X75989Y55000D01*
X76160Y53703D01*
X76660Y52494D01*
X77456Y51456D01*
X78494Y50660D01*
X79435Y50271D01*
Y49729D01*
X78494Y49340D01*
X77456Y48544D01*
X76660Y47506D01*
X76160Y46297D01*
X75989Y45000D01*
X76160Y43703D01*
X76660Y42494D01*
X77456Y41456D01*
X78494Y40660D01*
X79435Y40271D01*
Y39729D01*
X78494Y39340D01*
X77456Y38544D01*
X76660Y37506D01*
X76160Y36297D01*
X75989Y35000D01*
X76160Y33703D01*
X76660Y32494D01*
X77456Y31457D01*
X78494Y30660D01*
X79435Y30271D01*
Y29730D01*
X78494Y29340D01*
X77456Y28544D01*
X76660Y27506D01*
X76160Y26297D01*
X75989Y25000D01*
X76160Y23703D01*
X76660Y22494D01*
X77456Y21456D01*
X78494Y20660D01*
X79703Y20159D01*
X81000Y19989D01*
X82297Y20159D01*
X83506Y20660D01*
X84544Y21456D01*
X85340Y22494D01*
X85841Y23703D01*
X86011Y25000D01*
X85841Y26297D01*
X85340Y27506D01*
X84544Y28544D01*
X83506Y29340D01*
X82566Y29730D01*
Y30271D01*
X83506Y30660D01*
X84544Y31457D01*
X85340Y32494D01*
X85841Y33703D01*
X86011Y35000D01*
X85886Y35955D01*
X91304Y41373D01*
X91746Y41949D01*
X92023Y42619D01*
X92118Y43339D01*
Y192187D01*
X95599Y195668D01*
X96048Y195447D01*
X95989Y195000D01*
X96159Y193703D01*
X96660Y192494D01*
X97457Y191456D01*
X98494Y190660D01*
X99703Y190159D01*
X101000Y189989D01*
X101955Y190114D01*
X103045Y189024D01*
X102762Y188600D01*
X102044Y188897D01*
X101500Y188969D01*
Y185500D01*
X104969D01*
X104897Y186044D01*
X104600Y186762D01*
X105024Y187046D01*
X108220Y183849D01*
Y147830D01*
X108192Y147808D01*
X107561Y146985D01*
X107164Y146028D01*
X107029Y145000D01*
X107164Y143972D01*
X107561Y143015D01*
X108192Y142192D01*
X109015Y141561D01*
X109657Y141295D01*
X109774Y140705D01*
X106849Y137780D01*
X105130D01*
X104544Y138544D01*
X103506Y139340D01*
X102566Y139729D01*
Y140271D01*
X103506Y140660D01*
X104544Y141456D01*
X105340Y142494D01*
X105841Y143703D01*
X106011Y145000D01*
X105841Y146297D01*
X105340Y147506D01*
X104544Y148544D01*
X103506Y149340D01*
X102566Y149730D01*
Y150271D01*
X103506Y150660D01*
X104544Y151456D01*
X105340Y152494D01*
X105841Y153703D01*
X106011Y155000D01*
X105841Y156297D01*
X105340Y157506D01*
X104544Y158544D01*
X103506Y159340D01*
X102566Y159730D01*
Y160271D01*
X103506Y160660D01*
X104544Y161457D01*
X105340Y162494D01*
X105841Y163703D01*
X106011Y165000D01*
X105841Y166297D01*
X105340Y167506D01*
X104544Y168544D01*
X103506Y169340D01*
X102566Y169729D01*
Y170271D01*
X103506Y170660D01*
X104544Y171457D01*
X105340Y172494D01*
X105841Y173703D01*
X106011Y175000D01*
X105841Y176297D01*
X105340Y177506D01*
X104544Y178544D01*
X103506Y179340D01*
X102297Y179841D01*
X101000Y180011D01*
X99703Y179841D01*
X98494Y179340D01*
X97457Y178544D01*
X96660Y177506D01*
X96159Y176297D01*
X95989Y175000D01*
X96159Y173703D01*
X96660Y172494D01*
X97457Y171457D01*
X98494Y170660D01*
X99435Y170271D01*
Y169729D01*
X98494Y169340D01*
X97457Y168544D01*
X96660Y167506D01*
X96159Y166297D01*
X95989Y165000D01*
X96159Y163703D01*
X96660Y162494D01*
X97457Y161457D01*
X98494Y160660D01*
X99435Y160271D01*
Y159730D01*
X98494Y159340D01*
X97457Y158544D01*
X96660Y157506D01*
X96159Y156297D01*
X95989Y155000D01*
X96159Y153703D01*
X96660Y152494D01*
X97457Y151456D01*
X98494Y150660D01*
X99435Y150271D01*
Y149730D01*
X98494Y149340D01*
X97457Y148544D01*
X96660Y147506D01*
X96159Y146297D01*
X95989Y145000D01*
X96159Y143703D01*
X96660Y142494D01*
X97457Y141456D01*
X98494Y140660D01*
X99435Y140271D01*
Y139729D01*
X98494Y139340D01*
X97457Y138544D01*
X96660Y137506D01*
X96159Y136297D01*
X95989Y135000D01*
X96159Y133703D01*
X96660Y132494D01*
X97457Y131456D01*
X98494Y130660D01*
X99435Y130271D01*
Y129729D01*
X98494Y129340D01*
X97457Y128544D01*
X96660Y127506D01*
X96159Y126297D01*
X95989Y125000D01*
X96159Y123703D01*
X96660Y122494D01*
X97457Y121457D01*
X98494Y120660D01*
X99435Y120271D01*
Y119729D01*
X98494Y119340D01*
X97457Y118544D01*
X96660Y117506D01*
X96159Y116297D01*
X95989Y115000D01*
X96159Y113703D01*
X96660Y112494D01*
X97457Y111457D01*
X98494Y110660D01*
X99435Y110271D01*
Y109730D01*
X98494Y109340D01*
X97457Y108544D01*
X96660Y107506D01*
X96159Y106297D01*
X95989Y105000D01*
X96159Y103703D01*
X96660Y102494D01*
X97457Y101456D01*
X98494Y100660D01*
X99435Y100271D01*
Y99730D01*
X98494Y99340D01*
X97457Y98544D01*
X96660Y97506D01*
X96159Y96297D01*
X95989Y95000D01*
X96159Y93703D01*
X96660Y92494D01*
X97457Y91457D01*
X98494Y90660D01*
X99435Y90271D01*
Y89729D01*
X98494Y89340D01*
X97457Y88544D01*
X96660Y87506D01*
X96159Y86297D01*
X95989Y85000D01*
X96159Y83703D01*
X96660Y82494D01*
X97457Y81457D01*
X98494Y80660D01*
X99435Y80271D01*
Y79729D01*
X98494Y79340D01*
X97457Y78544D01*
X96660Y77506D01*
X96159Y76297D01*
X95989Y75000D01*
X96159Y73703D01*
X96660Y72494D01*
X97457Y71456D01*
X98494Y70660D01*
X99703Y70160D01*
X101000Y69989D01*
X102297Y70160D01*
X103506Y70660D01*
X104544Y71456D01*
X105340Y72494D01*
X105841Y73703D01*
X105920Y74304D01*
X144908Y113292D01*
X145539Y114115D01*
X145936Y115072D01*
X146071Y116100D01*
Y194455D01*
X148666Y197050D01*
X149090Y196767D01*
X148915Y196345D01*
X148820Y195625D01*
Y127230D01*
X148792Y127208D01*
X148161Y126386D01*
X147764Y125428D01*
X147629Y124400D01*
X147764Y123372D01*
X148161Y122415D01*
X148792Y121592D01*
X149615Y120961D01*
X150572Y120564D01*
X151600Y120429D01*
X152628Y120564D01*
X153586Y120961D01*
X154408Y121592D01*
X155039Y122415D01*
X155436Y123372D01*
X155571Y124400D01*
X156062Y124446D01*
X156159Y123703D01*
X156660Y122494D01*
X157457Y121457D01*
X158494Y120660D01*
X159435Y120271D01*
Y119729D01*
X158494Y119340D01*
X157457Y118544D01*
X156660Y117506D01*
X156159Y116297D01*
X155989Y115000D01*
X156159Y113703D01*
X156411Y113095D01*
X156133Y112680D01*
X155900D01*
X155181Y112585D01*
X154510Y112307D01*
X153935Y111866D01*
X105024Y62955D01*
X104600Y63238D01*
X104897Y63956D01*
X104969Y64500D01*
X101500D01*
Y61031D01*
X102044Y61103D01*
X102762Y61400D01*
X103045Y60977D01*
X101955Y59886D01*
X101000Y60012D01*
X99703Y59841D01*
X98494Y59340D01*
X97457Y58544D01*
X96660Y57506D01*
X96159Y56297D01*
X95989Y55000D01*
X96159Y53703D01*
X96660Y52494D01*
X97457Y51456D01*
X98494Y50660D01*
X99435Y50271D01*
Y49729D01*
X98494Y49340D01*
X97457Y48544D01*
X96660Y47506D01*
X96159Y46297D01*
X95989Y45000D01*
X96159Y43703D01*
X96660Y42494D01*
X97457Y41456D01*
X98494Y40660D01*
X99435Y40271D01*
Y39729D01*
X98494Y39340D01*
X97457Y38544D01*
X96660Y37506D01*
X96159Y36297D01*
X95989Y35000D01*
X96159Y33703D01*
X96660Y32494D01*
X97457Y31457D01*
X98494Y30660D01*
X99703Y30160D01*
X101000Y29989D01*
X102297Y30160D01*
X103506Y30660D01*
X104544Y31457D01*
X105340Y32494D01*
X105841Y33703D01*
X106011Y35000D01*
X105841Y36297D01*
X105340Y37506D01*
X104544Y38544D01*
X103506Y39340D01*
X102566Y39729D01*
Y40271D01*
X103506Y40660D01*
X104544Y41456D01*
X105340Y42494D01*
X105841Y43703D01*
X106011Y45000D01*
X105841Y46297D01*
X105340Y47506D01*
X104544Y48544D01*
X103506Y49340D01*
X102566Y49729D01*
Y50271D01*
X103506Y50660D01*
X104544Y51456D01*
X105340Y52494D01*
X105841Y53703D01*
X106011Y55000D01*
X105886Y55955D01*
X155599Y105668D01*
X156048Y105447D01*
X155989Y105000D01*
X156159Y103703D01*
X156492Y102900D01*
X156602Y102442D01*
X156287Y102159D01*
X156035Y101966D01*
X153034Y98966D01*
X152593Y98390D01*
X152315Y97720D01*
X152220Y97000D01*
Y71000D01*
X152315Y70281D01*
X152593Y69610D01*
X153034Y69035D01*
X156114Y65955D01*
X155989Y65000D01*
X156159Y63703D01*
X156660Y62494D01*
X157457Y61457D01*
X158494Y60660D01*
X159435Y60271D01*
Y59729D01*
X158494Y59340D01*
X157457Y58544D01*
X156660Y57506D01*
X156159Y56297D01*
X155989Y55000D01*
X156159Y53703D01*
X156660Y52494D01*
X157457Y51456D01*
X158494Y50660D01*
X159435Y50271D01*
Y49729D01*
X158494Y49340D01*
X157457Y48544D01*
X156660Y47506D01*
X156159Y46297D01*
X155989Y45000D01*
X156159Y43703D01*
X156660Y42494D01*
X157457Y41456D01*
X158494Y40660D01*
X159435Y40271D01*
Y39729D01*
X158494Y39340D01*
X157457Y38544D01*
X156660Y37506D01*
X156159Y36297D01*
X155989Y35000D01*
X156159Y33703D01*
X156660Y32494D01*
X157457Y31457D01*
X158494Y30660D01*
X159435Y30271D01*
Y29730D01*
X158494Y29340D01*
X157457Y28544D01*
X156660Y27506D01*
X156159Y26297D01*
X155989Y25000D01*
X156159Y23703D01*
X156660Y22494D01*
X157457Y21456D01*
X158494Y20660D01*
X159703Y20159D01*
X161000Y19989D01*
X161955Y20114D01*
X164735Y17335D01*
X165310Y16893D01*
X165981Y16615D01*
X166700Y16520D01*
X224600D01*
X225320Y16615D01*
X225990Y16893D01*
X226566Y17335D01*
X271420Y62189D01*
X271919Y62157D01*
X272457Y61457D01*
X273494Y60660D01*
X274435Y60271D01*
Y59729D01*
X273494Y59340D01*
X272457Y58544D01*
X271660Y57506D01*
X271160Y56297D01*
X270989Y55000D01*
X271160Y53703D01*
X271660Y52494D01*
X272457Y51456D01*
X273494Y50660D01*
X274435Y50271D01*
Y49729D01*
X273494Y49340D01*
X272457Y48544D01*
X271660Y47506D01*
X271160Y46297D01*
X270989Y45000D01*
X271160Y43703D01*
X271660Y42494D01*
X272457Y41456D01*
X273494Y40660D01*
X274435Y40271D01*
Y39729D01*
X273494Y39340D01*
X272457Y38544D01*
X271660Y37506D01*
X271160Y36297D01*
X270989Y35000D01*
X271160Y33703D01*
X271660Y32494D01*
X272457Y31457D01*
X273494Y30660D01*
X274703Y30160D01*
X276000Y29989D01*
X277297Y30160D01*
X278506Y30660D01*
X279544Y31457D01*
X280340Y32494D01*
X280841Y33703D01*
X281012Y35000D01*
X280841Y36297D01*
X280340Y37506D01*
X279544Y38544D01*
X278506Y39340D01*
X277566Y39729D01*
Y40271D01*
X278506Y40660D01*
X279544Y41456D01*
X280340Y42494D01*
X280841Y43703D01*
X281012Y45000D01*
X280841Y46297D01*
X280340Y47506D01*
X279544Y48544D01*
X278506Y49340D01*
X277566Y49729D01*
Y50271D01*
X278506Y50660D01*
X279544Y51456D01*
X280340Y52494D01*
X280841Y53703D01*
X281012Y55000D01*
X280886Y55955D01*
X285466Y60535D01*
X285907Y61110D01*
X286185Y61781D01*
X286247Y62251D01*
X286765Y62357D01*
X287456Y61457D01*
X288494Y60660D01*
X289435Y60271D01*
Y59729D01*
X288494Y59340D01*
X287456Y58544D01*
X286660Y57506D01*
X286159Y56297D01*
X285989Y55000D01*
X286159Y53703D01*
X286660Y52494D01*
X287456Y51456D01*
X288494Y50660D01*
X289703Y50160D01*
X291000Y49989D01*
X292297Y50160D01*
X293506Y50660D01*
X294544Y51456D01*
X295340Y52494D01*
X295729Y53435D01*
X296271D01*
X296660Y52494D01*
X297457Y51456D01*
X298494Y50660D01*
X299703Y50160D01*
X301000Y49989D01*
X302297Y50160D01*
X303506Y50660D01*
X304544Y51456D01*
X305340Y52494D01*
X305720Y53412D01*
X306220Y53313D01*
Y52400D01*
X306315Y51681D01*
X306593Y51010D01*
X307034Y50435D01*
X329435Y28035D01*
X330010Y27593D01*
X330681Y27315D01*
X331400Y27220D01*
X349600D01*
X350320Y27315D01*
X350990Y27593D01*
X351566Y28035D01*
X360960Y37429D01*
X361384Y37146D01*
X360774Y35672D01*
X360357Y33937D01*
X360217Y32157D01*
X360357Y30378D01*
X360774Y28643D01*
X361457Y26994D01*
X362389Y25472D01*
X363548Y24115D01*
X364905Y22956D01*
X366427Y22024D01*
X368076Y21340D01*
X369812Y20924D01*
X371591Y20784D01*
X373370Y20924D01*
X375105Y21340D01*
X376754Y22024D01*
X378276Y22956D01*
X379633Y24115D01*
X380792Y25472D01*
X381725Y26994D01*
X382408Y28643D01*
X382824Y30378D01*
X382964Y32157D01*
X382824Y33937D01*
X382408Y35672D01*
X381725Y37321D01*
X380792Y38843D01*
X379633Y40200D01*
X378276Y41359D01*
X376754Y42292D01*
X375105Y42974D01*
X373370Y43391D01*
X371591Y43531D01*
X369812Y43391D01*
X368076Y42974D01*
X366602Y42364D01*
X366319Y42788D01*
X373466Y49935D01*
X373907Y50510D01*
X374185Y51181D01*
X374280Y51900D01*
Y59946D01*
X374780Y60257D01*
X375799Y59835D01*
X377181Y59653D01*
X378563Y59835D01*
X379852Y60369D01*
X380958Y61217D01*
X381806Y62324D01*
X382340Y63612D01*
X382522Y64994D01*
X382358Y66240D01*
X385966Y69848D01*
X386407Y70423D01*
X386685Y71094D01*
X386780Y71813D01*
Y90785D01*
X386685Y91505D01*
X386407Y92175D01*
X385966Y92751D01*
X382358Y96358D01*
X382522Y97604D01*
X382340Y98987D01*
X381806Y100275D01*
X380958Y101381D01*
X379852Y102230D01*
X378563Y102763D01*
X378381Y102787D01*
Y103292D01*
X378563Y103315D01*
X379852Y103849D01*
X380958Y104698D01*
X381806Y105804D01*
X382340Y107092D01*
X382522Y108475D01*
X382340Y109857D01*
X381806Y111145D01*
X380958Y112251D01*
X379852Y113100D01*
X378563Y113634D01*
X378382Y113657D01*
Y114162D01*
X378563Y114186D01*
X379852Y114719D01*
X380958Y115568D01*
X381806Y116674D01*
X382340Y117962D01*
X382522Y119344D01*
X382340Y120727D01*
X381806Y122015D01*
X380958Y123121D01*
X379852Y123970D01*
X378563Y124504D01*
X378381Y124527D01*
Y125032D01*
X378563Y125056D01*
X379852Y125589D01*
X380958Y126438D01*
X381806Y127544D01*
X382340Y128832D01*
X382522Y130215D01*
X382340Y131597D01*
X381806Y132885D01*
X380958Y133991D01*
X379852Y134840D01*
X378563Y135374D01*
X378382Y135398D01*
Y135902D01*
X378563Y135926D01*
X379852Y136459D01*
X380958Y137308D01*
X381806Y138414D01*
X382340Y139702D01*
X382522Y141085D01*
X382340Y142467D01*
X381806Y143755D01*
X380958Y144861D01*
X379852Y145710D01*
X378563Y146244D01*
X378382Y146267D01*
Y146772D01*
X378563Y146796D01*
X379852Y147329D01*
X380958Y148178D01*
X381806Y149284D01*
X382340Y150572D01*
X382522Y151955D01*
X382340Y153337D01*
X381806Y154625D01*
X380958Y155731D01*
X379852Y156580D01*
X378563Y157114D01*
X378381Y157138D01*
Y157642D01*
X378563Y157666D01*
X379852Y158200D01*
X380958Y159048D01*
X381806Y160154D01*
X382340Y161443D01*
X382522Y162825D01*
X382340Y164207D01*
X381806Y165495D01*
X380958Y166602D01*
X379852Y167450D01*
X378563Y167984D01*
X378382Y168008D01*
Y168512D01*
X378563Y168536D01*
X379852Y169070D01*
X380958Y169918D01*
X381806Y171024D01*
X382340Y172313D01*
X382522Y173695D01*
X382340Y175077D01*
X381806Y176365D01*
X380958Y177471D01*
X379852Y178320D01*
X378563Y178854D01*
X378381Y178878D01*
Y179382D01*
X378563Y179406D01*
X379852Y179940D01*
X380958Y180789D01*
X381806Y181895D01*
X382340Y183183D01*
X382522Y184565D01*
X382340Y185947D01*
X381806Y187236D01*
X380958Y188342D01*
X379852Y189190D01*
X378563Y189724D01*
X377181Y189906D01*
X375799Y189724D01*
X374511Y189190D01*
X373405Y188342D01*
X372556Y187236D01*
X372022Y185947D01*
X371840Y184565D01*
X372022Y183183D01*
X372556Y181895D01*
X373405Y180789D01*
X374511Y179940D01*
X375799Y179406D01*
X375981Y179382D01*
Y178878D01*
X375799Y178854D01*
X374511Y178320D01*
X373405Y177471D01*
X372556Y176365D01*
X372022Y175077D01*
X371840Y173695D01*
X372022Y172313D01*
X372556Y171024D01*
X373405Y169918D01*
X374511Y169070D01*
X375799Y168536D01*
X375980Y168512D01*
Y168008D01*
X375799Y167984D01*
X374511Y167450D01*
X373405Y166602D01*
X372556Y165495D01*
X372022Y164207D01*
X371840Y162825D01*
X372022Y161443D01*
X372556Y160154D01*
X373405Y159048D01*
X374511Y158200D01*
X375799Y157666D01*
X375981Y157642D01*
Y157138D01*
X375799Y157114D01*
X374511Y156580D01*
X373405Y155731D01*
X372556Y154625D01*
X372022Y153337D01*
X371840Y151955D01*
X372022Y150572D01*
X372556Y149284D01*
X373405Y148178D01*
X374511Y147329D01*
X375799Y146796D01*
X375980Y146772D01*
Y146267D01*
X375799Y146244D01*
X374511Y145710D01*
X373405Y144861D01*
X372556Y143755D01*
X372022Y142467D01*
X371840Y141085D01*
X372022Y139702D01*
X372556Y138414D01*
X373405Y137308D01*
X374511Y136459D01*
X375799Y135926D01*
X375980Y135902D01*
Y135398D01*
X375799Y135374D01*
X374511Y134840D01*
X373405Y133991D01*
X372556Y132885D01*
X372022Y131597D01*
X371840Y130215D01*
X372004Y128969D01*
X370203Y127167D01*
X369567Y127239D01*
X369086Y127865D01*
X368182Y128559D01*
X367130Y128995D01*
X366500Y129078D01*
Y124779D01*
Y120481D01*
X367130Y120564D01*
X368182Y121000D01*
X368272Y121069D01*
X368720Y120848D01*
Y117841D01*
X368272Y117620D01*
X368182Y117689D01*
X367130Y118125D01*
X366500Y118208D01*
Y113909D01*
Y109611D01*
X367130Y109694D01*
X368182Y110130D01*
X368272Y110199D01*
X368720Y109978D01*
Y106971D01*
X368272Y106750D01*
X368182Y106819D01*
X367130Y107255D01*
X366500Y107338D01*
Y103040D01*
Y98741D01*
X367130Y98824D01*
X368182Y99260D01*
X368272Y99329D01*
X368720Y99108D01*
Y96101D01*
X368272Y95880D01*
X368182Y95949D01*
X367130Y96385D01*
X366500Y96468D01*
Y92169D01*
Y87871D01*
X367130Y87954D01*
X368182Y88390D01*
X368272Y88459D01*
X368720Y88238D01*
Y85231D01*
X368272Y85010D01*
X368182Y85079D01*
X367130Y85515D01*
X366500Y85598D01*
Y81299D01*
Y77001D01*
X367130Y77084D01*
X368182Y77520D01*
X368272Y77589D01*
X368720Y77368D01*
Y75575D01*
X368220Y75241D01*
X367382Y75588D01*
X366000Y75770D01*
X364618Y75588D01*
X363330Y75055D01*
X362224Y74206D01*
X361375Y73100D01*
X360841Y71811D01*
X360659Y70429D01*
X360823Y69183D01*
X351135Y59495D01*
X350693Y58919D01*
X350415Y58249D01*
X350320Y57529D01*
Y41252D01*
X346249Y37180D01*
X345000D01*
Y39500D01*
X337000D01*
Y38584D01*
X336538Y38393D01*
X335886Y39046D01*
X336012Y40000D01*
X335841Y41297D01*
X335340Y42506D01*
X334544Y43544D01*
X333506Y44340D01*
X332566Y44730D01*
Y45271D01*
X333506Y45660D01*
X334544Y46457D01*
X335340Y47494D01*
X335841Y48703D01*
X336012Y50000D01*
X335841Y51297D01*
X335340Y52506D01*
X334544Y53544D01*
X333506Y54340D01*
X332566Y54729D01*
Y55271D01*
X333506Y55660D01*
X334544Y56457D01*
X335340Y57494D01*
X335841Y58703D01*
X336012Y60000D01*
X335841Y61297D01*
X335340Y62506D01*
X334544Y63544D01*
X333506Y64340D01*
X332566Y64729D01*
Y65271D01*
X333506Y65660D01*
X334544Y66457D01*
X335340Y67494D01*
X335841Y68703D01*
X336012Y70000D01*
X335841Y71297D01*
X335340Y72506D01*
X334544Y73544D01*
X333506Y74340D01*
X332566Y74730D01*
Y75271D01*
X333506Y75660D01*
X334544Y76456D01*
X335340Y77494D01*
X335841Y78703D01*
X336012Y80000D01*
X335886Y80955D01*
X336977Y82046D01*
X337400Y81762D01*
X337103Y81044D01*
X337031Y80500D01*
X340500D01*
Y83969D01*
X339956Y83897D01*
X338983Y83494D01*
X338519Y83138D01*
X338108Y83453D01*
X338285Y83881D01*
X338380Y84600D01*
Y86404D01*
X338828Y86625D01*
X338983Y86506D01*
X339956Y86103D01*
X340500Y86031D01*
Y90000D01*
Y93969D01*
X339956Y93897D01*
X338983Y93494D01*
X338828Y93375D01*
X338380Y93597D01*
Y96404D01*
X338828Y96625D01*
X338983Y96506D01*
X339956Y96103D01*
X340500Y96031D01*
Y100000D01*
Y103969D01*
X339956Y103897D01*
X338983Y103494D01*
X338828Y103375D01*
X338380Y103597D01*
Y105400D01*
X338285Y106120D01*
X338108Y106547D01*
X338519Y106862D01*
X338983Y106506D01*
X339956Y106103D01*
X340500Y106031D01*
Y109500D01*
X337031D01*
X337103Y108956D01*
X337400Y108238D01*
X336977Y107955D01*
X335886Y109046D01*
X336012Y110000D01*
X335841Y111297D01*
X335340Y112506D01*
X334544Y113544D01*
X333506Y114340D01*
X332566Y114729D01*
Y115271D01*
X333506Y115660D01*
X334544Y116456D01*
X335340Y117494D01*
X335841Y118703D01*
X336012Y120000D01*
X335841Y121297D01*
X335340Y122506D01*
X334544Y123544D01*
X333506Y124340D01*
X332566Y124730D01*
Y125271D01*
X333506Y125660D01*
X334544Y126456D01*
X335340Y127494D01*
X335841Y128703D01*
X336012Y130000D01*
X335841Y131297D01*
X335340Y132506D01*
X334544Y133544D01*
X333506Y134340D01*
X332566Y134730D01*
Y135271D01*
X333506Y135660D01*
X334544Y136457D01*
X335340Y137494D01*
X335841Y138703D01*
X336012Y140000D01*
X335841Y141297D01*
X335340Y142506D01*
X334544Y143544D01*
X333506Y144340D01*
X332566Y144729D01*
Y145271D01*
X333506Y145660D01*
X334544Y146457D01*
X335340Y147494D01*
X335841Y148703D01*
X336012Y150000D01*
X335841Y151297D01*
X335340Y152506D01*
X334544Y153544D01*
X333506Y154340D01*
X332566Y154729D01*
Y155271D01*
X333506Y155660D01*
X334544Y156456D01*
X335340Y157494D01*
X335841Y158703D01*
X336012Y160000D01*
X335841Y161297D01*
X335340Y162506D01*
X334544Y163544D01*
X333506Y164340D01*
X332566Y164729D01*
Y165271D01*
X333506Y165660D01*
X334544Y166456D01*
X335340Y167494D01*
X335841Y168703D01*
X336012Y170000D01*
X335841Y171297D01*
X335340Y172506D01*
X334544Y173544D01*
X333506Y174340D01*
X332566Y174730D01*
Y175271D01*
X333506Y175660D01*
X334544Y176456D01*
X335340Y177494D01*
X335841Y178703D01*
X336012Y180000D01*
X335841Y181297D01*
X335340Y182506D01*
X334544Y183544D01*
X333506Y184340D01*
X332566Y184730D01*
Y185271D01*
X333506Y185660D01*
X334544Y186457D01*
X335340Y187494D01*
X335841Y188703D01*
X336012Y190000D01*
X335841Y191297D01*
X335340Y192506D01*
X334544Y193544D01*
X333506Y194340D01*
X332566Y194729D01*
Y195271D01*
X333506Y195660D01*
X334544Y196457D01*
X335340Y197494D01*
X335841Y198703D01*
X336012Y200000D01*
X335841Y201297D01*
X335340Y202506D01*
X334544Y203544D01*
X333506Y204340D01*
X332297Y204841D01*
X331000Y205012D01*
X329703Y204841D01*
X328494Y204340D01*
X328228Y204136D01*
X327780Y204357D01*
Y246826D01*
X327847Y246885D01*
X328280Y247046D01*
X328983Y246506D01*
X329956Y246103D01*
X330500Y246031D01*
Y250000D01*
Y253969D01*
X329956Y253897D01*
X328983Y253494D01*
X328147Y252853D01*
X327506Y252017D01*
X327103Y251044D01*
X326966Y250000D01*
X327000Y249738D01*
X326526Y249505D01*
X292266Y283766D01*
X291690Y284207D01*
X291020Y284485D01*
X290906Y284500D01*
X290939Y285000D01*
X395000D01*
Y5000D01*
D02*
G37*
G36*
X128220Y258249D02*
Y233018D01*
X127720Y232811D01*
X119929Y240602D01*
X120162Y241076D01*
X120500Y241031D01*
Y244500D01*
X117031D01*
X117076Y244163D01*
X116602Y243929D01*
X113566Y246965D01*
X113571Y247000D01*
X113436Y248028D01*
X113039Y248986D01*
X112492Y249699D01*
X112530Y250105D01*
X112605Y250287D01*
X113506Y250660D01*
X114544Y251456D01*
X115340Y252494D01*
X115841Y253703D01*
X116012Y255000D01*
X115841Y256297D01*
X115340Y257506D01*
X114544Y258544D01*
X113506Y259340D01*
X112566Y259730D01*
Y260271D01*
X113506Y260660D01*
X114544Y261456D01*
X115340Y262494D01*
X115841Y263703D01*
X116012Y265000D01*
X115841Y266297D01*
X115340Y267506D01*
X114544Y268544D01*
X113506Y269340D01*
X112297Y269841D01*
X111000Y270011D01*
X109703Y269841D01*
X109195Y269631D01*
X108780Y269908D01*
Y270000D01*
X108685Y270719D01*
X108407Y271390D01*
X107966Y271966D01*
X103966Y275966D01*
X103390Y276407D01*
X102719Y276685D01*
X102451Y276720D01*
X102484Y277220D01*
X109249D01*
X128220Y258249D01*
D02*
G37*
G36*
X192694Y284500D02*
X192581Y284485D01*
X191910Y284207D01*
X191335Y283766D01*
X179435Y271866D01*
X178993Y271290D01*
X178715Y270620D01*
X178620Y269900D01*
Y260400D01*
X178715Y259681D01*
X178993Y259010D01*
X179435Y258435D01*
X180010Y257993D01*
X180681Y257715D01*
X181400Y257620D01*
X191400D01*
X192120Y257715D01*
X192790Y257993D01*
X193366Y258435D01*
X195045Y260114D01*
X195603Y260041D01*
X195782Y259513D01*
X165433Y229164D01*
X164971Y229355D01*
Y250000D01*
X164836Y251028D01*
X164439Y251986D01*
X163808Y252808D01*
X132078Y284538D01*
X132269Y285000D01*
X192661D01*
X192694Y284500D01*
D02*
G37*
G36*
X267220Y69951D02*
Y65851D01*
X223449Y22080D01*
X219431D01*
X219185Y22580D01*
X219494Y22983D01*
X219897Y23956D01*
X219969Y24500D01*
X212031D01*
X212103Y23956D01*
X212506Y22983D01*
X212815Y22580D01*
X212569Y22080D01*
X167851D01*
X165886Y24046D01*
X166012Y25000D01*
X165841Y26297D01*
X165618Y26834D01*
X165923Y27231D01*
X166000Y27220D01*
X201425D01*
X202145Y27315D01*
X202815Y27593D01*
X203391Y28035D01*
X210565Y35209D01*
X210584Y35200D01*
X210997Y34934D01*
X211159Y33703D01*
X211660Y32494D01*
X212456Y31457D01*
X213494Y30660D01*
X214703Y30160D01*
X216000Y29989D01*
X217297Y30160D01*
X218506Y30660D01*
X218996Y31036D01*
X226007D01*
X227035Y31172D01*
X227993Y31568D01*
X228815Y32199D01*
X266758Y70143D01*
X267220Y69951D01*
D02*
G37*
G36*
X89034Y213035D02*
X94035Y208035D01*
X94610Y207593D01*
X95281Y207315D01*
X96000Y207220D01*
X96092D01*
X96370Y206805D01*
X96159Y206297D01*
X95989Y205000D01*
X96114Y204046D01*
X88842Y196773D01*
X88380Y196964D01*
Y213067D01*
X88880Y213236D01*
X89034Y213035D01*
D02*
G37*
G36*
X198220Y230092D02*
Y203591D01*
X197720Y203352D01*
X197086Y203839D01*
X196128Y204236D01*
X195100Y204371D01*
X194072Y204236D01*
X193115Y203839D01*
X192292Y203208D01*
X191661Y202386D01*
X191264Y201428D01*
X191129Y200400D01*
X191134Y200365D01*
X190035Y199266D01*
X189808Y198971D01*
X189155Y198842D01*
X188506Y199340D01*
X187566Y199730D01*
Y200271D01*
X188506Y200660D01*
X189544Y201456D01*
X190340Y202494D01*
X190841Y203703D01*
X191012Y205000D01*
X190841Y206297D01*
X190340Y207506D01*
X189544Y208544D01*
X188780Y209130D01*
Y210032D01*
X190969D01*
Y219969D01*
X185553D01*
X185362Y220430D01*
X195045Y230114D01*
X196000Y229989D01*
X197297Y230159D01*
X197805Y230370D01*
X198220Y230092D01*
D02*
G37*
G36*
X118220Y212549D02*
Y198584D01*
X117720Y198551D01*
X117685Y198820D01*
X117407Y199490D01*
X116966Y200066D01*
X105969Y211063D01*
Y219969D01*
X103780D01*
Y226282D01*
X104280Y226489D01*
X118220Y212549D01*
D02*
G37*
G36*
X101668Y270401D02*
X101447Y269953D01*
X101000Y270011D01*
X99703Y269841D01*
X98494Y269340D01*
X97457Y268544D01*
X96660Y267506D01*
X96159Y266297D01*
X95989Y265000D01*
X96159Y263703D01*
X96660Y262494D01*
X97457Y261456D01*
X98220Y260870D01*
Y259130D01*
X97457Y258544D01*
X96660Y257506D01*
X96159Y256297D01*
X95989Y255000D01*
X96159Y253703D01*
X96660Y252494D01*
X97457Y251456D01*
X98220Y250870D01*
Y249130D01*
X97457Y248544D01*
X96660Y247506D01*
X96159Y246297D01*
X95989Y245000D01*
X96159Y243703D01*
X96660Y242494D01*
X97457Y241457D01*
X98220Y240870D01*
Y219969D01*
X96032D01*
Y214553D01*
X95570Y214362D01*
X93780Y216151D01*
Y220000D01*
X93685Y220720D01*
X93407Y221390D01*
X92966Y221966D01*
X85886Y229046D01*
X86011Y230000D01*
X85841Y231297D01*
X85340Y232506D01*
X84544Y233544D01*
X83506Y234340D01*
X82566Y234730D01*
Y235271D01*
X83506Y235660D01*
X84544Y236456D01*
X85340Y237494D01*
X85841Y238703D01*
X86011Y240000D01*
X85886Y240955D01*
X87966Y243035D01*
X88407Y243610D01*
X88685Y244281D01*
X88780Y245000D01*
Y262171D01*
X88808Y262192D01*
X89439Y263015D01*
X89836Y263972D01*
X89971Y265000D01*
X89836Y266028D01*
X89439Y266986D01*
X88808Y267808D01*
X87985Y268439D01*
X87028Y268836D01*
X86000Y268971D01*
X84972Y268836D01*
X84015Y268439D01*
X83192Y267808D01*
X82561Y266986D01*
X82164Y266028D01*
X82029Y265000D01*
X81919Y264890D01*
X81000Y265012D01*
X79703Y264841D01*
X78494Y264340D01*
X77456Y263544D01*
X76660Y262506D01*
X76160Y261297D01*
X76080Y260696D01*
X73642Y258258D01*
X73180Y258449D01*
Y270043D01*
X73595Y270320D01*
X73972Y270164D01*
X75000Y270029D01*
X76028Y270164D01*
X76986Y270561D01*
X77808Y271192D01*
X77830Y271220D01*
X100849D01*
X101668Y270401D01*
D02*
G37*
G36*
X41220Y209636D02*
Y197118D01*
X40747Y196957D01*
X40708Y197008D01*
X39886Y197639D01*
X38928Y198036D01*
X37900Y198171D01*
X37865Y198166D01*
X35000Y201031D01*
Y207220D01*
X37000D01*
X37720Y207315D01*
X38390Y207593D01*
X38966Y208035D01*
X40758Y209827D01*
X41220Y209636D01*
D02*
G37*
%LPC*%
G36*
X290500Y24500D02*
X287031D01*
X287103Y23956D01*
X287506Y22983D01*
X288147Y22147D01*
X288983Y21506D01*
X289956Y21103D01*
X290500Y21031D01*
Y24500D01*
D02*
G37*
G36*
X50500Y28969D02*
X49956Y28897D01*
X48983Y28494D01*
X48147Y27853D01*
X47506Y27017D01*
X47103Y26044D01*
X47031Y25500D01*
X50500D01*
Y28969D01*
D02*
G37*
G36*
X51500D02*
Y25500D01*
X54969D01*
X54897Y26044D01*
X54494Y27017D01*
X53853Y27853D01*
X53017Y28494D01*
X52044Y28897D01*
X51500Y28969D01*
D02*
G37*
G36*
X100500D02*
X99956Y28897D01*
X98983Y28494D01*
X98147Y27853D01*
X97506Y27017D01*
X97103Y26044D01*
X97031Y25500D01*
X100500D01*
Y28969D01*
D02*
G37*
G36*
X365500Y85598D02*
X364871Y85515D01*
X363818Y85079D01*
X362914Y84385D01*
X362221Y83481D01*
X361785Y82429D01*
X361702Y81799D01*
X365500D01*
Y85598D01*
D02*
G37*
G36*
X341500Y83969D02*
Y80500D01*
X344969D01*
X344897Y81044D01*
X344494Y82017D01*
X343853Y82853D01*
X343017Y83494D01*
X342044Y83897D01*
X341500Y83969D01*
D02*
G37*
G36*
X294969Y24500D02*
X291500D01*
Y21031D01*
X292044Y21103D01*
X293017Y21506D01*
X293853Y22147D01*
X294494Y22983D01*
X294897Y23956D01*
X294969Y24500D01*
D02*
G37*
G36*
X344969Y89500D02*
X341500D01*
Y86031D01*
X342044Y86103D01*
X343017Y86506D01*
X343853Y87147D01*
X344494Y87983D01*
X344897Y88956D01*
X344969Y89500D01*
D02*
G37*
G36*
X341500Y103969D02*
Y100500D01*
X344969D01*
X344897Y101044D01*
X344494Y102017D01*
X343853Y102853D01*
X343017Y103494D01*
X342044Y103897D01*
X341500Y103969D01*
D02*
G37*
G36*
X54969Y24500D02*
X51500D01*
Y21031D01*
X52044Y21103D01*
X53017Y21506D01*
X53853Y22147D01*
X54494Y22983D01*
X54897Y23956D01*
X54969Y24500D01*
D02*
G37*
G36*
X365500Y102540D02*
X361702D01*
X361785Y101910D01*
X362221Y100857D01*
X362914Y99954D01*
X363818Y99260D01*
X364871Y98824D01*
X365500Y98741D01*
Y102540D01*
D02*
G37*
G36*
Y107338D02*
X364871Y107255D01*
X363818Y106819D01*
X362914Y106125D01*
X362221Y105222D01*
X361785Y104169D01*
X361702Y103540D01*
X365500D01*
Y107338D01*
D02*
G37*
G36*
X301000Y40012D02*
X299703Y39841D01*
X298494Y39340D01*
X297457Y38544D01*
X296660Y37506D01*
X296160Y36297D01*
X295989Y35000D01*
X296160Y33703D01*
X296660Y32494D01*
X297457Y31457D01*
X298220Y30870D01*
Y29130D01*
X297457Y28544D01*
X296660Y27506D01*
X296160Y26297D01*
X295989Y25000D01*
X296160Y23703D01*
X296660Y22494D01*
X297457Y21456D01*
X298494Y20660D01*
X299703Y20159D01*
X301000Y19989D01*
X302297Y20159D01*
X303506Y20660D01*
X304544Y21456D01*
X305340Y22494D01*
X305841Y23703D01*
X306012Y25000D01*
X305841Y26297D01*
X305340Y27506D01*
X304544Y28544D01*
X303780Y29130D01*
Y30870D01*
X304544Y31457D01*
X305340Y32494D01*
X305841Y33703D01*
X306012Y35000D01*
X305841Y36297D01*
X305340Y37506D01*
X304544Y38544D01*
X303506Y39340D01*
X302297Y39841D01*
X301000Y40012D01*
D02*
G37*
G36*
X50500Y24500D02*
X47031D01*
X47103Y23956D01*
X47506Y22983D01*
X48147Y22147D01*
X48983Y21506D01*
X49956Y21103D01*
X50500Y21031D01*
Y24500D01*
D02*
G37*
G36*
X344969Y109500D02*
X341500D01*
Y106031D01*
X342044Y106103D01*
X343017Y106506D01*
X343853Y107147D01*
X344494Y107983D01*
X344897Y108956D01*
X344969Y109500D01*
D02*
G37*
G36*
Y99500D02*
X341500D01*
Y96031D01*
X342044Y96103D01*
X343017Y96506D01*
X343853Y97147D01*
X344494Y97983D01*
X344897Y98956D01*
X344969Y99500D01*
D02*
G37*
G36*
X275500Y24500D02*
X272031D01*
X272103Y23956D01*
X272506Y22983D01*
X273147Y22147D01*
X273983Y21506D01*
X274956Y21103D01*
X275500Y21031D01*
Y24500D01*
D02*
G37*
G36*
X365500Y91669D02*
X361702D01*
X361785Y91040D01*
X362221Y89987D01*
X362914Y89083D01*
X363818Y88390D01*
X364871Y87954D01*
X365500Y87871D01*
Y91669D01*
D02*
G37*
G36*
X279969Y24500D02*
X276500D01*
Y21031D01*
X277044Y21103D01*
X278017Y21506D01*
X278853Y22147D01*
X279494Y22983D01*
X279897Y23956D01*
X279969Y24500D01*
D02*
G37*
G36*
X341500Y93969D02*
Y90500D01*
X344969D01*
X344897Y91044D01*
X344494Y92017D01*
X343853Y92853D01*
X343017Y93494D01*
X342044Y93897D01*
X341500Y93969D01*
D02*
G37*
G36*
X100500Y24500D02*
X97031D01*
X97103Y23956D01*
X97506Y22983D01*
X98147Y22147D01*
X98983Y21506D01*
X99956Y21103D01*
X100500Y21031D01*
Y24500D01*
D02*
G37*
G36*
X104969D02*
X101500D01*
Y21031D01*
X102044Y21103D01*
X103017Y21506D01*
X103853Y22147D01*
X104494Y22983D01*
X104897Y23956D01*
X104969Y24500D01*
D02*
G37*
G36*
X365500Y96468D02*
X364871Y96385D01*
X363818Y95949D01*
X362914Y95255D01*
X362221Y94351D01*
X361785Y93299D01*
X361702Y92669D01*
X365500D01*
Y96468D01*
D02*
G37*
G36*
X101500Y28969D02*
Y25500D01*
X104969D01*
X104897Y26044D01*
X104494Y27017D01*
X103853Y27853D01*
X103017Y28494D01*
X102044Y28897D01*
X101500Y28969D01*
D02*
G37*
G36*
X275500D02*
X274956Y28897D01*
X273983Y28494D01*
X273147Y27853D01*
X272506Y27017D01*
X272103Y26044D01*
X272031Y25500D01*
X275500D01*
Y28969D01*
D02*
G37*
G36*
X345000Y44000D02*
X341500D01*
Y40500D01*
X345000D01*
Y44000D01*
D02*
G37*
G36*
X276500Y28969D02*
Y25500D01*
X279969D01*
X279897Y26044D01*
X279494Y27017D01*
X278853Y27853D01*
X278017Y28494D01*
X277044Y28897D01*
X276500Y28969D01*
D02*
G37*
G36*
X216500D02*
Y25500D01*
X219969D01*
X219897Y26044D01*
X219494Y27017D01*
X218853Y27853D01*
X218017Y28494D01*
X217044Y28897D01*
X216500Y28969D01*
D02*
G37*
G36*
X340500Y53969D02*
X339956Y53897D01*
X338983Y53494D01*
X338147Y52853D01*
X337506Y52017D01*
X337103Y51044D01*
X337031Y50500D01*
X340500D01*
Y53969D01*
D02*
G37*
G36*
X344969Y49500D02*
X341500D01*
Y46031D01*
X342044Y46103D01*
X343017Y46506D01*
X343853Y47147D01*
X344494Y47983D01*
X344897Y48956D01*
X344969Y49500D01*
D02*
G37*
G36*
X340500D02*
X337031D01*
X337103Y48956D01*
X337506Y47983D01*
X338147Y47147D01*
X338983Y46506D01*
X339956Y46103D01*
X340500Y46031D01*
Y49500D01*
D02*
G37*
G36*
X291500Y28969D02*
Y25500D01*
X294969D01*
X294897Y26044D01*
X294494Y27017D01*
X293853Y27853D01*
X293017Y28494D01*
X292044Y28897D01*
X291500Y28969D01*
D02*
G37*
G36*
X294969Y34500D02*
X291500D01*
Y31031D01*
X292044Y31103D01*
X293017Y31506D01*
X293853Y32147D01*
X294494Y32983D01*
X294897Y33956D01*
X294969Y34500D01*
D02*
G37*
G36*
X290500D02*
X287031D01*
X287103Y33956D01*
X287506Y32983D01*
X288147Y32147D01*
X288983Y31506D01*
X289956Y31103D01*
X290500Y31031D01*
Y34500D01*
D02*
G37*
G36*
Y38969D02*
X289956Y38897D01*
X288983Y38494D01*
X288147Y37853D01*
X287506Y37017D01*
X287103Y36044D01*
X287031Y35500D01*
X290500D01*
Y38969D01*
D02*
G37*
G36*
Y28969D02*
X289956Y28897D01*
X288983Y28494D01*
X288147Y27853D01*
X287506Y27017D01*
X287103Y26044D01*
X287031Y25500D01*
X290500D01*
Y28969D01*
D02*
G37*
G36*
X340500Y44000D02*
X337000D01*
Y40500D01*
X340500D01*
Y44000D01*
D02*
G37*
G36*
X291500Y38969D02*
Y35500D01*
X294969D01*
X294897Y36044D01*
X294494Y37017D01*
X293853Y37853D01*
X293017Y38494D01*
X292044Y38897D01*
X291500Y38969D01*
D02*
G37*
G36*
X180500Y78969D02*
X179956Y78897D01*
X178983Y78494D01*
X178147Y77853D01*
X177506Y77017D01*
X177103Y76044D01*
X177031Y75500D01*
X180500D01*
Y78969D01*
D02*
G37*
G36*
Y74500D02*
X177031D01*
X177103Y73956D01*
X177506Y72983D01*
X178147Y72147D01*
X178983Y71506D01*
X179956Y71103D01*
X180500Y71031D01*
Y74500D01*
D02*
G37*
G36*
X341500Y73969D02*
Y70500D01*
X344969D01*
X344897Y71044D01*
X344494Y72017D01*
X343853Y72853D01*
X343017Y73494D01*
X342044Y73897D01*
X341500Y73969D01*
D02*
G37*
G36*
X340500Y79500D02*
X337031D01*
X337103Y78956D01*
X337506Y77983D01*
X338147Y77147D01*
X338983Y76506D01*
X339956Y76103D01*
X340500Y76031D01*
Y79500D01*
D02*
G37*
G36*
X365500Y80799D02*
X361702D01*
X361785Y80170D01*
X362221Y79117D01*
X362914Y78213D01*
X363818Y77520D01*
X364871Y77084D01*
X365500Y77001D01*
Y80799D01*
D02*
G37*
G36*
X215500Y28969D02*
X214956Y28897D01*
X213983Y28494D01*
X213147Y27853D01*
X212506Y27017D01*
X212103Y26044D01*
X212031Y25500D01*
X215500D01*
Y28969D01*
D02*
G37*
G36*
X344969Y79500D02*
X341500D01*
Y76031D01*
X342044Y76103D01*
X343017Y76506D01*
X343853Y77147D01*
X344494Y77983D01*
X344897Y78956D01*
X344969Y79500D01*
D02*
G37*
G36*
X100500Y68969D02*
X99956Y68897D01*
X98983Y68494D01*
X98147Y67853D01*
X97506Y67017D01*
X97103Y66044D01*
X97031Y65500D01*
X100500D01*
Y68969D01*
D02*
G37*
G36*
Y64500D02*
X97031D01*
X97103Y63956D01*
X97506Y62983D01*
X98147Y62147D01*
X98983Y61506D01*
X99956Y61103D01*
X100500Y61031D01*
Y64500D01*
D02*
G37*
G36*
X341500Y53969D02*
Y50500D01*
X344969D01*
X344897Y51044D01*
X344494Y52017D01*
X343853Y52853D01*
X343017Y53494D01*
X342044Y53897D01*
X341500Y53969D01*
D02*
G37*
G36*
X101500Y68969D02*
Y65500D01*
X104969D01*
X104897Y66044D01*
X104494Y67017D01*
X103853Y67853D01*
X103017Y68494D01*
X102044Y68897D01*
X101500Y68969D01*
D02*
G37*
G36*
X340500Y73969D02*
X339956Y73897D01*
X338983Y73494D01*
X338147Y72853D01*
X337506Y72017D01*
X337103Y71044D01*
X337031Y70500D01*
X340500D01*
Y73969D01*
D02*
G37*
G36*
X344969Y69500D02*
X341500D01*
Y66031D01*
X342044Y66103D01*
X343017Y66506D01*
X343853Y67147D01*
X344494Y67983D01*
X344897Y68956D01*
X344969Y69500D01*
D02*
G37*
G36*
X340500D02*
X337031D01*
X337103Y68956D01*
X337506Y67983D01*
X338147Y67147D01*
X338983Y66506D01*
X339956Y66103D01*
X340500Y66031D01*
Y69500D01*
D02*
G37*
G36*
X344969Y189500D02*
X341500D01*
Y186031D01*
X342044Y186103D01*
X343017Y186506D01*
X343853Y187147D01*
X344494Y187983D01*
X344897Y188956D01*
X344969Y189500D01*
D02*
G37*
G36*
X340500Y193969D02*
X339956Y193897D01*
X338983Y193494D01*
X338147Y192853D01*
X337506Y192017D01*
X337103Y191044D01*
X337031Y190500D01*
X340500D01*
Y193969D01*
D02*
G37*
G36*
X100500Y188969D02*
X99956Y188897D01*
X98983Y188494D01*
X98147Y187853D01*
X97506Y187017D01*
X97103Y186044D01*
X97031Y185500D01*
X100500D01*
Y188969D01*
D02*
G37*
G36*
X340500Y189500D02*
X337031D01*
X337103Y188956D01*
X337506Y187983D01*
X338147Y187147D01*
X338983Y186506D01*
X339956Y186103D01*
X340500Y186031D01*
Y189500D01*
D02*
G37*
G36*
X341500Y193969D02*
Y190500D01*
X344969D01*
X344897Y191044D01*
X344494Y192017D01*
X343853Y192853D01*
X343017Y193494D01*
X342044Y193897D01*
X341500Y193969D01*
D02*
G37*
G36*
X340500Y199500D02*
X337031D01*
X337103Y198956D01*
X337506Y197983D01*
X338147Y197147D01*
X338983Y196506D01*
X339956Y196103D01*
X340500Y196031D01*
Y199500D01*
D02*
G37*
G36*
X344969D02*
X341500D01*
Y196031D01*
X342044Y196103D01*
X343017Y196506D01*
X343853Y197147D01*
X344494Y197983D01*
X344897Y198956D01*
X344969Y199500D01*
D02*
G37*
G36*
X219969Y194500D02*
X216500D01*
Y191031D01*
X217044Y191103D01*
X218017Y191506D01*
X218853Y192147D01*
X219494Y192983D01*
X219897Y193956D01*
X219969Y194500D01*
D02*
G37*
G36*
X216500Y198969D02*
Y195500D01*
X219969D01*
X219897Y196044D01*
X219494Y197017D01*
X218853Y197853D01*
X218017Y198494D01*
X217044Y198897D01*
X216500Y198969D01*
D02*
G37*
G36*
X341500Y173969D02*
Y170500D01*
X344969D01*
X344897Y171044D01*
X344494Y172017D01*
X343853Y172853D01*
X343017Y173494D01*
X342044Y173897D01*
X341500Y173969D01*
D02*
G37*
G36*
X340500Y179500D02*
X337031D01*
X337103Y178956D01*
X337506Y177983D01*
X338147Y177147D01*
X338983Y176506D01*
X339956Y176103D01*
X340500Y176031D01*
Y179500D01*
D02*
G37*
G36*
X366500Y172558D02*
Y168760D01*
X370298D01*
X370216Y169389D01*
X369779Y170442D01*
X369086Y171346D01*
X368182Y172039D01*
X367130Y172475D01*
X366500Y172558D01*
D02*
G37*
G36*
X340500Y173969D02*
X339956Y173897D01*
X338983Y173494D01*
X338147Y172853D01*
X337506Y172017D01*
X337103Y171044D01*
X337031Y170500D01*
X340500D01*
Y173969D01*
D02*
G37*
G36*
X344969Y179500D02*
X341500D01*
Y176031D01*
X342044Y176103D01*
X343017Y176506D01*
X343853Y177147D01*
X344494Y177983D01*
X344897Y178956D01*
X344969Y179500D01*
D02*
G37*
G36*
X100500Y184500D02*
X97031D01*
X97103Y183956D01*
X97506Y182983D01*
X98147Y182147D01*
X98983Y181506D01*
X99956Y181103D01*
X100500Y181031D01*
Y184500D01*
D02*
G37*
G36*
X104969D02*
X101500D01*
Y181031D01*
X102044Y181103D01*
X103017Y181506D01*
X103853Y182147D01*
X104494Y182983D01*
X104897Y183956D01*
X104969Y184500D01*
D02*
G37*
G36*
X340500Y183969D02*
X339956Y183897D01*
X338983Y183494D01*
X338147Y182853D01*
X337506Y182017D01*
X337103Y181044D01*
X337031Y180500D01*
X340500D01*
Y183969D01*
D02*
G37*
G36*
X341500D02*
Y180500D01*
X344969D01*
X344897Y181044D01*
X344494Y182017D01*
X343853Y182853D01*
X343017Y183494D01*
X342044Y183897D01*
X341500Y183969D01*
D02*
G37*
G36*
X379921Y259500D02*
X376500D01*
Y256079D01*
X377032Y256149D01*
X377993Y256547D01*
X378819Y257181D01*
X379453Y258007D01*
X379851Y258968D01*
X379921Y259500D01*
D02*
G37*
G36*
X351000Y275011D02*
X349703Y274841D01*
X348494Y274340D01*
X347457Y273544D01*
X346660Y272506D01*
X346160Y271297D01*
X345989Y270000D01*
X346160Y268703D01*
X346660Y267494D01*
X347457Y266457D01*
X348494Y265660D01*
X349703Y265160D01*
X351000Y264989D01*
X352297Y265160D01*
X353506Y265660D01*
X354544Y266457D01*
X355340Y267494D01*
X355841Y268703D01*
X356012Y270000D01*
X355841Y271297D01*
X355340Y272506D01*
X354544Y273544D01*
X353506Y274340D01*
X352297Y274841D01*
X351000Y275011D01*
D02*
G37*
G36*
X331500Y253969D02*
Y250500D01*
X334969D01*
X334897Y251044D01*
X334494Y252017D01*
X333853Y252853D01*
X333017Y253494D01*
X332044Y253897D01*
X331500Y253969D01*
D02*
G37*
G36*
X380921Y274921D02*
X371079D01*
Y270695D01*
X355192Y254808D01*
X354561Y253986D01*
X354121Y253868D01*
X353506Y254340D01*
X352297Y254841D01*
X351000Y255012D01*
X349703Y254841D01*
X348494Y254340D01*
X347457Y253544D01*
X346660Y252506D01*
X346160Y251297D01*
X345989Y250000D01*
X346160Y248703D01*
X346660Y247494D01*
X347029Y247013D01*
Y161520D01*
X347164Y160492D01*
X347561Y159534D01*
X348192Y158712D01*
X360701Y146203D01*
X360841Y145137D01*
X361375Y143849D01*
X362029Y142996D01*
Y139173D01*
X361375Y138320D01*
X360841Y137032D01*
X360659Y135650D01*
X360841Y134267D01*
X361375Y132979D01*
X362224Y131873D01*
X363330Y131024D01*
X364618Y130491D01*
X366000Y130309D01*
X367382Y130491D01*
X368671Y131024D01*
X369777Y131873D01*
X370625Y132979D01*
X371159Y134267D01*
X371341Y135650D01*
X371159Y137032D01*
X370625Y138320D01*
X369971Y139173D01*
Y142996D01*
X370625Y143849D01*
X371159Y145137D01*
X371341Y146520D01*
X371159Y147902D01*
X370625Y149190D01*
X369777Y150296D01*
X368671Y151145D01*
X367382Y151679D01*
X366317Y151819D01*
X365525Y152611D01*
X365746Y153059D01*
X366000Y153026D01*
X367130Y153174D01*
X368182Y153611D01*
X369086Y154304D01*
X369779Y155208D01*
X370216Y156260D01*
X370298Y156890D01*
X366000D01*
Y157390D01*
X365500D01*
Y161688D01*
X364871Y161605D01*
X363818Y161169D01*
X362914Y160476D01*
X362221Y159572D01*
X361785Y158519D01*
X361636Y157390D01*
X361669Y157136D01*
X361221Y156915D01*
X354971Y163164D01*
Y194706D01*
X355471Y194913D01*
X360705Y189680D01*
Y184705D01*
X362029D01*
Y182653D01*
X361375Y181800D01*
X360841Y180512D01*
X360659Y179130D01*
X360841Y177748D01*
X361375Y176459D01*
X362224Y175353D01*
X363330Y174504D01*
X364618Y173971D01*
X366000Y173789D01*
X367382Y173971D01*
X368671Y174504D01*
X369777Y175353D01*
X370625Y176459D01*
X371159Y177748D01*
X371341Y179130D01*
X371159Y180512D01*
X370625Y181800D01*
X369971Y182653D01*
Y184705D01*
X371295D01*
Y195295D01*
X366321D01*
X361971Y199645D01*
Y210509D01*
X362471Y210621D01*
X363548Y209359D01*
X364905Y208200D01*
X366427Y207268D01*
X368076Y206585D01*
X369812Y206168D01*
X371591Y206028D01*
X373370Y206168D01*
X375105Y206585D01*
X376754Y207268D01*
X378276Y208200D01*
X379633Y209359D01*
X380792Y210716D01*
X381725Y212238D01*
X382408Y213887D01*
X382824Y215622D01*
X382964Y217402D01*
X382824Y219181D01*
X382408Y220916D01*
X381725Y222565D01*
X380792Y224087D01*
X379633Y225444D01*
X378276Y226603D01*
X376754Y227536D01*
X375105Y228219D01*
X373370Y228635D01*
X371591Y228775D01*
X369812Y228635D01*
X368076Y228219D01*
X366427Y227536D01*
X364905Y226603D01*
X363548Y225444D01*
X362471Y224183D01*
X361971Y224295D01*
Y250355D01*
X371521Y259906D01*
X372049Y259726D01*
X372149Y258968D01*
X372547Y258007D01*
X373181Y257181D01*
X374007Y256547D01*
X374968Y256149D01*
X375500Y256079D01*
Y260000D01*
X376000D01*
Y260500D01*
X379921D01*
X379851Y261032D01*
X379453Y261994D01*
X378819Y262819D01*
X377993Y263453D01*
X377032Y263851D01*
X376274Y263951D01*
X376095Y264479D01*
X376695Y265079D01*
X380921D01*
Y274921D01*
D02*
G37*
G36*
X186500Y268969D02*
Y265500D01*
X189969D01*
X189897Y266044D01*
X189494Y267017D01*
X188853Y267853D01*
X188017Y268494D01*
X187044Y268897D01*
X186500Y268969D01*
D02*
G37*
G36*
X330500Y273969D02*
X329956Y273897D01*
X328983Y273494D01*
X328147Y272853D01*
X327506Y272017D01*
X327103Y271044D01*
X327031Y270500D01*
X330500D01*
Y273969D01*
D02*
G37*
G36*
X331500D02*
Y270500D01*
X334969D01*
X334897Y271044D01*
X334494Y272017D01*
X333853Y272853D01*
X333017Y273494D01*
X332044Y273897D01*
X331500Y273969D01*
D02*
G37*
G36*
X330500Y269500D02*
X327031D01*
X327103Y268956D01*
X327506Y267983D01*
X328147Y267147D01*
X328983Y266506D01*
X329956Y266103D01*
X330500Y266031D01*
Y269500D01*
D02*
G37*
G36*
X334969D02*
X331500D01*
Y266031D01*
X332044Y266103D01*
X333017Y266506D01*
X333853Y267147D01*
X334494Y267983D01*
X334897Y268956D01*
X334969Y269500D01*
D02*
G37*
G36*
X219969Y204500D02*
X216500D01*
Y201031D01*
X217044Y201103D01*
X218017Y201506D01*
X218853Y202147D01*
X219494Y202983D01*
X219897Y203956D01*
X219969Y204500D01*
D02*
G37*
G36*
X216500Y208969D02*
Y205500D01*
X219969D01*
X219897Y206044D01*
X219494Y207017D01*
X218853Y207853D01*
X218017Y208494D01*
X217044Y208897D01*
X216500Y208969D01*
D02*
G37*
G36*
X340500Y203969D02*
X339956Y203897D01*
X338983Y203494D01*
X338147Y202853D01*
X337506Y202017D01*
X337103Y201044D01*
X337031Y200500D01*
X340500D01*
Y203969D01*
D02*
G37*
G36*
X341500D02*
Y200500D01*
X344969D01*
X344897Y201044D01*
X344494Y202017D01*
X343853Y202853D01*
X343017Y203494D01*
X342044Y203897D01*
X341500Y203969D01*
D02*
G37*
G36*
X124969Y244500D02*
X121500D01*
Y241031D01*
X122044Y241103D01*
X123017Y241506D01*
X123853Y242147D01*
X124494Y242983D01*
X124897Y243956D01*
X124969Y244500D01*
D02*
G37*
G36*
X121500Y248969D02*
Y245500D01*
X124969D01*
X124897Y246044D01*
X124494Y247017D01*
X123853Y247853D01*
X123017Y248494D01*
X122044Y248897D01*
X121500Y248969D01*
D02*
G37*
G36*
X334969Y249500D02*
X331500D01*
Y246031D01*
X332044Y246103D01*
X333017Y246506D01*
X333853Y247147D01*
X334494Y247983D01*
X334897Y248956D01*
X334969Y249500D01*
D02*
G37*
G36*
X376000Y254964D02*
X374715Y254795D01*
X373518Y254299D01*
X372490Y253510D01*
X371701Y252482D01*
X371205Y251285D01*
X371036Y250000D01*
X371205Y248715D01*
X371701Y247518D01*
X372490Y246490D01*
X373518Y245701D01*
X374715Y245205D01*
X376000Y245036D01*
X377285Y245205D01*
X378482Y245701D01*
X379510Y246490D01*
X380299Y247518D01*
X380795Y248715D01*
X380964Y250000D01*
X380795Y251285D01*
X380299Y252482D01*
X379510Y253510D01*
X378482Y254299D01*
X377285Y254795D01*
X376000Y254964D01*
D02*
G37*
G36*
X120500Y248969D02*
X119956Y248897D01*
X118983Y248494D01*
X118147Y247853D01*
X117506Y247017D01*
X117103Y246044D01*
X117031Y245500D01*
X120500D01*
Y248969D01*
D02*
G37*
G36*
X365500Y172558D02*
X364871Y172475D01*
X363818Y172039D01*
X362914Y171346D01*
X362221Y170442D01*
X361785Y169389D01*
X361702Y168760D01*
X365500D01*
Y172558D01*
D02*
G37*
G36*
X344969Y129500D02*
X341500D01*
Y126031D01*
X342044Y126103D01*
X343017Y126506D01*
X343853Y127147D01*
X344494Y127983D01*
X344897Y128956D01*
X344969Y129500D01*
D02*
G37*
G36*
X340500Y133969D02*
X339956Y133897D01*
X338983Y133494D01*
X338147Y132853D01*
X337506Y132017D01*
X337103Y131044D01*
X337031Y130500D01*
X340500D01*
Y133969D01*
D02*
G37*
G36*
X365500Y129078D02*
X364871Y128995D01*
X363818Y128559D01*
X362914Y127865D01*
X362221Y126962D01*
X361785Y125909D01*
X361702Y125279D01*
X365500D01*
Y129078D01*
D02*
G37*
G36*
X340500Y129500D02*
X337031D01*
X337103Y128956D01*
X337506Y127983D01*
X338147Y127147D01*
X338983Y126506D01*
X339956Y126103D01*
X340500Y126031D01*
Y129500D01*
D02*
G37*
G36*
X341500Y133969D02*
Y130500D01*
X344969D01*
X344897Y131044D01*
X344494Y132017D01*
X343853Y132853D01*
X343017Y133494D01*
X342044Y133897D01*
X341500Y133969D01*
D02*
G37*
G36*
X340500Y139500D02*
X337031D01*
X337103Y138956D01*
X337506Y137983D01*
X338147Y137147D01*
X338983Y136506D01*
X339956Y136103D01*
X340500Y136031D01*
Y139500D01*
D02*
G37*
G36*
X344969D02*
X341500D01*
Y136031D01*
X342044Y136103D01*
X343017Y136506D01*
X343853Y137147D01*
X344494Y137983D01*
X344897Y138956D01*
X344969Y139500D01*
D02*
G37*
G36*
X184969Y134500D02*
X181500D01*
Y131031D01*
X182044Y131103D01*
X183017Y131506D01*
X183853Y132147D01*
X184494Y132983D01*
X184897Y133956D01*
X184969Y134500D01*
D02*
G37*
G36*
X181500Y138969D02*
Y135500D01*
X184969D01*
X184897Y136044D01*
X184494Y137017D01*
X183853Y137853D01*
X183017Y138494D01*
X182044Y138897D01*
X181500Y138969D01*
D02*
G37*
G36*
X341500Y113969D02*
Y110500D01*
X344969D01*
X344897Y111044D01*
X344494Y112017D01*
X343853Y112853D01*
X343017Y113494D01*
X342044Y113897D01*
X341500Y113969D01*
D02*
G37*
G36*
X365500Y118208D02*
X364871Y118125D01*
X363818Y117689D01*
X362914Y116995D01*
X362221Y116092D01*
X361785Y115039D01*
X361702Y114409D01*
X365500D01*
Y118208D01*
D02*
G37*
G36*
Y113409D02*
X361702D01*
X361785Y112780D01*
X362221Y111727D01*
X362914Y110824D01*
X363818Y110130D01*
X364871Y109694D01*
X365500Y109611D01*
Y113409D01*
D02*
G37*
G36*
X340500Y113969D02*
X339956Y113897D01*
X338983Y113494D01*
X338147Y112853D01*
X337506Y112017D01*
X337103Y111044D01*
X337031Y110500D01*
X340500D01*
Y113969D01*
D02*
G37*
G36*
Y119500D02*
X337031D01*
X337103Y118956D01*
X337506Y117983D01*
X338147Y117147D01*
X338983Y116506D01*
X339956Y116103D01*
X340500Y116031D01*
Y119500D01*
D02*
G37*
G36*
Y123969D02*
X339956Y123897D01*
X338983Y123494D01*
X338147Y122853D01*
X337506Y122017D01*
X337103Y121044D01*
X337031Y120500D01*
X340500D01*
Y123969D01*
D02*
G37*
G36*
X341500D02*
Y120500D01*
X344969D01*
X344897Y121044D01*
X344494Y122017D01*
X343853Y122853D01*
X343017Y123494D01*
X342044Y123897D01*
X341500Y123969D01*
D02*
G37*
G36*
X344969Y119500D02*
X341500D01*
Y116031D01*
X342044Y116103D01*
X343017Y116506D01*
X343853Y117147D01*
X344494Y117983D01*
X344897Y118956D01*
X344969Y119500D01*
D02*
G37*
G36*
X365500Y124279D02*
X361702D01*
X361785Y123650D01*
X362221Y122597D01*
X362914Y121694D01*
X363818Y121000D01*
X364871Y120564D01*
X365500Y120481D01*
Y124279D01*
D02*
G37*
G36*
X366500Y161688D02*
Y157890D01*
X370298D01*
X370216Y158519D01*
X369779Y159572D01*
X369086Y160476D01*
X368182Y161169D01*
X367130Y161605D01*
X366500Y161688D01*
D02*
G37*
G36*
X340500Y163969D02*
X339956Y163897D01*
X338983Y163494D01*
X338147Y162853D01*
X337506Y162017D01*
X337103Y161044D01*
X337031Y160500D01*
X340500D01*
Y163969D01*
D02*
G37*
G36*
Y159500D02*
X337031D01*
X337103Y158956D01*
X337506Y157983D01*
X338147Y157147D01*
X338983Y156506D01*
X339956Y156103D01*
X340500Y156031D01*
Y159500D01*
D02*
G37*
G36*
X344969D02*
X341500D01*
Y156031D01*
X342044Y156103D01*
X343017Y156506D01*
X343853Y157147D01*
X344494Y157983D01*
X344897Y158956D01*
X344969Y159500D01*
D02*
G37*
G36*
X341500Y163969D02*
Y160500D01*
X344969D01*
X344897Y161044D01*
X344494Y162017D01*
X343853Y162853D01*
X343017Y163494D01*
X342044Y163897D01*
X341500Y163969D01*
D02*
G37*
G36*
X340500Y169500D02*
X337031D01*
X337103Y168956D01*
X337506Y167983D01*
X338147Y167147D01*
X338983Y166506D01*
X339956Y166103D01*
X340500Y166031D01*
Y169500D01*
D02*
G37*
G36*
X344969D02*
X341500D01*
Y166031D01*
X342044Y166103D01*
X343017Y166506D01*
X343853Y167147D01*
X344494Y167983D01*
X344897Y168956D01*
X344969Y169500D01*
D02*
G37*
G36*
X365500Y167760D02*
X361702D01*
X361785Y167130D01*
X362221Y166078D01*
X362914Y165174D01*
X363818Y164480D01*
X364871Y164044D01*
X365500Y163962D01*
Y167760D01*
D02*
G37*
G36*
X370298D02*
X366500D01*
Y163962D01*
X367130Y164044D01*
X368182Y164480D01*
X369086Y165174D01*
X369779Y166078D01*
X370216Y167130D01*
X370298Y167760D01*
D02*
G37*
G36*
X340500Y149500D02*
X337031D01*
X337103Y148956D01*
X337506Y147983D01*
X338147Y147147D01*
X338983Y146506D01*
X339956Y146103D01*
X340500Y146031D01*
Y149500D01*
D02*
G37*
G36*
X344969D02*
X341500D01*
Y146031D01*
X342044Y146103D01*
X343017Y146506D01*
X343853Y147147D01*
X344494Y147983D01*
X344897Y148956D01*
X344969Y149500D01*
D02*
G37*
G36*
X340500Y143969D02*
X339956Y143897D01*
X338983Y143494D01*
X338147Y142853D01*
X337506Y142017D01*
X337103Y141044D01*
X337031Y140500D01*
X340500D01*
Y143969D01*
D02*
G37*
G36*
X341500D02*
Y140500D01*
X344969D01*
X344897Y141044D01*
X344494Y142017D01*
X343853Y142853D01*
X343017Y143494D01*
X342044Y143897D01*
X341500Y143969D01*
D02*
G37*
G36*
X340500Y153969D02*
X339956Y153897D01*
X338983Y153494D01*
X338147Y152853D01*
X337506Y152017D01*
X337103Y151044D01*
X337031Y150500D01*
X340500D01*
Y153969D01*
D02*
G37*
G36*
X245500Y158969D02*
X244956Y158897D01*
X243983Y158494D01*
X243147Y157853D01*
X242506Y157017D01*
X242103Y156044D01*
X242031Y155500D01*
X245500D01*
Y158969D01*
D02*
G37*
G36*
X246500D02*
Y155500D01*
X249969D01*
X249897Y156044D01*
X249494Y157017D01*
X248853Y157853D01*
X248017Y158494D01*
X247044Y158897D01*
X246500Y158969D01*
D02*
G37*
G36*
X341500Y153969D02*
Y150500D01*
X344969D01*
X344897Y151044D01*
X344494Y152017D01*
X343853Y152853D01*
X343017Y153494D01*
X342044Y153897D01*
X341500Y153969D01*
D02*
G37*
G36*
X189969Y154500D02*
X186500D01*
Y151031D01*
X187044Y151103D01*
X188017Y151506D01*
X188853Y152147D01*
X189494Y152983D01*
X189897Y153956D01*
X189969Y154500D01*
D02*
G37*
%LPD*%
D10*
X16000Y280000D02*
D03*
Y270000D02*
D03*
Y260000D02*
D03*
Y250000D02*
D03*
Y210000D02*
D03*
Y220000D02*
D03*
Y230000D02*
D03*
Y170000D02*
D03*
Y180000D02*
D03*
Y190000D02*
D03*
Y200000D02*
D03*
Y130000D02*
D03*
Y140000D02*
D03*
Y150000D02*
D03*
Y160000D02*
D03*
Y90000D02*
D03*
Y100000D02*
D03*
Y110000D02*
D03*
Y120000D02*
D03*
Y50000D02*
D03*
Y60000D02*
D03*
Y70000D02*
D03*
Y80000D02*
D03*
Y20000D02*
D03*
Y30000D02*
D03*
Y40000D02*
D03*
Y10000D02*
D03*
D11*
X161000Y85000D02*
X175000Y99000D01*
Y152000D01*
X183000Y160000D01*
X196000D01*
X204600Y168600D01*
Y190425D01*
X158000Y100000D02*
X166000D01*
X155000Y97000D02*
X158000Y100000D01*
X155000Y71000D02*
Y97000D01*
X166000Y100000D02*
X170000Y104000D01*
Y159000D02*
X180575Y169575D01*
X170000Y104000D02*
Y159000D01*
X160000Y65000D02*
Y66000D01*
X155000Y71000D02*
X160000Y66000D01*
X166000Y112000D02*
Y165000D01*
X163900Y109900D02*
X166000Y112000D01*
X155900Y109900D02*
X163900D01*
X180575Y169575D02*
X191425D01*
X196000Y174000D02*
Y191000D01*
X195851Y174000D02*
X196000D01*
X191425Y169575D02*
X195851Y174000D01*
X291000Y95000D02*
X296000Y90000D01*
Y70000D02*
Y90000D01*
X291000Y65000D02*
X296000Y70000D01*
X290575Y145425D02*
X298525D01*
X288000Y148000D02*
X290575Y145425D01*
X213681Y148000D02*
X288000D01*
X211400Y150281D02*
X213681Y148000D01*
X275387Y145114D02*
X309000Y111500D01*
X219921Y145114D02*
X275387D01*
X219807Y145000D02*
X219921Y145114D01*
X213341Y145000D02*
X219807D01*
X209000Y149341D02*
X213341Y145000D01*
X211400Y150281D02*
Y220400D01*
X209000Y149341D02*
Y223800D01*
X298525Y145425D02*
X301000Y147900D01*
X224000Y45000D02*
Y62000D01*
X221000Y65000D02*
X224000Y62000D01*
X216000Y65000D02*
X221000D01*
X219000Y40000D02*
X224000Y45000D01*
X221000Y85000D02*
X224000Y82000D01*
Y73000D02*
Y82000D01*
X221000Y70000D02*
X224000Y73000D01*
X216000Y85000D02*
X221000D01*
X214000Y70000D02*
X221000D01*
X210900Y66900D02*
X214000Y70000D01*
X210900Y49400D02*
Y66900D01*
X201500Y40000D02*
X210900Y49400D01*
X211425Y40000D02*
X219000D01*
X201425Y30000D02*
X211425Y40000D01*
X270000Y79000D02*
X276000Y85000D01*
X270000Y64700D02*
Y79000D01*
X224600Y19300D02*
X270000Y64700D01*
X186000Y65000D02*
Y109685D01*
X191000Y114685D01*
X201000Y196000D02*
Y255701D01*
X196000Y191000D02*
X201000Y196000D01*
X181000Y180000D02*
X189000D01*
X166000Y165000D02*
X181000Y180000D01*
X189000D02*
X192000Y183000D01*
Y197300D02*
X195100Y200400D01*
X192000Y183000D02*
Y197300D01*
X116000Y125000D02*
X126000Y135000D01*
X106000Y228700D02*
X121000Y213700D01*
Y195000D02*
Y213700D01*
X109600Y247000D02*
X126000Y230600D01*
Y135000D02*
Y230600D01*
X110400Y280000D02*
X131000Y259400D01*
Y130431D02*
Y259400D01*
X105569Y105000D02*
X131000Y130431D01*
X377181Y97604D02*
X384000Y90785D01*
Y71813D02*
Y90785D01*
X377181Y64994D02*
X384000Y71813D01*
X353100Y40100D02*
Y57529D01*
X347400Y34400D02*
X353100Y40100D01*
X336600Y34400D02*
X347400D01*
X325000Y156000D02*
X331000Y150000D01*
X290300Y281800D02*
X325000Y247100D01*
Y156000D02*
Y247100D01*
X321000Y110000D02*
X331000Y100000D01*
X321000Y110000D02*
Y230000D01*
X313100Y154600D02*
X317000Y150700D01*
Y104000D02*
Y150700D01*
Y104000D02*
X331000Y90000D01*
X306000Y150000D02*
X313000Y143000D01*
Y88000D02*
Y143000D01*
Y88000D02*
X331000Y70000D01*
X309000Y52400D02*
Y111500D01*
Y52400D02*
X331400Y30000D01*
X71000Y130000D02*
Y140000D01*
Y150000D01*
X301000Y25000D02*
Y35000D01*
Y85000D02*
Y95000D01*
Y55000D02*
Y65000D01*
X101000Y255000D02*
Y265000D01*
Y245000D02*
Y255000D01*
Y215000D02*
Y245000D01*
X186000Y205000D02*
Y215000D01*
X16000Y220000D02*
X51000D01*
X16000Y230000D02*
X33200D01*
X33672Y230472D01*
X51000D01*
X331000Y110000D02*
X335600Y105400D01*
Y84600D02*
Y105400D01*
X331000Y80000D02*
X335600Y84600D01*
X196000Y65000D02*
X201000Y70000D01*
Y75000D01*
X283500Y67500D02*
X291000Y75000D01*
X283500Y62500D02*
Y67500D01*
X276000Y55000D02*
X283500Y62500D01*
X276000Y65000D02*
X283500Y72500D01*
Y97500D01*
X291000Y105000D01*
X191000Y95000D02*
Y100000D01*
X216000Y125000D01*
X89338Y193339D02*
X101000Y205000D01*
X89338Y43339D02*
Y193339D01*
X81000Y35000D02*
X89338Y43339D01*
X81000Y220000D02*
X85600Y215400D01*
Y161600D02*
Y215400D01*
X16000Y180000D02*
X34600D01*
X303500Y154600D02*
X313100D01*
X301000Y152100D02*
X303500Y154600D01*
X301000Y147900D02*
Y152100D01*
X211400Y220400D02*
X226000Y235000D01*
X265400Y195600D02*
X276000Y185000D01*
X265400Y195600D02*
Y216500D01*
X268900Y220000D01*
X279900D01*
X301400Y198500D01*
Y164600D02*
Y198500D01*
Y164600D02*
X306000Y160000D01*
X246000Y215000D02*
X261000Y200000D01*
Y170400D02*
Y200000D01*
Y170400D02*
X271000Y160400D01*
X283100D01*
X191400Y260400D02*
X196000Y265000D01*
X181400Y260400D02*
X191400D01*
X181400D02*
Y269900D01*
X193300Y281800D01*
X290300D01*
X16000Y100000D02*
X33800D01*
X16000Y170000D02*
X32500D01*
X51000Y85000D02*
X65575Y99575D01*
Y265425D01*
X353100Y57529D02*
X366000Y70429D01*
X331000Y40000D02*
X336600Y34400D01*
X96000Y210000D02*
X103100D01*
X81000Y142500D02*
Y190000D01*
Y142500D02*
X85600Y137900D01*
Y89600D02*
Y137900D01*
X81000Y85000D02*
X85600Y89600D01*
X161000Y35000D02*
X166000Y30000D01*
X201425D01*
X196000Y45000D02*
X198743Y47743D01*
Y55105D01*
X207937Y64299D01*
Y86937D01*
X216000Y95000D01*
X186000Y35000D02*
X191000Y40000D01*
X201500D01*
X170600Y179600D02*
X186000Y195000D01*
X156400Y179600D02*
X170600D01*
X228300Y247300D02*
X246000Y265000D01*
X161000Y195000D02*
X164874D01*
X169874Y200000D01*
Y208874D01*
X196000Y235000D01*
X221425Y269575D02*
X226000Y265000D01*
X202975Y269575D02*
X221425D01*
X201000Y267600D02*
X202975Y269575D01*
X201000Y260800D02*
Y267600D01*
X165600Y225400D02*
X201000Y260800D01*
X165600Y200425D02*
Y225400D01*
X156400Y200425D02*
X165600D01*
X151600Y195625D02*
X156400Y200425D01*
X151600Y124400D02*
Y195625D01*
X206000Y260701D02*
Y265000D01*
X201000Y255701D02*
X206000Y260701D01*
X161000Y55000D02*
X174100D01*
X181000Y48100D01*
Y40000D02*
Y48100D01*
Y40000D02*
X186000Y35000D01*
X166700Y19300D02*
X224600D01*
X161000Y25000D02*
X166700Y19300D01*
X101000Y55000D02*
X155900Y109900D01*
X191000Y114685D02*
X201000Y124685D01*
Y135000D01*
X191000Y85000D02*
X201000Y75000D01*
X191000Y85000D02*
Y95000D01*
X43000Y45000D02*
X51000D01*
X38000Y50000D02*
X43000Y45000D01*
X16000Y50000D02*
X38000D01*
X40800Y87200D02*
Y115000D01*
X35800Y120000D02*
X40800Y115000D01*
X16000Y120000D02*
X35800D01*
X371500Y124534D02*
X377181Y130215D01*
X371500Y51900D02*
Y124534D01*
X349600Y30000D02*
X371500Y51900D01*
X331400Y30000D02*
X349600D01*
X209000Y223800D02*
X211000Y225800D01*
Y260000D01*
X216000Y265000D01*
X35400Y247400D02*
X37900Y244900D01*
X101000Y105000D02*
X105569D01*
X32100Y200000D02*
X37900Y194200D01*
X16000Y200000D02*
X32100D01*
X56425Y134575D02*
X61000Y130000D01*
X56425Y134575D02*
Y153025D01*
X60299Y156899D01*
Y260101D01*
X16000Y280000D02*
X31932D01*
X51000Y95000D02*
X54063Y98063D01*
Y155400D01*
X48500Y235300D02*
X52800D01*
X46000Y237800D02*
X48500Y235300D01*
X86000Y245000D02*
Y265000D01*
X81000Y240000D02*
X86000Y245000D01*
X40685Y75315D02*
X51000D01*
Y65473D02*
X66473D01*
X71000Y70000D01*
Y130000D01*
X48000Y80000D02*
X61000D01*
X40800Y87200D02*
X48000Y80000D01*
X37000Y79000D02*
X40685Y75315D01*
X37000Y79000D02*
Y96800D01*
X33800Y100000D02*
X37000Y96800D01*
X31932Y280000D02*
X36932Y275000D01*
X35400Y247400D02*
Y256600D01*
X32000Y260000D02*
X35400Y256600D01*
X16000Y260000D02*
X32000D01*
X36932Y268478D02*
Y275000D01*
X16000Y270000D02*
X32000D01*
X46000Y256000D01*
Y237800D02*
Y256000D01*
X53000Y278000D02*
X65575Y265425D01*
X51000Y278000D02*
X53000D01*
X36932Y268478D02*
X39411Y266000D01*
X54400D01*
X60299Y260101D01*
X91000Y215000D02*
X96000Y210000D01*
X91000Y215000D02*
Y220000D01*
X81000Y230000D02*
X91000Y220000D01*
X16000Y190000D02*
X33000D01*
X49000Y119000D02*
Y183200D01*
X45000Y104700D02*
X48200Y101500D01*
X45000Y104700D02*
Y178000D01*
X33000Y190000D02*
X45000Y178000D01*
X34600Y180000D02*
X41000Y173600D01*
Y134000D02*
Y173600D01*
X36000Y130000D02*
Y166500D01*
X32500Y170000D02*
X36000Y166500D01*
X44000Y188200D02*
X49000Y183200D01*
X44000Y188200D02*
Y211000D01*
X16000Y210000D02*
X37000D01*
X42000Y215000D01*
X44000Y211000D02*
X47000Y214000D01*
Y220000D01*
X54063Y155400D02*
X57000Y158337D01*
Y231100D01*
X52800Y235300D02*
X57000Y231100D01*
X70400Y161700D02*
Y275779D01*
X106000Y228700D02*
Y270000D01*
X75000Y274000D02*
X102000D01*
X106000Y270000D01*
X70400Y275779D02*
X74621Y280000D01*
X110400D01*
X101000Y195000D02*
X111000Y185000D01*
Y145000D02*
Y185000D01*
X103100Y210000D02*
X115000Y198100D01*
X101000Y135000D02*
X108000D01*
X115000Y142000D01*
Y198100D01*
D12*
X181000Y75000D02*
Y135000D01*
X94000Y58000D02*
X101000Y65000D01*
X94000Y32000D02*
Y58000D01*
Y32000D02*
X101000Y25000D01*
X265600Y74600D02*
Y124600D01*
X226007Y35007D02*
X265600Y74600D01*
X216007Y35007D02*
X226007D01*
X216007Y44993D02*
Y45007D01*
X94000Y178000D02*
X101000Y185000D01*
X94000Y72000D02*
Y178000D01*
Y72000D02*
X101000Y65000D01*
X358000Y252000D02*
X376000Y270000D01*
X358000Y198000D02*
Y252000D01*
Y198000D02*
X366000Y190000D01*
X341000Y80000D02*
Y90000D01*
Y70000D02*
Y80000D01*
Y90000D02*
Y100000D01*
Y110000D01*
Y50000D02*
Y70000D01*
Y110000D02*
Y120000D01*
Y130000D01*
Y140000D01*
Y40000D02*
Y50000D01*
X291000Y25000D02*
Y35000D01*
X341000Y160000D02*
Y170000D01*
Y150000D02*
Y160000D01*
Y170000D02*
Y180000D01*
Y190000D01*
Y140000D02*
Y150000D01*
Y190000D02*
Y200000D01*
X366000Y157390D02*
Y168260D01*
X331000Y250000D02*
Y270000D01*
X366000Y81299D02*
Y92169D01*
Y103040D01*
Y113909D01*
Y124779D01*
X216000Y195000D02*
Y205000D01*
X366000Y179130D02*
Y190000D01*
X296000Y160000D02*
Y170000D01*
Y150000D02*
Y160000D01*
Y170000D02*
Y180000D01*
Y190000D01*
X366000Y135650D02*
Y146520D01*
X216000Y195000D02*
X231000Y180000D01*
Y170000D02*
Y180000D01*
Y170000D02*
X246000Y155000D01*
X75200Y254200D02*
X81000Y260000D01*
X75200Y157400D02*
Y254200D01*
Y157400D02*
X76800Y155800D01*
Y99200D02*
Y155800D01*
Y99200D02*
X81000Y95000D01*
X142100Y196100D02*
X161000Y215000D01*
X142100Y116100D02*
Y196100D01*
X101000Y75000D02*
X142100Y116100D01*
X331000Y250000D02*
X341000Y240000D01*
Y200000D02*
Y240000D01*
X265600Y124600D02*
X276000Y135000D01*
X216000Y35000D02*
X216007Y35007D01*
X216000Y205000D02*
X224300D01*
X181000Y135000D02*
X186000Y140000D01*
Y155000D01*
X351000Y161520D02*
Y250000D01*
Y161520D02*
X366000Y146520D01*
X296000Y190000D02*
Y195000D01*
X276000Y215000D02*
X296000Y195000D01*
X161000Y215000D02*
Y250000D01*
X42000Y270000D02*
Y283000D01*
X41950Y283050D02*
X42900Y284000D01*
X127000D01*
X161000Y250000D01*
X186000Y265000D02*
X196000Y275000D01*
X247600D01*
X224300Y205000D02*
X256000Y236700D01*
Y266600D01*
X247600Y275000D02*
X256000Y266600D01*
D13*
X341000Y200000D02*
D03*
X331000D02*
D03*
X341000Y50000D02*
D03*
X331000D02*
D03*
Y60000D02*
D03*
X341000Y70000D02*
D03*
Y80000D02*
D03*
X331000D02*
D03*
Y90000D02*
D03*
X341000Y100000D02*
D03*
Y110000D02*
D03*
X331000D02*
D03*
Y120000D02*
D03*
X341000Y130000D02*
D03*
Y140000D02*
D03*
X331000D02*
D03*
X341000Y150000D02*
D03*
X331000D02*
D03*
X341000Y160000D02*
D03*
X331000D02*
D03*
X341000Y170000D02*
D03*
X331000D02*
D03*
X341000Y180000D02*
D03*
X331000D02*
D03*
X341000Y190000D02*
D03*
X331000D02*
D03*
Y40000D02*
D03*
Y70000D02*
D03*
X341000Y90000D02*
D03*
X331000Y100000D02*
D03*
X341000Y120000D02*
D03*
X331000Y130000D02*
D03*
X306000Y150000D02*
D03*
X296000D02*
D03*
X306000Y160000D02*
D03*
X296000D02*
D03*
X306000Y170000D02*
D03*
X296000D02*
D03*
X306000Y180000D02*
D03*
X296000D02*
D03*
X306000Y190000D02*
D03*
X296000D02*
D03*
X331000Y250000D02*
D03*
X351000D02*
D03*
X331000Y270000D02*
D03*
X351000D02*
D03*
X196000Y65000D02*
D03*
X186000D02*
D03*
X276000Y125000D02*
D03*
Y95000D02*
D03*
Y65000D02*
D03*
Y35000D02*
D03*
X216000Y95000D02*
D03*
Y125000D02*
D03*
Y35000D02*
D03*
Y65000D02*
D03*
X276000Y135000D02*
D03*
Y115000D02*
D03*
Y105000D02*
D03*
Y85000D02*
D03*
Y75000D02*
D03*
Y55000D02*
D03*
Y45000D02*
D03*
Y25000D02*
D03*
X216000Y105000D02*
D03*
Y115000D02*
D03*
Y75000D02*
D03*
Y85000D02*
D03*
Y45000D02*
D03*
Y55000D02*
D03*
Y25000D02*
D03*
X246000Y165000D02*
D03*
Y155000D02*
D03*
Y195000D02*
D03*
Y185000D02*
D03*
X276000Y155000D02*
D03*
Y165000D02*
D03*
Y185000D02*
D03*
Y195000D02*
D03*
Y215000D02*
D03*
X246000Y175000D02*
D03*
Y205000D02*
D03*
X276000Y175000D02*
D03*
Y205000D02*
D03*
X186000Y165000D02*
D03*
Y155000D02*
D03*
Y195000D02*
D03*
Y185000D02*
D03*
X216000Y155000D02*
D03*
Y165000D02*
D03*
Y185000D02*
D03*
Y195000D02*
D03*
Y215000D02*
D03*
X186000Y175000D02*
D03*
Y205000D02*
D03*
X216000Y175000D02*
D03*
Y205000D02*
D03*
X101000Y35000D02*
D03*
Y25000D02*
D03*
Y65000D02*
D03*
Y55000D02*
D03*
Y95000D02*
D03*
Y85000D02*
D03*
Y125000D02*
D03*
Y115000D02*
D03*
Y155000D02*
D03*
Y145000D02*
D03*
Y185000D02*
D03*
Y175000D02*
D03*
Y205000D02*
D03*
X161000Y35000D02*
D03*
Y25000D02*
D03*
Y65000D02*
D03*
Y55000D02*
D03*
Y95000D02*
D03*
Y85000D02*
D03*
Y125000D02*
D03*
Y115000D02*
D03*
Y155000D02*
D03*
Y145000D02*
D03*
Y185000D02*
D03*
Y175000D02*
D03*
Y215000D02*
D03*
Y205000D02*
D03*
X101000Y45000D02*
D03*
Y75000D02*
D03*
Y105000D02*
D03*
Y135000D02*
D03*
Y165000D02*
D03*
Y195000D02*
D03*
X161000Y45000D02*
D03*
Y75000D02*
D03*
Y105000D02*
D03*
Y135000D02*
D03*
Y165000D02*
D03*
Y195000D02*
D03*
X81000Y85000D02*
D03*
Y55000D02*
D03*
Y25000D02*
D03*
X51000Y85000D02*
D03*
Y25000D02*
D03*
Y55000D02*
D03*
X81000Y95000D02*
D03*
Y75000D02*
D03*
Y65000D02*
D03*
Y35000D02*
D03*
Y45000D02*
D03*
X51000Y65473D02*
D03*
Y75315D02*
D03*
Y35000D02*
D03*
Y45000D02*
D03*
X81000Y250000D02*
D03*
Y220000D02*
D03*
Y190000D02*
D03*
X51000Y250000D02*
D03*
Y190000D02*
D03*
Y220000D02*
D03*
X81000Y260000D02*
D03*
Y240000D02*
D03*
Y230000D02*
D03*
Y200000D02*
D03*
Y210000D02*
D03*
X51000Y230472D02*
D03*
Y240315D02*
D03*
Y200000D02*
D03*
Y210000D02*
D03*
X101000Y265000D02*
D03*
X111000D02*
D03*
Y255000D02*
D03*
X101000D02*
D03*
X121000Y245000D02*
D03*
X101000D02*
D03*
X61000Y130000D02*
D03*
X71000D02*
D03*
X61000Y140000D02*
D03*
X71000D02*
D03*
X186000Y45000D02*
D03*
Y35000D02*
D03*
X176000D02*
D03*
Y45000D02*
D03*
X71000Y150000D02*
D03*
X61000D02*
D03*
X196000Y45000D02*
D03*
Y35000D02*
D03*
X201000Y75000D02*
D03*
X181000D02*
D03*
X201000Y135000D02*
D03*
X181000D02*
D03*
X291000Y25000D02*
D03*
X301000D02*
D03*
X291000Y35000D02*
D03*
Y55000D02*
D03*
X301000Y35000D02*
D03*
Y55000D02*
D03*
X291000Y75000D02*
D03*
Y65000D02*
D03*
X301000D02*
D03*
Y85000D02*
D03*
X291000Y105000D02*
D03*
Y95000D02*
D03*
X301000Y105000D02*
D03*
Y95000D02*
D03*
X196000Y265000D02*
D03*
X186000D02*
D03*
X226000D02*
D03*
X216000D02*
D03*
X186000Y235000D02*
D03*
X196000D02*
D03*
X216000D02*
D03*
X226000D02*
D03*
X246000D02*
D03*
X206000Y265000D02*
D03*
X236000D02*
D03*
X206000Y235000D02*
D03*
X236000D02*
D03*
D14*
X341000Y40000D02*
D03*
X216000Y135000D02*
D03*
X246000Y215000D02*
D03*
X186000D02*
D03*
X101000D02*
D03*
X51000Y95000D02*
D03*
Y260000D02*
D03*
D15*
X366000Y59559D02*
D03*
X377181Y64994D02*
D03*
X366000Y70429D02*
D03*
X377181Y75864D02*
D03*
X366000Y81299D02*
D03*
X377181Y86734D02*
D03*
X366000Y92169D02*
D03*
X377181Y97604D02*
D03*
X366000Y103040D02*
D03*
X377181Y108475D02*
D03*
X366000Y113909D02*
D03*
X377181Y119344D02*
D03*
X366000Y124779D02*
D03*
X377181Y130215D02*
D03*
X366000Y135650D02*
D03*
X377181Y141085D02*
D03*
X366000Y146520D02*
D03*
X377181Y151955D02*
D03*
X366000Y157390D02*
D03*
X377181Y162825D02*
D03*
X366000Y168260D02*
D03*
X377181Y173695D02*
D03*
X366000Y179130D02*
D03*
X377181Y184565D02*
D03*
D16*
X366000Y190000D02*
D03*
D17*
X371591Y217402D02*
D03*
Y32157D02*
D03*
D18*
X376000Y250000D02*
D03*
Y260000D02*
D03*
X191000Y114685D02*
D03*
Y95000D02*
D03*
D19*
X376000Y270000D02*
D03*
D20*
X246000Y265000D02*
D03*
D21*
X116000Y125000D02*
D03*
X121000Y195000D02*
D03*
X321000Y230000D02*
D03*
X85600Y161600D02*
D03*
X283100Y160400D02*
D03*
X156400Y179600D02*
D03*
X228300Y247300D02*
D03*
X151600Y124400D02*
D03*
X204600Y190425D02*
D03*
X195100Y200400D02*
D03*
X109600Y247000D02*
D03*
X37900Y244900D02*
D03*
X70400Y161700D02*
D03*
X37900Y194200D02*
D03*
X48200Y101500D02*
D03*
X111000Y145000D02*
D03*
X86000Y265000D02*
D03*
X61000Y80000D02*
D03*
X42000Y270000D02*
D03*
X51000Y278000D02*
D03*
X49000Y119000D02*
D03*
X41000Y134000D02*
D03*
X36000Y130000D02*
D03*
X42000Y215000D02*
D03*
X75000Y274000D02*
D03*
M02*
