M48
;Layer_Color=9474304
;FILE_FORMAT=4:4
METRIC,LZ
;TYPE=PLATED
T1F00S00C0.3000
T2F00S00C0.8000
T3F00S00C0.9000
T4F00S00C0.9650
T5F00S00C0.9652
T6F00S00C1.0000
%
T01
X00378461Y00040387
X00458725Y00141733
X00437897Y002794
X00421387Y00383018
X00257303Y00366269
X00198121Y00369317
X002159Y00405131
X00147321Y00410465
X00135891Y00414021
X00112523Y00188977
X00119127Y00159767
X00150877Y00164847
X00297181Y00317247
X00289561Y00418847
X00268225Y00462535
X00180595
X00157481Y00471425
X00144781Y00464821
X00128525Y00454915
X00113285Y00519431
X0009398Y005588
X00096013Y00604521
X00113285Y00602743
X00128017Y00580137
X00150877Y00547371
X00175261Y00564135
Y00603251
X00202439Y00612903
X00245364Y00613664
X00234443Y00581661
X00204725Y005511
X00186761Y00488951
X00175261Y00641097
X00170181Y00653035
X00177801Y00676403
X00129287Y00680975
X00101347Y00653059
X00099315Y00626873
X00100839Y007112
X00094235Y00735331
X0014147Y0075996
X00167895Y00756159
X00248667
X00297943Y00742697
X00291339Y00698501
X00285751Y00683261
X00248667
X00278639Y00798831
X00314961Y00796037
X00310643Y00765049
X00341885Y00749301
X00347727Y00712265
X00330201Y00703073
X00316485Y00655067
X00325121Y00638811
X00329693Y00630937
X00373889Y0059848
X00383795Y00594869
X00416561Y00597409
X00423927Y00589535
X00442723Y00626111
X00444755Y00636271
X00449835Y00664185
X00457963Y00700533
X00462281Y00718059
X00477521Y00747269
X00477775Y0077777
Y00795529
X00479656Y00809245
X00455677Y00769113
X00376683Y00774193
X003937Y00712458
X00415799Y00702819
X00432055Y00696215
X00373889Y00671323
X00363475Y00544831
X00363036Y005334
X00355347Y00530353
X00414529Y00541783
X00404877Y00496825
X00355601Y00454407
X00312167Y00425451
X00466873Y00622301
X00474981Y00836931
X0041148Y008255
X00299975Y00866903
X00308357Y00963169
X00319754Y00977773
X00338837Y00984251
X00376683Y00983743
X00387364Y00981711
X00385065Y00970789
X00366523Y01006349
X00378036Y01024637
X00405893Y01022605
X00399185Y01054101
X00392685Y01064261
X00397003Y01087121
X00387953Y01131825
X00402845Y01182625
X00455677Y01150875
X00301753Y01018033
X00289561Y01071373
X00237237Y01068833
X00193041Y01050037
X00159005Y01057403
Y01038607
X00157481Y01025145
X00150877Y00987125
X00198375Y00983489
X00197983Y0097078
X00215901Y00994321
X00236983Y00953222
X00235447Y00899161
X00189485Y00922275
X00102363Y00926338
X00115825Y009652
X00110745Y01014985
X00113285Y01051561
X00094997Y01063499
Y01073913
X00115063Y01092201
X00165101Y01078231
X00193041Y01167639
X0022702Y01206501
X00239777Y01193801
X00088139Y01183641
X00098045Y00841249
X00195098Y00816023
X00292863Y00817095
X00287783Y00836169
X00248921Y01230377
X00238253
X00212599Y01275589
X00225045Y01309879
X00265685Y01330453
X00289307Y01332739
X00135129Y01282701
X00113793Y0127
X00084075Y01282193
X00176023Y01209549
X00329185Y01265429
X00342647Y01314197
X00361189Y01346201
X00449581Y01293877
X0042068Y0144938
X00430785Y015113
X00466345Y01525525
X003556Y015494
X003048Y015367
X0044608Y016129
X001143
T02
X003683Y017526
X003937
T03
X00127Y015367
Y015867
T04
X004191Y007366
Y00762
Y007874
X004445
Y00762
Y007366
Y008128
X004191
Y008382
Y008636
Y00889
Y009144
Y009398
Y009652
Y009906
Y01016
Y010414
Y010668
Y010922
Y011176
Y01143
Y011684
Y011938
X004445
Y011684
Y01143
Y011176
Y010922
Y010668
Y010414
Y01016
Y009906
Y009652
Y009398
Y009144
Y00889
Y008636
Y008382
Y012192
X004191
T05
X003429Y000508
Y000762
Y001016
Y00127
Y001524
Y001778
Y002032
Y00254
Y002794
Y003048
Y003302
Y003556
Y00381
Y004064
X003937Y003683
Y003429
Y003175
Y002921
Y002667
Y002413
Y002159
Y001778
X004191
X004445
X004699
Y002159
Y002413
Y002667
Y002921
Y003175
Y003429
Y003683
Y00127
Y001016
Y000762
Y000508
X003937
Y000762
Y001016
Y00127
X002667
Y001016
Y000762
Y000508
Y001524
Y001778
Y002032
Y00254
Y002794
Y003048
Y003302
Y003568
Y003818
Y004064
X002159Y00381
Y003556
Y003302
Y003048
Y002794
Y00254
Y002286
X001397
Y00254
Y002794
Y003048
Y003302
Y003556
Y00381
Y004318
X001651
X001905
X002159
X002667
Y004826
Y00508
Y005334
Y005588
Y005854
Y006104
Y00635
Y006604
X002159
Y00635
Y006096
Y005842
Y005588
Y005334
Y00508
Y004826
X001397
Y00508
Y005334
Y005588
Y005854
Y006104
Y00635
Y006604
Y006985
Y007239
X001651
Y006985
X001905
Y007239
X002159
Y006985
X002667Y007366
Y00762
Y007874
X003429
Y00762
Y007366
Y006604
Y00635
Y006096
Y005842
Y005588
Y005334
Y00508
Y004826
Y004318
X003937
Y004572
Y004826
Y00508
Y005334
Y005588
Y005842
Y006096
Y00635
Y006604
X004699
Y00635
Y006096
Y005842
Y005588
Y005334
Y00508
Y004826
Y004572
Y004318
X003429Y008128
Y008382
Y008636
Y00889
Y009144
Y009398
Y009652
Y01016
Y010414
Y010668
Y010922
Y011176
Y01143
Y011684
Y011938
X002667
Y011684
Y01143
Y011176
Y010922
Y010668
Y010414
Y01016
Y009652
Y009398
Y009144
Y00889
Y008636
Y008382
Y008128
X002159
Y008382
Y008636
Y00889
Y009144
Y009398
Y009652
Y01016
Y010414
Y010668
Y010922
Y011176
Y01143
Y011684
Y011938
X001397
Y011684
Y01143
Y011176
Y010922
Y010668
Y010414
Y01016
Y009652
Y009398
Y009144
Y00889
Y008636
Y008382
Y008128
Y012192
Y012446
X002159
Y012192
X002667
Y012446
X001778Y013081
Y013335
Y013589
Y013843
Y014097
Y014351
Y014605
Y014859
Y015113
Y015367
Y015621
Y015875
X001397Y014732
X001143
Y014224
X001397
X003302Y014097
Y013843
Y013589
Y013335
Y013081
X00381
Y013335
X004064
Y013081
Y012827
X00381
X004318
Y013081
Y013335
X004572
Y013081
Y012827
Y0136144
X004318
X004064
X00381
Y014097
Y014351
Y014605
Y014859
Y015125
Y015375
Y015621
Y015875
X003302
Y015621
Y015367
Y015113
Y014859
Y014605
Y014351
X004572
Y014097
Y014605
Y014859
Y015113
Y015367
Y015621
Y015875
X003429Y012446
Y012192
X003683Y01651
X003937
X004318
X004572
X003937Y017018
X003683
Y018034
X003937
X004318
X004572
Y018542
X004318
X003937
X003683
T06
X002159Y0165354
Y0185354
M30
