G04 Layer_Physical_Order=1*
G04 Layer_Color=255*
%FSLAX44Y44*%
%MOMM*%
G71*
G01*
G75*
G04:AMPARAMS|DCode=10|XSize=1.57mm|YSize=8mm|CornerRadius=0.3925mm|HoleSize=0mm|Usage=FLASHONLY|Rotation=90.000|XOffset=0mm|YOffset=0mm|HoleType=Round|Shape=RoundedRectangle|*
%AMROUNDEDRECTD10*
21,1,1.5700,7.2150,0,0,90.0*
21,1,0.7850,8.0000,0,0,90.0*
1,1,0.7850,3.6075,0.3925*
1,1,0.7850,3.6075,-0.3925*
1,1,0.7850,-3.6075,-0.3925*
1,1,0.7850,-3.6075,0.3925*
%
%ADD10ROUNDEDRECTD10*%
%ADD11C,0.6000*%
%ADD12C,0.3000*%
%ADD13C,1.5240*%
%ADD14R,1.5240X1.5240*%
%ADD15C,1.5000*%
%ADD16P,1.6236X8X202.5*%
%ADD17C,1.7500*%
%ADD18C,0.6000*%
D10*
X43180Y787400D02*
D03*
Y736600D02*
D03*
Y762000D02*
D03*
Y863600D02*
D03*
Y889000D02*
D03*
Y812800D02*
D03*
Y838200D02*
D03*
Y584200D02*
D03*
Y609600D02*
D03*
Y533400D02*
D03*
Y558800D02*
D03*
Y685800D02*
D03*
Y711200D02*
D03*
Y635000D02*
D03*
Y660400D02*
D03*
Y1168400D02*
D03*
Y1193800D02*
D03*
Y1117600D02*
D03*
Y1143000D02*
D03*
Y1270000D02*
D03*
Y1295400D02*
D03*
Y1219200D02*
D03*
Y1244600D02*
D03*
Y965200D02*
D03*
Y990600D02*
D03*
Y914400D02*
D03*
Y939800D02*
D03*
Y1066800D02*
D03*
Y1092200D02*
D03*
Y1016000D02*
D03*
Y1041400D02*
D03*
D11*
X457200Y1587500D02*
Y1651000D01*
Y1803400D01*
X419100Y965200D02*
Y990600D01*
X444500Y939800D02*
Y965200D01*
Y889000D02*
Y914400D01*
Y863600D02*
Y889000D01*
Y914400D02*
Y939800D01*
X215900Y254000D02*
X238521Y276621D01*
Y358379D01*
X215900Y381000D02*
X238521Y358379D01*
X139700Y76201D02*
X165101Y50800D01*
X90933Y609600D02*
X96013Y604521D01*
X43180Y609600D02*
X90933D01*
X121967Y998267D02*
X139700Y1016000D01*
X121967Y936198D02*
X131065Y927101D01*
X148681D01*
X152320Y923461D01*
Y901701D02*
Y923461D01*
X133351Y901701D02*
X152320D01*
X125223Y893573D02*
X133351Y901701D01*
X125223Y827278D02*
Y893573D01*
Y827278D02*
X139700Y812800D01*
X330201Y647700D02*
X342900Y635000D01*
X330201Y647700D02*
Y703073D01*
X362196Y1390896D02*
X381000Y1409700D01*
X362196Y1368036D02*
Y1390896D01*
X340361Y1346201D02*
X362196Y1368036D01*
X323851Y1346201D02*
X340361D01*
X317501Y1339851D02*
X323851Y1346201D01*
X317501Y1320800D02*
Y1339851D01*
Y1320800D02*
X330200Y1308100D01*
X212599Y1275589D02*
X215900Y1272287D01*
X431720Y832972D02*
Y850820D01*
X444500Y863600D01*
X122080Y541180D02*
X139700Y558800D01*
X122080Y487339D02*
Y541180D01*
Y487339D02*
X134961D01*
X139700Y482600D01*
X376080Y68421D02*
X393700Y50800D01*
X376080Y68421D02*
Y198280D01*
X393700Y215900D01*
X215900Y1267460D02*
X239015Y1290575D01*
Y1323696D01*
X274637Y1359318D01*
X298795D01*
X309373Y1348741D01*
Y1260857D02*
Y1348741D01*
Y1260857D02*
X319754Y1250476D01*
Y977773D02*
Y1250476D01*
X342900Y431800D02*
Y464821D01*
X337567Y470155D02*
X342900Y464821D01*
X330280Y470155D02*
X337567D01*
X330280D02*
Y545847D01*
X338329D01*
X338583Y546101D01*
X349251D01*
X355601Y552451D01*
Y647700D01*
X342900Y660400D02*
X355601Y647700D01*
X97791Y558800D02*
X99569Y557022D01*
Y165355D02*
Y557022D01*
X214123Y50800D02*
X266700D01*
X215900Y381000D02*
Y405131D01*
X304720Y241380D02*
X342900Y203200D01*
X260271Y241380D02*
X304720D01*
X247651Y254000D02*
X260271Y241380D01*
X215900Y254000D02*
X247651D01*
X419100Y165101D02*
Y177800D01*
Y165101D02*
X457201Y127000D01*
X469900D01*
X376683Y774193D02*
Y983743D01*
X342900Y707438D02*
X347727Y712265D01*
X342900Y660400D02*
Y707438D01*
X361189Y1262889D02*
Y1346201D01*
X342900Y1244600D02*
X361189Y1262889D01*
X121285Y794385D02*
X139700Y812800D01*
X121285Y594233D02*
Y794385D01*
X119889Y592837D02*
X121285Y594233D01*
X119889Y574041D02*
Y592837D01*
Y574041D02*
X126747Y567183D01*
X131318D01*
X139700Y558800D01*
X174715Y1210857D02*
X176023Y1209549D01*
X174715Y1210857D02*
Y1301119D01*
X177800Y1304205D01*
Y1308100D01*
X317501Y1803401D02*
X368300Y1854200D01*
X317501Y1530351D02*
Y1803401D01*
Y1530351D02*
X323851Y1524001D01*
X337313D01*
X347473Y1513841D01*
Y1443228D02*
Y1513841D01*
Y1443228D02*
X381000Y1409700D01*
X381001Y1765300D02*
X393700Y1752600D01*
X381001Y1765300D02*
Y1841501D01*
X393700Y1854200D01*
X376080Y414180D02*
X393700Y431800D01*
X376080Y233521D02*
Y414180D01*
Y233521D02*
X393700Y215900D01*
X215900Y1244600D02*
Y1267460D01*
Y1272287D01*
X43180Y558800D02*
X54611D01*
X97791D01*
X139700Y76201D02*
Y125223D01*
Y228600D01*
X99569Y165355D02*
X139700Y125223D01*
X214123Y50800D01*
X165101D02*
X214123D01*
X54611Y558800D02*
X54611Y558800D01*
X93980D01*
X411480Y825500D02*
X424248D01*
X431720Y832972D01*
X115825Y965200D02*
X121967D01*
Y936198D02*
Y965200D01*
Y998267D01*
X444500Y1219200D02*
X462121Y1201580D01*
Y1156957D02*
Y1201580D01*
Y1156957D02*
X467121Y1151957D01*
Y1069524D02*
Y1151957D01*
X462121Y1064524D02*
X467121Y1069524D01*
X462121Y982821D02*
Y1064524D01*
X444500Y965200D02*
X462121Y982821D01*
D12*
X368300Y1752600D02*
Y1803400D01*
Y1701800D02*
Y1752600D01*
X381000Y1282700D02*
Y1308100D01*
Y1333500D01*
Y1361440D01*
X457200Y1282700D02*
Y1308100D01*
Y1333500D01*
Y1361440D01*
X431800Y1803400D02*
Y1854200D01*
X128525Y369825D02*
X139700Y381000D01*
X128525Y315976D02*
Y369825D01*
Y315976D02*
X139700Y304800D01*
X469900Y177800D02*
X481077Y166624D01*
Y61977D02*
Y166624D01*
X469900Y50800D02*
X481077Y61977D01*
X123445Y270256D02*
X139700Y254000D01*
X123445Y270256D02*
Y415545D01*
X139700Y431800D01*
X368300Y1676400D02*
X393700Y1651000D01*
X368300Y1676400D02*
Y1701800D01*
X156301Y1388201D02*
X177800Y1409700D01*
X156301Y1194971D02*
Y1388201D01*
Y1194971D02*
X160821Y1190451D01*
Y1147280D02*
Y1190451D01*
X155821Y1142279D02*
X160821Y1147280D01*
X155821Y1133720D02*
Y1142279D01*
X139700Y1117600D02*
X155821Y1133720D01*
X160821Y1418121D02*
X177800Y1435100D01*
X160821Y1401030D02*
Y1418121D01*
X150820Y1391029D02*
X160821Y1401030D01*
X150820Y1189970D02*
Y1391029D01*
Y1189970D02*
X155821Y1184970D01*
Y1152280D02*
Y1184970D01*
X149637Y1146096D02*
X155821Y1152280D01*
X149637Y1143000D02*
Y1146096D01*
X139700Y1143000D02*
X149637D01*
X150820Y1433520D02*
X177800Y1460500D01*
X150820Y1417794D02*
Y1433520D01*
X139447Y1406420D02*
X150820Y1417794D01*
X139447Y1315975D02*
Y1406420D01*
X101855Y1278383D02*
X139447Y1315975D01*
X101855Y1145033D02*
Y1278383D01*
X74422Y1117600D02*
X101855Y1145033D01*
X43180Y1117600D02*
X74422D01*
X177800Y1333500D02*
X201677Y1357377D01*
Y1513841D01*
X193041Y1522477D02*
X201677Y1513841D01*
X166625Y1522477D02*
X193041D01*
X150877Y1506729D02*
X166625Y1522477D01*
X150877Y1462025D02*
Y1506729D01*
X131573Y1462025D02*
X150877D01*
X103125Y1433577D02*
X131573Y1462025D01*
X103125Y1295909D02*
Y1433577D01*
X90679Y1283463D02*
X103125Y1295909D01*
X90679Y1244600D02*
Y1283463D01*
X43180Y1244600D02*
X90679D01*
X382525Y519176D02*
X393700Y508000D01*
X382525Y519176D02*
Y593599D01*
X383795Y594869D01*
X71882Y1270000D02*
X84075Y1282193D01*
X43180Y1270000D02*
X71882D01*
X357602Y1614902D02*
X393700Y1651000D01*
X357602Y1607028D02*
Y1614902D01*
X338074Y1587500D02*
X357602Y1607028D01*
X330200Y1587500D02*
X338074D01*
X393700Y1701800D02*
X404877Y1690624D01*
Y1641349D02*
Y1690624D01*
X372132Y1608604D02*
X404877Y1641349D01*
X363707Y1608604D02*
X372132D01*
X363707Y1570207D02*
Y1608604D01*
X330200Y1536700D02*
X363707Y1570207D01*
X130753Y1168400D02*
X139700D01*
X79953Y1117600D02*
X130753Y1168400D01*
X215900Y279400D02*
X232020Y295520D01*
Y347374D01*
X224127D02*
X232020D01*
X215900Y355600D02*
X224127Y347374D01*
X135891Y384810D02*
X139700Y381000D01*
X135891Y384810D02*
Y414021D01*
X150877Y547371D02*
Y585400D01*
X139700D02*
X150877D01*
X266700Y914400D02*
Y928680D01*
X255580D02*
X266700D01*
X255580D02*
Y987120D01*
X277820Y1009360D01*
Y1077977D01*
X255525D02*
X277820D01*
X255525D02*
Y1123697D01*
X263653Y1131825D01*
X277877D01*
Y1208024D01*
X266700Y1219200D02*
X277877Y1208024D01*
X43180Y711200D02*
X100839D01*
X195098Y816023D02*
X204780Y825705D01*
Y903280D01*
X215900Y914400D01*
X165100Y698500D02*
X186761Y676839D01*
Y488951D02*
Y676839D01*
X266700Y330200D02*
X274321D01*
X337821Y266701D01*
X354077D01*
Y188977D02*
Y266701D01*
X342900Y177800D02*
X354077Y188977D01*
X215900Y635000D02*
Y642930D01*
X227020Y654050D01*
Y704399D01*
X221743Y709677D02*
X227020Y704399D01*
X201677Y709677D02*
X221743D01*
X190500Y698500D02*
X201677Y709677D01*
X202172Y684772D02*
X215900Y698500D01*
X202172Y623328D02*
Y684772D01*
Y623328D02*
X215900Y609600D01*
X407980Y1204920D02*
X419100Y1193800D01*
X407980Y1204920D02*
Y1230377D01*
X417577Y1239973D01*
Y1345320D01*
X413117Y1349779D02*
X417577Y1345320D01*
X413117Y1349779D02*
Y1354723D01*
X406400Y1361440D02*
X413117Y1354723D01*
X469900Y317500D02*
X481020Y306380D01*
Y211018D02*
Y306380D01*
X458725Y188723D02*
X481020Y211018D01*
X458725Y141733D02*
Y188723D01*
X250580Y1025280D02*
X266700Y1041400D01*
X250580Y923680D02*
Y1025280D01*
Y923680D02*
X255525Y918735D01*
Y798576D02*
Y918735D01*
Y798576D02*
X266700Y787400D01*
Y1092200D02*
X273637Y1085263D01*
X282820D01*
Y1005568D02*
Y1085263D01*
X279156Y1001904D02*
X282820Y1005568D01*
X279156Y850656D02*
Y1001904D01*
X266700Y838200D02*
X279156Y850656D01*
X266700Y1117600D02*
X287821Y1096479D01*
X284156Y996903D02*
X287821Y1000568D01*
X284156Y843830D02*
Y996903D01*
X281180Y840854D02*
X284156Y843830D01*
X281180Y827280D02*
Y840854D01*
X266700Y812800D02*
X281180Y827280D01*
X88139Y1168400D02*
Y1183641D01*
X43180Y1168400D02*
X88139D01*
X86869Y1065785D02*
X94997Y1073913D01*
X86869Y1041400D02*
Y1065785D01*
X43180Y1041400D02*
X86869D01*
X227020Y1128720D02*
Y1206501D01*
X237237Y1191261D02*
X239777Y1193801D01*
X237237Y1068833D02*
Y1191261D01*
X215900Y1117600D02*
X227020Y1128720D01*
X402845Y1282700D02*
X406400D01*
X431800Y1308100D02*
X441080Y1298820D01*
Y1295734D02*
Y1298820D01*
Y1295734D02*
X442977Y1293837D01*
Y1268477D02*
Y1293837D01*
X430277Y1255777D02*
X442977Y1268477D01*
X430277Y1154177D02*
Y1255777D01*
X419100Y1143000D02*
X430277Y1154177D01*
X245579Y1045679D02*
X266700Y1066800D01*
X245579Y918680D02*
Y1045679D01*
Y918680D02*
X247975Y916284D01*
Y780725D02*
Y916284D01*
Y780725D02*
X266700Y762000D01*
X393700Y660400D02*
Y712458D01*
X139700Y585400D02*
X153092Y598792D01*
Y670377D01*
X135891Y687579D02*
X153092Y670377D01*
X128525Y687579D02*
X135891D01*
X128525D02*
Y747015D01*
X141470Y759960D01*
X103887Y1092201D02*
X115063D01*
X90425Y1078739D02*
X103887Y1092201D01*
X79503Y1078739D02*
X90425D01*
X43180Y1066800D02*
X79503D01*
X94190Y1062692D02*
X94997Y1063499D01*
X94190Y1024592D02*
Y1062692D01*
X85598Y1016000D02*
X94190Y1024592D01*
X43180Y1016000D02*
X85598D01*
X161291Y1469391D02*
X177800Y1485900D01*
X161291Y1464057D02*
Y1469391D01*
X128525Y1431291D02*
X161291Y1464057D01*
X128525Y1312927D02*
Y1431291D01*
X96521Y1280923D02*
X128525Y1312927D01*
X96521Y1150874D02*
Y1280923D01*
X88647Y1143000D02*
X96521Y1150874D01*
X43180Y1143000D02*
X88647D01*
X266700Y203200D02*
X277877Y192024D01*
Y163577D02*
Y192024D01*
X233935Y163577D02*
X277877D01*
X198121Y199391D02*
X233935Y163577D01*
X198121Y199391D02*
Y369317D01*
X266700Y585400D02*
X297943Y616643D01*
Y742697D01*
X166301Y1347402D02*
X177800Y1358900D01*
X166301Y1209491D02*
Y1347402D01*
Y1209491D02*
X170821Y1204971D01*
Y1097921D02*
Y1204971D01*
X139700Y1066800D02*
X170821Y1097921D01*
X139700Y698500D02*
X158092Y680108D01*
Y526392D02*
Y680108D01*
X139700Y508000D02*
X158092Y526392D01*
X258643Y618457D02*
X266700Y610400D01*
X258643Y618457D02*
Y625165D01*
X254083Y629725D02*
X258643Y625165D01*
X254083Y629725D02*
Y676760D01*
X257826Y680504D01*
Y693722D01*
X254875Y696673D02*
X257826Y693722D01*
X254875Y696673D02*
Y750175D01*
X266700Y762000D01*
X469900Y609600D02*
Y619273D01*
X466873Y622301D02*
X469900Y619273D01*
X435451Y645574D02*
X444755Y636271D01*
X435451Y645574D02*
Y686610D01*
X438555Y689714D01*
Y701419D01*
X407925Y732049D02*
X438555Y701419D01*
X407925Y732049D02*
Y776225D01*
X419100Y787400D01*
X342900Y1117600D02*
X352342Y1108158D01*
X356618D01*
X365525Y1099251D01*
Y1094381D02*
Y1099251D01*
Y1094381D02*
X370037Y1089870D01*
Y1012880D02*
Y1089870D01*
Y1012880D02*
X373036Y1009880D01*
Y1000591D02*
Y1009880D01*
X365182Y992736D02*
X373036Y1000591D01*
X365182Y835082D02*
Y992736D01*
X342900Y812800D02*
X365182Y835082D01*
X255525Y1204976D02*
X266700Y1193800D01*
X255525Y1255777D02*
X277820D01*
X301753Y1018033D02*
Y1231844D01*
X395038Y1322138D02*
X406400Y1333500D01*
X395038Y1104601D02*
Y1322138D01*
Y1104601D02*
X404760Y1094878D01*
Y1086221D02*
Y1094878D01*
Y1086221D02*
X409957Y1081025D01*
X428380D01*
X430277Y1082922D01*
Y1131825D01*
X407980D02*
X430277D01*
X407980D02*
Y1157280D01*
X419100Y1168400D01*
X399185Y1054101D02*
X425451D01*
X433325Y1061975D01*
Y1077977D01*
X436373Y1081025D01*
X433325Y1137413D02*
X441961Y1128777D01*
X433325Y1137413D02*
Y1255777D01*
X442977Y1265429D01*
X334674Y770227D02*
X342900Y762000D01*
X329621Y770227D02*
X334674D01*
X321461Y778386D02*
X329621Y770227D01*
X321461Y778386D02*
Y954973D01*
X326645Y960157D01*
Y1059924D01*
X336024D01*
X342900Y1066800D01*
X119197Y1046297D02*
X139700Y1066800D01*
X119197Y1011712D02*
Y1046297D01*
X109221Y1001735D02*
X119197Y1011712D01*
X95505Y1013925D02*
X99190Y1017611D01*
Y1025231D01*
X101365Y1027406D01*
Y1061520D01*
X121817Y1081972D01*
Y1100329D01*
X75439D02*
X121817D01*
X43180Y1092200D02*
X75439D01*
X159005Y1038607D02*
Y1057403D01*
X378036Y998201D02*
Y1024637D01*
X370182Y990347D02*
X378036Y998201D01*
X370182Y769009D02*
Y990347D01*
Y769009D02*
X373889Y765303D01*
Y671323D02*
Y765303D01*
X423927Y443485D02*
Y589535D01*
X400305Y419863D02*
X423927Y443485D01*
X400305Y390907D02*
Y419863D01*
X393701Y384303D02*
X400305Y390907D01*
X382580Y384303D02*
X393701D01*
X382580Y306325D02*
Y384303D01*
Y306325D02*
X393700D01*
Y292100D02*
Y306325D01*
Y609600D02*
X404877Y620777D01*
Y649225D01*
X380493D02*
X404877D01*
X380493D02*
Y729489D01*
X385065Y734061D01*
Y970789D01*
X420680Y1350320D02*
Y1449380D01*
Y1350320D02*
X444247D01*
X446025Y1348542D01*
Y1300735D02*
Y1348542D01*
Y1300735D02*
X449581Y1297179D01*
Y1293877D02*
Y1297179D01*
X247586Y591286D02*
X266700Y610400D01*
X247586Y574979D02*
Y591286D01*
X244012Y571406D02*
X247586Y574979D01*
X244012Y399408D02*
Y571406D01*
Y399408D02*
X250580Y392841D01*
Y320920D02*
Y392841D01*
Y320920D02*
X266700Y304800D01*
X175261Y603251D02*
Y641097D01*
X457963Y700533D02*
X470916Y713486D01*
X43180Y889000D02*
X88901D01*
X108205Y869696D01*
Y641605D02*
Y869696D01*
X106173Y639573D02*
X108205Y641605D01*
X106173Y466599D02*
Y639573D01*
Y466599D02*
X107951Y464821D01*
X144781D01*
X232411Y127000D02*
X266700D01*
X176023Y183389D02*
X232411Y127000D01*
X176023Y183389D02*
Y248022D01*
X155821Y268225D02*
X176023Y248022D01*
X155821Y268225D02*
Y395225D01*
X153925Y397121D02*
X155821Y395225D01*
X153925Y397121D02*
Y438263D01*
X168981Y453320D01*
Y483489D01*
X163530Y488941D02*
X168981Y483489D01*
X163530Y488941D02*
Y683561D01*
X152401Y694691D02*
X163530Y683561D01*
X152401Y694691D02*
Y888859D01*
X158821Y895279D01*
Y930029D01*
X149050Y939800D02*
X158821Y930029D01*
X139700Y939800D02*
X149050D01*
X119127Y159767D02*
Y224283D01*
X118365Y225045D02*
X119127Y224283D01*
X118365Y225045D02*
Y434341D01*
X130965Y446941D01*
X152601D01*
X163981Y458320D01*
Y478489D01*
X145645Y496825D02*
X163981Y478489D01*
X128580Y496825D02*
X145645D01*
X128580D02*
Y522280D01*
X139700Y533400D01*
X373889Y615189D02*
X393700Y635000D01*
X373889Y598480D02*
Y615189D01*
X94005Y660400D02*
X101347Y653059D01*
X43180Y660400D02*
X94005D01*
X113285Y602743D02*
Y896621D01*
X131064Y914400D01*
X139700D01*
X342900Y575750D02*
Y584200D01*
X324672Y557521D02*
X342900Y575750D01*
X318779Y557521D02*
X324672D01*
X318779Y458479D02*
Y557521D01*
Y458479D02*
X325812Y451446D01*
Y372688D02*
Y451446D01*
Y372688D02*
X342900Y355600D01*
X310643Y765049D02*
X316485Y759207D01*
Y655067D02*
Y759207D01*
X329693Y576327D02*
Y630937D01*
X313779Y560413D02*
X329693Y576327D01*
X313779Y453479D02*
Y560413D01*
Y453479D02*
X319261Y447997D01*
Y410777D02*
Y447997D01*
X318517Y410033D02*
X319261Y410777D01*
X318517Y338583D02*
Y410033D01*
X297181Y317247D02*
X318517Y338583D01*
X330201Y749301D02*
X341885D01*
X323089Y742189D02*
X330201Y749301D01*
X323089Y647334D02*
Y742189D01*
X318192Y642437D02*
X323089Y647334D01*
X318192Y584827D02*
Y642437D01*
X289561Y556195D02*
X318192Y584827D01*
X289561Y418847D02*
Y556195D01*
X342900Y508000D02*
X343813Y507087D01*
Y483513D02*
Y507087D01*
X342900Y482600D02*
X343813Y483513D01*
X430451Y694611D02*
X432055Y696215D01*
X430451Y638382D02*
Y694611D01*
Y638382D02*
X442723Y626111D01*
X356109Y537465D02*
X363475Y544831D01*
X342900Y533400D02*
Y537465D01*
Y304800D02*
X362205Y324105D01*
Y505332D01*
X370021Y513148D01*
Y552605D01*
X362205Y560421D02*
X370021Y552605D01*
X362205Y560421D02*
Y742696D01*
X342900Y762000D02*
X362205Y742696D01*
X404877Y588011D02*
X409957Y593091D01*
Y695453D01*
X409195Y696215D02*
X409957Y695453D01*
X409195Y696215D02*
Y710185D01*
X380037Y1052323D02*
X397765Y1034595D01*
X380037Y1052323D02*
Y1098752D01*
X377953Y1100837D02*
X380037Y1098752D01*
X377953Y1100837D02*
Y1112267D01*
X364491Y1125729D02*
X377953Y1112267D01*
X364491Y1125729D02*
Y1189483D01*
X345949Y1208025D02*
X364491Y1189483D01*
X331780Y1208025D02*
X345949D01*
X331780D02*
Y1233425D01*
X356109D01*
X369825Y1247141D01*
Y1372673D01*
X364745Y1486155D02*
X379223Y1471677D01*
X364745Y1486155D02*
Y1539241D01*
X374143Y1548639D01*
X393447D01*
X430785Y1511300D01*
X110745Y1014985D02*
X113285Y1017525D01*
Y1051561D01*
X193041Y1001250D02*
Y1050037D01*
X186779Y994989D02*
X193041Y1001250D01*
X186779Y939712D02*
Y994989D01*
Y939712D02*
X196089Y930403D01*
Y827787D02*
Y930403D01*
X188469Y820167D02*
X196089Y827787D01*
X188469Y803403D02*
Y820167D01*
Y803403D02*
X237021Y754851D01*
Y638303D02*
Y754851D01*
X232585Y633867D02*
X237021Y638303D01*
X232585Y590551D02*
Y633867D01*
X227077Y585042D02*
X232585Y590551D01*
X227077Y573025D02*
Y585042D01*
X209551Y573025D02*
X227077D01*
X202439Y580137D02*
X209551Y573025D01*
X202439Y580137D02*
Y612903D01*
X193041Y1167639D02*
Y1287677D01*
X278488Y1373125D01*
X341377D01*
Y1439650D01*
X334750Y1446277D02*
X341377Y1439650D01*
X327661Y1446277D02*
X334750D01*
X393700Y266700D02*
X407623Y280623D01*
Y418235D01*
X431061Y441673D01*
Y604056D01*
X415799Y619318D02*
X431061Y604056D01*
X415799Y619318D02*
Y702819D01*
X43180Y1295400D02*
X75439D01*
X98045Y1318006D01*
X460677Y819913D02*
Y834819D01*
X455677Y814912D02*
X460677Y819913D01*
X455677Y769113D02*
Y814912D01*
X476076Y745824D02*
X477521Y747269D01*
X476076Y703073D02*
Y745824D01*
X458725Y685721D02*
X476076Y703073D01*
X458725Y585725D02*
Y685721D01*
X453645Y580645D02*
X458725Y585725D01*
X453645Y265684D02*
Y580645D01*
Y265684D02*
X469900Y249429D01*
Y241300D02*
Y249429D01*
X128580Y1276152D02*
X135129Y1282701D01*
X128580Y1233480D02*
Y1276152D01*
Y1233480D02*
X139700D01*
Y1219200D02*
Y1233480D01*
X177800Y1485900D02*
X188977Y1474724D01*
Y1449325D02*
Y1474724D01*
X174753Y1449325D02*
X188977D01*
X155821Y1430392D02*
X174753Y1449325D01*
X155821Y1404485D02*
Y1430392D01*
X145035Y1393699D02*
X155821Y1404485D01*
X145035Y1307908D02*
Y1393699D01*
X123580Y1286453D02*
X145035Y1307908D01*
X123580Y1209921D02*
Y1286453D01*
Y1209921D02*
X139700Y1193800D01*
X161301Y1367801D02*
X177800Y1384300D01*
X161301Y1199971D02*
Y1367801D01*
Y1199971D02*
X165821Y1195451D01*
Y1118321D02*
Y1195451D01*
X139700Y1092200D02*
X165821Y1118321D01*
X157481Y1025145D02*
X172261Y1039925D01*
Y1077517D01*
X178055Y1083311D01*
Y1200913D01*
X182627Y1205485D01*
Y1297200D01*
X188977Y1303550D01*
Y1322324D01*
X177800Y1333500D02*
X188977Y1322324D01*
X266700Y660400D02*
Y704851D01*
X278639Y716789D01*
Y798831D01*
X75693Y863600D02*
X98045Y841249D01*
X43180Y863600D02*
X75693D01*
X308779Y428839D02*
X312167Y425451D01*
X308779Y428839D02*
Y565319D01*
X323192Y579732D01*
Y636882D01*
X325121Y638811D01*
X215900Y304800D02*
X227020Y315920D01*
Y341377D01*
X210294D02*
X227020D01*
X204725Y346946D02*
X210294Y341377D01*
X204725Y346946D02*
Y551100D01*
X128017Y580137D02*
Y679705D01*
X129287Y680975D01*
X94235Y735331D02*
Y780796D01*
X87631Y787400D02*
X94235Y780796D01*
X43180Y787400D02*
X87631D01*
X404877Y585725D02*
X416561Y597409D01*
X113793Y1192785D02*
Y1270000D01*
Y1192785D02*
X127001Y1179577D01*
X150820D01*
Y1155447D02*
Y1179577D01*
X129795Y1155447D02*
X150820D01*
X127763Y1153415D02*
X129795Y1155447D01*
X127763Y1075691D02*
Y1153415D01*
X106365Y1054293D02*
X127763Y1075691D01*
X106365Y1019976D02*
Y1054293D01*
X104190Y1017801D02*
X106365Y1019976D01*
X104190Y928165D02*
Y1017801D01*
X102363Y926338D02*
X104190Y928165D01*
X215900Y812800D02*
X227077Y823977D01*
Y928680D01*
X204780D02*
X227077D01*
X204780D02*
Y972639D01*
X232020Y999880D01*
Y1027177D01*
X227077Y1032121D02*
X232020Y1027177D01*
X227077Y1032121D02*
Y1071136D01*
X232020Y1076080D01*
Y1196920D01*
X235101Y1200000D01*
Y1213001D01*
X222099D02*
X235101D01*
X215900Y1219200D02*
X222099Y1213001D01*
X255525Y188976D02*
X266700Y177800D01*
X255525Y188976D02*
Y214377D01*
X279401D01*
X288037Y205741D01*
Y157989D02*
Y205741D01*
X271273Y141225D02*
X288037Y157989D01*
X241555Y141225D02*
X271273D01*
X181103Y201677D02*
X241555Y141225D01*
X181103Y201677D02*
Y276607D01*
X179325Y278385D02*
X181103Y276607D01*
X179325Y278385D02*
Y447803D01*
X193295Y461773D01*
Y679979D01*
X177801Y695473D02*
X193295Y679979D01*
X177801Y695473D02*
Y787401D01*
X173059Y792142D02*
X177801Y787401D01*
X173059Y792142D02*
Y942625D01*
X150483Y965200D02*
X173059Y942625D01*
X139700Y965200D02*
X150483D01*
X114300Y1574000D02*
X127000Y1586700D01*
X114300Y1473200D02*
Y1574000D01*
X127000Y1485900D02*
X139700Y1473200D01*
X127000Y1485900D02*
Y1536700D01*
X342900Y101600D02*
X351847D01*
X367285Y117038D01*
Y500331D01*
X376197Y509244D01*
Y557634D01*
X367285Y566547D02*
X376197Y557634D01*
X367285Y566547D02*
Y758675D01*
X349735Y776225D02*
X367285Y758675D01*
X335225Y776225D02*
X349735D01*
X326461Y784989D02*
X335225Y776225D01*
X326461Y784989D02*
Y949973D01*
X331731Y955243D01*
Y1052577D01*
X350917D01*
X354020Y1055680D01*
Y1074869D01*
X350913Y1077977D02*
X354020Y1074869D01*
X336551Y1077977D02*
X350913D01*
X326780Y1087747D02*
X336551Y1077977D01*
X326780Y1087747D02*
Y1253767D01*
X349320Y1276308D01*
Y1321985D01*
X342901Y1328404D02*
X349320Y1321985D01*
X335296Y1328404D02*
X342901D01*
X330200Y1333500D02*
X335296Y1328404D01*
X393700Y1803400D02*
X405893Y1791208D01*
Y1713993D02*
Y1791208D01*
X393700Y1701800D02*
X405893Y1713993D01*
X150877Y987125D02*
X178642Y1014891D01*
Y1075865D01*
X183139Y1080362D01*
Y1170179D01*
X187707Y1174746D01*
Y1294021D01*
X314562Y1420877D01*
X330200D01*
Y1435100D01*
X255525Y1204976D02*
Y1255777D01*
X277820D02*
X301753Y1231844D01*
X296856Y989481D02*
X301753Y994378D01*
X296856Y944048D02*
Y989481D01*
Y944048D02*
X299975Y940929D01*
Y866903D02*
Y940929D01*
X266700Y381800D02*
X277820Y392920D01*
Y452939D01*
X268225Y462535D02*
X277820Y452939D01*
X180595Y462535D02*
Y480315D01*
X168657Y492253D02*
X180595Y480315D01*
X168657Y492253D02*
Y651511D01*
X170181Y653035D01*
X291339Y698501D02*
Y803911D01*
X299975Y812547D01*
Y866903D01*
X402845Y1108456D02*
X419100Y1092200D01*
X414529Y478029D02*
Y541783D01*
X393700Y457200D02*
X414529Y478029D01*
X342900Y1092200D02*
X353647Y1083004D01*
X359111Y1077540D01*
Y854411D02*
Y1077540D01*
X342900Y838200D02*
X359111Y854411D01*
X215901Y994321D02*
X227020Y1005441D01*
Y1021391D01*
X215900Y1032511D02*
X227020Y1021391D01*
X215900Y1032511D02*
Y1041400D01*
X266700Y558800D02*
X284052D01*
X309627Y584374D01*
Y756667D01*
X301339Y764954D02*
X309627Y756667D01*
X301339Y764954D02*
Y782415D01*
X314961Y796037D01*
X336621Y552521D02*
X342900Y558800D01*
X323779Y552521D02*
X336621D01*
X323779Y463479D02*
Y552521D01*
Y463479D02*
X331725Y455534D01*
Y392176D02*
Y455534D01*
Y392176D02*
X342900Y381000D01*
Y1193800D02*
X354077Y1182624D01*
Y1119379D02*
Y1182624D01*
Y1119379D02*
X370526Y1102930D01*
Y1099381D02*
Y1102930D01*
Y1099381D02*
X375037Y1094870D01*
Y1048635D02*
Y1094870D01*
Y1048635D02*
X387364Y1036308D01*
Y981711D02*
Y1036308D01*
X215900Y1005586D02*
Y1016000D01*
X198375Y988061D02*
X215900Y1005586D01*
X198375Y983489D02*
Y988061D01*
X266700Y356800D02*
X282820Y372920D01*
Y517280D01*
X266700Y533400D02*
X282820Y517280D01*
X292863Y817095D02*
X294283Y818515D01*
Y841530D01*
X291856Y843957D02*
X294283Y841530D01*
X291856Y843957D02*
Y995568D01*
X292863Y996575D01*
Y1054204D01*
X296061Y1057403D01*
Y1213970D01*
X273559Y1236473D02*
X296061Y1213970D01*
X266700Y1236473D02*
Y1244600D01*
X477775Y795529D02*
X489021Y784282D01*
Y559633D02*
Y784282D01*
X477013Y547625D02*
X489021Y559633D01*
X458725Y547625D02*
X477013D01*
X458725D02*
Y573025D01*
X469900Y584200D01*
X437897Y184404D02*
Y279400D01*
Y184404D02*
X444500Y177800D01*
X236983Y953222D02*
X240579Y949625D01*
Y913679D02*
Y949625D01*
Y913679D02*
X242021Y912238D01*
Y631786D02*
Y912238D01*
Y631786D02*
X253643Y620164D01*
Y610498D02*
Y620164D01*
X242585Y599441D02*
X253643Y610498D01*
X242585Y579980D02*
Y599441D01*
X239021Y576416D02*
X242585Y579980D01*
X239021Y573449D02*
Y576416D01*
X224372Y558800D02*
X239021Y573449D01*
X215900Y558800D02*
X224372D01*
X112523Y188977D02*
Y438913D01*
X128525Y454915D01*
X175261Y564135D02*
X181761Y570635D01*
Y672442D01*
X177801Y676403D02*
X181761Y672442D01*
X190500Y723900D02*
Y782909D01*
X178059Y795350D02*
X190500Y782909D01*
X178059Y795350D02*
Y996264D01*
X186183Y1004388D01*
Y1068833D01*
X199645Y1082295D01*
Y1284479D01*
X225045Y1309879D01*
X421387Y201610D02*
Y383018D01*
X407980Y188204D02*
X421387Y201610D01*
X407980Y170633D02*
Y188204D01*
Y170633D02*
X411989Y166625D01*
Y134112D02*
Y166625D01*
Y134112D02*
X469900Y76200D01*
Y533400D02*
X486021Y517280D01*
Y193920D02*
Y517280D01*
X469900Y177800D02*
X486021Y193920D01*
X255580Y367991D02*
X257303Y366269D01*
X255580Y367991D02*
Y399741D01*
X249429Y405893D02*
X255580Y399741D01*
X249429Y405893D02*
Y568604D01*
X252586Y571761D01*
Y588882D01*
X260351Y596647D01*
X269241D01*
X285751Y613157D01*
Y683261D01*
X248667D02*
Y756159D01*
X167895D02*
Y939547D01*
X156465Y950977D02*
X167895Y939547D01*
X128525Y950977D02*
X156465D01*
X128525D02*
Y980441D01*
X150877Y1002793D01*
Y1064007D01*
X165101Y1078231D01*
X238253Y1230377D02*
Y1271271D01*
X246635Y1279653D01*
Y1311403D01*
X265685Y1330453D01*
X354077Y64771D02*
X378461Y40387D01*
X331725Y64771D02*
X354077D01*
X331725D02*
Y115825D01*
X354077D01*
X359157Y120905D01*
Y278870D01*
X345926Y292101D02*
X359157Y278870D01*
X331725Y292101D02*
X345926D01*
X331725D02*
Y330200D01*
X342900D01*
Y988314D02*
Y1016000D01*
X338837Y984251D02*
X342900Y988314D01*
X183060Y915850D02*
X189485Y922275D01*
X183060Y798398D02*
Y915850D01*
Y798398D02*
X232020Y749437D01*
Y647057D02*
Y749437D01*
X227585Y642621D02*
X232020Y647057D01*
X227585Y595885D02*
Y642621D01*
X215900Y584200D02*
X227585Y595885D01*
X215900Y533400D02*
X230990Y518310D01*
Y402405D02*
Y518310D01*
Y402405D02*
X245579Y387816D01*
Y284520D02*
Y387816D01*
Y284520D02*
X263653Y266447D01*
X330454D01*
X342900Y254000D01*
Y508000D02*
X355347Y520447D01*
Y530353D01*
X234443Y581661D02*
X237585Y584803D01*
Y605885D01*
X245364Y613664D01*
X266700Y635000D02*
X277877Y646177D01*
Y695453D01*
X286259Y703835D01*
Y834645D01*
X287783Y836169D01*
X308357Y963169D02*
X313253Y968065D01*
Y1247165D01*
X289307Y1271111D02*
X313253Y1247165D01*
X289307Y1271111D02*
Y1332739D01*
X448565Y237236D02*
X469900Y215900D01*
X448565Y237236D02*
Y612290D01*
X451255Y614980D01*
Y642771D01*
X440691Y653335D02*
X451255Y642771D01*
X440691Y653335D02*
Y684714D01*
X443555Y687579D01*
Y713162D01*
X433325Y723393D02*
X443555Y713162D01*
X455677Y824869D02*
Y856323D01*
X369825Y1497076D02*
X381000Y1485900D01*
X369825Y1497076D02*
Y1524842D01*
X394789D01*
X363036Y513404D02*
Y533400D01*
X355601Y505969D02*
X363036Y513404D01*
X355601Y454407D02*
Y505969D01*
X127001Y471425D02*
X157481D01*
X113285Y485141D02*
X127001Y471425D01*
X113285Y485141D02*
Y519431D01*
X91187Y635000D02*
X99315Y626873D01*
X43180Y635000D02*
X91187D01*
X469900Y558800D02*
X484021Y572921D01*
Y771524D01*
X477775Y777770D02*
X484021Y771524D01*
X462281Y718059D02*
Y812650D01*
X474981Y825350D01*
Y836931D01*
X342647Y1278891D02*
Y1314197D01*
X329185Y1265429D02*
X342647Y1278891D01*
X150877Y164847D02*
Y265120D01*
X145289Y273812D02*
X150877Y265120D01*
X139700Y279400D02*
X145289Y273812D01*
X147321Y395676D02*
Y410465D01*
Y395676D02*
X150820Y392177D01*
Y341320D02*
Y392177D01*
X139700Y330200D02*
X150820Y341320D01*
X449835Y664185D02*
Y722123D01*
X455677Y727965D01*
Y750824D01*
X444500Y762000D02*
X455677Y750824D01*
X191780Y976983D02*
X197983Y970780D01*
X191780Y976983D02*
Y991950D01*
X204725Y1004895D01*
Y1157225D01*
X215900Y1168400D01*
X397003Y1082041D02*
Y1087121D01*
Y1082041D02*
X404623Y1074421D01*
X411480D01*
X419100Y1066800D01*
X244349Y1120649D02*
X266700Y1143000D01*
X244349Y1058673D02*
Y1120649D01*
X237021Y1051345D02*
X244349Y1058673D01*
X237021Y970525D02*
Y1051345D01*
X230482Y963986D02*
X237021Y970525D01*
X230482Y937618D02*
Y963986D01*
Y937618D02*
X235447Y932654D01*
Y899161D02*
Y932654D01*
X289561Y1071373D02*
Y1094740D01*
X390037Y1066908D02*
X392685Y1064261D01*
X390037Y1066908D02*
Y1129740D01*
X387953Y1131825D02*
X390037Y1129740D01*
X455677Y1150875D02*
X460620Y1145931D01*
Y1075945D02*
Y1145931D01*
X455620Y1070944D02*
X460620Y1075945D01*
X455620Y1004825D02*
Y1070944D01*
X412751Y1004825D02*
X455620D01*
X405893Y1011683D02*
X412751Y1004825D01*
X405893Y1011683D02*
Y1022605D01*
X331725Y798576D02*
X342900Y787400D01*
X331725Y798576D02*
Y928680D01*
X348616D01*
X354111Y934175D01*
Y1030189D01*
X342900Y1041400D02*
X354111Y1030189D01*
X365036Y1007835D02*
X366523Y1006349D01*
X365036Y1007835D02*
Y1084870D01*
X354077Y1095829D02*
X365036Y1084870D01*
X354077Y1095829D02*
Y1102107D01*
X348489D02*
X354077D01*
X344171Y1106425D02*
X348489Y1102107D01*
X331780Y1106425D02*
X344171D01*
X331780D02*
Y1143000D01*
X342900D01*
Y1219200D02*
X381104Y1180996D01*
Y1125751D02*
Y1180996D01*
Y1125751D02*
X385037Y1121818D01*
Y1056725D02*
Y1121818D01*
Y1056725D02*
X413062Y1028701D01*
X431800D01*
X444500Y1016000D01*
X402845Y872745D02*
X419100Y889000D01*
X425451Y626586D02*
Y704089D01*
Y626586D02*
X443127Y608909D01*
Y429792D02*
Y608909D01*
X412624Y399289D02*
X443127Y429792D01*
X412624Y219020D02*
Y399289D01*
X382580Y188977D02*
X412624Y219020D01*
X382580Y160473D02*
Y188977D01*
Y160473D02*
X404877Y138177D01*
Y40641D02*
Y138177D01*
X398019Y33783D02*
X404877Y40641D01*
X342901Y33783D02*
X398019D01*
X326645Y50039D02*
X342901Y33783D01*
X326645Y50039D02*
Y201423D01*
X308357Y219711D02*
X326645Y201423D01*
X263653Y219711D02*
X308357D01*
X243587Y239777D02*
X263653Y219711D01*
X208789Y239777D02*
X243587D01*
X204725Y243841D02*
X208789Y239777D01*
X204725Y243841D02*
Y319025D01*
X215900Y330200D01*
X248921Y1230377D02*
Y1260857D01*
X292490D01*
X308253Y1245093D01*
Y985521D02*
Y1245093D01*
X301856Y979124D02*
X308253Y985521D01*
X301856Y946659D02*
Y979124D01*
Y946659D02*
X306579Y941936D01*
Y803657D02*
Y941936D01*
X296339Y793417D02*
X306579Y803657D01*
X296339Y762883D02*
Y793417D01*
Y762883D02*
X304547Y754675D01*
Y597453D02*
Y754675D01*
X277070Y569977D02*
X304547Y597453D01*
X261680Y569977D02*
X277070D01*
X255525Y563822D02*
X261680Y569977D01*
X255525Y417576D02*
Y563822D01*
Y417576D02*
X266700Y406400D01*
X74422Y1117600D02*
X79953D01*
X79503Y1066800D02*
Y1078739D01*
X75439Y1092200D02*
Y1100329D01*
X404877Y496825D02*
Y585725D01*
Y588011D01*
X301753Y994378D02*
Y1018033D01*
X402845Y1108456D02*
Y1182625D01*
Y1282700D01*
X442977Y1265429D02*
Y1268477D01*
X342900Y537465D02*
X356109D01*
X266700Y1236473D02*
X273559D01*
X287821Y1000568D02*
Y1096479D01*
X289561Y1094740D01*
X438789Y824869D02*
X455677D01*
X433325Y819405D02*
X438789Y824869D01*
X433325Y723393D02*
Y819405D01*
X397765Y721615D02*
X409195Y710185D01*
X402845Y726695D02*
X425451Y704089D01*
X397765Y721615D02*
Y1034595D01*
X402845Y726695D02*
Y872745D01*
X109221Y922021D02*
Y1001735D01*
X102870Y915670D02*
X109221Y922021D01*
X95505Y923036D02*
X102870Y915670D01*
X95505Y923036D02*
Y1013925D01*
X304800Y1469137D02*
X327661Y1446277D01*
X368300Y1562100D02*
X381000D01*
X355600Y1549400D02*
X368300Y1562100D01*
X304800Y1469137D02*
Y1536700D01*
X98045Y1318006D02*
Y1596645D01*
X114300Y1612900D01*
X470916Y713486D02*
Y810006D01*
X441961Y1128777D02*
X455620D01*
Y1081025D02*
Y1128777D01*
X436373Y1081025D02*
X455620D01*
X473621Y874268D02*
Y1373214D01*
X455677Y856323D02*
X473621Y874268D01*
X465075Y1471677D02*
X478621Y1458130D01*
Y852764D02*
Y1458130D01*
X460677Y834819D02*
X478621Y852764D01*
X466345Y1525525D02*
X485061Y1506808D01*
Y824151D02*
Y1506808D01*
X470916Y810006D02*
X485061Y824151D01*
X457200Y1854200D02*
X490061Y1821339D01*
X479656Y809245D02*
X490061Y819650D01*
Y1821339D01*
X381000Y1361440D02*
X408940Y1389380D01*
Y1484560D01*
X381000Y1512500D02*
X408940Y1484560D01*
X369825Y1372673D02*
X396240Y1399088D01*
Y1471677D01*
X379223D02*
X396240D01*
X429260Y1389380D02*
X457200Y1361440D01*
X429260Y1389380D02*
Y1490371D01*
X394789Y1524842D02*
X429260Y1490371D01*
X439420Y1407415D02*
X473621Y1373214D01*
X439420Y1407415D02*
Y1529080D01*
X381000Y1587500D02*
X439420Y1529080D01*
X446080Y1471677D02*
X465075D01*
X446080D02*
Y1612900D01*
D13*
X139700Y1422400D02*
D03*
Y1473200D02*
D03*
X114300D02*
D03*
Y1422400D02*
D03*
X368300Y1854200D02*
D03*
Y1803400D02*
D03*
X393700D02*
D03*
Y1854200D02*
D03*
X139700Y698500D02*
D03*
Y723900D02*
D03*
X165100Y698500D02*
D03*
Y723900D02*
D03*
X190500Y431800D02*
D03*
X215900D02*
D03*
X165100D02*
D03*
X139700D02*
D03*
X457200Y1803400D02*
D03*
X431800D02*
D03*
X342900Y1193800D02*
D03*
Y1041400D02*
D03*
Y1117600D02*
D03*
X266700Y1193800D02*
D03*
Y1041400D02*
D03*
Y1117600D02*
D03*
X342900Y1219200D02*
D03*
Y1244600D02*
D03*
Y1143000D02*
D03*
Y1168400D02*
D03*
Y1066800D02*
D03*
Y1092200D02*
D03*
Y1016000D02*
D03*
X266700Y1219200D02*
D03*
Y1143000D02*
D03*
Y1168400D02*
D03*
Y1066800D02*
D03*
Y1092200D02*
D03*
Y1016000D02*
D03*
X457200Y1651000D02*
D03*
X431800D02*
D03*
X368300D02*
D03*
X393700D02*
D03*
X431800Y1854200D02*
D03*
X457200D02*
D03*
X368300Y1701800D02*
D03*
X393700D02*
D03*
X190500Y723900D02*
D03*
Y698500D02*
D03*
X215900Y723900D02*
D03*
Y698500D02*
D03*
X406400Y1361440D02*
D03*
X381000D02*
D03*
X431800D02*
D03*
X457200D02*
D03*
X406400Y1333500D02*
D03*
X381000D02*
D03*
X406400Y1282700D02*
D03*
X381000D02*
D03*
X406400Y1308100D02*
D03*
X381000D02*
D03*
X431800Y1333500D02*
D03*
X457200D02*
D03*
X431800Y1308100D02*
D03*
X457200D02*
D03*
X431800Y1282700D02*
D03*
X457200D02*
D03*
X266700Y762000D02*
D03*
Y812800D02*
D03*
Y787400D02*
D03*
Y736600D02*
D03*
Y838200D02*
D03*
Y889000D02*
D03*
Y863600D02*
D03*
Y939800D02*
D03*
Y914400D02*
D03*
X342900Y736600D02*
D03*
Y762000D02*
D03*
Y812800D02*
D03*
Y787400D02*
D03*
Y863600D02*
D03*
Y838200D02*
D03*
Y914400D02*
D03*
Y889000D02*
D03*
Y965200D02*
D03*
Y939800D02*
D03*
X393700Y177800D02*
D03*
X419100D02*
D03*
X444500D02*
D03*
X469900D02*
D03*
X393700Y50800D02*
D03*
Y76200D02*
D03*
Y101600D02*
D03*
X469900Y50800D02*
D03*
Y76200D02*
D03*
Y101600D02*
D03*
Y127000D02*
D03*
X266700Y76200D02*
D03*
Y101600D02*
D03*
Y50800D02*
D03*
Y127000D02*
D03*
Y152400D02*
D03*
Y177800D02*
D03*
X342900Y50800D02*
D03*
Y76200D02*
D03*
Y127000D02*
D03*
Y101600D02*
D03*
Y152400D02*
D03*
Y203200D02*
D03*
Y177800D02*
D03*
X139700Y254000D02*
D03*
Y279400D02*
D03*
Y228600D02*
D03*
Y304800D02*
D03*
Y330200D02*
D03*
Y355600D02*
D03*
X215900Y228600D02*
D03*
Y254000D02*
D03*
Y304800D02*
D03*
Y279400D02*
D03*
Y330200D02*
D03*
Y381000D02*
D03*
Y355600D02*
D03*
X177800Y1308100D02*
D03*
Y1358900D02*
D03*
Y1333500D02*
D03*
Y1384300D02*
D03*
Y1409700D02*
D03*
Y1460500D02*
D03*
Y1435100D02*
D03*
Y1511300D02*
D03*
Y1485900D02*
D03*
Y1562100D02*
D03*
Y1536700D02*
D03*
X330200Y1333500D02*
D03*
Y1308100D02*
D03*
Y1358900D02*
D03*
Y1409700D02*
D03*
Y1384300D02*
D03*
Y1460500D02*
D03*
Y1435100D02*
D03*
Y1511300D02*
D03*
Y1536700D02*
D03*
Y1485900D02*
D03*
Y1587500D02*
D03*
Y1562100D02*
D03*
X393700Y241300D02*
D03*
Y266700D02*
D03*
Y215900D02*
D03*
Y292100D02*
D03*
Y317500D02*
D03*
Y342900D02*
D03*
X469900Y215900D02*
D03*
Y241300D02*
D03*
Y292100D02*
D03*
Y266700D02*
D03*
Y317500D02*
D03*
Y368300D02*
D03*
Y342900D02*
D03*
X266700Y279400D02*
D03*
Y304800D02*
D03*
Y254000D02*
D03*
Y330200D02*
D03*
Y381800D02*
D03*
Y356800D02*
D03*
Y406400D02*
D03*
X342900Y254000D02*
D03*
Y279400D02*
D03*
Y304800D02*
D03*
Y355600D02*
D03*
Y330200D02*
D03*
Y381000D02*
D03*
Y431800D02*
D03*
Y406400D02*
D03*
X139700Y508000D02*
D03*
Y533400D02*
D03*
Y482600D02*
D03*
Y558800D02*
D03*
Y610400D02*
D03*
Y585400D02*
D03*
Y635000D02*
D03*
X215900Y482600D02*
D03*
Y508000D02*
D03*
Y533400D02*
D03*
Y584200D02*
D03*
Y558800D02*
D03*
Y609600D02*
D03*
Y660400D02*
D03*
Y635000D02*
D03*
X266700Y508000D02*
D03*
Y533400D02*
D03*
Y482600D02*
D03*
Y558800D02*
D03*
Y610400D02*
D03*
Y585400D02*
D03*
Y635000D02*
D03*
X342900Y482600D02*
D03*
Y508000D02*
D03*
Y533400D02*
D03*
Y584200D02*
D03*
Y558800D02*
D03*
Y609600D02*
D03*
Y660400D02*
D03*
Y635000D02*
D03*
X393700Y457200D02*
D03*
Y508000D02*
D03*
Y482600D02*
D03*
Y431800D02*
D03*
Y533400D02*
D03*
Y584200D02*
D03*
Y558800D02*
D03*
Y635000D02*
D03*
Y609600D02*
D03*
X469900Y431800D02*
D03*
Y457200D02*
D03*
Y508000D02*
D03*
Y482600D02*
D03*
Y558800D02*
D03*
Y533400D02*
D03*
Y609600D02*
D03*
Y584200D02*
D03*
Y660400D02*
D03*
Y635000D02*
D03*
X139700Y838200D02*
D03*
Y863600D02*
D03*
Y812800D02*
D03*
Y889000D02*
D03*
Y914400D02*
D03*
Y939800D02*
D03*
X215900Y812800D02*
D03*
Y838200D02*
D03*
Y889000D02*
D03*
Y863600D02*
D03*
Y914400D02*
D03*
Y965200D02*
D03*
Y939800D02*
D03*
X139700Y1041400D02*
D03*
Y1092200D02*
D03*
Y1066800D02*
D03*
Y1016000D02*
D03*
Y1117600D02*
D03*
Y1168400D02*
D03*
Y1143000D02*
D03*
Y1219200D02*
D03*
Y1193800D02*
D03*
X215900Y1016000D02*
D03*
Y1041400D02*
D03*
Y1092200D02*
D03*
Y1066800D02*
D03*
Y1143000D02*
D03*
Y1117600D02*
D03*
Y1193800D02*
D03*
Y1168400D02*
D03*
Y1244600D02*
D03*
Y1219200D02*
D03*
X381000Y1435100D02*
D03*
Y1460500D02*
D03*
Y1409700D02*
D03*
Y1485900D02*
D03*
Y1537500D02*
D03*
Y1512500D02*
D03*
Y1562100D02*
D03*
X457200Y1409700D02*
D03*
Y1435100D02*
D03*
Y1460500D02*
D03*
Y1511300D02*
D03*
Y1485900D02*
D03*
Y1536700D02*
D03*
Y1587500D02*
D03*
Y1562100D02*
D03*
X419100Y762000D02*
D03*
Y736600D02*
D03*
Y787400D02*
D03*
Y812800D02*
D03*
Y838200D02*
D03*
Y939800D02*
D03*
Y863600D02*
D03*
Y914400D02*
D03*
Y965200D02*
D03*
Y990600D02*
D03*
Y1041400D02*
D03*
Y1066800D02*
D03*
Y1143000D02*
D03*
Y1092200D02*
D03*
Y1117600D02*
D03*
Y1193800D02*
D03*
X444500Y787400D02*
D03*
Y736600D02*
D03*
Y762000D02*
D03*
X419100Y889000D02*
D03*
X444500Y812800D02*
D03*
Y838200D02*
D03*
Y914400D02*
D03*
Y863600D02*
D03*
Y889000D02*
D03*
Y939800D02*
D03*
Y965200D02*
D03*
X419100Y1016000D02*
D03*
X444500Y990600D02*
D03*
Y1016000D02*
D03*
X419100Y1168400D02*
D03*
X444500Y1041400D02*
D03*
Y1066800D02*
D03*
Y1143000D02*
D03*
Y1092200D02*
D03*
Y1117600D02*
D03*
Y1219200D02*
D03*
Y1168400D02*
D03*
Y1193800D02*
D03*
D14*
X266700Y1244600D02*
D03*
Y965200D02*
D03*
X393700Y127000D02*
D03*
X266700Y203200D02*
D03*
X139700Y381000D02*
D03*
X177800Y1587500D02*
D03*
X393700Y368300D02*
D03*
X266700Y431800D02*
D03*
X139700Y660400D02*
D03*
X266700D02*
D03*
X393700D02*
D03*
X139700Y965200D02*
D03*
Y1244600D02*
D03*
X381000Y1587500D02*
D03*
X419100Y1219200D02*
D03*
D15*
X127000Y1586700D02*
D03*
Y1536700D02*
D03*
X393700Y1752600D02*
D03*
D16*
X368300D02*
D03*
D17*
X215900Y1853540D02*
D03*
Y1653540D02*
D03*
D18*
X383795Y594869D02*
D03*
X84075Y1282193D02*
D03*
X96013Y604521D02*
D03*
X135891Y414021D02*
D03*
X150877Y547371D02*
D03*
X100839Y711200D02*
D03*
X195098Y816023D02*
D03*
X186761Y488951D02*
D03*
X458725Y141733D02*
D03*
X115825Y965200D02*
D03*
X88139Y1183641D02*
D03*
X94997Y1073913D02*
D03*
X330201Y703073D02*
D03*
X239777Y1193801D02*
D03*
X237237Y1068833D02*
D03*
X227020Y1206501D02*
D03*
X402845Y1182625D02*
D03*
X212599Y1275589D02*
D03*
X393700Y712458D02*
D03*
X141470Y759960D02*
D03*
X115063Y1092201D02*
D03*
X94997Y1063499D02*
D03*
X198121Y369317D02*
D03*
X297943Y742697D02*
D03*
X466873Y622301D02*
D03*
X444755Y636271D02*
D03*
X319754Y977773D02*
D03*
X479656Y809245D02*
D03*
X301753Y1018033D02*
D03*
X399185Y1054101D02*
D03*
X159005Y1057403D02*
D03*
Y1038607D02*
D03*
X378036Y1024637D02*
D03*
X373889Y671323D02*
D03*
X423927Y589535D02*
D03*
X385065Y970789D02*
D03*
X420680Y1449380D02*
D03*
X449581Y1293877D02*
D03*
X175261Y603251D02*
D03*
Y641097D02*
D03*
X457963Y700533D02*
D03*
X466345Y1525525D02*
D03*
X144781Y464821D02*
D03*
X119127Y159767D02*
D03*
X373889Y598480D02*
D03*
X101347Y653059D02*
D03*
X113285Y602743D02*
D03*
X310643Y765049D02*
D03*
X316485Y655067D02*
D03*
X329693Y630937D02*
D03*
X297181Y317247D02*
D03*
X341885Y749301D02*
D03*
X289561Y418847D02*
D03*
X432055Y696215D02*
D03*
X442723Y626111D02*
D03*
X363475Y544831D02*
D03*
X404877Y496825D02*
D03*
X430785Y1511300D02*
D03*
X215900Y405131D02*
D03*
X376683Y983743D02*
D03*
Y774193D02*
D03*
X347727Y712265D02*
D03*
X361189Y1346201D02*
D03*
X110745Y1014985D02*
D03*
X113285Y1051561D02*
D03*
X193041Y1050037D02*
D03*
X202439Y612903D02*
D03*
X193041Y1167639D02*
D03*
X415799Y702819D02*
D03*
X455677Y769113D02*
D03*
X477521Y747269D02*
D03*
X135129Y1282701D02*
D03*
X157481Y1025145D02*
D03*
X176023Y1209549D02*
D03*
X278639Y798831D02*
D03*
X98045Y841249D02*
D03*
X312167Y425451D02*
D03*
X325121Y638811D02*
D03*
X204725Y551100D02*
D03*
X128017Y580137D02*
D03*
X129287Y680975D02*
D03*
X94235Y735331D02*
D03*
X416561Y597409D02*
D03*
X113793Y1270000D02*
D03*
X102363Y926338D02*
D03*
X150877Y987125D02*
D03*
X299975Y866903D02*
D03*
X268225Y462535D02*
D03*
X180595D02*
D03*
X170181Y653035D02*
D03*
X291339Y698501D02*
D03*
X414529Y541783D02*
D03*
X215901Y994321D02*
D03*
X314961Y796037D02*
D03*
X387364Y981711D02*
D03*
X198375Y983489D02*
D03*
X292863Y817095D02*
D03*
X477775Y795529D02*
D03*
X437897Y279400D02*
D03*
X236983Y953222D02*
D03*
X112523Y188977D02*
D03*
X128525Y454915D02*
D03*
X175261Y564135D02*
D03*
X177801Y676403D02*
D03*
X225045Y1309879D02*
D03*
X421387Y383018D02*
D03*
X257303Y366269D02*
D03*
X285751Y683261D02*
D03*
X248667D02*
D03*
Y756159D02*
D03*
X167895D02*
D03*
X165101Y1078231D02*
D03*
X238253Y1230377D02*
D03*
X265685Y1330453D02*
D03*
X378461Y40387D02*
D03*
X338837Y984251D02*
D03*
X189485Y922275D02*
D03*
X355347Y530353D02*
D03*
X234443Y581661D02*
D03*
X245364Y613664D02*
D03*
X287783Y836169D02*
D03*
X308357Y963169D02*
D03*
X289307Y1332739D02*
D03*
X363036Y533400D02*
D03*
X355601Y454407D02*
D03*
X157481Y471425D02*
D03*
X113285Y519431D02*
D03*
X99315Y626873D02*
D03*
X477775Y777770D02*
D03*
X462281Y718059D02*
D03*
X474981Y836931D02*
D03*
X342647Y1314197D02*
D03*
X329185Y1265429D02*
D03*
X150877Y164847D02*
D03*
X147321Y410465D02*
D03*
X449835Y664185D02*
D03*
X197983Y970780D02*
D03*
X397003Y1087121D02*
D03*
X235447Y899161D02*
D03*
X289561Y1071373D02*
D03*
X392685Y1064261D02*
D03*
X387953Y1131825D02*
D03*
X455677Y1150875D02*
D03*
X405893Y1022605D02*
D03*
X366523Y1006349D02*
D03*
X248921Y1230377D02*
D03*
X93980Y558800D02*
D03*
X411480Y825500D02*
D03*
X355600Y1549400D02*
D03*
X304800Y1536700D02*
D03*
X114300Y1612900D02*
D03*
X446080D02*
D03*
M02*
