G04 Layer_Color=65535*
%FSLAX44Y44*%
%MOMM*%
G71*
G01*
G75*
%ADD19C,0.2000*%
%ADD20C,0.1270*%
%ADD21C,0.5000*%
%ADD22C,0.4000*%
%ADD23C,0.2540*%
G36*
X295047Y1765298D02*
X295354Y1762967D01*
X296363Y1760530D01*
X297969Y1758438D01*
X300062Y1756832D01*
X302498Y1755822D01*
X305114Y1755478D01*
X307729Y1755822D01*
X310166Y1756832D01*
X311101Y1757549D01*
X311178Y1757517D01*
X309381Y1754154D01*
X306882Y1751110D01*
X303838Y1748612D01*
X300365Y1746755D01*
X296597Y1745612D01*
X292677Y1745226D01*
X292129Y1745280D01*
X292130Y1745330D01*
X292100Y1765300D01*
X295047Y1765298D01*
D02*
G37*
G36*
X296917Y1784998D02*
X300699Y1783851D01*
X304184Y1781988D01*
X307239Y1779481D01*
X309746Y1776426D01*
X311404Y1773324D01*
X311351Y1773302D01*
X310451Y1773993D01*
X307968Y1775021D01*
X305304Y1775372D01*
X302639Y1775021D01*
X300156Y1773993D01*
X298025Y1772357D01*
X296389Y1770225D01*
X295360Y1767742D01*
X295039Y1765301D01*
X292100Y1765300D01*
X292130Y1785270D01*
X292129Y1785301D01*
X292985Y1785385D01*
X296917Y1784998D01*
D02*
G37*
D19*
X378460Y1295400D02*
G03*
X378460Y1295400I-10160J0D01*
G01*
X342900Y1305560D02*
G03*
X342900Y1285240I0J-10160D01*
G01*
X378460Y1320800D02*
G03*
X378460Y1320800I-10160J0D01*
G01*
X342900Y1330960D02*
G03*
X342900Y1310640I0J-10160D01*
G01*
X378460Y1346200D02*
G03*
X378460Y1346200I-10160J0D01*
G01*
X342900Y1356360D02*
G03*
X342900Y1336040I0J-10160D01*
G01*
X302260Y1320800D02*
G03*
X302260Y1320800I-10160J0D01*
G01*
X317500Y1310640D02*
G03*
X317500Y1330960I0J10160D01*
G01*
X302260Y1295400D02*
G03*
X302260Y1295400I-10160J0D01*
G01*
X317500Y1285240D02*
G03*
X317500Y1305560I0J10160D01*
G01*
X302260Y1346200D02*
G03*
X302260Y1346200I-10160J0D01*
G01*
X317500Y1336040D02*
G03*
X317500Y1356360I0J10160D01*
G01*
X378460Y1374140D02*
G03*
X378460Y1374140I-10160J0D01*
G01*
X342900Y1384300D02*
G03*
X342900Y1363980I0J-10160D01*
G01*
X302260Y1374140D02*
G03*
X302260Y1374140I-10160J0D01*
G01*
X317500Y1363980D02*
G03*
X317500Y1384300I0J10160D01*
G01*
X137160Y711200D02*
G03*
X137160Y711200I-10160J0D01*
G01*
Y736600D02*
G03*
X116840Y736600I-10160J0D01*
G01*
X111760Y711200D02*
G03*
X111760Y711200I-10160J0D01*
G01*
Y736600D02*
G03*
X91440Y736600I-10160J0D01*
G01*
X314960Y1714500D02*
G03*
X314960Y1714500I-10160J0D01*
G01*
X378460Y1866900D02*
G03*
X378460Y1866900I-10160J0D01*
G01*
X342900Y1877060D02*
G03*
X342900Y1856740I0J-10160D01*
G01*
X314960Y1663700D02*
G03*
X314960Y1663700I-10160J0D01*
G01*
X279400Y1673860D02*
G03*
X279400Y1653540I0J-10160D01*
G01*
X353060Y1663700D02*
G03*
X353060Y1663700I-10160J0D01*
G01*
X368300Y1653540D02*
G03*
X368300Y1673860I0J10160D01*
G01*
X317900Y1602540D02*
G03*
X342900Y1602540I12500J0D01*
G01*
X11100Y1542400D02*
G03*
X65100Y1542400I27000J0D01*
G01*
Y1606400D02*
G03*
X11100Y1606400I-27000J0D01*
G01*
X140500Y1602540D02*
G03*
X190500Y1602540I25000J0D01*
G01*
X203600Y1259640D02*
G03*
X228600Y1259640I12500J0D01*
G01*
X76600D02*
G03*
X101600Y1259640I12500J0D01*
G01*
X76600Y980240D02*
G03*
X101600Y980240I12500J0D01*
G01*
X203600D02*
G03*
X228600Y980240I12500J0D01*
G01*
X330600Y675440D02*
G03*
X355600Y675440I12500J0D01*
G01*
X203600D02*
G03*
X228600Y675440I12500J0D01*
G01*
X76600D02*
G03*
X101600Y675440I12500J0D01*
G01*
X378460Y1816100D02*
G03*
X378460Y1816100I-10160J0D01*
G01*
X86360Y444500D02*
G03*
X86360Y444500I-10160J0D01*
G01*
X111760D02*
G03*
X111760Y444500I-10160J0D01*
G01*
X86360Y711200D02*
G03*
X86360Y711200I-10160J0D01*
G01*
X60960D02*
G03*
X60960Y711200I-10160J0D01*
G01*
X365760Y190500D02*
G03*
X365760Y190500I-10160J0D01*
G01*
X340360D02*
G03*
X340360Y190500I-10160J0D01*
G01*
X330600Y142040D02*
G03*
X355600Y142040I12500J0D01*
G01*
X203600Y218240D02*
G03*
X228600Y218240I12500J0D01*
G01*
X330600Y383340D02*
G03*
X355600Y383340I12500J0D01*
G01*
X203600Y446840D02*
G03*
X228600Y446840I12500J0D01*
G01*
X76600Y396040D02*
G03*
X101600Y396040I12500J0D01*
G01*
X342900Y1305560D02*
X368300D01*
X342900Y1285240D02*
X368300D01*
X342900Y1330960D02*
X368300D01*
X342900Y1310640D02*
X368300D01*
X342900Y1356360D02*
X368300D01*
X342900Y1336040D02*
X368300D01*
X292100Y1310640D02*
X317500D01*
X292100Y1330960D02*
X317500D01*
X292100Y1285240D02*
X317500D01*
X292100Y1305560D02*
X317500D01*
X292100Y1336040D02*
X317500D01*
X292100Y1356360D02*
X317500D01*
X342900Y1384300D02*
X368300D01*
X342900Y1363980D02*
X368300D01*
X292100D02*
X317500D01*
X292100Y1384300D02*
X317500D01*
X137160Y711200D02*
Y736600D01*
X116840Y711200D02*
Y736600D01*
X111760Y711200D02*
Y736600D01*
X91440Y711200D02*
Y736600D01*
X342900Y1877060D02*
X368300D01*
X342900Y1856740D02*
X368300D01*
X279400Y1673860D02*
X304800D01*
X279400Y1653540D02*
X304800D01*
X342900D02*
X368300D01*
X342900Y1673860D02*
X368300D01*
X342900Y1602540D02*
Y1615040D01*
X307340Y1407160D02*
Y1615440D01*
X317900Y1602540D02*
Y1615040D01*
X307340Y1407160D02*
X353060D01*
Y1615440D01*
X307340D02*
X353060D01*
X65100Y1542400D02*
Y1606400D01*
X11100Y1542400D02*
Y1606400D01*
X140500Y1602540D02*
Y1615040D01*
X190500Y1602540D02*
Y1615040D01*
X104140Y1305560D02*
Y1615440D01*
X226060Y1305560D02*
Y1615440D01*
X104140Y1305560D02*
X226060D01*
X104140Y1615440D02*
X226060D01*
X193040Y1013460D02*
Y1272540D01*
Y1013460D02*
X238760D01*
X228600Y1259640D02*
Y1272140D01*
X238760Y1013460D02*
Y1272540D01*
X203600Y1259640D02*
Y1272140D01*
X193040Y1272540D02*
X238760D01*
X66040Y1013460D02*
Y1272540D01*
Y1013460D02*
X111760D01*
X101600Y1259640D02*
Y1272140D01*
X111760Y1013460D02*
Y1272540D01*
X76600Y1259640D02*
Y1272140D01*
X66040Y1272540D02*
X111760D01*
X66040Y993140D02*
X111760D01*
X66040Y810260D02*
Y993140D01*
Y810260D02*
X111760D01*
X76600Y980240D02*
Y992740D01*
X111760Y810260D02*
Y993140D01*
X101600Y980240D02*
Y992740D01*
X193040Y734060D02*
Y993140D01*
Y734060D02*
X238760D01*
X228600Y980240D02*
Y992740D01*
X238760Y734060D02*
Y993140D01*
X203600Y980240D02*
Y992740D01*
X193040Y993140D02*
X238760D01*
X320040Y429260D02*
Y688340D01*
Y429260D02*
X365760D01*
X355600Y675440D02*
Y687940D01*
X365760Y429260D02*
Y688340D01*
X330600Y675440D02*
Y687940D01*
X320040Y688340D02*
X365760D01*
X228600Y675440D02*
Y687940D01*
X193040Y480060D02*
Y688340D01*
X203600Y675440D02*
Y687940D01*
X193040Y480060D02*
X238760D01*
Y688340D01*
X193040D02*
X238760D01*
X66040D02*
X111760D01*
Y480060D02*
Y688340D01*
X66040Y480060D02*
X111760D01*
X76600Y675440D02*
Y687940D01*
X66040Y480060D02*
Y688340D01*
X101600Y675440D02*
Y687940D01*
X304800Y1844040D02*
Y1853800D01*
X294640Y1844040D02*
X314960D01*
X304800Y1828800D02*
Y1838560D01*
X294640D02*
X314960D01*
X279400Y1829200D02*
Y1838960D01*
X269240D02*
X289560D01*
X279400Y1844440D02*
Y1854200D01*
X269240Y1844440D02*
X289560D01*
X25400Y1448200D02*
Y1457960D01*
X15240D02*
X35560D01*
X25400Y1463440D02*
Y1473200D01*
X15240Y1463440D02*
X35560D01*
X40640D02*
X60960D01*
X50800D02*
Y1473200D01*
X40640Y1457960D02*
X60960D01*
X50800Y1448200D02*
Y1457960D01*
X320040Y154940D02*
X365760D01*
X320040Y50800D02*
Y154940D01*
Y50800D02*
X365760D01*
X330600Y142040D02*
Y154540D01*
X365760Y50800D02*
Y154940D01*
X355600Y142040D02*
Y154540D01*
X193040Y231140D02*
X238760D01*
X193040Y48260D02*
Y231140D01*
Y48260D02*
X238760D01*
X203600Y218240D02*
Y230740D01*
X238760Y48260D02*
Y231140D01*
X228600Y218240D02*
Y230740D01*
X320040Y396240D02*
X365760D01*
X320040Y213360D02*
Y396240D01*
Y213360D02*
X365760D01*
X330600Y383340D02*
Y395840D01*
X365760Y213360D02*
Y396240D01*
X355600Y383340D02*
Y395840D01*
X193040Y459740D02*
X238760D01*
Y251460D02*
Y459740D01*
X193040Y251460D02*
X238760D01*
X203600Y446840D02*
Y459340D01*
X193040Y251460D02*
Y459740D01*
X228600Y446840D02*
Y459340D01*
X66040Y408940D02*
X111760D01*
X66040Y226060D02*
Y408940D01*
Y226060D02*
X111760D01*
X76600Y396040D02*
Y408540D01*
X111760Y226060D02*
Y408940D01*
X101600Y396040D02*
Y408540D01*
D20*
X309761Y1775141D02*
G03*
X275001Y1775250I-17411J-9841D01*
G01*
X274571Y1755671D02*
G03*
X309782Y1755954I17529J9629D01*
G01*
X280924Y1778074D02*
X287274D01*
X284226Y1775026D02*
Y1781376D01*
D21*
X152378Y1699101D02*
G03*
X101622Y1699101I-25378J111139D01*
G01*
X101600Y1646240D02*
X152400D01*
Y1699006D01*
X101600Y1646240D02*
Y1699006D01*
D22*
X355600Y1286510D02*
Y1291590D01*
Y1299210D02*
Y1304290D01*
Y1299210D02*
X360680Y1304290D01*
X355600Y1291590D02*
X360680Y1286510D01*
X355600Y1291590D02*
Y1299210D01*
Y1311910D02*
Y1316990D01*
Y1324610D02*
Y1329690D01*
Y1324610D02*
X360680Y1329690D01*
X355600Y1316990D02*
X360680Y1311910D01*
X355600Y1316990D02*
Y1324610D01*
Y1337310D02*
Y1342390D01*
Y1350010D02*
Y1355090D01*
Y1350010D02*
X360680Y1355090D01*
X355600Y1342390D02*
X360680Y1337310D01*
X355600Y1342390D02*
Y1350010D01*
X304800Y1324610D02*
Y1329690D01*
Y1311910D02*
Y1316990D01*
X299720Y1311910D02*
X304800Y1316990D01*
X299720Y1329690D02*
X304800Y1324610D01*
Y1316990D02*
Y1324610D01*
Y1299210D02*
Y1304290D01*
Y1286510D02*
Y1291590D01*
X299720Y1286510D02*
X304800Y1291590D01*
X299720Y1304290D02*
X304800Y1299210D01*
Y1291590D02*
Y1299210D01*
Y1350010D02*
Y1355090D01*
Y1337310D02*
Y1342390D01*
X299720Y1337310D02*
X304800Y1342390D01*
X299720Y1355090D02*
X304800Y1350010D01*
Y1342390D02*
Y1350010D01*
X355600Y1365250D02*
Y1370330D01*
Y1377950D02*
Y1383030D01*
Y1377950D02*
X360680Y1383030D01*
X355600Y1370330D02*
X360680Y1365250D01*
X355600Y1370330D02*
Y1377950D01*
X304800D02*
Y1383030D01*
Y1365250D02*
Y1370330D01*
X299720Y1365250D02*
X304800Y1370330D01*
X299720Y1383030D02*
X304800Y1377950D01*
Y1370330D02*
Y1377950D01*
X118110Y723900D02*
X123190D01*
X130810D02*
X135890D01*
X130810D02*
X135890Y718820D01*
X118110D02*
X123190Y723900D01*
X130810D01*
X92710D02*
X97790D01*
X105410D02*
X110490D01*
X105410D02*
X110490Y718820D01*
X92710D02*
X97790Y723900D01*
X105410D01*
X355600Y1858010D02*
Y1863090D01*
Y1870710D02*
Y1875790D01*
Y1870710D02*
X360680Y1875790D01*
X355600Y1863090D02*
X360680Y1858010D01*
X355600Y1863090D02*
Y1870710D01*
X292100Y1654810D02*
Y1659890D01*
Y1667510D02*
Y1672590D01*
Y1667510D02*
X297180Y1672590D01*
X292100Y1659890D02*
X297180Y1654810D01*
X292100Y1659890D02*
Y1667510D01*
X355600D02*
Y1672590D01*
Y1654810D02*
Y1659890D01*
X350520Y1654810D02*
X355600Y1659890D01*
X350520Y1672590D02*
X355600Y1667510D01*
Y1659890D02*
Y1667510D01*
D23*
X381000Y723900D02*
Y1257300D01*
X304800D02*
X381000D01*
X292100Y1016000D02*
X304800D01*
X292100Y965200D02*
X304800D01*
Y723900D02*
X381000D01*
X304800D02*
Y1257300D01*
X292100Y965200D02*
Y1016000D01*
X289560Y1714500D02*
X294640D01*
X353060Y1816100D02*
X358140D01*
X60960Y444500D02*
X66040D01*
X111760D02*
X116840D01*
X76200Y721360D02*
Y726440D01*
X50800Y721360D02*
Y726440D01*
X365760Y190500D02*
X370840D01*
X314960D02*
X320040D01*
X393537Y1292860D02*
X386872D01*
X383540Y1289528D01*
X386872Y1286196D01*
X393537D01*
Y1282863D02*
X383540D01*
Y1277865D01*
X385206Y1276199D01*
X391871D01*
X393537Y1277865D01*
Y1282863D01*
X391871Y1272866D02*
X393537Y1271200D01*
Y1267868D01*
X391871Y1266202D01*
X390205D01*
X388538Y1267868D01*
X386872Y1266202D01*
X385206D01*
X383540Y1267868D01*
Y1271200D01*
X385206Y1272866D01*
X386872D01*
X388538Y1271200D01*
X390205Y1272866D01*
X391871D01*
X388538Y1271200D02*
Y1267868D01*
X393537Y1328420D02*
X386872D01*
X383540Y1325088D01*
X386872Y1321756D01*
X393537D01*
Y1318423D02*
X383540D01*
Y1313425D01*
X385206Y1311759D01*
X391871D01*
X393537Y1313425D01*
Y1318423D01*
Y1301762D02*
X391871Y1305094D01*
X388538Y1308426D01*
X385206D01*
X383540Y1306760D01*
Y1303428D01*
X385206Y1301762D01*
X386872D01*
X388538Y1303428D01*
Y1308426D01*
X393537Y1363980D02*
X386872D01*
X383540Y1360648D01*
X386872Y1357316D01*
X393537D01*
Y1353983D02*
X383540D01*
Y1348985D01*
X385206Y1347319D01*
X391871D01*
X393537Y1348985D01*
Y1353983D01*
X383540Y1338988D02*
X393537D01*
X388538Y1343986D01*
Y1337322D01*
X274157Y1328420D02*
X267492D01*
X264160Y1325088D01*
X267492Y1321756D01*
X274157D01*
Y1318423D02*
X264160D01*
Y1313425D01*
X265826Y1311759D01*
X272491D01*
X274157Y1313425D01*
Y1318423D01*
Y1301762D02*
Y1308426D01*
X269158D01*
X270825Y1305094D01*
Y1303428D01*
X269158Y1301762D01*
X265826D01*
X264160Y1303428D01*
Y1306760D01*
X265826Y1308426D01*
X274157Y1292860D02*
X267492D01*
X264160Y1289528D01*
X267492Y1286196D01*
X274157D01*
Y1282863D02*
X264160D01*
Y1277865D01*
X265826Y1276199D01*
X272491D01*
X274157Y1277865D01*
Y1282863D01*
Y1272866D02*
Y1266202D01*
X272491D01*
X265826Y1272866D01*
X264160D01*
X274157Y1363980D02*
X267492D01*
X264160Y1360648D01*
X267492Y1357316D01*
X274157D01*
Y1353983D02*
X264160D01*
Y1348985D01*
X265826Y1347319D01*
X272491D01*
X274157Y1348985D01*
Y1353983D01*
X272491Y1343986D02*
X274157Y1342320D01*
Y1338988D01*
X272491Y1337322D01*
X270825D01*
X269158Y1338988D01*
Y1340654D01*
Y1338988D01*
X267492Y1337322D01*
X265826D01*
X264160Y1338988D01*
Y1342320D01*
X265826Y1343986D01*
X393537Y1399540D02*
X386872D01*
X383540Y1396208D01*
X386872Y1392876D01*
X393537D01*
Y1389543D02*
X383540D01*
Y1384545D01*
X385206Y1382879D01*
X391871D01*
X393537Y1384545D01*
Y1389543D01*
X383540Y1372882D02*
Y1379546D01*
X390205Y1372882D01*
X391871D01*
X393537Y1374548D01*
Y1377880D01*
X391871Y1379546D01*
X274157Y1397000D02*
X267492D01*
X264160Y1393668D01*
X267492Y1390336D01*
X274157D01*
Y1387003D02*
X264160D01*
Y1382005D01*
X265826Y1380339D01*
X272491D01*
X274157Y1382005D01*
Y1387003D01*
X264160Y1377006D02*
Y1373674D01*
Y1375340D01*
X274157D01*
X272491Y1377006D01*
X327660Y1272377D02*
X334324Y1262380D01*
Y1272377D02*
X327660Y1262380D01*
X337657D02*
Y1272377D01*
X342655D01*
X344321Y1270711D01*
Y1267378D01*
X342655Y1265712D01*
X337657D01*
X354318Y1262380D02*
X347654D01*
X354318Y1269044D01*
Y1270711D01*
X352652Y1272377D01*
X349320D01*
X347654Y1270711D01*
X121920Y761837D02*
Y755172D01*
X125252Y751840D01*
X128584Y755172D01*
Y761837D01*
X131917D02*
Y751840D01*
X136915D01*
X138581Y753506D01*
Y760171D01*
X136915Y761837D01*
X131917D01*
X141914Y751840D02*
X145246D01*
X143580D01*
Y761837D01*
X141914Y760171D01*
X150244D02*
X151910Y761837D01*
X155243D01*
X156909Y760171D01*
Y753506D01*
X155243Y751840D01*
X151910D01*
X150244Y753506D01*
Y760171D01*
X88900Y761837D02*
Y755172D01*
X92232Y751840D01*
X95564Y755172D01*
Y761837D01*
X98897D02*
Y751840D01*
X103895D01*
X105561Y753506D01*
Y760171D01*
X103895Y761837D01*
X98897D01*
X108894Y753506D02*
X110560Y751840D01*
X113892D01*
X115558Y753506D01*
Y760171D01*
X113892Y761837D01*
X110560D01*
X108894Y760171D01*
Y758504D01*
X110560Y756838D01*
X115558D01*
X280984Y1799031D02*
X279318Y1800697D01*
X275986D01*
X274320Y1799031D01*
Y1792366D01*
X275986Y1790700D01*
X279318D01*
X280984Y1792366D01*
X290981Y1790700D02*
X284317D01*
X290981Y1797365D01*
Y1799031D01*
X289315Y1800697D01*
X285983D01*
X284317Y1799031D01*
X276860Y1727200D02*
Y1737197D01*
X281858D01*
X283524Y1735531D01*
Y1732198D01*
X281858Y1730532D01*
X276860D01*
X280192D02*
X283524Y1727200D01*
X293521Y1737197D02*
X290189Y1735531D01*
X286857Y1732198D01*
Y1728866D01*
X288523Y1727200D01*
X291855D01*
X293521Y1728866D01*
Y1730532D01*
X291855Y1732198D01*
X286857D01*
X271780Y1688937D02*
Y1682272D01*
X275112Y1678940D01*
X278444Y1682272D01*
Y1688937D01*
X281777D02*
Y1678940D01*
X286775D01*
X288441Y1680606D01*
Y1687271D01*
X286775Y1688937D01*
X281777D01*
X291774Y1678940D02*
X295106D01*
X293440D01*
Y1688937D01*
X291774Y1687271D01*
X306769Y1678940D02*
X300104D01*
X306769Y1685605D01*
Y1687271D01*
X305103Y1688937D01*
X301770D01*
X300104Y1687271D01*
X337820Y1688937D02*
Y1682272D01*
X341152Y1678940D01*
X344484Y1682272D01*
Y1688937D01*
X347817D02*
Y1678940D01*
X352815D01*
X354481Y1680606D01*
Y1687271D01*
X352815Y1688937D01*
X347817D01*
X357814Y1678940D02*
X361146D01*
X359480D01*
Y1688937D01*
X357814Y1687271D01*
X366144Y1678940D02*
X369477D01*
X367810D01*
Y1688937D01*
X366144Y1687271D01*
X309880Y1630517D02*
Y1620520D01*
X314878D01*
X316544Y1622186D01*
Y1628851D01*
X314878Y1630517D01*
X309880D01*
X319877D02*
Y1620520D01*
X324875D01*
X326541Y1622186D01*
Y1628851D01*
X324875Y1630517D01*
X319877D01*
X329874Y1620520D02*
X333206D01*
X331540D01*
Y1630517D01*
X329874Y1628851D01*
X343203Y1620520D02*
Y1630517D01*
X338204Y1625518D01*
X344869D01*
X63500Y1635597D02*
X70164D01*
Y1633931D01*
X63500Y1627266D01*
Y1625600D01*
X70164D01*
X80161Y1627266D02*
Y1633931D01*
X78495Y1635597D01*
X75163D01*
X73497Y1633931D01*
Y1627266D01*
X75163Y1625600D01*
X78495D01*
X76829Y1628932D02*
X80161Y1625600D01*
X78495D02*
X80161Y1627266D01*
X83494Y1625600D02*
X86826D01*
X85160D01*
Y1635597D01*
X83494Y1633931D01*
X149860Y1630517D02*
Y1620520D01*
X154858D01*
X156524Y1622186D01*
Y1628851D01*
X154858Y1630517D01*
X149860D01*
X159857D02*
Y1620520D01*
X164855D01*
X166521Y1622186D01*
Y1628851D01*
X164855Y1630517D01*
X159857D01*
X169854Y1628851D02*
X171520Y1630517D01*
X174852D01*
X176518Y1628851D01*
Y1627184D01*
X174852Y1625518D01*
X173186D01*
X174852D01*
X176518Y1623852D01*
Y1622186D01*
X174852Y1620520D01*
X171520D01*
X169854Y1622186D01*
X210820Y1186180D02*
Y1182848D01*
Y1184514D01*
X220817D01*
X219151Y1186180D01*
X220817Y1171185D02*
Y1177849D01*
X215818D01*
X217484Y1174517D01*
Y1172851D01*
X215818Y1171185D01*
X212486D01*
X210820Y1172851D01*
Y1176183D01*
X212486Y1177849D01*
X219151Y1167853D02*
X220817Y1166186D01*
Y1162854D01*
X219151Y1161188D01*
X217484D01*
X215818Y1162854D01*
Y1164520D01*
Y1162854D01*
X214152Y1161188D01*
X212486D01*
X210820Y1162854D01*
Y1166186D01*
X212486Y1167853D01*
X219151Y1157856D02*
X220817Y1156190D01*
Y1152857D01*
X219151Y1151191D01*
X217484D01*
X215818Y1152857D01*
Y1154523D01*
Y1152857D01*
X214152Y1151191D01*
X212486D01*
X210820Y1152857D01*
Y1156190D01*
X212486Y1157856D01*
X220817Y1147859D02*
Y1144527D01*
Y1146193D01*
X210820D01*
Y1147859D01*
Y1144527D01*
Y1139528D02*
X220817D01*
Y1134530D01*
X219151Y1132864D01*
X215818D01*
X214152Y1134530D01*
Y1139528D01*
Y1136196D02*
X210820Y1132864D01*
Y1122867D02*
Y1129532D01*
X217484Y1122867D01*
X219151D01*
X220817Y1124533D01*
Y1127866D01*
X219151Y1129532D01*
Y1119535D02*
X220817Y1117869D01*
Y1114536D01*
X219151Y1112870D01*
X217484D01*
X215818Y1114536D01*
Y1116203D01*
Y1114536D01*
X214152Y1112870D01*
X212486D01*
X210820Y1114536D01*
Y1117869D01*
X212486Y1119535D01*
X205740Y1287617D02*
Y1277620D01*
X210738D01*
X212404Y1279286D01*
Y1285951D01*
X210738Y1287617D01*
X205740D01*
X215737D02*
Y1277620D01*
X220735D01*
X222401Y1279286D01*
Y1285951D01*
X220735Y1287617D01*
X215737D01*
X225734D02*
X232398D01*
Y1285951D01*
X225734Y1279286D01*
Y1277620D01*
X73660Y1287617D02*
Y1277620D01*
X78658D01*
X80324Y1279286D01*
Y1285951D01*
X78658Y1287617D01*
X73660D01*
X83657D02*
Y1277620D01*
X88655D01*
X90321Y1279286D01*
Y1285951D01*
X88655Y1287617D01*
X83657D01*
X100318Y1277620D02*
X93654D01*
X100318Y1284285D01*
Y1285951D01*
X98652Y1287617D01*
X95320D01*
X93654Y1285951D01*
X68580Y1008217D02*
Y998220D01*
X73578D01*
X75244Y999886D01*
Y1006551D01*
X73578Y1008217D01*
X68580D01*
X78577D02*
Y998220D01*
X83575D01*
X85241Y999886D01*
Y1006551D01*
X83575Y1008217D01*
X78577D01*
X88574Y998220D02*
X91906D01*
X90240D01*
Y1008217D01*
X88574Y1006551D01*
X103569Y998220D02*
X96904D01*
X103569Y1004884D01*
Y1006551D01*
X101903Y1008217D01*
X98570D01*
X96904Y1006551D01*
X203200Y1008217D02*
Y998220D01*
X208198D01*
X209865Y999886D01*
Y1006551D01*
X208198Y1008217D01*
X203200D01*
X213197D02*
Y998220D01*
X218195D01*
X219861Y999886D01*
Y1006551D01*
X218195Y1008217D01*
X213197D01*
X229858D02*
X226526Y1006551D01*
X223194Y1003218D01*
Y999886D01*
X224860Y998220D01*
X228192D01*
X229858Y999886D01*
Y1001552D01*
X228192Y1003218D01*
X223194D01*
X325120Y703417D02*
Y693420D01*
X330118D01*
X331785Y695086D01*
Y701751D01*
X330118Y703417D01*
X325120D01*
X335117D02*
Y693420D01*
X340115D01*
X341781Y695086D01*
Y701751D01*
X340115Y703417D01*
X335117D01*
X345114Y693420D02*
X348446D01*
X346780D01*
Y703417D01*
X345114Y701751D01*
X353444D02*
X355110Y703417D01*
X358443D01*
X360109Y701751D01*
Y695086D01*
X358443Y693420D01*
X355110D01*
X353444Y695086D01*
Y701751D01*
X195580Y703417D02*
Y693420D01*
X200578D01*
X202244Y695086D01*
Y701751D01*
X200578Y703417D01*
X195580D01*
X205577D02*
Y693420D01*
X210575D01*
X212241Y695086D01*
Y701751D01*
X210575Y703417D01*
X205577D01*
X215574Y693420D02*
X218906D01*
X217240D01*
Y703417D01*
X215574Y701751D01*
X230569Y703417D02*
X223904D01*
Y698418D01*
X227236Y700085D01*
X228903D01*
X230569Y698418D01*
Y695086D01*
X228903Y693420D01*
X225570D01*
X223904Y695086D01*
X48829Y1510487D02*
X47163Y1512153D01*
X43831D01*
X42165Y1510487D01*
Y1503823D01*
X43831Y1502157D01*
X47163D01*
X48829Y1503823D01*
X57160Y1502157D02*
Y1512153D01*
X52161Y1507155D01*
X58826D01*
X200660Y474817D02*
Y464820D01*
X205658D01*
X207325Y466486D01*
Y473151D01*
X205658Y474817D01*
X200660D01*
X210657D02*
Y464820D01*
X215655D01*
X217321Y466486D01*
Y473151D01*
X215655Y474817D01*
X210657D01*
X220654Y473151D02*
X222320Y474817D01*
X225652D01*
X227318Y473151D01*
Y471484D01*
X225652Y469818D01*
X227318Y468152D01*
Y466486D01*
X225652Y464820D01*
X222320D01*
X220654Y466486D01*
Y468152D01*
X222320Y469818D01*
X220654Y471484D01*
Y473151D01*
X222320Y469818D02*
X225652D01*
X198120Y246217D02*
Y236220D01*
X203118D01*
X204785Y237886D01*
Y244551D01*
X203118Y246217D01*
X198120D01*
X208117D02*
Y236220D01*
X213115D01*
X214781Y237886D01*
Y244551D01*
X213115Y246217D01*
X208117D01*
X218114Y236220D02*
X221446D01*
X219780D01*
Y246217D01*
X218114Y244551D01*
X226444Y236220D02*
X229776D01*
X228110D01*
Y246217D01*
X226444Y244551D01*
X71120Y578957D02*
Y568960D01*
X76118D01*
X77785Y570626D01*
Y577291D01*
X76118Y578957D01*
X71120D01*
X81117D02*
Y568960D01*
X86115D01*
X87781Y570626D01*
Y577291D01*
X86115Y578957D01*
X81117D01*
X91114Y568960D02*
X94446D01*
X92780D01*
Y578957D01*
X91114Y577291D01*
X99444D02*
X101110Y578957D01*
X104443D01*
X106109Y577291D01*
Y575625D01*
X104443Y573958D01*
X102776D01*
X104443D01*
X106109Y572292D01*
Y570626D01*
X104443Y568960D01*
X101110D01*
X99444Y570626D01*
X330200Y170017D02*
Y160020D01*
X335198D01*
X336865Y161686D01*
Y168351D01*
X335198Y170017D01*
X330200D01*
X340197D02*
Y160020D01*
X345195D01*
X346861Y161686D01*
Y168351D01*
X345195Y170017D01*
X340197D01*
X350194Y161686D02*
X351860Y160020D01*
X355192D01*
X356858Y161686D01*
Y168351D01*
X355192Y170017D01*
X351860D01*
X350194Y168351D01*
Y166684D01*
X351860Y165018D01*
X356858D01*
X325120Y411317D02*
Y401320D01*
X330118D01*
X331785Y402986D01*
Y409651D01*
X330118Y411317D01*
X325120D01*
X335117D02*
Y401320D01*
X340115D01*
X341781Y402986D01*
Y409651D01*
X340115Y411317D01*
X335117D01*
X345114Y401320D02*
X348446D01*
X346780D01*
Y411317D01*
X345114Y409651D01*
X360109Y411317D02*
X356777Y409651D01*
X353444Y406318D01*
Y402986D01*
X355110Y401320D01*
X358443D01*
X360109Y402986D01*
Y404652D01*
X358443Y406318D01*
X353444D01*
X71120Y424017D02*
Y414020D01*
X76118D01*
X77785Y415686D01*
Y422351D01*
X76118Y424017D01*
X71120D01*
X81117D02*
Y414020D01*
X86115D01*
X87781Y415686D01*
Y422351D01*
X86115Y424017D01*
X81117D01*
X91114Y414020D02*
X94446D01*
X92780D01*
Y424017D01*
X91114Y422351D01*
X99444Y424017D02*
X106109D01*
Y422351D01*
X99444Y415686D01*
Y414020D01*
X23429Y1510487D02*
X21763Y1512153D01*
X18431D01*
X16765Y1510487D01*
Y1503823D01*
X18431Y1502157D01*
X21763D01*
X23429Y1503823D01*
X26761Y1502157D02*
X30094D01*
X28428D01*
Y1512153D01*
X26761Y1510487D01*
X12955Y1934465D02*
Y1944461D01*
X17953D01*
X19619Y1942795D01*
Y1939463D01*
X17953Y1937797D01*
X12955D01*
X22951Y1934465D02*
X26284D01*
X24618D01*
Y1944461D01*
X22951Y1942795D01*
X277429Y1891487D02*
X275763Y1893153D01*
X272431D01*
X270765Y1891487D01*
Y1884823D01*
X272431Y1883156D01*
X275763D01*
X277429Y1884823D01*
X280761Y1891487D02*
X282428Y1893153D01*
X285760D01*
X287426Y1891487D01*
Y1889821D01*
X285760Y1888155D01*
X284094D01*
X285760D01*
X287426Y1886489D01*
Y1884823D01*
X285760Y1883156D01*
X282428D01*
X280761Y1884823D01*
X302829Y1891487D02*
X301163Y1893153D01*
X297831D01*
X296165Y1891487D01*
Y1884823D01*
X297831Y1883156D01*
X301163D01*
X302829Y1884823D01*
X312826Y1893153D02*
X306161D01*
Y1888155D01*
X309494Y1889821D01*
X311160D01*
X312826Y1888155D01*
Y1884823D01*
X311160Y1883156D01*
X307828D01*
X306161Y1884823D01*
X346965Y209296D02*
Y219293D01*
X351963D01*
X353629Y217627D01*
Y214295D01*
X351963Y212629D01*
X346965D01*
X350297D02*
X353629Y209296D01*
X361960D02*
Y219293D01*
X356961Y214295D01*
X363626D01*
X42165Y752857D02*
Y762853D01*
X47163D01*
X48829Y761187D01*
Y757855D01*
X47163Y756189D01*
X42165D01*
X45497D02*
X48829Y752857D01*
X58826D02*
X52161D01*
X58826Y759521D01*
Y761187D01*
X57160Y762853D01*
X53828D01*
X52161Y761187D01*
X67565Y752857D02*
Y762853D01*
X72563D01*
X74229Y761187D01*
Y757855D01*
X72563Y756189D01*
X67565D01*
X70897D02*
X74229Y752857D01*
X77561D02*
X80894D01*
X79228D01*
Y762853D01*
X77561Y761187D01*
X92965Y463297D02*
Y473293D01*
X97963D01*
X99629Y471627D01*
Y468295D01*
X97963Y466629D01*
X92965D01*
X96297D02*
X99629Y463297D01*
X102961Y471627D02*
X104628Y473293D01*
X107960D01*
X109626Y471627D01*
Y469961D01*
X107960Y468295D01*
X106294D01*
X107960D01*
X109626Y466629D01*
Y464963D01*
X107960Y463297D01*
X104628D01*
X102961Y464963D01*
X44705Y463297D02*
Y473293D01*
X49703D01*
X51369Y471627D01*
Y468295D01*
X49703Y466629D01*
X44705D01*
X48037D02*
X51369Y463297D01*
X61366Y473293D02*
X54701D01*
Y468295D01*
X58034Y469961D01*
X59700D01*
X61366Y468295D01*
Y464963D01*
X59700Y463297D01*
X56368D01*
X54701Y464963D01*
X336805Y1834897D02*
Y1844893D01*
X341803D01*
X343469Y1843227D01*
Y1839895D01*
X341803Y1838229D01*
X336805D01*
X340137D02*
X343469Y1834897D01*
X346801Y1844893D02*
X353466D01*
Y1843227D01*
X346801Y1836563D01*
Y1834897D01*
X334265Y1895693D02*
Y1889029D01*
X337597Y1885697D01*
X340929Y1889029D01*
Y1895693D01*
X344261D02*
Y1885697D01*
X349260D01*
X350926Y1887363D01*
Y1894027D01*
X349260Y1895693D01*
X344261D01*
X354258Y1885697D02*
X357590D01*
X355924D01*
Y1895693D01*
X354258Y1894027D01*
X362589D02*
X364255Y1895693D01*
X367587D01*
X369253Y1894027D01*
Y1892361D01*
X367587Y1890695D01*
X365921D01*
X367587D01*
X369253Y1889029D01*
Y1887363D01*
X367587Y1885697D01*
X364255D01*
X362589Y1887363D01*
X298705Y209296D02*
Y219293D01*
X303703D01*
X305369Y217627D01*
Y214295D01*
X303703Y212629D01*
X298705D01*
X302037D02*
X305369Y209296D01*
X308701Y217627D02*
X310368Y219293D01*
X313700D01*
X315366Y217627D01*
Y215961D01*
X313700Y214295D01*
X315366Y212629D01*
Y210963D01*
X313700Y209296D01*
X310368D01*
X308701Y210963D01*
Y212629D01*
X310368Y214295D01*
X308701Y215961D01*
Y217627D01*
X310368Y214295D02*
X313700D01*
M02*
