G04 Layer_Color=8388736*
%FSLAX44Y44*%
%MOMM*%
G71*
G01*
G75*
G04:AMPARAMS|DCode=24|XSize=1.7732mm|YSize=8.2032mm|CornerRadius=0.4941mm|HoleSize=0mm|Usage=FLASHONLY|Rotation=90.000|XOffset=0mm|YOffset=0mm|HoleType=Round|Shape=RoundedRectangle|*
%AMROUNDEDRECTD24*
21,1,1.7732,7.2150,0,0,90.0*
21,1,0.7850,8.2032,0,0,90.0*
1,1,0.9882,3.6075,0.3925*
1,1,0.9882,3.6075,-0.3925*
1,1,0.9882,-3.6075,-0.3925*
1,1,0.9882,-3.6075,0.3925*
%
%ADD24ROUNDEDRECTD24*%
%ADD25C,1.7272*%
%ADD26R,1.7272X1.7272*%
%ADD27C,1.7032*%
%ADD28P,1.8435X8X202.5*%
%ADD29C,1.9532*%
%ADD30C,0.8032*%
D24*
X-45720Y1282700D02*
D03*
Y673100D02*
D03*
Y647700D02*
D03*
Y1308100D02*
D03*
Y1206500D02*
D03*
Y1231900D02*
D03*
Y1257300D02*
D03*
Y1104900D02*
D03*
Y1130300D02*
D03*
Y1155700D02*
D03*
Y1181100D02*
D03*
Y1003300D02*
D03*
Y1028700D02*
D03*
Y1054100D02*
D03*
Y1079500D02*
D03*
Y901700D02*
D03*
Y927100D02*
D03*
Y952500D02*
D03*
Y977900D02*
D03*
Y800100D02*
D03*
Y825500D02*
D03*
Y850900D02*
D03*
Y876300D02*
D03*
Y723900D02*
D03*
Y749300D02*
D03*
Y774700D02*
D03*
Y698500D02*
D03*
Y622300D02*
D03*
Y596900D02*
D03*
Y571500D02*
D03*
Y546100D02*
D03*
D25*
X368300Y1295400D02*
D03*
X342900D02*
D03*
X368300Y1320800D02*
D03*
X342900D02*
D03*
X368300Y1346200D02*
D03*
X342900D02*
D03*
X292100Y1320800D02*
D03*
X317500D02*
D03*
X292100Y1295400D02*
D03*
X317500D02*
D03*
X292100Y1346200D02*
D03*
X317500D02*
D03*
X368300Y1374140D02*
D03*
X342900D02*
D03*
X292100D02*
D03*
X317500D02*
D03*
X355600Y1206500D02*
D03*
Y1181100D02*
D03*
Y1231900D02*
D03*
Y1130300D02*
D03*
Y1104900D02*
D03*
Y1155700D02*
D03*
Y1079500D02*
D03*
Y1054100D02*
D03*
X330200Y1181100D02*
D03*
X355600Y1028700D02*
D03*
Y1003300D02*
D03*
X330200Y1028700D02*
D03*
X355600Y977900D02*
D03*
Y952500D02*
D03*
Y901700D02*
D03*
Y876300D02*
D03*
Y927100D02*
D03*
Y850900D02*
D03*
Y825500D02*
D03*
X330200Y901700D02*
D03*
X355600Y774700D02*
D03*
Y749300D02*
D03*
Y800100D02*
D03*
X330200Y1206500D02*
D03*
Y1130300D02*
D03*
Y1104900D02*
D03*
Y1155700D02*
D03*
Y1079500D02*
D03*
Y1054100D02*
D03*
Y1003300D02*
D03*
Y977900D02*
D03*
Y927100D02*
D03*
Y876300D02*
D03*
Y952500D02*
D03*
Y850900D02*
D03*
Y825500D02*
D03*
Y800100D02*
D03*
Y749300D02*
D03*
Y774700D02*
D03*
X127000Y711200D02*
D03*
Y736600D02*
D03*
X101600Y711200D02*
D03*
Y736600D02*
D03*
X304800Y1714500D02*
D03*
X279400D02*
D03*
X368300Y1866900D02*
D03*
X342900D02*
D03*
X304800Y1663700D02*
D03*
X279400D02*
D03*
X342900D02*
D03*
X368300D02*
D03*
X292100Y1473200D02*
D03*
Y1447800D02*
D03*
Y1550200D02*
D03*
Y1525200D02*
D03*
X368300Y1473200D02*
D03*
Y1447800D02*
D03*
Y1524000D02*
D03*
Y1549400D02*
D03*
Y1600200D02*
D03*
X292100Y1498600D02*
D03*
Y1422400D02*
D03*
Y1574800D02*
D03*
X368300Y1422400D02*
D03*
Y1498600D02*
D03*
Y1574800D02*
D03*
X88900Y1320800D02*
D03*
Y1397000D02*
D03*
Y1371600D02*
D03*
Y1473200D02*
D03*
Y1447800D02*
D03*
Y1549400D02*
D03*
Y1524000D02*
D03*
X241300Y1320800D02*
D03*
Y1371600D02*
D03*
Y1397000D02*
D03*
Y1447800D02*
D03*
Y1473200D02*
D03*
Y1524000D02*
D03*
Y1549400D02*
D03*
Y1600200D02*
D03*
X88900Y1422400D02*
D03*
Y1346200D02*
D03*
Y1574800D02*
D03*
Y1498600D02*
D03*
X241300Y1346200D02*
D03*
Y1422400D02*
D03*
Y1498600D02*
D03*
Y1574800D02*
D03*
X177800Y1028700D02*
D03*
Y1104900D02*
D03*
Y1079500D02*
D03*
Y1181100D02*
D03*
Y1155700D02*
D03*
Y1231900D02*
D03*
X254000Y1028700D02*
D03*
Y1104900D02*
D03*
Y1079500D02*
D03*
Y1181100D02*
D03*
Y1155700D02*
D03*
Y1257300D02*
D03*
Y1231900D02*
D03*
X177800Y1130300D02*
D03*
Y1054100D02*
D03*
Y1206500D02*
D03*
X254000Y1130300D02*
D03*
Y1054100D02*
D03*
Y1206500D02*
D03*
X50800Y1028700D02*
D03*
Y1104900D02*
D03*
Y1079500D02*
D03*
Y1181100D02*
D03*
Y1155700D02*
D03*
Y1231900D02*
D03*
X127000Y1028700D02*
D03*
Y1104900D02*
D03*
Y1079500D02*
D03*
Y1181100D02*
D03*
Y1155700D02*
D03*
Y1257300D02*
D03*
Y1231900D02*
D03*
X50800Y1130300D02*
D03*
Y1054100D02*
D03*
Y1206500D02*
D03*
X127000Y1130300D02*
D03*
Y1054100D02*
D03*
Y1206500D02*
D03*
Y952500D02*
D03*
Y876300D02*
D03*
X50800Y952500D02*
D03*
Y876300D02*
D03*
X127000Y977900D02*
D03*
Y927100D02*
D03*
Y901700D02*
D03*
Y850900D02*
D03*
Y825500D02*
D03*
X50800Y901700D02*
D03*
Y927100D02*
D03*
Y825500D02*
D03*
Y850900D02*
D03*
X177800Y749300D02*
D03*
Y825500D02*
D03*
Y800100D02*
D03*
Y901700D02*
D03*
Y876300D02*
D03*
Y952500D02*
D03*
X254000Y749300D02*
D03*
Y825500D02*
D03*
Y800100D02*
D03*
Y901700D02*
D03*
Y876300D02*
D03*
Y977900D02*
D03*
Y952500D02*
D03*
X177800Y850900D02*
D03*
Y774700D02*
D03*
Y927100D02*
D03*
X254000Y850900D02*
D03*
Y774700D02*
D03*
Y927100D02*
D03*
X304800Y444500D02*
D03*
Y520700D02*
D03*
Y495300D02*
D03*
Y596900D02*
D03*
Y571500D02*
D03*
Y647700D02*
D03*
X381000Y444500D02*
D03*
Y520700D02*
D03*
Y495300D02*
D03*
Y596900D02*
D03*
Y571500D02*
D03*
Y673100D02*
D03*
Y647700D02*
D03*
X304800Y546100D02*
D03*
Y469900D02*
D03*
Y622300D02*
D03*
X381000Y546100D02*
D03*
Y469900D02*
D03*
Y622300D02*
D03*
X177800Y546100D02*
D03*
Y520700D02*
D03*
Y623100D02*
D03*
Y598100D02*
D03*
X254000Y546100D02*
D03*
Y520700D02*
D03*
Y596900D02*
D03*
Y622300D02*
D03*
Y673100D02*
D03*
X177800Y571500D02*
D03*
Y495300D02*
D03*
Y647700D02*
D03*
X254000Y495300D02*
D03*
Y571500D02*
D03*
Y647700D02*
D03*
X127000D02*
D03*
Y571500D02*
D03*
Y495300D02*
D03*
X50800Y647700D02*
D03*
Y495300D02*
D03*
Y571500D02*
D03*
X127000Y673100D02*
D03*
Y622300D02*
D03*
Y596900D02*
D03*
Y520700D02*
D03*
Y546100D02*
D03*
X50800Y598100D02*
D03*
Y623100D02*
D03*
Y520700D02*
D03*
Y546100D02*
D03*
X342900Y1816100D02*
D03*
X368300D02*
D03*
X50800Y444500D02*
D03*
X76200D02*
D03*
X127000D02*
D03*
X101600D02*
D03*
X76200Y736600D02*
D03*
Y711200D02*
D03*
X50800Y736600D02*
D03*
Y711200D02*
D03*
X381000Y190500D02*
D03*
X355600D02*
D03*
X304800Y1866900D02*
D03*
Y1816100D02*
D03*
X279400D02*
D03*
Y1866900D02*
D03*
X25400Y1435100D02*
D03*
Y1485900D02*
D03*
X50800D02*
D03*
Y1435100D02*
D03*
X304800Y190500D02*
D03*
X330200D02*
D03*
X304800Y114300D02*
D03*
X381000Y63500D02*
D03*
Y139700D02*
D03*
X304800Y63500D02*
D03*
Y88900D02*
D03*
X381000Y114300D02*
D03*
Y88900D02*
D03*
X254000Y190500D02*
D03*
Y114300D02*
D03*
X177800Y190500D02*
D03*
Y114300D02*
D03*
X254000Y215900D02*
D03*
Y165100D02*
D03*
Y139700D02*
D03*
Y88900D02*
D03*
Y63500D02*
D03*
X177800Y139700D02*
D03*
Y165100D02*
D03*
Y63500D02*
D03*
Y88900D02*
D03*
X381000Y355600D02*
D03*
Y279400D02*
D03*
X304800Y355600D02*
D03*
Y279400D02*
D03*
X381000Y381000D02*
D03*
Y330200D02*
D03*
Y304800D02*
D03*
Y254000D02*
D03*
Y228600D02*
D03*
X304800Y304800D02*
D03*
Y330200D02*
D03*
Y228600D02*
D03*
Y254000D02*
D03*
X254000Y419100D02*
D03*
Y342900D02*
D03*
Y266700D02*
D03*
X177800Y419100D02*
D03*
Y266700D02*
D03*
Y342900D02*
D03*
X254000Y444500D02*
D03*
Y393700D02*
D03*
Y368300D02*
D03*
Y292100D02*
D03*
Y317500D02*
D03*
X177800Y369500D02*
D03*
Y394500D02*
D03*
Y292100D02*
D03*
Y317500D02*
D03*
X127000Y368300D02*
D03*
Y292100D02*
D03*
X50800Y368300D02*
D03*
Y292100D02*
D03*
X127000Y393700D02*
D03*
Y342900D02*
D03*
Y317500D02*
D03*
Y266700D02*
D03*
Y241300D02*
D03*
X50800Y317500D02*
D03*
Y342900D02*
D03*
Y241300D02*
D03*
Y266700D02*
D03*
D26*
X330200Y1231900D02*
D03*
X292100Y1600200D02*
D03*
X88900D02*
D03*
X177800Y1257300D02*
D03*
X50800D02*
D03*
Y977900D02*
D03*
X177800D02*
D03*
X304800Y673100D02*
D03*
X177800D02*
D03*
X50800D02*
D03*
X304800Y139700D02*
D03*
X177800Y215900D02*
D03*
X304800Y381000D02*
D03*
X177800Y444500D02*
D03*
X50800Y393700D02*
D03*
D27*
X304800Y1765300D02*
D03*
X38100Y1549400D02*
D03*
Y1599400D02*
D03*
D28*
X279400Y1765300D02*
D03*
D29*
X127000Y1866240D02*
D03*
Y1666240D02*
D03*
D30*
X160021Y1243076D02*
D03*
X277623Y1019048D02*
D03*
X316993Y1035304D02*
D03*
X366777Y1163575D02*
D03*
X299053Y1144525D02*
D03*
X303785Y1076961D02*
D03*
X200661Y1084072D02*
D03*
X146547Y911861D02*
D03*
X308103Y1099820D02*
D03*
X109082Y983480D02*
D03*
X360935Y676885D02*
D03*
X58421Y423164D02*
D03*
X61977Y177547D02*
D03*
X240285Y1278129D02*
D03*
X253747Y1326897D02*
D03*
X386081Y849631D02*
D03*
X373381Y730759D02*
D03*
X388875Y790470D02*
D03*
X10415Y639572D02*
D03*
X24385Y532131D02*
D03*
X68581Y484124D02*
D03*
X266701Y467107D02*
D03*
X274136Y546100D02*
D03*
X200407Y1345439D02*
D03*
X219457Y975869D02*
D03*
X198883Y848868D02*
D03*
X156464Y626364D02*
D03*
X145543Y594361D02*
D03*
X266447Y543052D02*
D03*
X100585Y934975D02*
D03*
X249937Y996951D02*
D03*
X289561Y53087D02*
D03*
X176785Y1343152D02*
D03*
X149353Y1243076D02*
D03*
X76201Y1090930D02*
D03*
X78995Y768858D02*
D03*
X159767D02*
D03*
Y695960D02*
D03*
X196851D02*
D03*
X168403Y378969D02*
D03*
X332487Y395718D02*
D03*
X136145Y1322578D02*
D03*
X88901Y689102D02*
D03*
X86361Y576834D02*
D03*
X39625Y467615D02*
D03*
X23623Y201677D02*
D03*
X148083Y965922D02*
D03*
X348997Y292100D02*
D03*
X388875Y808229D02*
D03*
X203963Y829795D02*
D03*
X109475Y996189D02*
D03*
X298464Y994410D02*
D03*
X226061Y808736D02*
D03*
X127001Y1007021D02*
D03*
X325629Y554482D02*
D03*
X202439Y711200D02*
D03*
X81281Y665734D02*
D03*
X91695Y475234D02*
D03*
X179325D02*
D03*
X211075Y879603D02*
D03*
X61977Y999825D02*
D03*
X13463Y939037D02*
D03*
X24893Y1282700D02*
D03*
X327661Y610108D02*
D03*
X5335Y748030D02*
D03*
X40387Y693674D02*
D03*
X39117Y592836D02*
D03*
X115825Y563800D02*
D03*
X236221Y651510D02*
D03*
X223267Y438150D02*
D03*
X9145Y853949D02*
D03*
X189739Y811531D02*
D03*
X87123Y1222249D02*
D03*
X68581Y1037844D02*
D03*
X46229Y1295401D02*
D03*
X388621Y759968D02*
D03*
X366777Y781813D02*
D03*
X326899Y715518D02*
D03*
X104141Y1180339D02*
D03*
X113539Y625602D02*
D03*
X104141Y1062737D02*
D03*
X24385Y1064260D02*
D03*
X21845Y1027684D02*
D03*
X272289Y1358900D02*
D03*
X258827Y724965D02*
D03*
X287783Y786892D02*
D03*
Y996442D02*
D03*
X127000Y417831D02*
D03*
X341885Y1524000D02*
D03*
X315977Y509524D02*
D03*
X274575Y557531D02*
D03*
X353823Y638811D02*
D03*
X343155Y708914D02*
D03*
X200661Y431547D02*
D03*
X252985Y762001D02*
D03*
X208281Y329947D02*
D03*
X240793Y643636D02*
D03*
X227585Y667766D02*
D03*
X221743Y777748D02*
D03*
X24385Y615443D02*
D03*
X12447Y665759D02*
D03*
X284989Y611180D02*
D03*
X30227Y172467D02*
D03*
X55881Y477520D02*
D03*
X377445Y1538224D02*
D03*
X369063Y713232D02*
D03*
X86361Y653796D02*
D03*
Y615951D02*
D03*
X360681Y1306577D02*
D03*
X331780Y1462080D02*
D03*
X296165Y983488D02*
D03*
X335027Y602234D02*
D03*
X284989Y684023D02*
D03*
X289137Y1037337D02*
D03*
X70105Y1051307D02*
D03*
Y1070102D02*
D03*
X-21843Y559054D02*
D03*
X310285Y1066801D02*
D03*
X212853Y1030732D02*
D03*
X390756Y821945D02*
D03*
X230854Y990473D02*
D03*
X355855Y648970D02*
D03*
X377973Y635000D02*
D03*
X209043Y755396D02*
D03*
X109221Y382016D02*
D03*
X6097Y1076199D02*
D03*
X26163Y1104901D02*
D03*
X52571Y772660D02*
D03*
X304800Y725157D02*
D03*
X330121Y838201D02*
D03*
X123699Y1288289D02*
D03*
X313945Y1195324D02*
D03*
X138120Y1219201D02*
D03*
X148337Y1081533D02*
D03*
X150877Y1206500D02*
D03*
X241301Y715772D02*
D03*
X6097Y1086612D02*
D03*
X-761Y1196340D02*
D03*
X26925Y977900D02*
D03*
X369825Y154432D02*
D03*
X97861Y501651D02*
D03*
X106198Y828723D02*
D03*
X11939Y723900D02*
D03*
X61977Y560070D02*
D03*
X46991Y426721D02*
D03*
X7113Y617220D02*
D03*
X-4825Y1294892D02*
D03*
X294895Y607569D02*
D03*
M02*
