G04 Layer_Physical_Order=1*
G04 Layer_Color=255*
%FSLAX44Y44*%
%MOMM*%
G71*
G01*
G75*
G04:AMPARAMS|DCode=10|XSize=1.57mm|YSize=8mm|CornerRadius=0.3925mm|HoleSize=0mm|Usage=FLASHONLY|Rotation=90.000|XOffset=0mm|YOffset=0mm|HoleType=Round|Shape=RoundedRectangle|*
%AMROUNDEDRECTD10*
21,1,1.5700,7.2150,0,0,90.0*
21,1,0.7850,8.0000,0,0,90.0*
1,1,0.7850,3.6075,0.3925*
1,1,0.7850,3.6075,-0.3925*
1,1,0.7850,-3.6075,-0.3925*
1,1,0.7850,-3.6075,0.3925*
%
%ADD10ROUNDEDRECTD10*%
%ADD11C,0.3000*%
%ADD12C,0.6000*%
%ADD13C,1.5240*%
%ADD14R,1.5240X1.5240*%
%ADD15C,1.5000*%
%ADD16P,1.6236X8X202.5*%
%ADD17C,1.7500*%
%ADD18C,0.6000*%
D10*
X-45720Y1282700D02*
D03*
Y673100D02*
D03*
Y647700D02*
D03*
Y1308100D02*
D03*
Y1206500D02*
D03*
Y1231900D02*
D03*
Y1257300D02*
D03*
Y1104900D02*
D03*
Y1130300D02*
D03*
Y1155700D02*
D03*
Y1181100D02*
D03*
Y1003300D02*
D03*
Y1028700D02*
D03*
Y1054100D02*
D03*
Y1079500D02*
D03*
Y901700D02*
D03*
Y927100D02*
D03*
Y952500D02*
D03*
Y977900D02*
D03*
Y800100D02*
D03*
Y825500D02*
D03*
Y850900D02*
D03*
Y876300D02*
D03*
Y723900D02*
D03*
Y749300D02*
D03*
Y774700D02*
D03*
Y698500D02*
D03*
Y622300D02*
D03*
Y596900D02*
D03*
Y571500D02*
D03*
Y546100D02*
D03*
D11*
X198921Y1109179D02*
X200661Y1107439D01*
X198921Y1013268D02*
Y1109179D01*
X177800Y1249173D02*
X184659D01*
X254000Y550164D02*
X267209D01*
X354077Y1278129D02*
Y1281176D01*
X313945Y1195324D02*
Y1295400D01*
Y1121155D02*
Y1195324D01*
X212853Y1007077D02*
Y1030732D01*
X315977Y598424D02*
Y600710D01*
Y509524D02*
Y598424D01*
X-13461Y1104900D02*
Y1113028D01*
X-9397Y1079500D02*
Y1091439D01*
X-14478Y1130300D02*
X-8947D01*
X166625Y430275D02*
X177800Y419100D01*
X166625Y430275D02*
Y576522D01*
X172780Y582677D01*
X188170D01*
X215647Y610153D01*
Y767375D01*
X207439Y775583D02*
X215647Y767375D01*
X207439Y775583D02*
Y806117D01*
X217679Y816357D01*
Y954636D01*
X212956Y959359D02*
X217679Y954636D01*
X212956Y959359D02*
Y991824D01*
X219353Y998221D01*
Y1257793D01*
X203590Y1273557D02*
X219353Y1257793D01*
X160021Y1273557D02*
X203590D01*
X160021Y1243076D02*
Y1273557D01*
X115825Y331725D02*
X127000Y342900D01*
X115825Y256541D02*
Y331725D01*
Y256541D02*
X119889Y252477D01*
X154687D01*
X174753Y232411D01*
X219457D01*
X237745Y214123D01*
Y62738D02*
Y214123D01*
Y62738D02*
X254001Y46483D01*
X309119D01*
X315977Y53341D01*
Y150877D01*
X293680Y173173D02*
X315977Y150877D01*
X293680Y173173D02*
Y201677D01*
X323724Y231720D01*
Y411988D01*
X354227Y442492D01*
Y621609D01*
X336551Y639286D02*
X354227Y621609D01*
X336551Y639286D02*
Y716788D01*
X313945Y739395D02*
X336551Y716788D01*
X313945Y739395D02*
Y885444D01*
X330200Y901700D01*
X342900Y1041401D02*
X355600Y1028700D01*
X324162Y1041401D02*
X342900D01*
X296137Y1069425D02*
X324162Y1041401D01*
X296137Y1069425D02*
Y1134518D01*
X292204Y1138451D02*
X296137Y1134518D01*
X292204Y1138451D02*
Y1193696D01*
X254000Y1231900D02*
X292204Y1193696D01*
X242880Y1155700D02*
X254000D01*
X242880Y1119125D02*
Y1155700D01*
Y1119125D02*
X255271D01*
X259589Y1114807D01*
X265177D01*
Y1108529D02*
Y1114807D01*
Y1108529D02*
X276136Y1097570D01*
Y1020535D02*
Y1097570D01*
Y1020535D02*
X277623Y1019048D01*
X254000Y1054100D02*
X265211Y1042889D01*
Y946875D02*
Y1042889D01*
X259716Y941380D02*
X265211Y946875D01*
X242825Y941380D02*
X259716D01*
X242825Y811275D02*
Y941380D01*
Y811275D02*
X254000Y800100D01*
X316993Y1024382D02*
Y1035304D01*
Y1024382D02*
X323851Y1017524D01*
X366720D01*
Y1083644D01*
X371721Y1088644D01*
Y1158631D01*
X366777Y1163575D02*
X371721Y1158631D01*
X299053Y1144525D02*
X301137Y1142440D01*
Y1079608D02*
Y1142440D01*
Y1079608D02*
X303785Y1076961D01*
X200661Y1084072D02*
Y1107439D01*
X146547Y911861D02*
Y945353D01*
X141582Y950318D02*
X146547Y945353D01*
X141582Y950318D02*
Y976686D01*
X148121Y983224D01*
Y1064045D01*
X155449Y1071373D01*
Y1133348D01*
X177800Y1155700D01*
X322580Y1087121D02*
X330200Y1079500D01*
X315723Y1087121D02*
X322580D01*
X308103Y1094741D02*
X315723Y1087121D01*
X308103Y1094741D02*
Y1099820D01*
X115825Y1169924D02*
X127000Y1181100D01*
X115825Y1017595D02*
Y1169924D01*
X102880Y1004650D02*
X115825Y1017595D01*
X102880Y989683D02*
Y1004650D01*
Y989683D02*
X109082Y983480D01*
X355600Y774700D02*
X366777Y763523D01*
Y740665D02*
Y763523D01*
X360935Y734822D02*
X366777Y740665D01*
X360935Y676885D02*
Y734822D01*
X50800Y342900D02*
X61920Y354020D01*
Y404877D01*
X58421Y408376D02*
X61920Y404877D01*
X58421Y408376D02*
Y423164D01*
X50800Y292100D02*
X56389Y286511D01*
X61977Y277820D01*
Y177547D02*
Y277820D01*
X240285Y1278129D02*
X253747Y1291591D01*
Y1326897D01*
X386081Y838050D02*
Y849631D01*
X373381Y825350D02*
X386081Y838050D01*
X373381Y730759D02*
Y825350D01*
X388875Y790470D02*
X395121Y784223D01*
Y585621D02*
Y784223D01*
X381000Y571500D02*
X395121Y585621D01*
X-45720Y647700D02*
X2287D01*
X10415Y639572D01*
X24385Y497840D02*
Y532131D01*
Y497840D02*
X38101Y484124D01*
X68581D01*
X266701Y467107D02*
Y518669D01*
X274136Y526104D01*
Y546100D01*
X347179Y1395261D02*
X368300Y1374140D01*
X347179Y1395261D02*
Y1496252D01*
X305889Y1537542D02*
X347179Y1496252D01*
X280925Y1537542D02*
X305889D01*
X280925Y1509776D02*
Y1537542D01*
Y1509776D02*
X292100Y1498600D01*
Y1600200D02*
X352180Y1540120D01*
Y1418455D02*
Y1540120D01*
Y1418455D02*
X384721Y1385914D01*
Y886967D02*
Y1385914D01*
X366777Y869023D02*
X384721Y886967D01*
X366777Y837569D02*
Y869023D01*
X344425Y837569D02*
X366777D01*
X344425Y736093D02*
Y837569D01*
Y736093D02*
X354655Y725862D01*
Y700278D02*
Y725862D01*
X351791Y697414D02*
X354655Y700278D01*
X351791Y666035D02*
Y697414D01*
Y666035D02*
X362355Y655471D01*
Y627680D02*
Y655471D01*
X359665Y624989D02*
X362355Y627680D01*
X359665Y249935D02*
Y624989D01*
Y249935D02*
X381000Y228600D01*
X200407Y1283811D02*
Y1345439D01*
Y1283811D02*
X224353Y1259864D01*
Y980765D02*
Y1259864D01*
X219457Y975869D02*
X224353Y980765D01*
X197359Y847345D02*
X198883Y848868D01*
X197359Y716535D02*
Y847345D01*
X188977Y708152D02*
X197359Y716535D01*
X188977Y658876D02*
Y708152D01*
X177800Y647700D02*
X188977Y658876D01*
X148685Y618585D02*
X156464Y626364D01*
X148685Y597503D02*
Y618585D01*
X145543Y594361D02*
X148685Y597503D01*
X266447Y533147D02*
Y543052D01*
X254000Y520700D02*
X266447Y533147D01*
X241554Y279146D02*
X254000Y266700D01*
X174753Y279146D02*
X241554D01*
X156679Y297220D02*
X174753Y279146D01*
X156679Y297220D02*
Y400516D01*
X142090Y415105D02*
X156679Y400516D01*
X142090Y415105D02*
Y531010D01*
X127000Y546100D02*
X142090Y531010D01*
X127000Y596900D02*
X138685Y608585D01*
Y655321D01*
X143120Y659756D01*
Y762137D01*
X94159Y811098D02*
X143120Y762137D01*
X94159Y811098D02*
Y928549D01*
X100585Y934975D01*
X249937Y996951D02*
X254000Y1001014D01*
Y1028700D01*
X242825Y342900D02*
X254000D01*
X242825Y304800D02*
Y342900D01*
Y304800D02*
X257026D01*
X270257Y291570D01*
Y133604D02*
Y291570D01*
X265177Y128525D02*
X270257Y133604D01*
X242825Y128525D02*
X265177D01*
X242825Y77470D02*
Y128525D01*
Y77470D02*
X265177D01*
X289561Y53087D01*
X157735Y1324102D02*
X176785Y1343152D01*
X157735Y1292352D02*
Y1324102D01*
X149353Y1283970D02*
X157735Y1292352D01*
X149353Y1243076D02*
Y1283970D01*
X61977Y1076706D02*
X76201Y1090930D01*
X61977Y1015492D02*
Y1076706D01*
X39625Y993140D02*
X61977Y1015492D01*
X39625Y963677D02*
Y993140D01*
Y963677D02*
X67565D01*
X78995Y952246D01*
Y768858D02*
Y952246D01*
X159767Y695960D02*
Y768858D01*
X196851Y625857D02*
Y695960D01*
X180341Y609347D02*
X196851Y625857D01*
X171451Y609347D02*
X180341D01*
X163686Y601582D02*
X171451Y609347D01*
X163686Y584461D02*
Y601582D01*
X160529Y581303D02*
X163686Y584461D01*
X160529Y418592D02*
Y581303D01*
Y418592D02*
X166680Y412441D01*
Y380691D02*
Y412441D01*
Y380691D02*
X168403Y378969D01*
X381000Y190500D02*
X397121Y206620D01*
Y529980D01*
X381000Y546100D02*
X397121Y529980D01*
X323089Y146812D02*
X381000Y88900D01*
X323089Y146812D02*
Y179324D01*
X319080Y183333D02*
X323089Y179324D01*
X319080Y183333D02*
Y200903D01*
X332487Y214310D01*
Y395718D01*
X110745Y1297178D02*
X136145Y1322578D01*
X110745Y1094995D02*
Y1297178D01*
X97283Y1081533D02*
X110745Y1094995D01*
X97283Y1017088D02*
Y1081533D01*
X89159Y1008964D02*
X97283Y1017088D01*
X89159Y808050D02*
Y1008964D01*
Y808050D02*
X101600Y795609D01*
Y736600D02*
Y795609D01*
X88901Y689102D02*
X92861Y685142D01*
Y583335D02*
Y685142D01*
X86361Y576834D02*
X92861Y583335D01*
X23623Y451613D02*
X39625Y467615D01*
X23623Y201677D02*
Y451613D01*
X127000Y571500D02*
X135472D01*
X150121Y586149D01*
Y589115D01*
X153685Y592680D01*
Y612141D01*
X164743Y623198D01*
Y632864D01*
X153121Y644486D02*
X164743Y632864D01*
X153121Y644486D02*
Y924938D01*
X151679Y926379D02*
X153121Y924938D01*
X151679Y926379D02*
Y962325D01*
X148083Y965922D02*
X151679Y962325D01*
X348997Y197104D02*
X355600Y190500D01*
X348997Y197104D02*
Y292100D01*
X369825Y585724D02*
X381000Y596900D01*
X369825Y560325D02*
Y585724D01*
Y560325D02*
X388113D01*
X400121Y572333D01*
Y796982D01*
X388875Y808229D02*
X400121Y796982D01*
X177800Y1249173D02*
Y1257300D01*
X184659Y1249173D02*
X207161Y1226670D01*
Y1070102D02*
Y1226670D01*
X203963Y1066904D02*
X207161Y1070102D01*
X203963Y1009275D02*
Y1066904D01*
X202956Y1008268D02*
X203963Y1009275D01*
X202956Y856657D02*
Y1008268D01*
Y856657D02*
X205383Y854230D01*
Y831215D02*
Y854230D01*
X203963Y829795D02*
X205383Y831215D01*
X177800Y546100D02*
X193920Y529980D01*
Y385620D02*
Y529980D01*
X177800Y369500D02*
X193920Y385620D01*
X109475Y996189D02*
Y1000760D01*
X127000Y1018286D01*
Y1028700D01*
X298464Y994410D02*
Y1049007D01*
X286137Y1061335D02*
X298464Y1049007D01*
X286137Y1061335D02*
Y1107570D01*
X281626Y1112081D02*
X286137Y1107570D01*
X281626Y1112081D02*
Y1115630D01*
X265177Y1132078D02*
X281626Y1115630D01*
X265177Y1132078D02*
Y1195323D01*
X254000Y1206500D02*
X265177Y1195323D01*
X242825Y404875D02*
X254000Y393700D01*
X242825Y404875D02*
Y468234D01*
X234879Y476179D02*
X242825Y468234D01*
X234879Y476179D02*
Y565221D01*
X247721D01*
X254000Y571500D01*
X212439Y795115D02*
X226061Y808736D01*
X212439Y777654D02*
Y795115D01*
Y777654D02*
X220727Y769367D01*
Y597074D02*
Y769367D01*
X195152Y571500D02*
X220727Y597074D01*
X177800Y571500D02*
X195152D01*
X127000Y1045211D02*
Y1054100D01*
Y1045211D02*
X138120Y1034091D01*
Y1018141D02*
Y1034091D01*
X127001Y1007021D02*
X138120Y1018141D01*
X254000Y850900D02*
X270211Y867111D01*
Y1090240D01*
X264747Y1095704D02*
X270211Y1090240D01*
X254000Y1104900D02*
X264747Y1095704D01*
X304800Y469900D02*
X325629Y490728D01*
Y554482D01*
X313945Y1121155D02*
X330200Y1104900D01*
X211075Y825247D02*
Y879603D01*
X202439Y816610D02*
X211075Y825247D01*
X202439Y711200D02*
Y816610D01*
X79757Y664211D02*
X81281Y665734D01*
X79757Y504953D02*
Y664211D01*
Y504953D02*
X91695Y493014D01*
Y475234D02*
Y493014D01*
X179325Y475234D02*
X188920Y465639D01*
Y405620D02*
Y465639D01*
X177800Y394500D02*
X188920Y405620D01*
X211075Y879603D02*
Y953629D01*
X207956Y956748D02*
X211075Y953629D01*
X207956Y956748D02*
Y1002181D01*
X212853Y1007077D01*
X188920Y1268476D02*
X212853Y1244544D01*
X166625Y1217675D02*
Y1268476D01*
X241300Y1433577D02*
Y1447800D01*
X225662Y1433577D02*
X241300D01*
X98807Y1306721D02*
X225662Y1433577D01*
X98807Y1187446D02*
Y1306721D01*
X94239Y1182878D02*
X98807Y1187446D01*
X94239Y1093062D02*
Y1182878D01*
X89742Y1088565D02*
X94239Y1093062D01*
X89742Y1027591D02*
Y1088565D01*
X61977Y999825D02*
X89742Y1027591D01*
X304800Y1714500D02*
X316993Y1726693D01*
Y1803907D01*
X304800Y1816100D02*
X316993Y1803907D01*
X241300Y1346200D02*
X246396Y1341104D01*
X254001D01*
X260420Y1334685D01*
Y1289007D02*
Y1334685D01*
X237880Y1266467D02*
X260420Y1289007D01*
X237880Y1100447D02*
Y1266467D01*
Y1100447D02*
X247651Y1090676D01*
X262013D01*
X265120Y1087569D01*
Y1068380D02*
Y1087569D01*
X262017Y1065276D02*
X265120Y1068380D01*
X242831Y1065276D02*
X262017D01*
X242831Y967943D02*
Y1065276D01*
X237561Y962673D02*
X242831Y967943D01*
X237561Y797689D02*
Y962673D01*
Y797689D02*
X246325Y788924D01*
X260835D01*
X278385Y771375D01*
Y579246D02*
Y771375D01*
Y579246D02*
X287297Y570334D01*
Y521944D02*
Y570334D01*
X278385Y513031D02*
X287297Y521944D01*
X278385Y129738D02*
Y513031D01*
X262947Y114300D02*
X278385Y129738D01*
X254000Y114300D02*
X262947D01*
X38100Y1498600D02*
Y1549400D01*
Y1498600D02*
X50800Y1485900D01*
X25400D02*
Y1586700D01*
X38100Y1599400D01*
X50800Y977900D02*
X61583D01*
X84159Y955324D01*
Y804842D02*
Y955324D01*
Y804842D02*
X88901Y800100D01*
Y708173D02*
Y800100D01*
Y708173D02*
X104395Y692679D01*
Y474473D02*
Y692679D01*
X90425Y460503D02*
X104395Y474473D01*
X90425Y291084D02*
Y460503D01*
Y291084D02*
X92203Y289307D01*
Y214377D02*
Y289307D01*
Y214377D02*
X152655Y153925D01*
X182373D01*
X199137Y170688D01*
Y218440D01*
X190501Y227076D02*
X199137Y218440D01*
X166625Y227076D02*
X190501D01*
X166625Y201675D02*
Y227076D01*
Y201675D02*
X177800Y190500D01*
X127000Y1231900D02*
X133199Y1225701D01*
X146201D01*
Y1212700D02*
Y1225701D01*
X143120Y1209620D02*
X146201Y1212700D01*
X143120Y1088780D02*
Y1209620D01*
X138177Y1083836D02*
X143120Y1088780D01*
X138177Y1044820D02*
Y1083836D01*
Y1044820D02*
X143120Y1039876D01*
Y1012580D02*
Y1039876D01*
X115880Y985339D02*
X143120Y1012580D01*
X115880Y941380D02*
Y985339D01*
Y941380D02*
X138177D01*
Y836676D02*
Y941380D01*
X127000Y825500D02*
X138177Y836676D01*
X13463Y939037D02*
X15290Y940865D01*
Y1030501D01*
X17465Y1032676D01*
Y1066993D01*
X38863Y1088391D01*
Y1166115D01*
X40895Y1168147D01*
X61920D01*
Y1192277D01*
X38101D02*
X61920D01*
X24893Y1205484D02*
X38101Y1192277D01*
X24893Y1205484D02*
Y1282700D01*
X315977Y598424D02*
X327661Y610108D01*
X-45720Y800100D02*
X-1269D01*
X5335Y793496D01*
Y748030D02*
Y793496D01*
X39117Y692404D02*
X40387Y693674D01*
X39117Y592836D02*
Y692404D01*
X115825Y359646D02*
Y563800D01*
Y359646D02*
X121394Y354076D01*
X138120D01*
Y328620D02*
Y354076D01*
X127000Y317500D02*
X138120Y328620D01*
X234292Y649582D02*
X236221Y651510D01*
X234292Y592432D02*
Y649582D01*
X219879Y578019D02*
X234292Y592432D01*
X219879Y441538D02*
Y578019D01*
Y441538D02*
X223267Y438150D01*
X-45720Y876300D02*
X-13207D01*
X9145Y853949D01*
X189739Y729489D02*
Y811531D01*
X177800Y717551D02*
X189739Y729489D01*
X177800Y673100D02*
Y717551D01*
X88900Y1346200D02*
X100077Y1335023D01*
Y1316250D02*
Y1335023D01*
X93727Y1309900D02*
X100077Y1316250D01*
X93727Y1218185D02*
Y1309900D01*
X89155Y1213613D02*
X93727Y1218185D01*
X89155Y1096011D02*
Y1213613D01*
X83361Y1090217D02*
X89155Y1096011D01*
X83361Y1052625D02*
Y1090217D01*
X68581Y1037844D02*
X83361Y1052625D01*
X50800Y1104900D02*
X76921Y1131021D01*
Y1208151D01*
X72401Y1212671D02*
X76921Y1208151D01*
X72401Y1212671D02*
Y1380501D01*
X88900Y1397000D01*
X34680Y1222620D02*
X50800Y1206500D01*
X34680Y1222620D02*
Y1299153D01*
X56135Y1320607D01*
Y1406398D01*
X66920Y1417184D01*
Y1443092D01*
X85853Y1462025D01*
X100077D01*
Y1487424D01*
X88900Y1498600D02*
X100077Y1487424D01*
X50800Y1231900D02*
Y1246180D01*
X39680D02*
X50800D01*
X39680D02*
Y1288852D01*
X46229Y1295401D01*
X381000Y254000D02*
Y262129D01*
X364745Y278384D02*
X381000Y262129D01*
X364745Y278384D02*
Y593344D01*
X369825Y598424D01*
Y698421D01*
X387176Y715772D01*
Y758524D01*
X388621Y759968D01*
X366777Y781813D02*
Y827612D01*
X371777Y832613D01*
Y847519D01*
X389721Y865463D01*
Y1470830D01*
X376175Y1484377D02*
X389721Y1470830D01*
X357180Y1484377D02*
X376175D01*
X357180D02*
Y1669995D01*
X329693Y1697482D02*
X357180Y1669995D01*
X329693Y1697482D02*
Y1876806D01*
X322327Y1884173D02*
X329693Y1876806D01*
X262129Y1884173D02*
X322327D01*
X9145Y1631189D02*
X262129Y1884173D01*
X9145Y1330706D02*
Y1631189D01*
X-13461Y1308100D02*
X9145Y1330706D01*
X-45720Y1308100D02*
X-13461D01*
X326899Y632018D02*
Y715518D01*
Y632018D02*
X342161Y616756D01*
Y454372D02*
Y616756D01*
X318723Y430935D02*
X342161Y454372D01*
X318723Y293323D02*
Y430935D01*
X304800Y279400D02*
X318723Y293323D01*
X280925Y1585975D02*
X292100Y1574800D01*
X280925Y1585975D02*
Y1615186D01*
X309119D01*
X322073Y1628141D01*
Y1869440D01*
X313437Y1878076D02*
X322073Y1869440D01*
X265939Y1878076D02*
X313437D01*
X221997Y1834135D02*
X265939Y1878076D01*
X221997Y1475741D02*
Y1834135D01*
Y1475741D02*
X238761Y1458976D01*
X245850D01*
X252477Y1452350D01*
Y1385824D02*
Y1452350D01*
X189588Y1385824D02*
X252477D01*
X104141Y1300377D02*
X189588Y1385824D01*
X104141Y1180339D02*
Y1300377D01*
X113539Y592836D02*
Y625602D01*
Y592836D02*
X120651Y585724D01*
X138177D01*
Y597742D01*
X143685Y603251D01*
Y646567D01*
X148121Y651003D01*
Y767550D01*
X99569Y816103D02*
X148121Y767550D01*
X99569Y816103D02*
Y832867D01*
X107189Y840487D01*
Y943102D01*
X97879Y952412D02*
X107189Y943102D01*
X97879Y952412D02*
Y1007689D01*
X104141Y1013950D01*
Y1062737D01*
X24385Y1030225D02*
Y1064260D01*
X21845Y1027684D02*
X24385Y1030225D01*
X304547Y1561339D02*
X341885Y1524000D01*
X285243Y1561339D02*
X304547D01*
X275845Y1551940D02*
X285243Y1561339D01*
X275845Y1498855D02*
Y1551940D01*
Y1498855D02*
X290323Y1484377D01*
X303220D01*
Y1407668D02*
Y1484377D01*
X280925Y1385373D02*
X303220Y1407668D01*
X280925Y1259840D02*
Y1385373D01*
X267209Y1246124D02*
X280925Y1259840D01*
X242880Y1246124D02*
X267209D01*
X242880Y1220724D02*
Y1246124D01*
Y1220724D02*
X257049D01*
X275591Y1202182D01*
Y1138428D02*
Y1202182D01*
Y1138428D02*
X289053Y1124967D01*
Y1113537D02*
Y1124967D01*
Y1113537D02*
X291137Y1111452D01*
Y1065023D02*
Y1111452D01*
Y1065023D02*
X308865Y1047295D01*
Y734314D02*
Y1047295D01*
Y734314D02*
X320295Y722885D01*
Y708914D02*
Y722885D01*
Y708914D02*
X321057Y708152D01*
Y605790D02*
Y708152D01*
X315977Y600710D02*
X321057Y605790D01*
X254000Y774700D02*
X273305Y755396D01*
Y573121D02*
Y755396D01*
Y573121D02*
X281121Y565305D01*
Y525848D02*
Y565305D01*
X273305Y518032D02*
X281121Y525848D01*
X273305Y336805D02*
Y518032D01*
X254000Y317500D02*
X273305Y336805D01*
X254000Y546100D02*
Y550164D01*
X267209D02*
X274575Y557531D01*
X341551Y651082D02*
X353823Y638811D01*
X341551Y651082D02*
Y707311D01*
X343155Y708914D01*
X254000Y495300D02*
X254913Y496213D01*
Y519787D01*
X254000Y520700D02*
X254913Y519787D01*
X200661Y431547D02*
Y568895D01*
X229292Y597526D01*
Y655137D01*
X234189Y660034D01*
Y754889D01*
X241301Y762001D01*
X252985D01*
X208281Y329947D02*
X229617Y351283D01*
Y422733D01*
X230361Y423477D01*
Y460697D01*
X224879Y466179D02*
X230361Y460697D01*
X224879Y466179D02*
Y573113D01*
X240793Y589026D01*
Y643636D01*
X227585Y667766D02*
Y771907D01*
X221743Y777748D02*
X227585Y771907D01*
X236912Y385388D02*
X254000Y368300D01*
X236912Y385388D02*
Y464146D01*
X229879Y471179D02*
X236912Y464146D01*
X229879Y471179D02*
Y570221D01*
X235772D01*
X254000Y588449D01*
Y596900D01*
X42164Y927100D02*
X50800D01*
X24385Y909321D02*
X42164Y927100D01*
X24385Y615443D02*
Y909321D01*
X-45720Y673100D02*
X5106D01*
X12447Y665759D01*
X284989Y611180D02*
Y627888D01*
X304800Y647700D01*
X39680Y534980D02*
X50800Y546100D01*
X39680Y509524D02*
Y534980D01*
Y509524D02*
X56745D01*
X75081Y491189D01*
Y471020D02*
Y491189D01*
X63701Y459641D02*
X75081Y471020D01*
X42065Y459641D02*
X63701D01*
X29465Y447040D02*
X42065Y459641D01*
X29465Y237745D02*
Y447040D01*
Y237745D02*
X30227Y236982D01*
Y172467D02*
Y236982D01*
X50800Y952500D02*
X60150D01*
X69921Y942729D01*
Y907979D02*
Y942729D01*
X63501Y901559D02*
X69921Y907979D01*
X63501Y707391D02*
Y901559D01*
Y707391D02*
X74630Y696261D01*
Y501640D02*
Y696261D01*
Y501640D02*
X80081Y496189D01*
Y466020D02*
Y496189D01*
X65025Y450963D02*
X80081Y466020D01*
X65025Y409820D02*
Y450963D01*
Y409820D02*
X66920Y407924D01*
Y280924D02*
Y407924D01*
Y280924D02*
X87123Y260722D01*
Y196089D02*
Y260722D01*
Y196089D02*
X143511Y139700D01*
X177800D01*
X19051Y477520D02*
X55881D01*
X17273Y479299D02*
X19051Y477520D01*
X17273Y479299D02*
Y652272D01*
X19305Y654305D01*
Y882396D01*
X1Y901700D02*
X19305Y882396D01*
X-45720Y901700D02*
X1D01*
X377445Y1538224D02*
X396161Y1519508D01*
Y836851D02*
Y1519508D01*
X382016Y822706D02*
X396161Y836851D01*
X382016Y726186D02*
Y822706D01*
X369063Y713232D02*
X382016Y726186D01*
X86361Y615951D02*
Y653796D01*
X161680Y333620D02*
X177800Y317500D01*
X161680Y333620D02*
Y405541D01*
X155112Y412108D02*
X161680Y405541D01*
X155112Y412108D02*
Y584106D01*
X158686Y587679D01*
Y603986D01*
X177800Y623100D01*
X360681Y1306577D02*
Y1309879D01*
X357125Y1313434D02*
X360681Y1309879D01*
X357125Y1313434D02*
Y1361242D01*
X355347Y1363020D02*
X357125Y1361242D01*
X331780Y1363020D02*
X355347D01*
X331780D02*
Y1462080D01*
X296165Y746760D02*
Y983488D01*
X291593Y742188D02*
X296165Y746760D01*
X291593Y661925D02*
Y742188D01*
Y661925D02*
X315977D01*
Y633476D02*
Y661925D01*
X304800Y622300D02*
X315977Y633476D01*
X304800Y304800D02*
Y319025D01*
X293680D02*
X304800D01*
X293680D02*
Y397002D01*
X304801D01*
X311405Y403606D01*
Y432562D01*
X335027Y456185D01*
Y602234D01*
X284989Y684023D02*
Y778002D01*
X281282Y781709D02*
X284989Y778002D01*
X281282Y781709D02*
Y1003046D01*
X289137Y1010901D01*
Y1037337D01*
X70105Y1051307D02*
Y1070102D01*
X-45720Y1104900D02*
X-13461D01*
Y1113028D02*
X32917D01*
Y1094671D02*
Y1113028D01*
X12465Y1074220D02*
X32917Y1094671D01*
X12465Y1040106D02*
Y1074220D01*
X10290Y1037931D02*
X12465Y1040106D01*
X10290Y1030311D02*
Y1037931D01*
X6605Y1026625D02*
X10290Y1030311D01*
X6605Y920751D02*
Y1026625D01*
Y920751D02*
X20321Y934466D01*
Y1014435D01*
X30297Y1024411D01*
Y1058997D01*
X50800Y1079500D01*
X247124Y1072624D02*
X254000Y1079500D01*
X237745Y1072624D02*
X247124D01*
X237745Y972857D02*
Y1072624D01*
X232561Y967673D02*
X237745Y972857D01*
X232561Y791086D02*
Y967673D01*
Y791086D02*
X240721Y782927D01*
X245774D01*
X254000Y774700D01*
X344425Y1268476D02*
X354077Y1278129D01*
X344425Y1150113D02*
Y1268476D01*
Y1150113D02*
X353061Y1141477D01*
X366720D01*
Y1093725D02*
Y1141477D01*
X347473Y1093725D02*
X366720D01*
X344425Y1090676D02*
X347473Y1093725D01*
X344425Y1074675D02*
Y1090676D01*
X336551Y1066801D02*
X344425Y1074675D01*
X310285Y1066801D02*
X336551D01*
X319080Y1169980D02*
X330200Y1181100D01*
X319080Y1144525D02*
Y1169980D01*
Y1144525D02*
X341377D01*
Y1095621D02*
Y1144525D01*
X339480Y1093725D02*
X341377Y1095621D01*
X321057Y1093725D02*
X339480D01*
X315860Y1098921D02*
X321057Y1093725D01*
X315860Y1098921D02*
Y1107578D01*
X306138Y1117301D02*
X315860Y1107578D01*
X306138Y1117301D02*
Y1334838D01*
X317500Y1346200D01*
X212853Y1030732D02*
Y1244544D01*
X166625Y1268476D02*
X188920D01*
X166625Y1217675D02*
X177800Y1206500D01*
X254000Y825500D02*
X276282Y847782D01*
Y1005436D01*
X284136Y1013290D01*
Y1022580D01*
X281136Y1025580D02*
X284136Y1022580D01*
X281136Y1025580D02*
Y1102570D01*
X276625Y1107081D02*
X281136Y1102570D01*
X276625Y1107081D02*
Y1111951D01*
X267718Y1120858D02*
X276625Y1111951D01*
X263442Y1120858D02*
X267718D01*
X254000Y1130300D02*
X263442Y1120858D01*
X368300Y1866900D02*
X401161Y1834039D01*
Y832349D02*
Y1834039D01*
X390756Y821945D02*
X401161Y832349D01*
X319025Y788924D02*
X330200Y800100D01*
X319025Y744749D02*
Y788924D01*
Y744749D02*
X349655Y714118D01*
Y702414D02*
Y714118D01*
X346551Y699310D02*
X349655Y702414D01*
X346551Y658274D02*
Y699310D01*
Y658274D02*
X355855Y648970D01*
X377973Y635000D02*
X381000Y631973D01*
Y622300D02*
Y631973D01*
X165975Y762875D02*
X177800Y774700D01*
X165975Y709373D02*
Y762875D01*
Y709373D02*
X168926Y706422D01*
Y693204D02*
Y706422D01*
X165183Y689460D02*
X168926Y693204D01*
X165183Y642425D02*
Y689460D01*
Y642425D02*
X169743Y637865D01*
Y631157D02*
Y637865D01*
Y631157D02*
X177800Y623100D01*
X50800Y520700D02*
X69192Y539092D01*
Y692808D01*
X50800Y711200D02*
X69192Y692808D01*
X50800Y1079500D02*
X81921Y1110621D01*
Y1217671D01*
X77401Y1222191D02*
X81921Y1217671D01*
X77401Y1222191D02*
Y1360101D01*
X88900Y1371600D01*
X209043Y629342D02*
Y755396D01*
X177800Y598100D02*
X209043Y629342D01*
X109221Y212090D02*
Y382016D01*
Y212090D02*
X145035Y176276D01*
X188977D01*
Y204723D01*
X177800Y215900D02*
X188977Y204723D01*
X-45720Y1155700D02*
X-253D01*
X7621Y1163574D01*
Y1293622D01*
X39625Y1325627D01*
Y1443990D01*
X72391Y1476756D01*
Y1482090D01*
X88900Y1498600D01*
X-45720Y1028700D02*
X-3302D01*
X5290Y1037292D01*
Y1075392D01*
X6097Y1076199D01*
X-45720Y1079500D02*
X-9397D01*
Y1091439D02*
X1525D01*
X14987Y1104901D01*
X26163D01*
X39625Y759715D02*
X52571Y772660D01*
X39625Y700278D02*
Y759715D01*
Y700278D02*
X46991D01*
X64192Y683077D01*
Y611492D02*
Y683077D01*
X50800Y598100D02*
X64192Y611492D01*
X304800Y673100D02*
Y725157D01*
X159075Y793425D02*
X177800Y774700D01*
X159075Y793425D02*
Y928984D01*
X156679Y931379D02*
X159075Y928984D01*
X156679Y931379D02*
Y1058379D01*
X177800Y1079500D01*
X330200Y1155700D02*
X341377Y1166877D01*
Y1268476D01*
X354077Y1281176D01*
Y1306537D01*
X352180Y1308434D02*
X354077Y1306537D01*
X352180Y1308434D02*
Y1311520D01*
X342900Y1320800D02*
X352180Y1311520D01*
X313945Y1295400D02*
X317500D01*
X127000Y1130300D02*
X138120Y1141420D01*
X148337Y1081533D02*
Y1203960D01*
X150877Y1206500D01*
X138120Y1141420D02*
Y1219201D01*
X292100Y1374140D02*
X308221Y1390260D01*
Y1509080D01*
X292100Y1525200D02*
X308221Y1509080D01*
X-45720Y1054100D02*
X-2031D01*
Y1078484D01*
X6097Y1086612D01*
X-45720Y1181100D02*
X-761D01*
Y1196340D01*
X177800Y825500D02*
X192280Y839980D01*
Y853554D01*
X195256Y856530D01*
Y1009603D01*
X198921Y1013268D01*
X177800Y1130300D02*
X198921Y1109179D01*
X177800Y850900D02*
X190256Y863356D01*
Y1014604D01*
X193920Y1018268D01*
Y1097963D01*
X184737D02*
X193920D01*
X177800Y1104900D02*
X184737Y1097963D01*
X166625Y811275D02*
X177800Y800100D01*
X166625Y811275D02*
Y931435D01*
X161680Y936380D02*
X166625Y931435D01*
X161680Y936380D02*
Y1037980D01*
X177800Y1054100D01*
X369825Y154432D02*
Y201423D01*
X392120Y223718D01*
Y319080D01*
X381000Y330200D02*
X392120Y319080D01*
X317500Y1374140D02*
X324217Y1367423D01*
Y1362479D02*
Y1367423D01*
Y1362479D02*
X328677Y1358020D01*
Y1252673D02*
Y1358020D01*
X319080Y1243076D02*
X328677Y1252673D01*
X319080Y1217620D02*
Y1243076D01*
Y1217620D02*
X330200Y1206500D01*
X113272Y636028D02*
X127000Y622300D01*
X113272Y636028D02*
Y697472D01*
X127000Y711200D01*
X101600D02*
X112777Y722376D01*
X132843D01*
X138120Y717099D01*
Y666749D02*
Y717099D01*
X127000Y655629D02*
X138120Y666749D01*
X127000Y647700D02*
Y655629D01*
X254000Y190500D02*
X265177Y201677D01*
Y279401D01*
X248921D02*
X265177D01*
X185421Y342900D02*
X248921Y279401D01*
X177800Y342900D02*
X185421D01*
X97861Y501651D02*
Y689539D01*
X76200Y711200D02*
X97861Y689539D01*
X115880Y915980D02*
X127000Y927100D01*
X115880Y838405D02*
Y915980D01*
X106198Y828723D02*
X115880Y838405D01*
X-45720Y723900D02*
X11939D01*
X177800Y1231900D02*
X188977Y1220723D01*
Y1144525D02*
Y1220723D01*
X174753Y1144525D02*
X188977D01*
X166625Y1136396D02*
X174753Y1144525D01*
X166625Y1090676D02*
Y1136396D01*
Y1090676D02*
X188920D01*
Y1022060D02*
Y1090676D01*
X166680Y999820D02*
X188920Y1022060D01*
X166680Y941380D02*
Y999820D01*
Y941380D02*
X177800D01*
Y927100D02*
Y941380D01*
X50800Y598100D02*
X61977D01*
Y560070D02*
Y598100D01*
X46991Y397509D02*
Y426721D01*
Y397509D02*
X50800Y393700D01*
X127000Y368300D02*
X135227Y360074D01*
X143120D01*
Y308220D02*
Y360074D01*
X127000Y292100D02*
X143120Y308220D01*
X-8947Y1130300D02*
X41853Y1181100D01*
X50800D01*
X241300Y1549400D02*
X274807Y1582907D01*
Y1621304D01*
X283232D01*
X315977Y1654048D01*
Y1703324D01*
X304800Y1714500D02*
X315977Y1703324D01*
X241300Y1600200D02*
X249174D01*
X268702Y1619728D01*
Y1627602D01*
X304800Y1663700D01*
X-45720Y1282700D02*
X-17018D01*
X-4825Y1294892D01*
X293625Y606298D02*
X294895Y607569D01*
X293625Y531875D02*
Y606298D01*
Y531875D02*
X304800Y520700D01*
X-45720Y1257300D02*
X1779D01*
Y1296163D01*
X14225Y1308609D01*
Y1446277D01*
X42673Y1474724D01*
X61977D01*
Y1519429D01*
X77725Y1535177D01*
X104141D01*
X112777Y1526541D01*
Y1370076D02*
Y1526541D01*
X88900Y1346200D02*
X112777Y1370076D01*
X-45720Y1130300D02*
X-14478D01*
X12955Y1157732D01*
Y1291082D01*
X50547Y1328674D01*
Y1419120D01*
X61920Y1430493D01*
Y1446220D01*
X88900Y1473200D01*
X50800Y1155700D02*
X60737D01*
Y1158796D01*
X66920Y1164980D01*
Y1197670D01*
X61920Y1202670D02*
X66920Y1197670D01*
X61920Y1202670D02*
Y1403729D01*
X71921Y1413730D01*
Y1430821D01*
X88900Y1447800D01*
X50800Y1130300D02*
X66920Y1146420D01*
Y1154979D01*
X71921Y1159979D01*
Y1203151D01*
X67401Y1207671D02*
X71921Y1203151D01*
X67401Y1207671D02*
Y1400901D01*
X88900Y1422400D01*
X279400Y1689100D02*
Y1714500D01*
Y1689100D02*
X304800Y1663700D01*
X34545Y428245D02*
X50800Y444500D01*
X34545Y282955D02*
Y428245D01*
Y282955D02*
X50800Y266700D01*
X381000Y63500D02*
X392177Y74676D01*
Y179324D01*
X381000Y190500D02*
X392177Y179324D01*
X39625Y328675D02*
X50800Y317500D01*
X39625Y328675D02*
Y382524D01*
X50800Y393700D01*
X342900Y1816100D02*
Y1866900D01*
X368300Y1346200D02*
Y1374140D01*
Y1320800D02*
Y1346200D01*
Y1295400D02*
Y1320800D01*
X292100Y1346200D02*
Y1374140D01*
Y1320800D02*
Y1346200D01*
Y1295400D02*
Y1320800D01*
X279400Y1714500D02*
Y1765300D01*
Y1816100D01*
D12*
X26925Y1004825D02*
X33067Y1010967D01*
X76201Y63500D02*
X125223D01*
X50800Y137923D02*
X125223Y63500D01*
X10669Y178055D02*
X50800Y137923D01*
Y241300D01*
Y88900D02*
Y137923D01*
X-34289Y571500D02*
X8891D01*
X-45720D02*
X-34289D01*
X127000Y1280160D02*
Y1284987D01*
Y1257300D02*
Y1280160D01*
X287180Y246220D02*
X304800Y228600D01*
X287180Y246220D02*
Y426880D01*
X304800Y444500D01*
X292101Y1854200D02*
X304800Y1866900D01*
X292101Y1778000D02*
Y1854200D01*
Y1778000D02*
X304800Y1765300D01*
X258573Y1455927D02*
X292100Y1422400D01*
X258573Y1455927D02*
Y1526541D01*
X248413Y1536700D02*
X258573Y1526541D01*
X234951Y1536700D02*
X248413D01*
X228601Y1543051D02*
X234951Y1536700D01*
X228601Y1543051D02*
Y1816100D01*
X279400Y1866900D01*
X88900Y1316905D02*
Y1320800D01*
X85815Y1313819D02*
X88900Y1316905D01*
X85815Y1223557D02*
Y1313819D01*
Y1223557D02*
X87123Y1222249D01*
X42418Y579883D02*
X50800Y571500D01*
X37847Y579883D02*
X42418D01*
X30989Y586740D02*
X37847Y579883D01*
X30989Y586740D02*
Y605536D01*
X32385Y606932D01*
Y807085D01*
X50800Y825500D01*
X254000Y1257300D02*
X272289Y1275589D01*
Y1358900D01*
X254000Y673100D02*
Y720138D01*
X258827Y724965D01*
X287783Y786892D02*
Y996442D01*
X368301Y139700D02*
X381000D01*
X330200Y177801D02*
X368301Y139700D01*
X330200Y177801D02*
Y190500D01*
X127000Y266700D02*
X158751D01*
X171371Y254080D01*
X215820D01*
X254000Y215900D01*
X127000Y393700D02*
Y417831D01*
X125223Y63500D02*
X177800D01*
X10669Y178055D02*
Y569722D01*
X8891Y571500D02*
X10669Y569722D01*
X254000Y673100D02*
X266701Y660399D01*
Y565150D02*
Y660399D01*
X260351Y558801D02*
X266701Y565150D01*
X249683Y558801D02*
X260351D01*
X249429Y558546D02*
X249683Y558801D01*
X241380Y558546D02*
X249429D01*
X241380Y482854D02*
Y558546D01*
Y482854D02*
X248667D01*
X254000Y477521D01*
Y444500D02*
Y477521D01*
X-34289Y571500D02*
X-21843Y559054D01*
X355600Y977900D02*
X373221Y995520D01*
Y1077224D01*
X378221Y1082224D01*
Y1164657D01*
X373221Y1169657D02*
X378221Y1164657D01*
X373221Y1169657D02*
Y1214279D01*
X355600Y1231900D02*
X373221Y1214279D01*
X230854Y990473D02*
Y1263176D01*
X220473Y1273557D02*
X230854Y1263176D01*
X220473Y1273557D02*
Y1361440D01*
X209895Y1372018D02*
X220473Y1361440D01*
X185737Y1372018D02*
X209895D01*
X150115Y1336396D02*
X185737Y1372018D01*
X150115Y1303275D02*
Y1336396D01*
X127000Y1280160D02*
X150115Y1303275D01*
X287180Y210979D02*
X304800Y228600D01*
X287180Y81121D02*
Y210979D01*
Y81121D02*
X304800Y63500D01*
X46061Y500039D02*
X50800Y495300D01*
X33180Y500039D02*
X46061D01*
X33180D02*
Y553880D01*
X50800Y571500D01*
X342820Y863520D02*
X355600Y876300D01*
X342820Y845672D02*
Y863520D01*
X335349Y838201D02*
X342820Y845672D01*
X330121Y838201D02*
X335349D01*
X123699Y1288289D02*
X127000Y1284987D01*
X228601Y1333499D02*
X241300Y1320800D01*
X228601Y1333499D02*
Y1352551D01*
X234951Y1358900D01*
X251461D01*
X273296Y1380736D01*
Y1403596D01*
X292100Y1422400D01*
X241301Y660399D02*
Y715772D01*
Y660399D02*
X254000Y647700D01*
X36323Y839977D02*
X50800Y825500D01*
X36323Y839977D02*
Y906273D01*
X44451Y914400D01*
X63420D01*
Y936161D01*
X59781Y939800D02*
X63420Y936161D01*
X42165Y939800D02*
X59781D01*
X33067Y948898D02*
X42165Y939800D01*
X33067Y948898D02*
Y1010967D01*
X50800Y1028700D01*
X26925Y977900D02*
Y1004825D01*
X-45720Y622300D02*
X2033D01*
X7113Y617220D01*
X50800Y88900D02*
X76201Y63500D01*
X127000Y393700D02*
X149621Y371079D01*
Y289321D02*
Y371079D01*
X127000Y266700D02*
X149621Y289321D01*
X355600Y927100D02*
Y952500D01*
Y876300D02*
Y901700D01*
Y927100D01*
Y952500D02*
Y977900D01*
X330200D02*
Y1003300D01*
X368300Y1663700D02*
Y1816100D01*
Y1600200D02*
Y1663700D01*
D13*
Y1295400D02*
D03*
X342900D02*
D03*
X368300Y1320800D02*
D03*
X342900D02*
D03*
X368300Y1346200D02*
D03*
X342900D02*
D03*
X292100Y1320800D02*
D03*
X317500D02*
D03*
X292100Y1295400D02*
D03*
X317500D02*
D03*
X292100Y1346200D02*
D03*
X317500D02*
D03*
X368300Y1374140D02*
D03*
X342900D02*
D03*
X292100D02*
D03*
X317500D02*
D03*
X355600Y1206500D02*
D03*
Y1181100D02*
D03*
Y1231900D02*
D03*
Y1130300D02*
D03*
Y1104900D02*
D03*
Y1155700D02*
D03*
Y1079500D02*
D03*
Y1054100D02*
D03*
X330200Y1181100D02*
D03*
X355600Y1028700D02*
D03*
Y1003300D02*
D03*
X330200Y1028700D02*
D03*
X355600Y977900D02*
D03*
Y952500D02*
D03*
Y901700D02*
D03*
Y876300D02*
D03*
Y927100D02*
D03*
Y850900D02*
D03*
Y825500D02*
D03*
X330200Y901700D02*
D03*
X355600Y774700D02*
D03*
Y749300D02*
D03*
Y800100D02*
D03*
X330200Y1206500D02*
D03*
Y1130300D02*
D03*
Y1104900D02*
D03*
Y1155700D02*
D03*
Y1079500D02*
D03*
Y1054100D02*
D03*
Y1003300D02*
D03*
Y977900D02*
D03*
Y927100D02*
D03*
Y876300D02*
D03*
Y952500D02*
D03*
Y850900D02*
D03*
Y825500D02*
D03*
Y800100D02*
D03*
Y749300D02*
D03*
Y774700D02*
D03*
X127000Y711200D02*
D03*
Y736600D02*
D03*
X101600Y711200D02*
D03*
Y736600D02*
D03*
X304800Y1714500D02*
D03*
X279400D02*
D03*
X368300Y1866900D02*
D03*
X342900D02*
D03*
X304800Y1663700D02*
D03*
X279400D02*
D03*
X342900D02*
D03*
X368300D02*
D03*
X292100Y1473200D02*
D03*
Y1447800D02*
D03*
Y1550200D02*
D03*
Y1525200D02*
D03*
X368300Y1473200D02*
D03*
Y1447800D02*
D03*
Y1524000D02*
D03*
Y1549400D02*
D03*
Y1600200D02*
D03*
X292100Y1498600D02*
D03*
Y1422400D02*
D03*
Y1574800D02*
D03*
X368300Y1422400D02*
D03*
Y1498600D02*
D03*
Y1574800D02*
D03*
X88900Y1320800D02*
D03*
Y1397000D02*
D03*
Y1371600D02*
D03*
Y1473200D02*
D03*
Y1447800D02*
D03*
Y1549400D02*
D03*
Y1524000D02*
D03*
X241300Y1320800D02*
D03*
Y1371600D02*
D03*
Y1397000D02*
D03*
Y1447800D02*
D03*
Y1473200D02*
D03*
Y1524000D02*
D03*
Y1549400D02*
D03*
Y1600200D02*
D03*
X88900Y1422400D02*
D03*
Y1346200D02*
D03*
Y1574800D02*
D03*
Y1498600D02*
D03*
X241300Y1346200D02*
D03*
Y1422400D02*
D03*
Y1498600D02*
D03*
Y1574800D02*
D03*
X177800Y1028700D02*
D03*
Y1104900D02*
D03*
Y1079500D02*
D03*
Y1181100D02*
D03*
Y1155700D02*
D03*
Y1231900D02*
D03*
X254000Y1028700D02*
D03*
Y1104900D02*
D03*
Y1079500D02*
D03*
Y1181100D02*
D03*
Y1155700D02*
D03*
Y1257300D02*
D03*
Y1231900D02*
D03*
X177800Y1130300D02*
D03*
Y1054100D02*
D03*
Y1206500D02*
D03*
X254000Y1130300D02*
D03*
Y1054100D02*
D03*
Y1206500D02*
D03*
X50800Y1028700D02*
D03*
Y1104900D02*
D03*
Y1079500D02*
D03*
Y1181100D02*
D03*
Y1155700D02*
D03*
Y1231900D02*
D03*
X127000Y1028700D02*
D03*
Y1104900D02*
D03*
Y1079500D02*
D03*
Y1181100D02*
D03*
Y1155700D02*
D03*
Y1257300D02*
D03*
Y1231900D02*
D03*
X50800Y1130300D02*
D03*
Y1054100D02*
D03*
Y1206500D02*
D03*
X127000Y1130300D02*
D03*
Y1054100D02*
D03*
Y1206500D02*
D03*
Y952500D02*
D03*
Y876300D02*
D03*
X50800Y952500D02*
D03*
Y876300D02*
D03*
X127000Y977900D02*
D03*
Y927100D02*
D03*
Y901700D02*
D03*
Y850900D02*
D03*
Y825500D02*
D03*
X50800Y901700D02*
D03*
Y927100D02*
D03*
Y825500D02*
D03*
Y850900D02*
D03*
X177800Y749300D02*
D03*
Y825500D02*
D03*
Y800100D02*
D03*
Y901700D02*
D03*
Y876300D02*
D03*
Y952500D02*
D03*
X254000Y749300D02*
D03*
Y825500D02*
D03*
Y800100D02*
D03*
Y901700D02*
D03*
Y876300D02*
D03*
Y977900D02*
D03*
Y952500D02*
D03*
X177800Y850900D02*
D03*
Y774700D02*
D03*
Y927100D02*
D03*
X254000Y850900D02*
D03*
Y774700D02*
D03*
Y927100D02*
D03*
X304800Y444500D02*
D03*
Y520700D02*
D03*
Y495300D02*
D03*
Y596900D02*
D03*
Y571500D02*
D03*
Y647700D02*
D03*
X381000Y444500D02*
D03*
Y520700D02*
D03*
Y495300D02*
D03*
Y596900D02*
D03*
Y571500D02*
D03*
Y673100D02*
D03*
Y647700D02*
D03*
X304800Y546100D02*
D03*
Y469900D02*
D03*
Y622300D02*
D03*
X381000Y546100D02*
D03*
Y469900D02*
D03*
Y622300D02*
D03*
X177800Y546100D02*
D03*
Y520700D02*
D03*
Y623100D02*
D03*
Y598100D02*
D03*
X254000Y546100D02*
D03*
Y520700D02*
D03*
Y596900D02*
D03*
Y622300D02*
D03*
Y673100D02*
D03*
X177800Y571500D02*
D03*
Y495300D02*
D03*
Y647700D02*
D03*
X254000Y495300D02*
D03*
Y571500D02*
D03*
Y647700D02*
D03*
X127000D02*
D03*
Y571500D02*
D03*
Y495300D02*
D03*
X50800Y647700D02*
D03*
Y495300D02*
D03*
Y571500D02*
D03*
X127000Y673100D02*
D03*
Y622300D02*
D03*
Y596900D02*
D03*
Y520700D02*
D03*
Y546100D02*
D03*
X50800Y598100D02*
D03*
Y623100D02*
D03*
Y520700D02*
D03*
Y546100D02*
D03*
X342900Y1816100D02*
D03*
X368300D02*
D03*
X50800Y444500D02*
D03*
X76200D02*
D03*
X127000D02*
D03*
X101600D02*
D03*
X76200Y736600D02*
D03*
Y711200D02*
D03*
X50800Y736600D02*
D03*
Y711200D02*
D03*
X381000Y190500D02*
D03*
X355600D02*
D03*
X304800Y1866900D02*
D03*
Y1816100D02*
D03*
X279400D02*
D03*
Y1866900D02*
D03*
X25400Y1435100D02*
D03*
Y1485900D02*
D03*
X50800D02*
D03*
Y1435100D02*
D03*
X304800Y190500D02*
D03*
X330200D02*
D03*
X304800Y114300D02*
D03*
X381000Y63500D02*
D03*
Y139700D02*
D03*
X304800Y63500D02*
D03*
Y88900D02*
D03*
X381000Y114300D02*
D03*
Y88900D02*
D03*
X254000Y190500D02*
D03*
Y114300D02*
D03*
X177800Y190500D02*
D03*
Y114300D02*
D03*
X254000Y215900D02*
D03*
Y165100D02*
D03*
Y139700D02*
D03*
Y88900D02*
D03*
Y63500D02*
D03*
X177800Y139700D02*
D03*
Y165100D02*
D03*
Y63500D02*
D03*
Y88900D02*
D03*
X381000Y355600D02*
D03*
Y279400D02*
D03*
X304800Y355600D02*
D03*
Y279400D02*
D03*
X381000Y381000D02*
D03*
Y330200D02*
D03*
Y304800D02*
D03*
Y254000D02*
D03*
Y228600D02*
D03*
X304800Y304800D02*
D03*
Y330200D02*
D03*
Y228600D02*
D03*
Y254000D02*
D03*
X254000Y419100D02*
D03*
Y342900D02*
D03*
Y266700D02*
D03*
X177800Y419100D02*
D03*
Y266700D02*
D03*
Y342900D02*
D03*
X254000Y444500D02*
D03*
Y393700D02*
D03*
Y368300D02*
D03*
Y292100D02*
D03*
Y317500D02*
D03*
X177800Y369500D02*
D03*
Y394500D02*
D03*
Y292100D02*
D03*
Y317500D02*
D03*
X127000Y368300D02*
D03*
Y292100D02*
D03*
X50800Y368300D02*
D03*
Y292100D02*
D03*
X127000Y393700D02*
D03*
Y342900D02*
D03*
Y317500D02*
D03*
Y266700D02*
D03*
Y241300D02*
D03*
X50800Y317500D02*
D03*
Y342900D02*
D03*
Y241300D02*
D03*
Y266700D02*
D03*
D14*
X330200Y1231900D02*
D03*
X292100Y1600200D02*
D03*
X88900D02*
D03*
X177800Y1257300D02*
D03*
X50800D02*
D03*
Y977900D02*
D03*
X177800D02*
D03*
X304800Y673100D02*
D03*
X177800D02*
D03*
X50800D02*
D03*
X304800Y139700D02*
D03*
X177800Y215900D02*
D03*
X304800Y381000D02*
D03*
X177800Y444500D02*
D03*
X50800Y393700D02*
D03*
D15*
X304800Y1765300D02*
D03*
X38100Y1549400D02*
D03*
Y1599400D02*
D03*
D16*
X279400Y1765300D02*
D03*
D17*
X127000Y1866240D02*
D03*
Y1666240D02*
D03*
D18*
X160021Y1243076D02*
D03*
X277623Y1019048D02*
D03*
X316993Y1035304D02*
D03*
X366777Y1163575D02*
D03*
X299053Y1144525D02*
D03*
X303785Y1076961D02*
D03*
X200661Y1084072D02*
D03*
X146547Y911861D02*
D03*
X308103Y1099820D02*
D03*
X109082Y983480D02*
D03*
X360935Y676885D02*
D03*
X58421Y423164D02*
D03*
X61977Y177547D02*
D03*
X240285Y1278129D02*
D03*
X253747Y1326897D02*
D03*
X386081Y849631D02*
D03*
X373381Y730759D02*
D03*
X388875Y790470D02*
D03*
X10415Y639572D02*
D03*
X24385Y532131D02*
D03*
X68581Y484124D02*
D03*
X266701Y467107D02*
D03*
X274136Y546100D02*
D03*
X200407Y1345439D02*
D03*
X219457Y975869D02*
D03*
X198883Y848868D02*
D03*
X156464Y626364D02*
D03*
X145543Y594361D02*
D03*
X266447Y543052D02*
D03*
X100585Y934975D02*
D03*
X249937Y996951D02*
D03*
X289561Y53087D02*
D03*
X176785Y1343152D02*
D03*
X149353Y1243076D02*
D03*
X76201Y1090930D02*
D03*
X78995Y768858D02*
D03*
X159767D02*
D03*
Y695960D02*
D03*
X196851D02*
D03*
X168403Y378969D02*
D03*
X332487Y395718D02*
D03*
X136145Y1322578D02*
D03*
X88901Y689102D02*
D03*
X86361Y576834D02*
D03*
X39625Y467615D02*
D03*
X23623Y201677D02*
D03*
X148083Y965922D02*
D03*
X348997Y292100D02*
D03*
X388875Y808229D02*
D03*
X203963Y829795D02*
D03*
X109475Y996189D02*
D03*
X298464Y994410D02*
D03*
X226061Y808736D02*
D03*
X127001Y1007021D02*
D03*
X325629Y554482D02*
D03*
X202439Y711200D02*
D03*
X81281Y665734D02*
D03*
X91695Y475234D02*
D03*
X179325D02*
D03*
X211075Y879603D02*
D03*
X61977Y999825D02*
D03*
X13463Y939037D02*
D03*
X24893Y1282700D02*
D03*
X327661Y610108D02*
D03*
X5335Y748030D02*
D03*
X40387Y693674D02*
D03*
X39117Y592836D02*
D03*
X115825Y563800D02*
D03*
X236221Y651510D02*
D03*
X223267Y438150D02*
D03*
X9145Y853949D02*
D03*
X189739Y811531D02*
D03*
X87123Y1222249D02*
D03*
X68581Y1037844D02*
D03*
X46229Y1295401D02*
D03*
X388621Y759968D02*
D03*
X366777Y781813D02*
D03*
X326899Y715518D02*
D03*
X104141Y1180339D02*
D03*
X113539Y625602D02*
D03*
X104141Y1062737D02*
D03*
X24385Y1064260D02*
D03*
X21845Y1027684D02*
D03*
X272289Y1358900D02*
D03*
X258827Y724965D02*
D03*
X287783Y786892D02*
D03*
Y996442D02*
D03*
X127000Y417831D02*
D03*
X341885Y1524000D02*
D03*
X315977Y509524D02*
D03*
X274575Y557531D02*
D03*
X353823Y638811D02*
D03*
X343155Y708914D02*
D03*
X200661Y431547D02*
D03*
X252985Y762001D02*
D03*
X208281Y329947D02*
D03*
X240793Y643636D02*
D03*
X227585Y667766D02*
D03*
X221743Y777748D02*
D03*
X24385Y615443D02*
D03*
X12447Y665759D02*
D03*
X284989Y611180D02*
D03*
X30227Y172467D02*
D03*
X55881Y477520D02*
D03*
X377445Y1538224D02*
D03*
X369063Y713232D02*
D03*
X86361Y653796D02*
D03*
Y615951D02*
D03*
X360681Y1306577D02*
D03*
X331780Y1462080D02*
D03*
X296165Y983488D02*
D03*
X335027Y602234D02*
D03*
X284989Y684023D02*
D03*
X289137Y1037337D02*
D03*
X70105Y1051307D02*
D03*
Y1070102D02*
D03*
X-21843Y559054D02*
D03*
X310285Y1066801D02*
D03*
X212853Y1030732D02*
D03*
X390756Y821945D02*
D03*
X230854Y990473D02*
D03*
X355855Y648970D02*
D03*
X377973Y635000D02*
D03*
X209043Y755396D02*
D03*
X109221Y382016D02*
D03*
X6097Y1076199D02*
D03*
X26163Y1104901D02*
D03*
X52571Y772660D02*
D03*
X304800Y725157D02*
D03*
X330121Y838201D02*
D03*
X123699Y1288289D02*
D03*
X313945Y1195324D02*
D03*
X138120Y1219201D02*
D03*
X148337Y1081533D02*
D03*
X150877Y1206500D02*
D03*
X241301Y715772D02*
D03*
X6097Y1086612D02*
D03*
X-761Y1196340D02*
D03*
X26925Y977900D02*
D03*
X369825Y154432D02*
D03*
X97861Y501651D02*
D03*
X106198Y828723D02*
D03*
X11939Y723900D02*
D03*
X61977Y560070D02*
D03*
X46991Y426721D02*
D03*
X7113Y617220D02*
D03*
X-4825Y1294892D02*
D03*
X294895Y607569D02*
D03*
M02*
