M48
;Layer_Color=9474304
;FILE_FORMAT=2:5
INCH,LZ
;TYPE=PLATED
T1F00S00C0.02362
T2F00S00C0.03543
T3F00S00C0.03799
T4F00S00C0.03800
T5F00S00C0.12835
%
T01
X0061Y008
X00482Y01015
X0049Y0119
X0041Y0134
X0036Y013
X00379Y01942
X0042Y0215
X00379Y02449
X01096Y0247
X0121Y0195
X01564Y01796
X02046Y0190425
X01951Y02004
X01516Y01244
X0116Y0125
X0111Y0145
X00856Y01616
X00704Y01617
X02831Y01604
X0305Y0125
X0315Y0206
X0332Y0215
X028Y02396
X02283Y02473
X032Y0271
X0086Y0265
X0075Y0274
X0051Y0278
X0042Y027
T02
X0191Y0095
Y0114685
X0376Y025
Y026
Y027
T03
X0377181Y0064994
Y0075864
Y0086734
Y0097604
X0366Y0092169
Y0081299
Y0070429
Y0059559
X0341Y005
X0331
Y004
X0341
Y007
X0331
Y008
Y009
Y01
X0341
Y009
Y008
X0331Y006
Y011
Y012
Y013
Y014
Y015
Y016
Y017
Y018
Y019
X0341
Y018
Y017
Y016
Y015
Y014
Y013
Y012
Y011
X0366Y0113909
Y0124779
Y013565
Y014652
Y015739
Y016826
Y017913
Y019
X0341Y02
X0331
X0366Y010304
X0377181Y0108475
Y0119344
Y0130215
Y0141085
Y0151955
Y0162825
Y0173695
Y0184565
T04
X0216Y0025
Y0035
Y0045
Y0055
Y0065
Y0075
Y0085
Y0095
X0276
Y0085
Y0075
Y0065
Y0055
Y0045
Y0035
Y0025
X0291
Y0035
X0301
Y0025
Y0055
Y0065
X0291
Y0075
Y0095
X0301
Y0085
X0291Y0055
X0196Y0045
Y0035
X0186
X0176
Y0045
X0186
Y0065
X0196
X0201Y0075
X0181
X0161
Y0085
Y0095
Y0065
Y0055
Y0045
Y0035
Y0025
X0101
Y0035
Y0045
Y0055
Y0065
Y0075
Y0085
Y0095
X0081
Y0085
Y0075
Y0065
Y0055
Y0045
Y0035
Y0025
X0051
Y0035
Y0045
Y0055
Y0065473
Y0075315
Y0085
Y0095
Y019
Y02
Y021
Y022
Y0230472
Y0240315
Y025
X0081
Y024
Y023
Y022
Y021
Y02
Y019
X0101Y0195
Y0205
Y0215
Y0245
Y0255
X0111
X0121Y0245
X0161Y0215
Y0205
Y0195
Y0185
Y0175
Y0165
Y0155
Y0145
Y0135
Y0125
Y0115
Y0105
X0181Y0135
X0201
X0186Y0155
Y0165
Y0175
Y0185
Y0195
Y0205
Y0215
Y0235
X0196
X0206
X0101Y0185
Y0175
Y0165
Y0155
Y0145
Y0135
Y0125
Y0115
Y0105
X0071Y013
Y014
Y015
X0061
Y014
Y013
X0216Y0135
Y0125
Y0115
Y0105
Y0155
Y0165
Y0175
Y0185
Y0195
Y0205
Y0215
Y0235
X0226
X0236
X0246
Y0215
Y0205
Y0195
Y0185
Y0175
Y0165
Y0155
X0276
Y0165
Y0175
Y0185
Y0195
Y0205
Y0215
X0296Y019
X0306
Y018
X0296
Y017
X0306
Y016
X0296
Y015
X0306
X0276Y0135
Y0125
Y0115
Y0105
X0291
X0301
X0331Y025
X0351
Y027
X0331
X0246Y0265
X0236
X0226
X0216
X0206
X0196
X0186
X0111
X0101
X0081Y026
X0051
T05
X0371591Y0032157
Y0217402
M30
