G04 Layer_Physical_Order=1*
G04 Layer_Color=255*
%FSLAX25Y25*%
%MOIN*%
G70*
G01*
G75*
%ADD10R,0.01181X0.10236*%
G04:AMPARAMS|DCode=11|XSize=31.5mil|YSize=29.53mil|CornerRadius=7.38mil|HoleSize=0mil|Usage=FLASHONLY|Rotation=270.000|XOffset=0mil|YOffset=0mil|HoleType=Round|Shape=RoundedRectangle|*
%AMROUNDEDRECTD11*
21,1,0.03150,0.01476,0,0,270.0*
21,1,0.01673,0.02953,0,0,270.0*
1,1,0.01476,-0.00738,-0.00837*
1,1,0.01476,-0.00738,0.00837*
1,1,0.01476,0.00738,0.00837*
1,1,0.01476,0.00738,-0.00837*
%
%ADD11ROUNDEDRECTD11*%
%ADD12R,0.15748X0.07874*%
%ADD13R,0.07480X0.02362*%
%ADD14C,0.01181*%
%ADD15C,0.14567*%
%ADD16O,0.06693X0.13386*%
%ADD17O,0.05906X0.11811*%
G36*
X121260Y394D02*
X787D01*
Y105512D01*
X121260D01*
Y394D01*
D02*
G37*
%LPC*%
G36*
X58571Y23862D02*
Y17488D01*
X62058D01*
Y19941D01*
X61922Y20973D01*
X61524Y21934D01*
X60890Y22760D01*
X60064Y23394D01*
X59103Y23792D01*
X58571Y23862D01*
D02*
G37*
G36*
X57571D02*
X57039Y23792D01*
X56077Y23394D01*
X55252Y22760D01*
X54618Y21934D01*
X54220Y20973D01*
X54084Y19941D01*
Y17488D01*
X57571D01*
Y23862D01*
D02*
G37*
G36*
X114657D02*
X114126Y23792D01*
X113164Y23394D01*
X112338Y22760D01*
X111705Y21934D01*
X111307Y20973D01*
X111171Y19941D01*
Y17488D01*
X114657D01*
Y23862D01*
D02*
G37*
G36*
X42865Y29028D02*
X40854D01*
Y26919D01*
X41093D01*
X41771Y27054D01*
X42346Y27438D01*
X42730Y28013D01*
X42865Y28691D01*
Y29028D01*
D02*
G37*
G36*
X115657Y23862D02*
Y17488D01*
X119144D01*
Y19941D01*
X119009Y20973D01*
X118610Y21934D01*
X117977Y22760D01*
X117151Y23394D01*
X116189Y23792D01*
X115657Y23862D01*
D02*
G37*
G36*
X119144Y16488D02*
X115657D01*
Y10114D01*
X116189Y10184D01*
X117151Y10583D01*
X117977Y11216D01*
X118610Y12042D01*
X119009Y13004D01*
X119144Y14035D01*
Y16488D01*
D02*
G37*
G36*
X23622Y19685D02*
X3937D01*
Y7874D01*
X23622D01*
Y19685D01*
D02*
G37*
G36*
X39370Y21108D02*
X37556Y20929D01*
X35812Y20400D01*
X34205Y19541D01*
X32796Y18385D01*
X31640Y16976D01*
X30781Y15369D01*
X30252Y13625D01*
X30073Y11811D01*
X30252Y9997D01*
X30781Y8253D01*
X31640Y6646D01*
X32796Y5237D01*
X34205Y4081D01*
X35812Y3222D01*
X37556Y2693D01*
X39370Y2514D01*
X41184Y2693D01*
X42928Y3222D01*
X44535Y4081D01*
X45944Y5237D01*
X47100Y6646D01*
X47959Y8253D01*
X48488Y9997D01*
X48667Y11811D01*
X48488Y13625D01*
X47959Y15369D01*
X47100Y16976D01*
X45944Y18385D01*
X44535Y19541D01*
X42928Y20400D01*
X41184Y20929D01*
X39370Y21108D01*
D02*
G37*
G36*
X57571Y16488D02*
X54084D01*
Y14035D01*
X54220Y13004D01*
X54618Y12042D01*
X55252Y11216D01*
X56077Y10583D01*
X57039Y10184D01*
X57571Y10114D01*
Y16488D01*
D02*
G37*
G36*
X114657D02*
X111171D01*
Y14035D01*
X111307Y13004D01*
X111705Y12042D01*
X112338Y11216D01*
X113164Y10583D01*
X114126Y10184D01*
X114657Y10114D01*
Y16488D01*
D02*
G37*
G36*
X62058D02*
X58571D01*
Y10114D01*
X59103Y10184D01*
X60064Y10583D01*
X60890Y11216D01*
X61524Y12042D01*
X61922Y13004D01*
X62058Y14035D01*
Y16488D01*
D02*
G37*
G36*
X47728Y29028D02*
X45718D01*
Y28691D01*
X45853Y28013D01*
X46237Y27438D01*
X46812Y27054D01*
X47490Y26919D01*
X47728D01*
Y29028D01*
D02*
G37*
G36*
X27256Y82890D02*
X23016D01*
Y81209D01*
X27256D01*
Y82890D01*
D02*
G37*
G36*
X32496Y80209D02*
X23016D01*
Y79921D01*
X22047D01*
Y73622D01*
Y69685D01*
X23016D01*
Y69398D01*
X32496D01*
Y69685D01*
X33465D01*
Y70666D01*
X33912Y71009D01*
X34238Y71336D01*
X79595D01*
X80834Y70097D01*
X80642Y69635D01*
X45401D01*
X44733Y69547D01*
X44110Y69290D01*
X43576Y68879D01*
X42238Y67542D01*
X33465D01*
Y68110D01*
X32496D01*
Y68398D01*
X23016D01*
Y68110D01*
X22047D01*
Y61811D01*
Y57874D01*
X23016D01*
Y57586D01*
X27756D01*
Y56586D01*
X23016D01*
Y56299D01*
X22047D01*
Y50000D01*
Y46063D01*
X23016D01*
Y45775D01*
X27756D01*
Y44776D01*
X23016D01*
Y44488D01*
X22047D01*
Y38189D01*
Y34252D01*
Y30315D01*
Y26378D01*
Y22441D01*
X33465D01*
Y23009D01*
X34133Y23097D01*
X34755Y23355D01*
X35290Y23765D01*
X38654Y27130D01*
X38712Y27205D01*
X38938Y27054D01*
X39616Y26919D01*
X39854D01*
Y29528D01*
X40354D01*
Y30028D01*
X42865D01*
Y30364D01*
X42730Y31042D01*
X42346Y31617D01*
X42261Y31674D01*
X42310Y32171D01*
X42458Y32232D01*
X43023Y32666D01*
X43166Y32852D01*
X45417D01*
X45560Y32666D01*
X46125Y32232D01*
X46272Y32171D01*
X46321Y31674D01*
X46237Y31617D01*
X45853Y31042D01*
X45718Y30364D01*
Y30028D01*
X50739D01*
Y30364D01*
X50604Y31042D01*
X50220Y31617D01*
X50135Y31674D01*
X50184Y32171D01*
X50332Y32232D01*
X50897Y32666D01*
X51331Y33231D01*
X51604Y33890D01*
X51697Y34596D01*
Y36270D01*
X51604Y36976D01*
X51331Y37635D01*
X50897Y38200D01*
X50810Y38267D01*
Y42435D01*
X53335Y44961D01*
X53809Y44727D01*
X53687Y43799D01*
Y40953D01*
X62455D01*
Y43799D01*
X62305Y44934D01*
X61867Y45991D01*
X61201Y46860D01*
X61257Y47154D01*
X61327Y47360D01*
X66339D01*
Y36358D01*
X106890D01*
Y43927D01*
X106912Y44094D01*
Y49134D01*
X106890Y49301D01*
Y50532D01*
X106484D01*
X106156Y50959D01*
X105534Y51581D01*
Y54134D01*
X105446Y54802D01*
X105188Y55424D01*
X104778Y55959D01*
X83223Y77514D01*
X82688Y77924D01*
X82066Y78182D01*
X81398Y78270D01*
X34238D01*
X33912Y78597D01*
X33465Y78940D01*
Y79921D01*
X32496D01*
Y80209D01*
D02*
G37*
G36*
X115657Y48117D02*
Y40953D01*
X119541D01*
Y43799D01*
X119392Y44934D01*
X118954Y45991D01*
X118257Y46899D01*
X117350Y47596D01*
X116292Y48034D01*
X115657Y48117D01*
D02*
G37*
G36*
X24606Y98425D02*
X4921D01*
Y86614D01*
X24606D01*
Y98425D01*
D02*
G37*
G36*
X39370Y103785D02*
X37556Y103606D01*
X35812Y103077D01*
X34205Y102218D01*
X32796Y101062D01*
X31640Y99653D01*
X30781Y98046D01*
X30252Y96302D01*
X30073Y94488D01*
X30252Y92674D01*
X30781Y90930D01*
X31640Y89323D01*
X32796Y87914D01*
X34205Y86758D01*
X35812Y85899D01*
X37556Y85370D01*
X39370Y85192D01*
X41184Y85370D01*
X42928Y85899D01*
X44535Y86758D01*
X45944Y87914D01*
X47100Y89323D01*
X47959Y90930D01*
X48488Y92674D01*
X48667Y94488D01*
X48488Y96302D01*
X47959Y98046D01*
X47100Y99653D01*
X45944Y101062D01*
X44535Y102218D01*
X42928Y103077D01*
X41184Y103606D01*
X39370Y103785D01*
D02*
G37*
G36*
X32496Y82890D02*
X28256D01*
Y81209D01*
X32496D01*
Y82890D01*
D02*
G37*
G36*
X62455Y39953D02*
X58571D01*
Y32788D01*
X59206Y32872D01*
X60263Y33310D01*
X61171Y34006D01*
X61867Y34914D01*
X62305Y35972D01*
X62455Y37106D01*
Y39953D01*
D02*
G37*
G36*
X57571D02*
X53687D01*
Y37106D01*
X53836Y35972D01*
X54274Y34914D01*
X54971Y34006D01*
X55879Y33310D01*
X56936Y32872D01*
X57571Y32788D01*
Y39953D01*
D02*
G37*
G36*
X50739Y29028D02*
X48728D01*
Y26919D01*
X48967D01*
X49645Y27054D01*
X50220Y27438D01*
X50604Y28013D01*
X50739Y28691D01*
Y29028D01*
D02*
G37*
G36*
X114657Y48117D02*
X114023Y48034D01*
X112966Y47596D01*
X112057Y46899D01*
X111361Y45991D01*
X110923Y44934D01*
X110774Y43799D01*
Y40953D01*
X114657D01*
Y48117D01*
D02*
G37*
G36*
X119541Y39953D02*
X115657D01*
Y32788D01*
X116292Y32872D01*
X117350Y33310D01*
X118257Y34006D01*
X118954Y34914D01*
X119392Y35972D01*
X119541Y37106D01*
Y39953D01*
D02*
G37*
G36*
X114657D02*
X110774D01*
Y37106D01*
X110923Y35972D01*
X111361Y34914D01*
X112057Y34006D01*
X112966Y33310D01*
X114023Y32872D01*
X114657Y32788D01*
Y39953D01*
D02*
G37*
%LPD*%
D10*
X104331Y43445D02*
D03*
X102362D02*
D03*
X100394D02*
D03*
X98425D02*
D03*
X96457D02*
D03*
X94488D02*
D03*
X92520D02*
D03*
X90551D02*
D03*
X88583D02*
D03*
X86614D02*
D03*
X84646D02*
D03*
X82677D02*
D03*
X80709D02*
D03*
X78740D02*
D03*
X76772D02*
D03*
X74803D02*
D03*
X72835D02*
D03*
X70866D02*
D03*
X68898D02*
D03*
D11*
X40354Y29528D02*
D03*
Y35433D02*
D03*
X48228Y29528D02*
D03*
Y35433D02*
D03*
D12*
X13780Y13780D02*
D03*
X14764Y92520D02*
D03*
D13*
X27756Y25591D02*
D03*
Y29528D02*
D03*
Y33465D02*
D03*
Y37402D02*
D03*
Y41339D02*
D03*
Y45276D02*
D03*
Y49213D02*
D03*
Y53149D02*
D03*
Y57086D02*
D03*
Y61024D02*
D03*
Y64961D02*
D03*
Y68898D02*
D03*
Y72835D02*
D03*
Y76772D02*
D03*
Y80709D02*
D03*
D14*
X97165Y50394D02*
X98425Y49134D01*
X97047Y50394D02*
X97165D01*
X98425Y45276D02*
Y49134D01*
X94488Y45276D02*
Y49134D01*
X95276Y49921D01*
X97047Y50394D02*
Y53490D01*
X83483Y67054D02*
X97047Y53490D01*
X95276Y49921D02*
Y52756D01*
X45401Y67054D02*
X83483D01*
X43307Y64961D02*
X45401Y67054D01*
X82749Y65283D02*
X95276Y52756D01*
X46135Y65283D02*
X82749D01*
X41875Y61024D02*
X46135Y65283D01*
X27756Y61024D02*
X41875D01*
X27756Y64961D02*
X43307D01*
X88386Y49764D02*
X88583Y49567D01*
X88386Y49764D02*
Y49868D01*
X86541Y51713D02*
X88386Y49868D01*
X86437Y51713D02*
X86541D01*
X78563Y59587D02*
X86437Y51713D01*
X86614Y43445D02*
Y49134D01*
X85807Y49941D02*
X86614Y49134D01*
X85703Y49941D02*
X85807D01*
X77829Y57815D02*
X85703Y49941D01*
X47972Y57815D02*
X77829D01*
X47239Y59587D02*
X78563D01*
X92520Y44488D02*
Y49213D01*
X80374Y61358D02*
X92520Y49213D01*
X46505Y61358D02*
X80374D01*
X88583Y44488D02*
Y49567D01*
X38296Y53149D02*
X46505Y61358D01*
X37455Y49803D02*
X47239Y59587D01*
X27756Y53149D02*
X38296D01*
X28346Y49803D02*
X37455D01*
X27756Y49213D02*
X28346Y49803D01*
X101181Y49921D02*
Y53400D01*
X80664Y73917D02*
X101181Y53400D01*
X33169Y73917D02*
X80664D01*
X102953Y50512D02*
Y54134D01*
X81398Y75689D02*
X102953Y54134D01*
X33169Y75689D02*
X81398D01*
X102953Y50512D02*
X104331Y49134D01*
Y44094D02*
Y49134D01*
X100394Y44094D02*
Y49134D01*
X101181Y49921D01*
X32087Y76772D02*
X33169Y75689D01*
X27756Y76772D02*
X32087D01*
Y72835D02*
X33169Y73917D01*
X27756Y72835D02*
X32087D01*
X27756Y41339D02*
X31496D01*
X27756Y33465D02*
X29528D01*
X32874Y39587D02*
Y39595D01*
X34843Y38771D02*
Y38780D01*
X32874Y34843D02*
Y36803D01*
X34843Y38771D01*
X27756Y37402D02*
X30689D01*
X32874Y39587D01*
X31496Y33465D02*
X32874Y34843D01*
X27756Y33465D02*
X31496D01*
X36833Y37978D02*
Y37986D01*
X34861Y36005D02*
X36833Y37978D01*
X34861Y31908D02*
Y36005D01*
X32480Y29528D02*
X34861Y31908D01*
X27756Y29528D02*
X32480D01*
X40354Y35433D02*
X48228D01*
X37813D02*
X40354D01*
X36829Y34449D02*
X37813Y35433D01*
X36829Y28955D02*
Y34449D01*
X33465Y25591D02*
X36829Y28955D01*
X27756Y25591D02*
X33465D01*
X70866Y43445D02*
Y49606D01*
X70531Y49941D02*
X70866Y49606D01*
X54665Y49941D02*
X70531D01*
X48228Y43504D02*
X54665Y49941D01*
X48228Y35433D02*
Y43504D01*
X36833Y37986D02*
X50756Y51909D01*
X72027D01*
X74803Y49134D01*
Y43445D02*
Y49134D01*
X34843Y38780D02*
X49941Y53878D01*
X72843D01*
X76772Y49949D01*
Y43445D02*
Y49949D01*
X32874Y39595D02*
X49126Y55846D01*
X75964D01*
X82677Y49134D01*
Y43445D02*
Y49134D01*
X31496Y41339D02*
X47972Y57815D01*
X72835Y34646D02*
Y43445D01*
X84646Y34646D02*
Y43445D01*
X90551Y35039D02*
Y43445D01*
X96457Y35039D02*
Y43445D01*
X102362Y35039D02*
Y43445D01*
D15*
X39370Y94488D02*
D03*
Y11811D02*
D03*
D16*
X58071Y40453D02*
D03*
X115157D02*
D03*
D17*
X58071Y16988D02*
D03*
X115157D02*
D03*
M02*
