G04 Layer_Color=8388736*
%FSLAX25Y25*%
%MOIN*%
G70*
G01*
G75*
%ADD23R,0.08283X0.03165*%
%ADD24R,0.16551X0.08677*%
G04:AMPARAMS|DCode=25|XSize=39.5mil|YSize=37.53mil|CornerRadius=11.38mil|HoleSize=0mil|Usage=FLASHONLY|Rotation=270.000|XOffset=0mil|YOffset=0mil|HoleType=Round|Shape=RoundedRectangle|*
%AMROUNDEDRECTD25*
21,1,0.03950,0.01476,0,0,270.0*
21,1,0.01673,0.03753,0,0,270.0*
1,1,0.02276,-0.00738,-0.00837*
1,1,0.02276,-0.00738,0.00837*
1,1,0.02276,0.00738,0.00837*
1,1,0.02276,0.00738,-0.00837*
%
%ADD25ROUNDEDRECTD25*%
%ADD26R,0.10630X0.01575*%
%ADD27O,0.12614X0.06709*%
%ADD28O,0.14189X0.07496*%
%ADD29C,0.15367*%
D23*
X27756Y80709D02*
D03*
Y76772D02*
D03*
Y72835D02*
D03*
Y68898D02*
D03*
Y64961D02*
D03*
Y61024D02*
D03*
Y57086D02*
D03*
Y53149D02*
D03*
Y49213D02*
D03*
Y45276D02*
D03*
Y41339D02*
D03*
Y37402D02*
D03*
Y33465D02*
D03*
Y29528D02*
D03*
Y25591D02*
D03*
D24*
X14764Y92520D02*
D03*
X13780Y13780D02*
D03*
D25*
X48228Y35433D02*
D03*
Y29528D02*
D03*
X40354Y35433D02*
D03*
Y29528D02*
D03*
D26*
X58917Y35433D02*
D03*
Y37402D02*
D03*
Y39370D02*
D03*
Y41339D02*
D03*
Y43307D02*
D03*
Y45276D02*
D03*
Y47244D02*
D03*
Y49213D02*
D03*
Y51181D02*
D03*
Y53150D02*
D03*
Y55118D02*
D03*
Y57087D02*
D03*
Y59055D02*
D03*
Y61024D02*
D03*
Y62992D02*
D03*
Y64961D02*
D03*
Y66929D02*
D03*
Y68898D02*
D03*
Y70866D02*
D03*
D27*
X85374Y81693D02*
D03*
Y24606D02*
D03*
D28*
X61910Y81693D02*
D03*
Y24606D02*
D03*
D29*
X39370Y11811D02*
D03*
Y94488D02*
D03*
M02*
