G04 Layer_Color=8421504*
%FSLAX25Y25*%
%MOIN*%
G70*
G01*
G75*
%ADD10R,0.01181X0.10236*%
G04:AMPARAMS|DCode=11|XSize=31.5mil|YSize=29.53mil|CornerRadius=7.38mil|HoleSize=0mil|Usage=FLASHONLY|Rotation=270.000|XOffset=0mil|YOffset=0mil|HoleType=Round|Shape=RoundedRectangle|*
%AMROUNDEDRECTD11*
21,1,0.03150,0.01476,0,0,270.0*
21,1,0.01673,0.02953,0,0,270.0*
1,1,0.01476,-0.00738,-0.00837*
1,1,0.01476,-0.00738,0.00837*
1,1,0.01476,0.00738,0.00837*
1,1,0.01476,0.00738,-0.00837*
%
%ADD11ROUNDEDRECTD11*%
%ADD12R,0.15748X0.07874*%
%ADD13R,0.07480X0.02362*%
D10*
X104331Y43445D02*
D03*
X102362D02*
D03*
X100394D02*
D03*
X98425D02*
D03*
X96457D02*
D03*
X94488D02*
D03*
X92520D02*
D03*
X90551D02*
D03*
X88583D02*
D03*
X86614D02*
D03*
X84646D02*
D03*
X82677D02*
D03*
X80709D02*
D03*
X78740D02*
D03*
X76772D02*
D03*
X74803D02*
D03*
X72835D02*
D03*
X70866D02*
D03*
X68898D02*
D03*
D11*
X40354Y29528D02*
D03*
Y35433D02*
D03*
X48228Y29528D02*
D03*
Y35433D02*
D03*
D12*
X13780Y13780D02*
D03*
X14764Y92520D02*
D03*
D13*
X27756Y25591D02*
D03*
Y29528D02*
D03*
Y33465D02*
D03*
Y37402D02*
D03*
Y41339D02*
D03*
Y45276D02*
D03*
Y49213D02*
D03*
Y53149D02*
D03*
Y57086D02*
D03*
Y61024D02*
D03*
Y64961D02*
D03*
Y68898D02*
D03*
Y72835D02*
D03*
Y76772D02*
D03*
Y80709D02*
D03*
M02*
