G04 Layer_Physical_Order=2*
G04 Layer_Color=16711680*
%FSLAX25Y25*%
%MOIN*%
G70*
G01*
G75*
%ADD15C,0.14567*%
%ADD16O,0.06693X0.13386*%
%ADD17O,0.05906X0.11811*%
G36*
X121260Y394D02*
X787D01*
Y105512D01*
X121260D01*
Y394D01*
D02*
G37*
%LPC*%
G36*
X57571Y23862D02*
X57039Y23792D01*
X56077Y23394D01*
X55252Y22760D01*
X54618Y21934D01*
X54220Y20973D01*
X54084Y19941D01*
Y17488D01*
X57571D01*
Y23862D01*
D02*
G37*
G36*
X119144Y16488D02*
X115657D01*
Y10114D01*
X116189Y10184D01*
X117151Y10583D01*
X117977Y11216D01*
X118610Y12042D01*
X119009Y13004D01*
X119144Y14035D01*
Y16488D01*
D02*
G37*
G36*
X114657Y23862D02*
X114126Y23792D01*
X113164Y23394D01*
X112338Y22760D01*
X111705Y21934D01*
X111307Y20973D01*
X111171Y19941D01*
Y17488D01*
X114657D01*
Y23862D01*
D02*
G37*
G36*
X58571D02*
Y17488D01*
X62058D01*
Y19941D01*
X61922Y20973D01*
X61524Y21934D01*
X60890Y22760D01*
X60064Y23394D01*
X59103Y23792D01*
X58571Y23862D01*
D02*
G37*
G36*
X57571Y16488D02*
X54084D01*
Y14035D01*
X54220Y13004D01*
X54618Y12042D01*
X55252Y11216D01*
X56077Y10583D01*
X57039Y10184D01*
X57571Y10114D01*
Y16488D01*
D02*
G37*
G36*
X39370Y21108D02*
X37556Y20929D01*
X35812Y20400D01*
X34205Y19541D01*
X32796Y18385D01*
X31640Y16976D01*
X30781Y15369D01*
X30252Y13625D01*
X30073Y11811D01*
X30252Y9997D01*
X30781Y8253D01*
X31640Y6646D01*
X32796Y5237D01*
X34205Y4081D01*
X35812Y3222D01*
X37556Y2693D01*
X39370Y2514D01*
X41184Y2693D01*
X42928Y3222D01*
X44535Y4081D01*
X45944Y5237D01*
X47100Y6646D01*
X47959Y8253D01*
X48488Y9997D01*
X48667Y11811D01*
X48488Y13625D01*
X47959Y15369D01*
X47100Y16976D01*
X45944Y18385D01*
X44535Y19541D01*
X42928Y20400D01*
X41184Y20929D01*
X39370Y21108D01*
D02*
G37*
G36*
X114657Y16488D02*
X111171D01*
Y14035D01*
X111307Y13004D01*
X111705Y12042D01*
X112338Y11216D01*
X113164Y10583D01*
X114126Y10184D01*
X114657Y10114D01*
Y16488D01*
D02*
G37*
G36*
X62058D02*
X58571D01*
Y10114D01*
X59103Y10184D01*
X60064Y10583D01*
X60890Y11216D01*
X61524Y12042D01*
X61922Y13004D01*
X62058Y14035D01*
Y16488D01*
D02*
G37*
G36*
X115657Y23862D02*
Y17488D01*
X119144D01*
Y19941D01*
X119009Y20973D01*
X118610Y21934D01*
X117977Y22760D01*
X117151Y23394D01*
X116189Y23792D01*
X115657Y23862D01*
D02*
G37*
G36*
X114657Y48117D02*
X114023Y48034D01*
X112966Y47596D01*
X112057Y46899D01*
X111361Y45991D01*
X110923Y44934D01*
X110774Y43799D01*
Y40953D01*
X114657D01*
Y48117D01*
D02*
G37*
G36*
X58571D02*
Y40953D01*
X62455D01*
Y43799D01*
X62305Y44934D01*
X61867Y45991D01*
X61171Y46899D01*
X60263Y47596D01*
X59206Y48034D01*
X58571Y48117D01*
D02*
G37*
G36*
X39370Y103785D02*
X37556Y103606D01*
X35812Y103077D01*
X34205Y102218D01*
X32796Y101062D01*
X31640Y99653D01*
X30781Y98046D01*
X30252Y96302D01*
X30073Y94488D01*
X30252Y92674D01*
X30781Y90930D01*
X31640Y89323D01*
X32796Y87914D01*
X34205Y86758D01*
X35812Y85899D01*
X37556Y85370D01*
X39370Y85192D01*
X41184Y85370D01*
X42928Y85899D01*
X44535Y86758D01*
X45944Y87914D01*
X47100Y89323D01*
X47959Y90930D01*
X48488Y92674D01*
X48667Y94488D01*
X48488Y96302D01*
X47959Y98046D01*
X47100Y99653D01*
X45944Y101062D01*
X44535Y102218D01*
X42928Y103077D01*
X41184Y103606D01*
X39370Y103785D01*
D02*
G37*
G36*
X115657Y48117D02*
Y40953D01*
X119541D01*
Y43799D01*
X119392Y44934D01*
X118954Y45991D01*
X118257Y46899D01*
X117350Y47596D01*
X116292Y48034D01*
X115657Y48117D01*
D02*
G37*
G36*
X57571D02*
X56936Y48034D01*
X55879Y47596D01*
X54971Y46899D01*
X54274Y45991D01*
X53836Y44934D01*
X53687Y43799D01*
Y40953D01*
X57571D01*
Y48117D01*
D02*
G37*
G36*
X62455Y39953D02*
X58571D01*
Y32788D01*
X59206Y32872D01*
X60263Y33310D01*
X61171Y34006D01*
X61867Y34914D01*
X62305Y35972D01*
X62455Y37106D01*
Y39953D01*
D02*
G37*
G36*
X57571D02*
X53687D01*
Y37106D01*
X53836Y35972D01*
X54274Y34914D01*
X54971Y34006D01*
X55879Y33310D01*
X56936Y32872D01*
X57571Y32788D01*
Y39953D01*
D02*
G37*
G36*
X119541D02*
X115657D01*
Y32788D01*
X116292Y32872D01*
X117350Y33310D01*
X118257Y34006D01*
X118954Y34914D01*
X119392Y35972D01*
X119541Y37106D01*
Y39953D01*
D02*
G37*
G36*
X114657D02*
X110774D01*
Y37106D01*
X110923Y35972D01*
X111361Y34914D01*
X112057Y34006D01*
X112966Y33310D01*
X114023Y32872D01*
X114657Y32788D01*
Y39953D01*
D02*
G37*
%LPD*%
D15*
X39370Y94488D02*
D03*
Y11811D02*
D03*
D16*
X58071Y40453D02*
D03*
X115157D02*
D03*
D17*
X58071Y16988D02*
D03*
X115157D02*
D03*
M02*
