G04 Layer_Color=8421504*
%FSLAX25Y25*%
%MOIN*%
G70*
G01*
G75*
%ADD10R,0.07480X0.02362*%
%ADD11R,0.15748X0.07874*%
G04:AMPARAMS|DCode=12|XSize=31.5mil|YSize=29.53mil|CornerRadius=7.38mil|HoleSize=0mil|Usage=FLASHONLY|Rotation=270.000|XOffset=0mil|YOffset=0mil|HoleType=Round|Shape=RoundedRectangle|*
%AMROUNDEDRECTD12*
21,1,0.03150,0.01476,0,0,270.0*
21,1,0.01673,0.02953,0,0,270.0*
1,1,0.01476,-0.00738,-0.00837*
1,1,0.01476,-0.00738,0.00837*
1,1,0.01476,0.00738,0.00837*
1,1,0.01476,0.00738,-0.00837*
%
%ADD12ROUNDEDRECTD12*%
%ADD13R,0.10236X0.01181*%
D10*
X27756Y80709D02*
D03*
Y76772D02*
D03*
Y72835D02*
D03*
Y68898D02*
D03*
Y64961D02*
D03*
Y61024D02*
D03*
Y57086D02*
D03*
Y53149D02*
D03*
Y49213D02*
D03*
Y45276D02*
D03*
Y41339D02*
D03*
Y37402D02*
D03*
Y33465D02*
D03*
Y29528D02*
D03*
Y25591D02*
D03*
D11*
X14764Y92520D02*
D03*
X13780Y13780D02*
D03*
D12*
X48228Y35433D02*
D03*
Y29528D02*
D03*
X40354Y35433D02*
D03*
Y29528D02*
D03*
D13*
X58917Y35433D02*
D03*
Y37402D02*
D03*
Y39370D02*
D03*
Y41339D02*
D03*
Y43307D02*
D03*
Y45276D02*
D03*
Y47244D02*
D03*
Y49213D02*
D03*
Y51181D02*
D03*
Y53150D02*
D03*
Y55118D02*
D03*
Y57087D02*
D03*
Y59055D02*
D03*
Y61024D02*
D03*
Y62992D02*
D03*
Y64961D02*
D03*
Y66929D02*
D03*
Y68898D02*
D03*
Y70866D02*
D03*
M02*
