M48
;Layer_Color=9474304
;FILE_FORMAT=4:4
METRIC,LZ
;TYPE=PLATED
T1F00S00C0.3000
T2F00S00C0.8000
T3F00S00C0.9000
T4F00S00C0.9650
T5F00S00C0.9652
T6F00S00C1.0000
%
T01
X00289561Y00053087
X00369825Y00154432
X00348997Y002921
X00332487Y00395718
X00168403Y00378969
X00109221Y00382016
X00127Y00417831
X00058421Y00423164
X00046991Y00426721
X00023623Y00201677
X00030227Y00172467
X00061977Y00177547
X00208281Y00329947
X00200661Y00431547
X00179325Y00475234
X00091695
X00068581Y00484124
X00055881Y0047752
X00039625Y00467615
X00024385Y00532131
X00061977Y0056007
X00086361Y00576834
Y00615951
X00113539Y00625602
X00156464Y00626364
X00145543Y00594361
X00115825Y005638
X00097861Y00501651
X00039117Y00592836
X00024385Y00615443
X00007113Y0061722
X00010415Y00639572
X00012447Y00665759
X00040387Y00693674
X00088901Y00689102
X00081281Y00665734
X00086361Y00653796
X00159767Y0069596
X00196851
X00202439Y007112
X00209043Y00755396
X00159767Y00768858
X00189739Y00811531
X00078995Y00768858
X00052571Y0077266
X00005335Y0074803
X00011939Y007239
X-00021843Y00559054
X00274575Y00557531
X00274136Y005461
X00266447Y00543052
X00325629Y00554482
X00315977Y00509524
X00266701Y00467107
X00223267Y0043815
X00240793Y00643636
X00236221Y0065151
X00227585Y00667766
X00241301Y00715772
X00258827Y00724965
X00252985Y00762001
X00221743Y00777748
X00226061Y00808736
X00287783Y00786892
X003048Y00725157
X00326899Y00715518
X00343155Y00708914
X00369063Y00713232
X00373381Y00730759
X00388621Y00759968
X00388875Y0079047
Y00808229
X00390756Y00821945
X00366777Y00781813
X00360935Y00676885
X00355855Y0064897
X00353823Y00638811
X00377973Y00635
X00327661Y00610108
X00335027Y00602234
X00294895Y00607569
X00284989Y0061118
Y00684023
X00330121Y00838201
X00386081Y00849631
X00211075Y00879603
X00219457Y00975869
X00230854Y00990473
X00249937Y00996951
X00287783Y00996442
X00298464Y0099441
X00296165Y00983488
X00277623Y01019048
X00289137Y01037337
X00316993Y01035304
X00310285Y01066801
X00303785Y01076961
X00308103Y0109982
X00299053Y01144525
X00313945Y01195324
X00366777Y01163575
X00212853Y01030732
X00200661Y01084072
X00148337Y01081533
X00104141Y01062737
X00070105Y01070102
Y01051307
X00068581Y01037844
X00061977Y00999825
X00109475Y00996189
X00109082Y0098348
X00127001Y01007021
X00148083Y00965922
X00146547Y00911861
X00100585Y00934975
X00013463Y00939037
X00026925Y009779
X00021845Y01027684
X00024385Y0106426
X00006097Y01076199
Y01086612
X00026163Y01104901
X00076201Y0109093
X00104141Y01180339
X0013812Y01219201
X00150877Y012065
X-00000761Y0119634
X00009145Y00853949
X00106198Y00828723
X00203963Y00829795
X00198883Y00848868
X00160021Y01243076
X00149353
X00123699Y01288289
X00136145Y01322578
X00176785Y01343152
X00200407Y01345439
X00046229Y01295401
X00024893Y012827
X-00004825Y01294892
X00087123Y01222249
X00240285Y01278129
X00253747Y01326897
X00272289Y013589
X00360681Y01306577
X0033178Y0146208
X00341885Y01524
X00377445Y01538224
T02
X002794Y017653
X003048
T03
X000381Y015494
Y015994
T04
X003302Y007493
X003556
Y007747
Y008001
X003302
Y007747
Y008255
X003556
Y008509
Y008763
Y009017
Y009271
Y009525
Y009779
Y010033
Y010287
Y010541
Y010795
Y011049
Y011303
Y011557
Y011811
Y012065
X003302
Y011811
Y011557
Y011303
Y011049
Y010795
Y010541
Y010287
Y010033
Y009779
Y009525
Y009271
Y009017
Y008763
Y008509
Y012319
X003556
T05
X00254Y000635
Y000889
Y001143
Y001397
Y001651
Y001905
Y002159
Y002667
Y002921
Y003175
Y003429
Y003683
Y003937
Y004191
X003048Y00381
Y003556
Y003302
Y003048
Y002794
Y00254
Y002286
Y001905
X003302
X003556
X00381
Y002286
Y00254
Y002794
Y003048
Y003302
Y003556
Y00381
Y001397
Y001143
Y000889
Y000635
X003048
Y000889
Y001143
Y001397
X001778
Y001143
Y000889
Y000635
Y001651
Y001905
Y002159
Y002667
Y002921
Y003175
Y003429
Y003695
Y003945
Y004191
X00127Y003937
Y003683
Y003429
Y003175
Y002921
Y002667
Y002413
X000508
Y002667
Y002921
Y003175
Y003429
Y003683
Y003937
Y004445
X000762
X001016
X00127
Y004953
Y005207
Y005461
Y005715
Y005969
Y006223
Y006477
Y006731
Y007112
Y007366
X001016
Y007112
X000762
Y007366
X000508
Y007112
Y006731
Y006477
Y006231
Y005981
Y005715
Y005461
Y005207
Y004953
X001778
Y005207
Y005461
Y005715
Y005981
Y006231
Y006477
Y006731
Y007493
Y007747
Y008001
Y004445
X00254
X003048
Y004699
Y004953
Y005207
Y005461
Y005715
Y005969
Y006223
Y006477
Y006731
X00254
Y006477
Y006223
Y005969
Y005715
Y005461
Y005207
Y004953
X00381
Y005207
Y005461
Y005715
Y005969
Y006223
Y006477
Y006731
X00254Y007493
Y007747
Y008001
X00381Y004699
Y004445
X00254Y008255
Y008509
Y008763
Y009017
Y009271
Y009525
Y009779
Y010287
Y010541
Y010795
Y011049
Y011303
Y011557
Y011811
Y012065
X001778
Y011811
Y011557
Y011303
Y011049
Y010795
Y010541
Y010287
X00127
Y010541
Y010795
Y011049
Y011303
Y011557
Y011811
Y012065
X000508
Y011811
Y011557
Y011303
Y011049
Y010795
Y010541
Y010287
Y009779
Y009525
Y009271
Y009017
Y008763
Y008509
Y008255
X00127
Y008509
Y008763
Y009017
Y009271
Y009525
Y009779
X001778
Y009525
Y009271
Y009017
Y008763
Y008509
Y008255
Y012319
Y012573
X00127
Y012319
X000508
Y012573
X000889Y013208
Y013462
Y013716
Y01397
Y014224
Y014478
Y014732
Y014986
Y01524
Y015494
Y015748
Y016002
X000508Y014859
X000254
Y014351
X000508
X002413Y014478
Y014732
Y014986
Y01524
Y015494
Y015748
Y016002
X002921
Y015748
Y015502
Y015252
Y014986
Y014732
Y014478
Y014224
Y0137414
X003175
X003429
X003683
Y013462
Y013208
Y012954
X003429
Y013208
Y013462
X003175
Y013208
X002921
Y012954
X003175
X002921Y013462
X002413
Y013208
Y013716
Y01397
Y014224
X003683
Y014478
Y014732
Y014986
Y01524
Y015494
Y015748
Y016002
X00254Y012573
Y012319
X002794Y016637
X003048
X003429
X003683
X003048Y017145
X002794
Y018161
X003048
X003429
X003683
Y018669
X003429
X003048
X002794
T06
X00127Y0166624
Y0186624
M30
